  0
SECTION
  2
BLOCKS
  0
ENDSEC
  0
SECTION
  2
ENTITIES
  0
LINE
  8
0
 10
-137.026
 11
-137.026
 20
-28.38
 21
-28.18
  0
LINE
  8
0
 10
-137.026
 11
-137.025
 20
-28.18
 21
-28.08
  0
LINE
  8
0
 10
-137.025
 11
-137.021
 20
-28.08
 21
-27.88
  0
LINE
  8
0
 10
-137.021
 11
-137.019
 20
-27.88
 21
-27.78
  0
LINE
  8
0
 10
-137.019
 11
-137.01
 20
-27.78
 21
-27.48
  0
LINE
  8
0
 10
-137.01
 11
-137
 20
-27.48
 21
-27.281
  0
LINE
  8
0
 10
-137
 11
-136.988
 20
-27.281
 21
-27.081
  0
LINE
  8
0
 10
-136.988
 11
-136.982
 20
-27.081
 21
-26.982
  0
LINE
  8
0
 10
-136.982
 11
-136.968
 20
-26.982
 21
-26.782
  0
LINE
  8
0
 10
-136.968
 11
-136.96
 20
-26.782
 21
-26.683
  0
LINE
  8
0
 10
-136.96
 11
-136.943
 20
-26.683
 21
-26.484
  0
LINE
  8
0
 10
-136.943
 11
-136.934
 20
-26.484
 21
-26.384
  0
LINE
  8
0
 10
-136.934
 11
-136.914
 20
-26.384
 21
-26.185
  0
LINE
  8
0
 10
-136.914
 11
-136.903
 20
-26.185
 21
-26.085
  0
LINE
  8
0
 10
-136.903
 11
-136.867
 20
-26.085
 21
-25.787
  0
LINE
  8
0
 10
-136.867
 11
-136.854
 20
-25.787
 21
-25.688
  0
LINE
  8
0
 10
-136.854
 11
-136.827
 20
-25.688
 21
-25.491
  0
LINE
  8
0
 10
-136.827
 11
-136.813
 20
-25.491
 21
-25.391
  0
LINE
  8
0
 10
-136.813
 11
-136.783
 20
-25.391
 21
-25.194
  0
LINE
  8
0
 10
-136.783
 11
-136.767
 20
-25.194
 21
-25.095
  0
LINE
  8
0
 10
-136.767
 11
-136.734
 20
-25.095
 21
-24.898
  0
LINE
  8
0
 10
-136.734
 11
-136.699
 20
-24.898
 21
-24.701
  0
LINE
  8
0
 10
-136.699
 11
-136.681
 20
-24.701
 21
-24.602
  0
LINE
  8
0
 10
-136.681
 11
-136.643
 20
-24.602
 21
-24.406
  0
LINE
  8
0
 10
-136.643
 11
-136.623
 20
-24.406
 21
-24.308
  0
LINE
  8
0
 10
-136.623
 11
-136.581
 20
-24.308
 21
-24.112
  0
LINE
  8
0
 10
-136.581
 11
-136.539
 20
-24.112
 21
-23.918
  0
LINE
  8
0
 10
-136.539
 11
-136.517
 20
-23.918
 21
-23.82
  0
LINE
  8
0
 10
-136.517
 11
-136.494
 20
-23.82
 21
-23.722
  0
LINE
  8
0
 10
-136.494
 11
-136.448
 20
-23.722
 21
-23.528
  0
LINE
  8
0
 10
-136.448
 11
-136.399
 20
-23.528
 21
-23.335
  0
LINE
  8
0
 10
-136.399
 11
-136.348
 20
-23.335
 21
-23.141
  0
LINE
  8
0
 10
-136.348
 11
-136.322
 20
-23.141
 21
-23.044
  0
LINE
  8
0
 10
-136.322
 11
-136.268
 20
-23.044
 21
-22.851
  0
LINE
  8
0
 10
-136.268
 11
-136.241
 20
-22.851
 21
-22.756
  0
LINE
  8
0
 10
-136.241
 11
-136.213
 20
-22.756
 21
-22.659
  0
LINE
  8
0
 10
-136.213
 11
-136.126
 20
-22.659
 21
-22.372
  0
LINE
  8
0
 10
-136.126
 11
-136.066
 20
-22.372
 21
-22.182
  0
LINE
  8
0
 10
-136.066
 11
-136.035
 20
-22.182
 21
-22.087
  0
LINE
  8
0
 10
-136.035
 11
-136.003
 20
-22.087
 21
-21.992
  0
LINE
  8
0
 10
-136.003
 11
-135.971
 20
-21.992
 21
-21.897
  0
LINE
  8
0
 10
-135.971
 11
-135.907
 20
-21.897
 21
-21.708
  0
LINE
  8
0
 10
-135.907
 11
-135.874
 20
-21.708
 21
-21.614
  0
LINE
  8
0
 10
-135.874
 11
-135.806
 20
-21.614
 21
-21.425
  0
LINE
  8
0
 10
-135.806
 11
-135.771
 20
-21.425
 21
-21.331
  0
LINE
  8
0
 10
-135.771
 11
-135.736
 20
-21.331
 21
-21.238
  0
LINE
  8
0
 10
-135.736
 11
-135.664
 20
-21.238
 21
-21.051
  0
LINE
  8
0
 10
-135.664
 11
-135.591
 20
-21.051
 21
-20.866
  0
LINE
  8
0
 10
-135.591
 11
-135.478
 20
-20.866
 21
-20.588
  0
LINE
  8
0
 10
-135.478
 11
-135.36
 20
-20.588
 21
-20.312
  0
LINE
  8
0
 10
-135.36
 11
-135.278
 20
-20.312
 21
-20.129
  0
LINE
  8
0
 10
-135.278
 11
-135.196
 20
-20.129
 21
-19.948
  0
LINE
  8
0
 10
-135.196
 11
-135.154
 20
-19.948
 21
-19.856
  0
LINE
  8
0
 10
-135.154
 11
-135.112
 20
-19.856
 21
-19.766
  0
LINE
  8
0
 10
-135.112
 11
-135.069
 20
-19.766
 21
-19.676
  0
LINE
  8
0
 10
-135.069
 11
-134.981
 20
-19.676
 21
-19.496
  0
LINE
  8
0
 10
-134.981
 11
-134.893
 20
-19.496
 21
-19.317
  0
LINE
  8
0
 10
-134.893
 11
-134.756
 20
-19.317
 21
-19.05
  0
LINE
  8
0
 10
-134.756
 11
-134.662
 20
-19.05
 21
-18.872
  0
LINE
  8
0
 10
-134.662
 11
-134.567
 20
-18.872
 21
-18.697
  0
LINE
  8
0
 10
-134.567
 11
-134.518
 20
-18.697
 21
-18.609
  0
LINE
  8
0
 10
-134.518
 11
-134.47
 20
-18.609
 21
-18.523
  0
LINE
  8
0
 10
-134.47
 11
-134.421
 20
-18.523
 21
-18.436
  0
LINE
  8
0
 10
-134.421
 11
-134.371
 20
-18.436
 21
-18.349
  0
LINE
  8
0
 10
-134.371
 11
-134.321
 20
-18.349
 21
-18.262
  0
LINE
  8
0
 10
-134.321
 11
-51.345
 20
-18.262
 21
125.457
  0
LINE
  8
0
 10
-51.345
 11
-51.245
 20
125.457
 21
125.63
  0
LINE
  8
0
 10
-51.245
 11
-51.194
 20
125.63
 21
125.716
  0
LINE
  8
0
 10
-51.194
 11
-51.143
 20
125.716
 21
125.801
  0
LINE
  8
0
 10
-51.143
 11
-51.091
 20
125.801
 21
125.887
  0
LINE
  8
0
 10
-51.091
 11
-51.039
 20
125.887
 21
125.972
  0
LINE
  8
0
 10
-51.039
 11
-50.987
 20
125.972
 21
126.057
  0
LINE
  8
0
 10
-50.987
 11
-50.934
 20
126.057
 21
126.142
  0
LINE
  8
0
 10
-50.934
 11
-50.88
 20
126.142
 21
126.227
  0
LINE
  8
0
 10
-50.88
 11
-50.772
 20
126.227
 21
126.395
  0
LINE
  8
0
 10
-50.772
 11
-50.717
 20
126.395
 21
126.479
  0
LINE
  8
0
 10
-50.717
 11
-50.607
 20
126.479
 21
126.645
  0
LINE
  8
0
 10
-50.607
 11
-50.551
 20
126.645
 21
126.728
  0
LINE
  8
0
 10
-50.551
 11
-50.495
 20
126.728
 21
126.811
  0
LINE
  8
0
 10
-50.495
 11
-50.381
 20
126.811
 21
126.975
  0
LINE
  8
0
 10
-50.381
 11
-50.323
 20
126.975
 21
127.057
  0
LINE
  8
0
 10
-50.323
 11
-50.207
 20
127.057
 21
127.219
  0
LINE
  8
0
 10
-50.207
 11
-50.089
 20
127.219
 21
127.381
  0
LINE
  8
0
 10
-50.089
 11
-49.909
 20
127.381
 21
127.621
  0
LINE
  8
0
 10
-49.909
 11
-49.787
 20
127.621
 21
127.779
  0
LINE
  8
0
 10
-49.787
 11
-49.725
 20
127.779
 21
127.858
  0
LINE
  8
0
 10
-49.725
 11
-49.663
 20
127.858
 21
127.936
  0
LINE
  8
0
 10
-49.663
 11
-49.601
 20
127.936
 21
128.014
  0
LINE
  8
0
 10
-49.601
 11
-49.475
 20
128.014
 21
128.17
  0
LINE
  8
0
 10
-49.475
 11
-49.412
 20
128.17
 21
128.247
  0
LINE
  8
0
 10
-49.412
 11
-49.348
 20
128.247
 21
128.324
  0
LINE
  8
0
 10
-49.348
 11
-49.219
 20
128.324
 21
128.477
  0
LINE
  8
0
 10
-49.219
 11
-49.154
 20
128.477
 21
128.553
  0
LINE
  8
0
 10
-49.154
 11
-49.088
 20
128.553
 21
128.628
  0
LINE
  8
0
 10
-49.088
 11
-48.89
 20
128.628
 21
128.853
  0
LINE
  8
0
 10
-48.89
 11
-48.823
 20
128.853
 21
128.927
  0
LINE
  8
0
 10
-48.823
 11
-48.688
 20
128.927
 21
129.075
  0
LINE
  8
0
 10
-48.688
 11
-48.62
 20
129.075
 21
129.148
  0
LINE
  8
0
 10
-48.62
 11
-48.483
 20
129.148
 21
129.293
  0
LINE
  8
0
 10
-48.483
 11
-48.413
 20
129.293
 21
129.366
  0
LINE
  8
0
 10
-48.413
 11
-48.344
 20
129.366
 21
129.437
  0
LINE
  8
0
 10
-48.344
 11
-48.274
 20
129.437
 21
129.509
  0
LINE
  8
0
 10
-48.274
 11
-48.204
 20
129.509
 21
129.58
  0
LINE
  8
0
 10
-48.204
 11
-48.133
 20
129.58
 21
129.651
  0
LINE
  8
0
 10
-48.133
 11
-47.991
 20
129.651
 21
129.792
  0
LINE
  8
0
 10
-47.991
 11
-47.848
 20
129.792
 21
129.931
  0
LINE
  8
0
 10
-47.848
 11
-47.775
 20
129.931
 21
130
  0
LINE
  8
0
 10
-47.775
 11
-47.63
 20
130
 21
130.137
  0
LINE
  8
0
 10
-47.63
 11
-47.556
 20
130.137
 21
130.205
  0
LINE
  8
0
 10
-47.556
 11
-47.483
 20
130.205
 21
130.272
  0
LINE
  8
0
 10
-47.483
 11
-47.409
 20
130.272
 21
130.339
  0
LINE
  8
0
 10
-47.409
 11
-47.26
 20
130.339
 21
130.473
  0
LINE
  8
0
 10
-47.26
 11
-47.185
 20
130.473
 21
130.539
  0
LINE
  8
0
 10
-47.185
 11
-47.109
 20
130.539
 21
130.605
  0
LINE
  8
0
 10
-47.109
 11
-47.034
 20
130.605
 21
130.67
  0
LINE
  8
0
 10
-47.034
 11
-46.958
 20
130.67
 21
130.735
  0
LINE
  8
0
 10
-46.958
 11
-46.805
 20
130.735
 21
130.864
  0
LINE
  8
0
 10
-46.805
 11
-46.65
 20
130.864
 21
130.991
  0
LINE
  8
0
 10
-46.65
 11
-46.573
 20
130.991
 21
131.054
  0
LINE
  8
0
 10
-46.573
 11
-46.495
 20
131.054
 21
131.117
  0
LINE
  8
0
 10
-46.495
 11
-46.417
 20
131.117
 21
131.179
  0
LINE
  8
0
 10
-46.417
 11
-46.338
 20
131.179
 21
131.241
  0
LINE
  8
0
 10
-46.338
 11
-46.101
 20
131.241
 21
131.424
  0
LINE
  8
0
 10
-46.101
 11
-45.861
 20
131.424
 21
131.604
  0
LINE
  8
0
 10
-45.861
 11
-45.78
 20
131.604
 21
131.663
  0
LINE
  8
0
 10
-45.78
 11
-45.618
 20
131.663
 21
131.78
  0
LINE
  8
0
 10
-45.618
 11
-45.536
 20
131.78
 21
131.838
  0
LINE
  8
0
 10
-45.536
 11
-45.454
 20
131.838
 21
131.895
  0
LINE
  8
0
 10
-45.454
 11
-45.29
 20
131.895
 21
132.009
  0
LINE
  8
0
 10
-45.29
 11
-45.124
 20
132.009
 21
132.121
  0
LINE
  8
0
 10
-45.124
 11
-45.041
 20
132.121
 21
132.176
  0
LINE
  8
0
 10
-45.041
 11
-44.958
 20
132.176
 21
132.231
  0
LINE
  8
0
 10
-44.958
 11
-44.874
 20
132.231
 21
132.286
  0
LINE
  8
0
 10
-44.874
 11
-44.706
 20
132.286
 21
132.394
  0
LINE
  8
0
 10
-44.706
 11
-44.536
 20
132.394
 21
132.5
  0
LINE
  8
0
 10
-44.536
 11
-44.366
 20
132.5
 21
132.604
  0
LINE
  8
0
 10
-44.366
 11
-44.28
 20
132.604
 21
132.656
  0
LINE
  8
0
 10
-44.28
 11
-44.108
 20
132.656
 21
132.758
  0
LINE
  8
0
 10
-44.108
 11
-44.022
 20
132.758
 21
132.808
  0
LINE
  8
0
 10
-44.022
 11
-43.935
 20
132.808
 21
132.858
  0
LINE
  8
0
 10
-43.935
 11
-43.674
 20
132.858
 21
133.005
  0
LINE
  8
0
 10
-43.674
 11
-43.498
 20
133.005
 21
133.101
  0
LINE
  8
0
 10
-43.498
 11
-43.322
 20
133.101
 21
133.195
  0
LINE
  8
0
 10
-43.322
 11
-43.144
 20
133.195
 21
133.287
  0
LINE
  8
0
 10
-43.144
 11
-43.055
 20
133.287
 21
133.333
  0
LINE
  8
0
 10
-43.055
 11
-42.966
 20
133.333
 21
133.378
  0
LINE
  8
0
 10
-42.966
 11
-42.877
 20
133.378
 21
133.422
  0
LINE
  8
0
 10
-42.877
 11
-42.697
 20
133.422
 21
133.51
  0
LINE
  8
0
 10
-42.697
 11
-42.607
 20
133.51
 21
133.553
  0
LINE
  8
0
 10
-42.607
 11
-42.516
 20
133.553
 21
133.596
  0
LINE
  8
0
 10
-42.516
 11
-42.426
 20
133.596
 21
133.638
  0
LINE
  8
0
 10
-42.426
 11
-42.244
 20
133.638
 21
133.722
  0
LINE
  8
0
 10
-42.244
 11
-42.153
 20
133.722
 21
133.763
  0
LINE
  8
0
 10
-42.153
 11
-42.062
 20
133.763
 21
133.803
  0
LINE
  8
0
 10
-42.062
 11
-41.878
 20
133.803
 21
133.883
  0
LINE
  8
0
 10
-41.878
 11
-41.694
 20
133.883
 21
133.961
  0
LINE
  8
0
 10
-41.694
 11
-41.602
 20
133.961
 21
133.999
  0
LINE
  8
0
 10
-41.602
 11
-41.509
 20
133.999
 21
134.037
  0
LINE
  8
0
 10
-41.509
 11
-41.416
 20
134.037
 21
134.074
  0
LINE
  8
0
 10
-41.416
 11
-41.323
 20
134.074
 21
134.111
  0
LINE
  8
0
 10
-41.323
 11
-41.23
 20
134.111
 21
134.147
  0
LINE
  8
0
 10
-41.23
 11
-41.044
 20
134.147
 21
134.219
  0
LINE
  8
0
 10
-41.044
 11
-40.95
 20
134.219
 21
134.254
  0
LINE
  8
0
 10
-40.95
 11
-40.856
 20
134.254
 21
134.288
  0
LINE
  8
0
 10
-40.856
 11
-40.668
 20
134.288
 21
134.356
  0
LINE
  8
0
 10
-40.668
 11
-40.574
 20
134.356
 21
134.389
  0
LINE
  8
0
 10
-40.574
 11
-40.384
 20
134.389
 21
134.454
  0
LINE
  8
0
 10
-40.384
 11
-40.29
 20
134.454
 21
134.485
  0
LINE
  8
0
 10
-40.29
 11
-40.195
 20
134.485
 21
134.516
  0
LINE
  8
0
 10
-40.195
 11
-40.099
 20
134.516
 21
134.547
  0
LINE
  8
0
 10
-40.099
 11
-39.909
 20
134.547
 21
134.607
  0
LINE
  8
0
 10
-39.909
 11
-39.813
 20
134.607
 21
134.637
  0
LINE
  8
0
 10
-39.813
 11
-39.622
 20
134.637
 21
134.694
  0
LINE
  8
0
 10
-39.622
 11
-39.526
 20
134.694
 21
134.722
  0
LINE
  8
0
 10
-39.526
 11
-39.333
 20
134.722
 21
134.776
  0
LINE
  8
0
 10
-39.333
 11
-39.237
 20
134.776
 21
134.802
  0
LINE
  8
0
 10
-39.237
 11
-39.043
 20
134.802
 21
134.854
  0
LINE
  8
0
 10
-39.043
 11
-38.947
 20
134.854
 21
134.879
  0
LINE
  8
0
 10
-38.947
 11
-38.656
 20
134.879
 21
134.951
  0
LINE
  8
0
 10
-38.656
 11
-38.558
 20
134.951
 21
134.974
  0
LINE
  8
0
 10
-38.558
 11
-38.461
 20
134.974
 21
134.996
  0
LINE
  8
0
 10
-38.461
 11
-38.266
 20
134.996
 21
135.04
  0
LINE
  8
0
 10
-38.266
 11
-38.168
 20
135.04
 21
135.061
  0
LINE
  8
0
 10
-38.168
 11
-37.972
 20
135.061
 21
135.102
  0
LINE
  8
0
 10
-37.972
 11
-37.776
 20
135.102
 21
135.14
  0
LINE
  8
0
 10
-37.776
 11
-37.678
 20
135.14
 21
135.159
  0
LINE
  8
0
 10
-37.678
 11
-37.58
 20
135.159
 21
135.177
  0
LINE
  8
0
 10
-37.58
 11
-37.481
 20
135.177
 21
135.195
  0
LINE
  8
0
 10
-37.481
 11
-37.383
 20
135.195
 21
135.212
  0
LINE
  8
0
 10
-37.383
 11
-37.284
 20
135.212
 21
135.229
  0
LINE
  8
0
 10
-37.284
 11
-37.185
 20
135.229
 21
135.245
  0
LINE
  8
0
 10
-37.185
 11
-36.988
 20
135.245
 21
135.276
  0
LINE
  8
0
 10
-36.988
 11
-36.691
 20
135.276
 21
135.318
  0
LINE
  8
0
 10
-36.691
 11
-36.493
 20
135.318
 21
135.344
  0
LINE
  8
0
 10
-36.493
 11
-36.394
 20
135.344
 21
135.356
  0
LINE
  8
0
 10
-36.394
 11
-36.294
 20
135.356
 21
135.368
  0
LINE
  8
0
 10
-36.294
 11
-36.096
 20
135.368
 21
135.39
  0
LINE
  8
0
 10
-36.096
 11
-35.897
 20
135.39
 21
135.41
  0
LINE
  8
0
 10
-35.897
 11
-35.797
 20
135.41
 21
135.419
  0
LINE
  8
0
 10
-35.797
 11
-35.697
 20
135.419
 21
135.428
  0
LINE
  8
0
 10
-35.697
 11
-35.598
 20
135.428
 21
135.436
  0
LINE
  8
0
 10
-35.598
 11
-35.498
 20
135.436
 21
135.444
  0
LINE
  8
0
 10
-35.498
 11
-35.299
 20
135.444
 21
135.458
  0
LINE
  8
0
 10
-35.299
 11
-35.099
 20
135.458
 21
135.47
  0
LINE
  8
0
 10
-35.099
 11
-34.899
 20
135.47
 21
135.48
  0
LINE
  8
0
 10
-34.899
 11
-34.8
 20
135.48
 21
135.484
  0
LINE
  8
0
 10
-34.8
 11
-34.7
 20
135.484
 21
135.488
  0
LINE
  8
0
 10
-34.7
 11
-34.6
 20
135.488
 21
135.491
  0
LINE
  8
0
 10
-34.6
 11
-34.5
 20
135.491
 21
135.494
  0
LINE
  8
0
 10
-34.5
 11
-34.4
 20
135.494
 21
135.496
  0
LINE
  8
0
 10
-34.4
 11
-34.3
 20
135.496
 21
135.498
  0
LINE
  8
0
 10
-34.3
 11
-34.1
 20
135.498
 21
135.5
  0
LINE
  8
0
 10
-34.1
 11
34.1
 20
135.5
 21
135.5
  0
LINE
  8
0
 10
34.1
 11
34.3
 20
135.5
 21
135.498
  0
LINE
  8
0
 10
34.3
 11
34.4
 20
135.498
 21
135.496
  0
LINE
  8
0
 10
34.4
 11
34.5
 20
135.496
 21
135.494
  0
LINE
  8
0
 10
34.5
 11
34.6
 20
135.494
 21
135.491
  0
LINE
  8
0
 10
34.6
 11
34.7
 20
135.491
 21
135.488
  0
LINE
  8
0
 10
34.7
 11
34.8
 20
135.488
 21
135.484
  0
LINE
  8
0
 10
34.8
 11
34.899
 20
135.484
 21
135.48
  0
LINE
  8
0
 10
34.899
 11
35.099
 20
135.48
 21
135.47
  0
LINE
  8
0
 10
35.099
 11
35.299
 20
135.47
 21
135.458
  0
LINE
  8
0
 10
35.299
 11
35.498
 20
135.458
 21
135.444
  0
LINE
  8
0
 10
35.498
 11
35.598
 20
135.444
 21
135.436
  0
LINE
  8
0
 10
35.598
 11
35.697
 20
135.436
 21
135.428
  0
LINE
  8
0
 10
35.697
 11
35.797
 20
135.428
 21
135.419
  0
LINE
  8
0
 10
35.797
 11
35.897
 20
135.419
 21
135.41
  0
LINE
  8
0
 10
35.897
 11
36.096
 20
135.41
 21
135.39
  0
LINE
  8
0
 10
36.096
 11
36.294
 20
135.39
 21
135.368
  0
LINE
  8
0
 10
36.294
 11
36.394
 20
135.368
 21
135.356
  0
LINE
  8
0
 10
36.394
 11
36.493
 20
135.356
 21
135.344
  0
LINE
  8
0
 10
36.493
 11
36.691
 20
135.344
 21
135.318
  0
LINE
  8
0
 10
36.691
 11
36.988
 20
135.318
 21
135.276
  0
LINE
  8
0
 10
36.988
 11
37.185
 20
135.276
 21
135.245
  0
LINE
  8
0
 10
37.185
 11
37.284
 20
135.245
 21
135.229
  0
LINE
  8
0
 10
37.284
 11
37.383
 20
135.229
 21
135.212
  0
LINE
  8
0
 10
37.383
 11
37.481
 20
135.212
 21
135.195
  0
LINE
  8
0
 10
37.481
 11
37.58
 20
135.195
 21
135.177
  0
LINE
  8
0
 10
37.58
 11
37.678
 20
135.177
 21
135.159
  0
LINE
  8
0
 10
37.678
 11
37.776
 20
135.159
 21
135.14
  0
LINE
  8
0
 10
37.776
 11
37.972
 20
135.14
 21
135.102
  0
LINE
  8
0
 10
37.972
 11
38.168
 20
135.102
 21
135.061
  0
LINE
  8
0
 10
38.168
 11
38.266
 20
135.061
 21
135.04
  0
LINE
  8
0
 10
38.266
 11
38.461
 20
135.04
 21
134.996
  0
LINE
  8
0
 10
38.461
 11
38.558
 20
134.996
 21
134.974
  0
LINE
  8
0
 10
38.558
 11
38.656
 20
134.974
 21
134.951
  0
LINE
  8
0
 10
38.656
 11
38.947
 20
134.951
 21
134.879
  0
LINE
  8
0
 10
38.947
 11
39.043
 20
134.879
 21
134.854
  0
LINE
  8
0
 10
39.043
 11
39.237
 20
134.854
 21
134.802
  0
LINE
  8
0
 10
39.237
 11
39.333
 20
134.802
 21
134.776
  0
LINE
  8
0
 10
39.333
 11
39.526
 20
134.776
 21
134.722
  0
LINE
  8
0
 10
39.526
 11
39.622
 20
134.722
 21
134.694
  0
LINE
  8
0
 10
39.622
 11
39.813
 20
134.694
 21
134.637
  0
LINE
  8
0
 10
39.813
 11
39.909
 20
134.637
 21
134.607
  0
LINE
  8
0
 10
39.909
 11
40.099
 20
134.607
 21
134.547
  0
LINE
  8
0
 10
40.099
 11
40.195
 20
134.547
 21
134.516
  0
LINE
  8
0
 10
40.195
 11
40.29
 20
134.516
 21
134.485
  0
LINE
  8
0
 10
40.29
 11
40.384
 20
134.485
 21
134.454
  0
LINE
  8
0
 10
40.384
 11
40.574
 20
134.454
 21
134.389
  0
LINE
  8
0
 10
40.574
 11
40.668
 20
134.389
 21
134.356
  0
LINE
  8
0
 10
40.668
 11
40.856
 20
134.356
 21
134.288
  0
LINE
  8
0
 10
40.856
 11
40.95
 20
134.288
 21
134.254
  0
LINE
  8
0
 10
40.95
 11
41.044
 20
134.254
 21
134.219
  0
LINE
  8
0
 10
41.044
 11
41.23
 20
134.219
 21
134.147
  0
LINE
  8
0
 10
41.23
 11
41.323
 20
134.147
 21
134.111
  0
LINE
  8
0
 10
41.323
 11
41.416
 20
134.111
 21
134.074
  0
LINE
  8
0
 10
41.416
 11
41.509
 20
134.074
 21
134.037
  0
LINE
  8
0
 10
41.509
 11
41.602
 20
134.037
 21
133.999
  0
LINE
  8
0
 10
41.602
 11
41.694
 20
133.999
 21
133.961
  0
LINE
  8
0
 10
41.694
 11
41.878
 20
133.961
 21
133.883
  0
LINE
  8
0
 10
41.878
 11
42.062
 20
133.883
 21
133.803
  0
LINE
  8
0
 10
42.062
 11
42.153
 20
133.803
 21
133.763
  0
LINE
  8
0
 10
42.153
 11
42.244
 20
133.763
 21
133.722
  0
LINE
  8
0
 10
42.244
 11
42.426
 20
133.722
 21
133.638
  0
LINE
  8
0
 10
42.426
 11
42.516
 20
133.638
 21
133.596
  0
LINE
  8
0
 10
42.516
 11
42.607
 20
133.596
 21
133.553
  0
LINE
  8
0
 10
42.607
 11
42.697
 20
133.553
 21
133.51
  0
LINE
  8
0
 10
42.697
 11
42.877
 20
133.51
 21
133.422
  0
LINE
  8
0
 10
42.877
 11
42.966
 20
133.422
 21
133.378
  0
LINE
  8
0
 10
42.966
 11
43.055
 20
133.378
 21
133.333
  0
LINE
  8
0
 10
43.055
 11
43.144
 20
133.333
 21
133.287
  0
LINE
  8
0
 10
43.144
 11
43.322
 20
133.287
 21
133.195
  0
LINE
  8
0
 10
43.322
 11
43.498
 20
133.195
 21
133.101
  0
LINE
  8
0
 10
43.498
 11
43.674
 20
133.101
 21
133.005
  0
LINE
  8
0
 10
43.674
 11
43.935
 20
133.005
 21
132.858
  0
LINE
  8
0
 10
43.935
 11
44.022
 20
132.858
 21
132.808
  0
LINE
  8
0
 10
44.022
 11
44.108
 20
132.808
 21
132.758
  0
LINE
  8
0
 10
44.108
 11
44.28
 20
132.758
 21
132.656
  0
LINE
  8
0
 10
44.28
 11
44.366
 20
132.656
 21
132.604
  0
LINE
  8
0
 10
44.366
 11
44.536
 20
132.604
 21
132.5
  0
LINE
  8
0
 10
44.536
 11
44.706
 20
132.5
 21
132.394
  0
LINE
  8
0
 10
44.706
 11
44.874
 20
132.394
 21
132.286
  0
LINE
  8
0
 10
44.874
 11
44.958
 20
132.286
 21
132.231
  0
LINE
  8
0
 10
44.958
 11
45.041
 20
132.231
 21
132.176
  0
LINE
  8
0
 10
45.041
 11
45.124
 20
132.176
 21
132.121
  0
LINE
  8
0
 10
45.124
 11
45.29
 20
132.121
 21
132.009
  0
LINE
  8
0
 10
45.29
 11
45.454
 20
132.009
 21
131.895
  0
LINE
  8
0
 10
45.454
 11
45.536
 20
131.895
 21
131.838
  0
LINE
  8
0
 10
45.536
 11
45.618
 20
131.838
 21
131.78
  0
LINE
  8
0
 10
45.618
 11
45.78
 20
131.78
 21
131.663
  0
LINE
  8
0
 10
45.78
 11
45.861
 20
131.663
 21
131.604
  0
LINE
  8
0
 10
45.861
 11
46.101
 20
131.604
 21
131.424
  0
LINE
  8
0
 10
46.101
 11
46.338
 20
131.424
 21
131.241
  0
LINE
  8
0
 10
46.338
 11
46.417
 20
131.241
 21
131.179
  0
LINE
  8
0
 10
46.417
 11
46.495
 20
131.179
 21
131.117
  0
LINE
  8
0
 10
46.495
 11
46.573
 20
131.117
 21
131.054
  0
LINE
  8
0
 10
46.573
 11
46.65
 20
131.054
 21
130.991
  0
LINE
  8
0
 10
46.65
 11
46.805
 20
130.991
 21
130.864
  0
LINE
  8
0
 10
46.805
 11
46.958
 20
130.864
 21
130.735
  0
LINE
  8
0
 10
46.958
 11
47.034
 20
130.735
 21
130.67
  0
LINE
  8
0
 10
47.034
 11
47.109
 20
130.67
 21
130.605
  0
LINE
  8
0
 10
47.109
 11
47.185
 20
130.605
 21
130.539
  0
LINE
  8
0
 10
47.185
 11
47.26
 20
130.539
 21
130.473
  0
LINE
  8
0
 10
47.26
 11
47.409
 20
130.473
 21
130.339
  0
LINE
  8
0
 10
47.409
 11
47.483
 20
130.339
 21
130.272
  0
LINE
  8
0
 10
47.483
 11
47.556
 20
130.272
 21
130.205
  0
LINE
  8
0
 10
47.556
 11
47.63
 20
130.205
 21
130.137
  0
LINE
  8
0
 10
47.63
 11
47.775
 20
130.137
 21
130
  0
LINE
  8
0
 10
47.775
 11
47.848
 20
130
 21
129.931
  0
LINE
  8
0
 10
47.848
 11
47.991
 20
129.931
 21
129.792
  0
LINE
  8
0
 10
47.991
 11
48.133
 20
129.792
 21
129.651
  0
LINE
  8
0
 10
48.133
 11
48.204
 20
129.651
 21
129.58
  0
LINE
  8
0
 10
48.204
 11
48.274
 20
129.58
 21
129.509
  0
LINE
  8
0
 10
48.274
 11
48.344
 20
129.509
 21
129.437
  0
LINE
  8
0
 10
48.344
 11
48.413
 20
129.437
 21
129.366
  0
LINE
  8
0
 10
48.413
 11
48.483
 20
129.366
 21
129.293
  0
LINE
  8
0
 10
48.483
 11
48.62
 20
129.293
 21
129.148
  0
LINE
  8
0
 10
48.62
 11
48.688
 20
129.148
 21
129.075
  0
LINE
  8
0
 10
48.688
 11
48.823
 20
129.075
 21
128.927
  0
LINE
  8
0
 10
48.823
 11
48.89
 20
128.927
 21
128.853
  0
LINE
  8
0
 10
48.89
 11
49.088
 20
128.853
 21
128.628
  0
LINE
  8
0
 10
49.088
 11
49.154
 20
128.628
 21
128.553
  0
LINE
  8
0
 10
49.154
 11
49.219
 20
128.553
 21
128.477
  0
LINE
  8
0
 10
49.219
 11
49.348
 20
128.477
 21
128.324
  0
LINE
  8
0
 10
49.348
 11
49.412
 20
128.324
 21
128.247
  0
LINE
  8
0
 10
49.412
 11
49.475
 20
128.247
 21
128.17
  0
LINE
  8
0
 10
49.475
 11
49.601
 20
128.17
 21
128.014
  0
LINE
  8
0
 10
49.601
 11
49.663
 20
128.014
 21
127.936
  0
LINE
  8
0
 10
49.663
 11
49.725
 20
127.936
 21
127.858
  0
LINE
  8
0
 10
49.725
 11
49.787
 20
127.858
 21
127.779
  0
LINE
  8
0
 10
49.787
 11
49.909
 20
127.779
 21
127.621
  0
LINE
  8
0
 10
49.909
 11
50.089
 20
127.621
 21
127.381
  0
LINE
  8
0
 10
50.089
 11
50.207
 20
127.381
 21
127.219
  0
LINE
  8
0
 10
50.207
 11
50.323
 20
127.219
 21
127.057
  0
LINE
  8
0
 10
50.323
 11
50.381
 20
127.057
 21
126.975
  0
LINE
  8
0
 10
50.381
 11
50.495
 20
126.975
 21
126.811
  0
LINE
  8
0
 10
50.495
 11
50.551
 20
126.811
 21
126.728
  0
LINE
  8
0
 10
50.551
 11
50.607
 20
126.728
 21
126.645
  0
LINE
  8
0
 10
50.607
 11
50.717
 20
126.645
 21
126.479
  0
LINE
  8
0
 10
50.717
 11
50.772
 20
126.479
 21
126.395
  0
LINE
  8
0
 10
50.772
 11
50.88
 20
126.395
 21
126.227
  0
LINE
  8
0
 10
50.88
 11
50.934
 20
126.227
 21
126.142
  0
LINE
  8
0
 10
50.934
 11
50.987
 20
126.142
 21
126.057
  0
LINE
  8
0
 10
50.987
 11
51.039
 20
126.057
 21
125.972
  0
LINE
  8
0
 10
51.039
 11
51.091
 20
125.972
 21
125.887
  0
LINE
  8
0
 10
51.091
 11
51.143
 20
125.887
 21
125.801
  0
LINE
  8
0
 10
51.143
 11
51.194
 20
125.801
 21
125.716
  0
LINE
  8
0
 10
51.194
 11
51.245
 20
125.716
 21
125.63
  0
LINE
  8
0
 10
51.245
 11
51.345
 20
125.63
 21
125.457
  0
LINE
  8
0
 10
51.345
 11
134.321
 20
125.457
 21
-18.262
  0
LINE
  8
0
 10
134.321
 11
134.371
 20
-18.262
 21
-18.349
  0
LINE
  8
0
 10
134.371
 11
134.421
 20
-18.349
 21
-18.436
  0
LINE
  8
0
 10
134.421
 11
134.47
 20
-18.436
 21
-18.523
  0
LINE
  8
0
 10
134.47
 11
134.518
 20
-18.523
 21
-18.609
  0
LINE
  8
0
 10
134.518
 11
134.567
 20
-18.609
 21
-18.697
  0
LINE
  8
0
 10
134.567
 11
134.662
 20
-18.697
 21
-18.872
  0
LINE
  8
0
 10
134.662
 11
134.756
 20
-18.872
 21
-19.05
  0
LINE
  8
0
 10
134.756
 11
134.893
 20
-19.05
 21
-19.317
  0
LINE
  8
0
 10
134.893
 11
134.981
 20
-19.317
 21
-19.496
  0
LINE
  8
0
 10
134.981
 11
135.069
 20
-19.496
 21
-19.676
  0
LINE
  8
0
 10
135.069
 11
135.112
 20
-19.676
 21
-19.766
  0
LINE
  8
0
 10
135.112
 11
135.154
 20
-19.766
 21
-19.856
  0
LINE
  8
0
 10
135.154
 11
135.196
 20
-19.856
 21
-19.948
  0
LINE
  8
0
 10
135.196
 11
135.278
 20
-19.948
 21
-20.129
  0
LINE
  8
0
 10
135.278
 11
135.36
 20
-20.129
 21
-20.312
  0
LINE
  8
0
 10
135.36
 11
135.478
 20
-20.312
 21
-20.588
  0
LINE
  8
0
 10
135.478
 11
135.591
 20
-20.588
 21
-20.866
  0
LINE
  8
0
 10
135.591
 11
135.664
 20
-20.866
 21
-21.051
  0
LINE
  8
0
 10
135.664
 11
135.736
 20
-21.051
 21
-21.238
  0
LINE
  8
0
 10
135.736
 11
135.771
 20
-21.238
 21
-21.331
  0
LINE
  8
0
 10
135.771
 11
135.806
 20
-21.331
 21
-21.425
  0
LINE
  8
0
 10
135.806
 11
135.874
 20
-21.425
 21
-21.614
  0
LINE
  8
0
 10
135.874
 11
135.907
 20
-21.614
 21
-21.708
  0
LINE
  8
0
 10
135.907
 11
135.971
 20
-21.708
 21
-21.897
  0
LINE
  8
0
 10
135.971
 11
136.003
 20
-21.897
 21
-21.992
  0
LINE
  8
0
 10
136.003
 11
136.035
 20
-21.992
 21
-22.087
  0
LINE
  8
0
 10
136.035
 11
136.066
 20
-22.087
 21
-22.182
  0
LINE
  8
0
 10
136.066
 11
136.126
 20
-22.182
 21
-22.372
  0
LINE
  8
0
 10
136.126
 11
136.213
 20
-22.372
 21
-22.659
  0
LINE
  8
0
 10
136.213
 11
136.241
 20
-22.659
 21
-22.756
  0
LINE
  8
0
 10
136.241
 11
136.268
 20
-22.756
 21
-22.851
  0
LINE
  8
0
 10
136.268
 11
136.322
 20
-22.851
 21
-23.044
  0
LINE
  8
0
 10
136.322
 11
136.348
 20
-23.044
 21
-23.141
  0
LINE
  8
0
 10
136.348
 11
136.399
 20
-23.141
 21
-23.335
  0
LINE
  8
0
 10
136.399
 11
136.448
 20
-23.335
 21
-23.528
  0
LINE
  8
0
 10
136.448
 11
136.494
 20
-23.528
 21
-23.722
  0
LINE
  8
0
 10
136.494
 11
136.517
 20
-23.722
 21
-23.82
  0
LINE
  8
0
 10
136.517
 11
136.539
 20
-23.82
 21
-23.918
  0
LINE
  8
0
 10
136.539
 11
136.581
 20
-23.918
 21
-24.112
  0
LINE
  8
0
 10
136.581
 11
136.623
 20
-24.112
 21
-24.308
  0
LINE
  8
0
 10
136.623
 11
136.643
 20
-24.308
 21
-24.406
  0
LINE
  8
0
 10
136.643
 11
136.681
 20
-24.406
 21
-24.602
  0
LINE
  8
0
 10
136.681
 11
136.699
 20
-24.602
 21
-24.701
  0
LINE
  8
0
 10
136.699
 11
136.734
 20
-24.701
 21
-24.898
  0
LINE
  8
0
 10
136.734
 11
136.767
 20
-24.898
 21
-25.095
  0
LINE
  8
0
 10
136.767
 11
136.783
 20
-25.095
 21
-25.194
  0
LINE
  8
0
 10
136.783
 11
136.813
 20
-25.194
 21
-25.391
  0
LINE
  8
0
 10
136.813
 11
136.827
 20
-25.391
 21
-25.491
  0
LINE
  8
0
 10
136.827
 11
136.854
 20
-25.491
 21
-25.688
  0
LINE
  8
0
 10
136.854
 11
136.867
 20
-25.688
 21
-25.787
  0
LINE
  8
0
 10
136.867
 11
136.903
 20
-25.787
 21
-26.085
  0
LINE
  8
0
 10
136.903
 11
136.914
 20
-26.085
 21
-26.185
  0
LINE
  8
0
 10
136.914
 11
136.934
 20
-26.185
 21
-26.384
  0
LINE
  8
0
 10
136.934
 11
136.943
 20
-26.384
 21
-26.484
  0
LINE
  8
0
 10
136.943
 11
136.96
 20
-26.484
 21
-26.683
  0
LINE
  8
0
 10
136.96
 11
136.968
 20
-26.683
 21
-26.782
  0
LINE
  8
0
 10
136.968
 11
136.982
 20
-26.782
 21
-26.982
  0
LINE
  8
0
 10
136.982
 11
136.988
 20
-26.982
 21
-27.081
  0
LINE
  8
0
 10
136.988
 11
137
 20
-27.081
 21
-27.281
  0
LINE
  8
0
 10
137
 11
137.01
 20
-27.281
 21
-27.48
  0
LINE
  8
0
 10
137.01
 11
137.019
 20
-27.48
 21
-27.78
  0
LINE
  8
0
 10
137.019
 11
137.021
 20
-27.78
 21
-27.88
  0
LINE
  8
0
 10
137.021
 11
137.025
 20
-27.88
 21
-28.08
  0
LINE
  8
0
 10
137.025
 11
137.026
 20
-28.08
 21
-28.18
  0
LINE
  8
0
 10
137.026
 11
137.026
 20
-28.18
 21
-28.38
  0
LINE
  8
0
 10
137.026
 11
137.024
 20
-28.38
 21
-28.58
  0
LINE
  8
0
 10
137.024
 11
137.023
 20
-28.58
 21
-28.68
  0
LINE
  8
0
 10
137.023
 11
137.018
 20
-28.68
 21
-28.88
  0
LINE
  8
0
 10
137.018
 11
137.011
 20
-28.88
 21
-29.08
  0
LINE
  8
0
 10
137.011
 11
137.002
 20
-29.08
 21
-29.28
  0
LINE
  8
0
 10
137.002
 11
136.997
 20
-29.28
 21
-29.38
  0
LINE
  8
0
 10
136.997
 11
136.992
 20
-29.38
 21
-29.479
  0
LINE
  8
0
 10
136.992
 11
136.972
 20
-29.479
 21
-29.778
  0
LINE
  8
0
 10
136.972
 11
136.956
 20
-29.778
 21
-29.978
  0
LINE
  8
0
 10
136.956
 11
136.929
 20
-29.978
 21
-30.277
  0
LINE
  8
0
 10
136.929
 11
136.919
 20
-30.277
 21
-30.376
  0
LINE
  8
0
 10
136.919
 11
136.908
 20
-30.376
 21
-30.475
  0
LINE
  8
0
 10
136.908
 11
136.885
 20
-30.475
 21
-30.674
  0
LINE
  8
0
 10
136.885
 11
136.861
 20
-30.674
 21
-30.872
  0
LINE
  8
0
 10
136.861
 11
136.848
 20
-30.872
 21
-30.971
  0
LINE
  8
0
 10
136.848
 11
136.834
 20
-30.971
 21
-31.071
  0
LINE
  8
0
 10
136.834
 11
136.805
 20
-31.071
 21
-31.269
  0
LINE
  8
0
 10
136.805
 11
136.79
 20
-31.269
 21
-31.367
  0
LINE
  8
0
 10
136.79
 11
136.759
 20
-31.367
 21
-31.564
  0
LINE
  8
0
 10
136.759
 11
136.725
 20
-31.564
 21
-31.762
  0
LINE
  8
0
 10
136.725
 11
136.69
 20
-31.762
 21
-31.958
  0
LINE
  8
0
 10
136.69
 11
136.652
 20
-31.958
 21
-32.155
  0
LINE
  8
0
 10
136.652
 11
136.633
 20
-32.155
 21
-32.253
  0
LINE
  8
0
 10
136.633
 11
136.592
 20
-32.253
 21
-32.448
  0
LINE
  8
0
 10
136.592
 11
136.571
 20
-32.448
 21
-32.547
  0
LINE
  8
0
 10
136.571
 11
136.528
 20
-32.547
 21
-32.741
  0
LINE
  8
0
 10
136.528
 11
136.506
 20
-32.741
 21
-32.839
  0
LINE
  8
0
 10
136.506
 11
136.436
 20
-32.839
 21
-33.13
  0
LINE
  8
0
 10
136.436
 11
136.411
 20
-33.13
 21
-33.228
  0
LINE
  8
0
 10
136.411
 11
136.386
 20
-33.228
 21
-33.325
  0
LINE
  8
0
 10
136.386
 11
136.308
 20
-33.325
 21
-33.615
  0
LINE
  8
0
 10
136.308
 11
136.282
 20
-33.615
 21
-33.71
  0
LINE
  8
0
 10
136.282
 11
136.199
 20
-33.71
 21
-33.998
  0
LINE
  8
0
 10
136.199
 11
136.17
 20
-33.998
 21
-34.095
  0
LINE
  8
0
 10
136.17
 11
136.111
 20
-34.095
 21
-34.286
  0
LINE
  8
0
 10
136.111
 11
136.081
 20
-34.286
 21
-34.381
  0
LINE
  8
0
 10
136.081
 11
136.05
 20
-34.381
 21
-34.476
  0
LINE
  8
0
 10
136.05
 11
135.988
 20
-34.476
 21
-34.666
  0
LINE
  8
0
 10
135.988
 11
135.923
 20
-34.666
 21
-34.855
  0
LINE
  8
0
 10
135.923
 11
135.89
 20
-34.855
 21
-34.949
  0
LINE
  8
0
 10
135.89
 11
135.857
 20
-34.949
 21
-35.043
  0
LINE
  8
0
 10
135.857
 11
135.823
 20
-35.043
 21
-35.138
  0
LINE
  8
0
 10
135.823
 11
135.789
 20
-35.138
 21
-35.231
  0
LINE
  8
0
 10
135.789
 11
135.754
 20
-35.231
 21
-35.326
  0
LINE
  8
0
 10
135.754
 11
135.682
 20
-35.326
 21
-35.512
  0
LINE
  8
0
 10
135.682
 11
135.646
 20
-35.512
 21
-35.605
  0
LINE
  8
0
 10
135.646
 11
135.572
 20
-35.605
 21
-35.791
  0
LINE
  8
0
 10
135.572
 11
135.534
 20
-35.791
 21
-35.884
  0
LINE
  8
0
 10
135.534
 11
135.496
 20
-35.884
 21
-35.976
  0
LINE
  8
0
 10
135.496
 11
135.458
 20
-35.976
 21
-36.068
  0
LINE
  8
0
 10
135.458
 11
135.419
 20
-36.068
 21
-36.16
  0
LINE
  8
0
 10
135.419
 11
135.339
 20
-36.16
 21
-36.344
  0
LINE
  8
0
 10
135.339
 11
135.299
 20
-36.344
 21
-36.435
  0
LINE
  8
0
 10
135.299
 11
135.258
 20
-36.435
 21
-36.527
  0
LINE
  8
0
 10
135.258
 11
135.217
 20
-36.527
 21
-36.617
  0
LINE
  8
0
 10
135.217
 11
135.133
 20
-36.617
 21
-36.799
  0
LINE
  8
0
 10
135.133
 11
135.047
 20
-36.799
 21
-36.98
  0
LINE
  8
0
 10
135.047
 11
134.96
 20
-36.98
 21
-37.159
  0
LINE
  8
0
 10
134.96
 11
134.915
 20
-37.159
 21
-37.249
  0
LINE
  8
0
 10
134.915
 11
134.87
 20
-37.249
 21
-37.338
  0
LINE
  8
0
 10
134.87
 11
134.779
 20
-37.338
 21
-37.517
  0
LINE
  8
0
 10
134.779
 11
134.686
 20
-37.517
 21
-37.693
  0
LINE
  8
0
 10
134.686
 11
134.639
 20
-37.693
 21
-37.781
  0
LINE
  8
0
 10
134.639
 11
134.543
 20
-37.781
 21
-37.957
  0
LINE
  8
0
 10
134.543
 11
134.495
 20
-37.957
 21
-38.044
  0
LINE
  8
0
 10
134.495
 11
134.396
 20
-38.044
 21
-38.219
  0
LINE
  8
0
 10
134.396
 11
100.396
 20
-38.219
 21
-97.108
  0
LINE
  8
0
 10
100.396
 11
100.296
 20
-97.108
 21
-97.281
  0
LINE
  8
0
 10
100.296
 11
100.195
 20
-97.281
 21
-97.454
  0
LINE
  8
0
 10
100.195
 11
100.091
 20
-97.454
 21
-97.625
  0
LINE
  8
0
 10
100.091
 11
100.039
 20
-97.625
 21
-97.71
  0
LINE
  8
0
 10
100.039
 11
99.933
 20
-97.71
 21
-97.88
  0
LINE
  8
0
 10
99.933
 11
99.88
 20
-97.88
 21
-97.963
  0
LINE
  8
0
 10
99.88
 11
99.771
 20
-97.963
 21
-98.132
  0
LINE
  8
0
 10
99.771
 11
99.661
 20
-98.132
 21
-98.299
  0
LINE
  8
0
 10
99.661
 11
99.549
 20
-98.299
 21
-98.464
  0
LINE
  8
0
 10
99.549
 11
99.436
 20
-98.464
 21
-98.629
  0
LINE
  8
0
 10
99.436
 11
99.32
 20
-98.629
 21
-98.793
  0
LINE
  8
0
 10
99.32
 11
99.203
 20
-98.793
 21
-98.955
  0
LINE
  8
0
 10
99.203
 11
99.085
 20
-98.955
 21
-99.116
  0
LINE
  8
0
 10
99.085
 11
98.965
 20
-99.116
 21
-99.276
  0
LINE
  8
0
 10
98.965
 11
98.843
 20
-99.276
 21
-99.434
  0
LINE
  8
0
 10
98.843
 11
98.782
 20
-99.434
 21
-99.513
  0
LINE
  8
0
 10
98.782
 11
98.658
 20
-99.513
 21
-99.671
  0
LINE
  8
0
 10
98.658
 11
98.533
 20
-99.671
 21
-99.826
  0
LINE
  8
0
 10
98.533
 11
98.47
 20
-99.826
 21
-99.903
  0
LINE
  8
0
 10
98.47
 11
98.406
 20
-99.903
 21
-99.981
  0
LINE
  8
0
 10
98.406
 11
98.342
 20
-99.981
 21
-100.057
  0
LINE
  8
0
 10
98.342
 11
98.277
 20
-100.057
 21
-100.134
  0
LINE
  8
0
 10
98.277
 11
98.212
 20
-100.134
 21
-100.21
  0
LINE
  8
0
 10
98.212
 11
98.147
 20
-100.21
 21
-100.285
  0
LINE
  8
0
 10
98.147
 11
98.016
 20
-100.285
 21
-100.436
  0
LINE
  8
0
 10
98.016
 11
97.882
 20
-100.436
 21
-100.585
  0
LINE
  8
0
 10
97.882
 11
97.815
 20
-100.585
 21
-100.659
  0
LINE
  8
0
 10
97.815
 11
97.748
 20
-100.659
 21
-100.732
  0
LINE
  8
0
 10
97.748
 11
97.612
 20
-100.732
 21
-100.879
  0
LINE
  8
0
 10
97.612
 11
97.543
 20
-100.879
 21
-100.953
  0
LINE
  8
0
 10
97.543
 11
97.335
 20
-100.953
 21
-101.169
  0
LINE
  8
0
 10
97.335
 11
97.053
 20
-101.169
 21
-101.451
  0
LINE
  8
0
 10
97.053
 11
96.91
 20
-101.451
 21
-101.592
  0
LINE
  8
0
 10
96.91
 11
96.693
 20
-101.592
 21
-101.798
  0
LINE
  8
0
 10
96.693
 11
96.619
 20
-101.798
 21
-101.866
  0
LINE
  8
0
 10
96.619
 11
96.472
 20
-101.866
 21
-102
  0
LINE
  8
0
 10
96.472
 11
96.397
 20
-102
 21
-102.068
  0
LINE
  8
0
 10
96.397
 11
96.249
 20
-102.068
 21
-102.201
  0
LINE
  8
0
 10
96.249
 11
96.097
 20
-102.201
 21
-102.333
  0
LINE
  8
0
 10
96.097
 11
96.022
 20
-102.333
 21
-102.398
  0
LINE
  8
0
 10
96.022
 11
95.792
 20
-102.398
 21
-102.591
  0
LINE
  8
0
 10
95.792
 11
95.715
 20
-102.591
 21
-102.655
  0
LINE
  8
0
 10
95.715
 11
95.56
 20
-102.655
 21
-102.78
  0
LINE
  8
0
 10
95.56
 11
95.482
 20
-102.78
 21
-102.842
  0
LINE
  8
0
 10
95.482
 11
95.325
 20
-102.842
 21
-102.966
  0
LINE
  8
0
 10
95.325
 11
95.246
 20
-102.966
 21
-103.028
  0
LINE
  8
0
 10
95.246
 11
95.167
 20
-103.028
 21
-103.089
  0
LINE
  8
0
 10
95.167
 11
95.007
 20
-103.089
 21
-103.209
  0
LINE
  8
0
 10
95.007
 11
94.846
 20
-103.209
 21
-103.328
  0
LINE
  8
0
 10
94.846
 11
94.766
 20
-103.328
 21
-103.387
  0
LINE
  8
0
 10
94.766
 11
94.685
 20
-103.387
 21
-103.445
  0
LINE
  8
0
 10
94.685
 11
94.521
 20
-103.445
 21
-103.561
  0
LINE
  8
0
 10
94.521
 11
94.44
 20
-103.561
 21
-103.618
  0
LINE
  8
0
 10
94.44
 11
94.275
 20
-103.618
 21
-103.732
  0
LINE
  8
0
 10
94.275
 11
94.026
 20
-103.732
 21
-103.899
  0
LINE
  8
0
 10
94.026
 11
93.942
 20
-103.899
 21
-103.953
  0
LINE
  8
0
 10
93.942
 11
93.858
 20
-103.953
 21
-104.007
  0
LINE
  8
0
 10
93.858
 11
93.689
 20
-104.007
 21
-104.115
  0
LINE
  8
0
 10
93.689
 11
93.52
 20
-104.115
 21
-104.221
  0
LINE
  8
0
 10
93.52
 11
93.349
 20
-104.221
 21
-104.325
  0
LINE
  8
0
 10
93.349
 11
93.091
 20
-104.325
 21
-104.478
  0
LINE
  8
0
 10
93.091
 11
92.918
 20
-104.478
 21
-104.578
  0
LINE
  8
0
 10
92.918
 11
92.831
 20
-104.578
 21
-104.627
  0
LINE
  8
0
 10
92.831
 11
92.743
 20
-104.627
 21
-104.676
  0
LINE
  8
0
 10
92.743
 11
92.568
 20
-104.676
 21
-104.772
  0
LINE
  8
0
 10
92.568
 11
92.304
 20
-104.772
 21
-104.914
  0
LINE
  8
0
 10
92.304
 11
92.126
 20
-104.914
 21
-105.005
  0
LINE
  8
0
 10
92.126
 11
91.947
 20
-105.005
 21
-105.095
  0
LINE
  8
0
 10
91.947
 11
91.858
 20
-105.095
 21
-105.139
  0
LINE
  8
0
 10
91.858
 11
91.768
 20
-105.139
 21
-105.183
  0
LINE
  8
0
 10
91.768
 11
91.678
 20
-105.183
 21
-105.227
  0
LINE
  8
0
 10
91.678
 11
91.497
 20
-105.227
 21
-105.312
  0
LINE
  8
0
 10
91.497
 11
91.407
 20
-105.312
 21
-105.354
  0
LINE
  8
0
 10
91.407
 11
91.316
 20
-105.354
 21
-105.396
  0
LINE
  8
0
 10
91.316
 11
91.134
 20
-105.396
 21
-105.478
  0
LINE
  8
0
 10
91.134
 11
91.042
 20
-105.478
 21
-105.519
  0
LINE
  8
0
 10
91.042
 11
90.766
 20
-105.519
 21
-105.637
  0
LINE
  8
0
 10
90.766
 11
90.674
 20
-105.637
 21
-105.675
  0
LINE
  8
0
 10
90.674
 11
90.396
 20
-105.675
 21
-105.788
  0
LINE
  8
0
 10
90.396
 11
90.21
 20
-105.788
 21
-105.86
  0
LINE
  8
0
 10
90.21
 11
90.117
 20
-105.86
 21
-105.896
  0
LINE
  8
0
 10
90.117
 11
89.929
 20
-105.896
 21
-105.966
  0
LINE
  8
0
 10
89.929
 11
89.741
 20
-105.966
 21
-106.034
  0
LINE
  8
0
 10
89.741
 11
89.647
 20
-106.034
 21
-106.068
  0
LINE
  8
0
 10
89.647
 11
89.458
 20
-106.068
 21
-106.133
  0
LINE
  8
0
 10
89.458
 11
89.363
 20
-106.133
 21
-106.165
  0
LINE
  8
0
 10
89.363
 11
89.172
 20
-106.165
 21
-106.227
  0
LINE
  8
0
 10
89.172
 11
88.983
 20
-106.227
 21
-106.287
  0
LINE
  8
0
 10
88.983
 11
88.887
 20
-106.287
 21
-106.317
  0
LINE
  8
0
 10
88.887
 11
88.791
 20
-106.317
 21
-106.346
  0
LINE
  8
0
 10
88.791
 11
88.6
 20
-106.346
 21
-106.403
  0
LINE
  8
0
 10
88.6
 11
88.408
 20
-106.403
 21
-106.457
  0
LINE
  8
0
 10
88.408
 11
88.215
 20
-106.457
 21
-106.51
  0
LINE
  8
0
 10
88.215
 11
88.118
 20
-106.51
 21
-106.536
  0
LINE
  8
0
 10
88.118
 11
88.021
 20
-106.536
 21
-106.561
  0
LINE
  8
0
 10
88.021
 11
87.924
 20
-106.561
 21
-106.586
  0
LINE
  8
0
 10
87.924
 11
87.828
 20
-106.586
 21
-106.61
  0
LINE
  8
0
 10
87.828
 11
87.73
 20
-106.61
 21
-106.634
  0
LINE
  8
0
 10
87.73
 11
87.633
 20
-106.634
 21
-106.657
  0
LINE
  8
0
 10
87.633
 11
87.438
 20
-106.657
 21
-106.703
  0
LINE
  8
0
 10
87.438
 11
87.341
 20
-106.703
 21
-106.724
  0
LINE
  8
0
 10
87.341
 11
87.145
 20
-106.724
 21
-106.766
  0
LINE
  8
0
 10
87.145
 11
86.949
 20
-106.766
 21
-106.806
  0
LINE
  8
0
 10
86.949
 11
86.753
 20
-106.806
 21
-106.845
  0
LINE
  8
0
 10
86.753
 11
86.655
 20
-106.845
 21
-106.863
  0
LINE
  8
0
 10
86.655
 11
86.458
 20
-106.863
 21
-106.899
  0
LINE
  8
0
 10
86.458
 11
86.359
 20
-106.899
 21
-106.916
  0
LINE
  8
0
 10
86.359
 11
86.261
 20
-106.916
 21
-106.932
  0
LINE
  8
0
 10
86.261
 11
86.063
 20
-106.932
 21
-106.963
  0
LINE
  8
0
 10
86.063
 11
85.866
 20
-106.963
 21
-106.992
  0
LINE
  8
0
 10
85.866
 11
85.766
 20
-106.992
 21
-107.006
  0
LINE
  8
0
 10
85.766
 11
85.569
 20
-107.006
 21
-107.033
  0
LINE
  8
0
 10
85.569
 11
85.271
 20
-107.033
 21
-107.069
  0
LINE
  8
0
 10
85.271
 11
85.071
 20
-107.069
 21
-107.09
  0
LINE
  8
0
 10
85.071
 11
84.773
 20
-107.09
 21
-107.119
  0
LINE
  8
0
 10
84.773
 11
84.674
 20
-107.119
 21
-107.127
  0
LINE
  8
0
 10
84.674
 11
84.574
 20
-107.127
 21
-107.135
  0
LINE
  8
0
 10
84.574
 11
84.374
 20
-107.135
 21
-107.149
  0
LINE
  8
0
 10
84.374
 11
84.176
 20
-107.149
 21
-107.162
  0
LINE
  8
0
 10
84.176
 11
83.876
 20
-107.162
 21
-107.177
  0
LINE
  8
0
 10
83.876
 11
83.675
 20
-107.177
 21
-107.185
  0
LINE
  8
0
 10
83.675
 11
83.476
 20
-107.185
 21
-107.19
  0
LINE
  8
0
 10
83.476
 11
83.375
 20
-107.19
 21
-107.192
  0
LINE
  8
0
 10
83.375
 11
83.276
 20
-107.192
 21
-107.193
  0
LINE
  8
0
 10
83.276
 11
83.176
 20
-107.193
 21
-107.194
  0
LINE
  8
0
 10
83.176
 11
82.976
 20
-107.194
 21
-107.195
  0
LINE
  8
0
 10
82.976
 11
-82.976
 20
-107.195
 21
-107.195
  0
LINE
  8
0
 10
-82.976
 11
-83.176
 20
-107.195
 21
-107.194
  0
LINE
  8
0
 10
-83.176
 11
-83.276
 20
-107.194
 21
-107.193
  0
LINE
  8
0
 10
-83.276
 11
-83.375
 20
-107.193
 21
-107.192
  0
LINE
  8
0
 10
-83.375
 11
-83.476
 20
-107.192
 21
-107.19
  0
LINE
  8
0
 10
-83.476
 11
-83.675
 20
-107.19
 21
-107.185
  0
LINE
  8
0
 10
-83.675
 11
-83.876
 20
-107.185
 21
-107.177
  0
LINE
  8
0
 10
-83.876
 11
-84.176
 20
-107.177
 21
-107.162
  0
LINE
  8
0
 10
-84.176
 11
-84.374
 20
-107.162
 21
-107.149
  0
LINE
  8
0
 10
-84.374
 11
-84.574
 20
-107.149
 21
-107.135
  0
LINE
  8
0
 10
-84.574
 11
-84.674
 20
-107.135
 21
-107.127
  0
LINE
  8
0
 10
-84.674
 11
-84.773
 20
-107.127
 21
-107.119
  0
LINE
  8
0
 10
-84.773
 11
-85.071
 20
-107.119
 21
-107.09
  0
LINE
  8
0
 10
-85.071
 11
-85.271
 20
-107.09
 21
-107.069
  0
LINE
  8
0
 10
-85.271
 11
-85.569
 20
-107.069
 21
-107.033
  0
LINE
  8
0
 10
-85.569
 11
-85.766
 20
-107.033
 21
-107.006
  0
LINE
  8
0
 10
-85.766
 11
-85.866
 20
-107.006
 21
-106.992
  0
LINE
  8
0
 10
-85.866
 11
-86.063
 20
-106.992
 21
-106.963
  0
LINE
  8
0
 10
-86.063
 11
-86.261
 20
-106.963
 21
-106.932
  0
LINE
  8
0
 10
-86.261
 11
-86.359
 20
-106.932
 21
-106.916
  0
LINE
  8
0
 10
-86.359
 11
-86.458
 20
-106.916
 21
-106.899
  0
LINE
  8
0
 10
-86.458
 11
-86.655
 20
-106.899
 21
-106.863
  0
LINE
  8
0
 10
-86.655
 11
-86.753
 20
-106.863
 21
-106.845
  0
LINE
  8
0
 10
-86.753
 11
-86.949
 20
-106.845
 21
-106.806
  0
LINE
  8
0
 10
-86.949
 11
-87.145
 20
-106.806
 21
-106.766
  0
LINE
  8
0
 10
-87.145
 11
-87.341
 20
-106.766
 21
-106.724
  0
LINE
  8
0
 10
-87.341
 11
-87.438
 20
-106.724
 21
-106.703
  0
LINE
  8
0
 10
-87.438
 11
-87.633
 20
-106.703
 21
-106.657
  0
LINE
  8
0
 10
-87.633
 11
-87.73
 20
-106.657
 21
-106.634
  0
LINE
  8
0
 10
-87.73
 11
-87.828
 20
-106.634
 21
-106.61
  0
LINE
  8
0
 10
-87.828
 11
-87.924
 20
-106.61
 21
-106.586
  0
LINE
  8
0
 10
-87.924
 11
-88.021
 20
-106.586
 21
-106.561
  0
LINE
  8
0
 10
-88.021
 11
-88.118
 20
-106.561
 21
-106.536
  0
LINE
  8
0
 10
-88.118
 11
-88.215
 20
-106.536
 21
-106.51
  0
LINE
  8
0
 10
-88.215
 11
-88.408
 20
-106.51
 21
-106.457
  0
LINE
  8
0
 10
-88.408
 11
-88.6
 20
-106.457
 21
-106.403
  0
LINE
  8
0
 10
-88.6
 11
-88.791
 20
-106.403
 21
-106.346
  0
LINE
  8
0
 10
-88.791
 11
-88.887
 20
-106.346
 21
-106.317
  0
LINE
  8
0
 10
-88.887
 11
-88.983
 20
-106.317
 21
-106.287
  0
LINE
  8
0
 10
-88.983
 11
-89.172
 20
-106.287
 21
-106.227
  0
LINE
  8
0
 10
-89.172
 11
-89.363
 20
-106.227
 21
-106.165
  0
LINE
  8
0
 10
-89.363
 11
-89.458
 20
-106.165
 21
-106.133
  0
LINE
  8
0
 10
-89.458
 11
-89.647
 20
-106.133
 21
-106.068
  0
LINE
  8
0
 10
-89.647
 11
-89.741
 20
-106.068
 21
-106.034
  0
LINE
  8
0
 10
-89.741
 11
-89.929
 20
-106.034
 21
-105.966
  0
LINE
  8
0
 10
-89.929
 11
-90.117
 20
-105.966
 21
-105.896
  0
LINE
  8
0
 10
-90.117
 11
-90.21
 20
-105.896
 21
-105.86
  0
LINE
  8
0
 10
-90.21
 11
-90.396
 20
-105.86
 21
-105.788
  0
LINE
  8
0
 10
-90.396
 11
-90.674
 20
-105.788
 21
-105.675
  0
LINE
  8
0
 10
-90.674
 11
-90.766
 20
-105.675
 21
-105.637
  0
LINE
  8
0
 10
-90.766
 11
-91.042
 20
-105.637
 21
-105.519
  0
LINE
  8
0
 10
-91.042
 11
-91.134
 20
-105.519
 21
-105.478
  0
LINE
  8
0
 10
-91.134
 11
-91.316
 20
-105.478
 21
-105.396
  0
LINE
  8
0
 10
-91.316
 11
-91.407
 20
-105.396
 21
-105.354
  0
LINE
  8
0
 10
-91.407
 11
-91.497
 20
-105.354
 21
-105.312
  0
LINE
  8
0
 10
-91.497
 11
-91.678
 20
-105.312
 21
-105.227
  0
LINE
  8
0
 10
-91.678
 11
-91.768
 20
-105.227
 21
-105.183
  0
LINE
  8
0
 10
-91.768
 11
-91.858
 20
-105.183
 21
-105.139
  0
LINE
  8
0
 10
-91.858
 11
-91.947
 20
-105.139
 21
-105.095
  0
LINE
  8
0
 10
-91.947
 11
-92.126
 20
-105.095
 21
-105.005
  0
LINE
  8
0
 10
-92.126
 11
-92.304
 20
-105.005
 21
-104.914
  0
LINE
  8
0
 10
-92.304
 11
-92.568
 20
-104.914
 21
-104.772
  0
LINE
  8
0
 10
-92.568
 11
-92.743
 20
-104.772
 21
-104.676
  0
LINE
  8
0
 10
-92.743
 11
-92.831
 20
-104.676
 21
-104.627
  0
LINE
  8
0
 10
-92.831
 11
-92.918
 20
-104.627
 21
-104.578
  0
LINE
  8
0
 10
-92.918
 11
-93.091
 20
-104.578
 21
-104.478
  0
LINE
  8
0
 10
-93.091
 11
-93.349
 20
-104.478
 21
-104.325
  0
LINE
  8
0
 10
-93.349
 11
-93.52
 20
-104.325
 21
-104.221
  0
LINE
  8
0
 10
-93.52
 11
-93.689
 20
-104.221
 21
-104.115
  0
LINE
  8
0
 10
-93.689
 11
-93.858
 20
-104.115
 21
-104.007
  0
LINE
  8
0
 10
-93.858
 11
-93.942
 20
-104.007
 21
-103.953
  0
LINE
  8
0
 10
-93.942
 11
-94.026
 20
-103.953
 21
-103.899
  0
LINE
  8
0
 10
-94.026
 11
-94.275
 20
-103.899
 21
-103.732
  0
LINE
  8
0
 10
-94.275
 11
-94.44
 20
-103.732
 21
-103.618
  0
LINE
  8
0
 10
-94.44
 11
-94.521
 20
-103.618
 21
-103.561
  0
LINE
  8
0
 10
-94.521
 11
-94.685
 20
-103.561
 21
-103.445
  0
LINE
  8
0
 10
-94.685
 11
-94.766
 20
-103.445
 21
-103.387
  0
LINE
  8
0
 10
-94.766
 11
-94.846
 20
-103.387
 21
-103.328
  0
LINE
  8
0
 10
-94.846
 11
-95.007
 20
-103.328
 21
-103.209
  0
LINE
  8
0
 10
-95.007
 11
-95.167
 20
-103.209
 21
-103.089
  0
LINE
  8
0
 10
-95.167
 11
-95.246
 20
-103.089
 21
-103.028
  0
LINE
  8
0
 10
-95.246
 11
-95.325
 20
-103.028
 21
-102.966
  0
LINE
  8
0
 10
-95.325
 11
-95.482
 20
-102.966
 21
-102.842
  0
LINE
  8
0
 10
-95.482
 11
-95.56
 20
-102.842
 21
-102.78
  0
LINE
  8
0
 10
-95.56
 11
-95.715
 20
-102.78
 21
-102.655
  0
LINE
  8
0
 10
-95.715
 11
-95.792
 20
-102.655
 21
-102.591
  0
LINE
  8
0
 10
-95.792
 11
-96.022
 20
-102.591
 21
-102.398
  0
LINE
  8
0
 10
-96.022
 11
-96.097
 20
-102.398
 21
-102.333
  0
LINE
  8
0
 10
-96.097
 11
-96.249
 20
-102.333
 21
-102.201
  0
LINE
  8
0
 10
-96.249
 11
-96.397
 20
-102.201
 21
-102.068
  0
LINE
  8
0
 10
-96.397
 11
-96.472
 20
-102.068
 21
-102
  0
LINE
  8
0
 10
-96.472
 11
-96.619
 20
-102
 21
-101.866
  0
LINE
  8
0
 10
-96.619
 11
-96.693
 20
-101.866
 21
-101.798
  0
LINE
  8
0
 10
-96.693
 11
-96.91
 20
-101.798
 21
-101.592
  0
LINE
  8
0
 10
-96.91
 11
-97.053
 20
-101.592
 21
-101.451
  0
LINE
  8
0
 10
-97.053
 11
-97.335
 20
-101.451
 21
-101.169
  0
LINE
  8
0
 10
-97.335
 11
-97.543
 20
-101.169
 21
-100.953
  0
LINE
  8
0
 10
-97.543
 11
-97.612
 20
-100.953
 21
-100.879
  0
LINE
  8
0
 10
-97.612
 11
-97.748
 20
-100.879
 21
-100.732
  0
LINE
  8
0
 10
-97.748
 11
-97.815
 20
-100.732
 21
-100.659
  0
LINE
  8
0
 10
-97.815
 11
-97.882
 20
-100.659
 21
-100.585
  0
LINE
  8
0
 10
-97.882
 11
-98.016
 20
-100.585
 21
-100.436
  0
LINE
  8
0
 10
-98.016
 11
-98.147
 20
-100.436
 21
-100.285
  0
LINE
  8
0
 10
-98.147
 11
-98.212
 20
-100.285
 21
-100.21
  0
LINE
  8
0
 10
-98.212
 11
-98.277
 20
-100.21
 21
-100.134
  0
LINE
  8
0
 10
-98.277
 11
-98.342
 20
-100.134
 21
-100.057
  0
LINE
  8
0
 10
-98.342
 11
-98.406
 20
-100.057
 21
-99.981
  0
LINE
  8
0
 10
-98.406
 11
-98.47
 20
-99.981
 21
-99.903
  0
LINE
  8
0
 10
-98.47
 11
-98.533
 20
-99.903
 21
-99.826
  0
LINE
  8
0
 10
-98.533
 11
-98.658
 20
-99.826
 21
-99.671
  0
LINE
  8
0
 10
-98.658
 11
-98.782
 20
-99.671
 21
-99.513
  0
LINE
  8
0
 10
-98.782
 11
-98.843
 20
-99.513
 21
-99.434
  0
LINE
  8
0
 10
-98.843
 11
-98.965
 20
-99.434
 21
-99.276
  0
LINE
  8
0
 10
-98.965
 11
-99.085
 20
-99.276
 21
-99.116
  0
LINE
  8
0
 10
-99.085
 11
-99.203
 20
-99.116
 21
-98.955
  0
LINE
  8
0
 10
-99.203
 11
-99.32
 20
-98.955
 21
-98.793
  0
LINE
  8
0
 10
-99.32
 11
-99.436
 20
-98.793
 21
-98.629
  0
LINE
  8
0
 10
-99.436
 11
-99.549
 20
-98.629
 21
-98.464
  0
LINE
  8
0
 10
-99.549
 11
-99.661
 20
-98.464
 21
-98.299
  0
LINE
  8
0
 10
-99.661
 11
-99.771
 20
-98.299
 21
-98.132
  0
LINE
  8
0
 10
-99.771
 11
-99.88
 20
-98.132
 21
-97.963
  0
LINE
  8
0
 10
-99.88
 11
-99.933
 20
-97.963
 21
-97.88
  0
LINE
  8
0
 10
-99.933
 11
-100.039
 20
-97.88
 21
-97.71
  0
LINE
  8
0
 10
-100.039
 11
-100.091
 20
-97.71
 21
-97.625
  0
LINE
  8
0
 10
-100.091
 11
-100.195
 20
-97.625
 21
-97.454
  0
LINE
  8
0
 10
-100.195
 11
-100.296
 20
-97.454
 21
-97.281
  0
LINE
  8
0
 10
-100.296
 11
-100.396
 20
-97.281
 21
-97.108
  0
LINE
  8
0
 10
-100.396
 11
-134.396
 20
-97.108
 21
-38.219
  0
LINE
  8
0
 10
-134.396
 11
-134.495
 20
-38.219
 21
-38.044
  0
LINE
  8
0
 10
-134.495
 11
-134.543
 20
-38.044
 21
-37.957
  0
LINE
  8
0
 10
-134.543
 11
-134.639
 20
-37.957
 21
-37.781
  0
LINE
  8
0
 10
-134.639
 11
-134.686
 20
-37.781
 21
-37.693
  0
LINE
  8
0
 10
-134.686
 11
-134.779
 20
-37.693
 21
-37.517
  0
LINE
  8
0
 10
-134.779
 11
-134.87
 20
-37.517
 21
-37.338
  0
LINE
  8
0
 10
-134.87
 11
-134.915
 20
-37.338
 21
-37.249
  0
LINE
  8
0
 10
-134.915
 11
-134.96
 20
-37.249
 21
-37.159
  0
LINE
  8
0
 10
-134.96
 11
-135.047
 20
-37.159
 21
-36.98
  0
LINE
  8
0
 10
-135.047
 11
-135.133
 20
-36.98
 21
-36.799
  0
LINE
  8
0
 10
-135.133
 11
-135.217
 20
-36.799
 21
-36.617
  0
LINE
  8
0
 10
-135.217
 11
-135.258
 20
-36.617
 21
-36.527
  0
LINE
  8
0
 10
-135.258
 11
-135.299
 20
-36.527
 21
-36.435
  0
LINE
  8
0
 10
-135.299
 11
-135.339
 20
-36.435
 21
-36.344
  0
LINE
  8
0
 10
-135.339
 11
-135.419
 20
-36.344
 21
-36.16
  0
LINE
  8
0
 10
-135.419
 11
-135.458
 20
-36.16
 21
-36.068
  0
LINE
  8
0
 10
-135.458
 11
-135.496
 20
-36.068
 21
-35.976
  0
LINE
  8
0
 10
-135.496
 11
-135.534
 20
-35.976
 21
-35.884
  0
LINE
  8
0
 10
-135.534
 11
-135.572
 20
-35.884
 21
-35.791
  0
LINE
  8
0
 10
-135.572
 11
-135.646
 20
-35.791
 21
-35.605
  0
LINE
  8
0
 10
-135.646
 11
-135.682
 20
-35.605
 21
-35.512
  0
LINE
  8
0
 10
-135.682
 11
-135.754
 20
-35.512
 21
-35.326
  0
LINE
  8
0
 10
-135.754
 11
-135.789
 20
-35.326
 21
-35.231
  0
LINE
  8
0
 10
-135.789
 11
-135.823
 20
-35.231
 21
-35.138
  0
LINE
  8
0
 10
-135.823
 11
-135.857
 20
-35.138
 21
-35.043
  0
LINE
  8
0
 10
-135.857
 11
-135.89
 20
-35.043
 21
-34.949
  0
LINE
  8
0
 10
-135.89
 11
-135.923
 20
-34.949
 21
-34.855
  0
LINE
  8
0
 10
-135.923
 11
-135.988
 20
-34.855
 21
-34.666
  0
LINE
  8
0
 10
-135.988
 11
-136.05
 20
-34.666
 21
-34.476
  0
LINE
  8
0
 10
-136.05
 11
-136.081
 20
-34.476
 21
-34.381
  0
LINE
  8
0
 10
-136.081
 11
-136.111
 20
-34.381
 21
-34.286
  0
LINE
  8
0
 10
-136.111
 11
-136.17
 20
-34.286
 21
-34.095
  0
LINE
  8
0
 10
-136.17
 11
-136.199
 20
-34.095
 21
-33.998
  0
LINE
  8
0
 10
-136.199
 11
-136.282
 20
-33.998
 21
-33.71
  0
LINE
  8
0
 10
-136.282
 11
-136.308
 20
-33.71
 21
-33.615
  0
LINE
  8
0
 10
-136.308
 11
-136.386
 20
-33.615
 21
-33.325
  0
LINE
  8
0
 10
-136.386
 11
-136.411
 20
-33.325
 21
-33.228
  0
LINE
  8
0
 10
-136.411
 11
-136.436
 20
-33.228
 21
-33.13
  0
LINE
  8
0
 10
-136.436
 11
-136.506
 20
-33.13
 21
-32.839
  0
LINE
  8
0
 10
-136.506
 11
-136.528
 20
-32.839
 21
-32.741
  0
LINE
  8
0
 10
-136.528
 11
-136.571
 20
-32.741
 21
-32.547
  0
LINE
  8
0
 10
-136.571
 11
-136.592
 20
-32.547
 21
-32.448
  0
LINE
  8
0
 10
-136.592
 11
-136.633
 20
-32.448
 21
-32.253
  0
LINE
  8
0
 10
-136.633
 11
-136.652
 20
-32.253
 21
-32.155
  0
LINE
  8
0
 10
-136.652
 11
-136.69
 20
-32.155
 21
-31.958
  0
LINE
  8
0
 10
-136.69
 11
-136.725
 20
-31.958
 21
-31.762
  0
LINE
  8
0
 10
-136.725
 11
-136.759
 20
-31.762
 21
-31.564
  0
LINE
  8
0
 10
-136.759
 11
-136.79
 20
-31.564
 21
-31.367
  0
LINE
  8
0
 10
-136.79
 11
-136.805
 20
-31.367
 21
-31.269
  0
LINE
  8
0
 10
-136.805
 11
-136.834
 20
-31.269
 21
-31.071
  0
LINE
  8
0
 10
-136.834
 11
-136.848
 20
-31.071
 21
-30.971
  0
LINE
  8
0
 10
-136.848
 11
-136.861
 20
-30.971
 21
-30.872
  0
LINE
  8
0
 10
-136.861
 11
-136.885
 20
-30.872
 21
-30.674
  0
LINE
  8
0
 10
-136.885
 11
-136.908
 20
-30.674
 21
-30.475
  0
LINE
  8
0
 10
-136.908
 11
-136.919
 20
-30.475
 21
-30.376
  0
LINE
  8
0
 10
-136.919
 11
-136.929
 20
-30.376
 21
-30.277
  0
LINE
  8
0
 10
-136.929
 11
-136.956
 20
-30.277
 21
-29.978
  0
LINE
  8
0
 10
-136.956
 11
-136.972
 20
-29.978
 21
-29.778
  0
LINE
  8
0
 10
-136.972
 11
-136.992
 20
-29.778
 21
-29.479
  0
LINE
  8
0
 10
-136.992
 11
-136.997
 20
-29.479
 21
-29.38
  0
LINE
  8
0
 10
-136.997
 11
-137.002
 20
-29.38
 21
-29.28
  0
LINE
  8
0
 10
-137.002
 11
-137.011
 20
-29.28
 21
-29.08
  0
LINE
  8
0
 10
-137.011
 11
-137.018
 20
-29.08
 21
-28.88
  0
LINE
  8
0
 10
-137.018
 11
-137.023
 20
-28.88
 21
-28.68
  0
LINE
  8
0
 10
-137.023
 11
-137.024
 20
-28.68
 21
-28.58
  0
LINE
  8
0
 10
-137.024
 11
-137.026
 20
-28.58
 21
-28.38
  0
LINE
  8
0
 10
-127.668
 11
-127.665
 20
-37.753
 21
-37.653
  0
LINE
  8
0
 10
-127.665
 11
-127.658
 20
-37.653
 21
-37.554
  0
LINE
  8
0
 10
-127.658
 11
-127.646
 20
-37.554
 21
-37.455
  0
LINE
  8
0
 10
-127.646
 11
-127.63
 20
-37.455
 21
-37.357
  0
LINE
  8
0
 10
-127.63
 11
-127.61
 20
-37.357
 21
-37.26
  0
LINE
  8
0
 10
-127.61
 11
-127.584
 20
-37.26
 21
-37.163
  0
LINE
  8
0
 10
-127.584
 11
-127.557
 20
-37.163
 21
-37.067
  0
LINE
  8
0
 10
-127.557
 11
-127.523
 20
-37.067
 21
-36.974
  0
LINE
  8
0
 10
-127.523
 11
-127.486
 20
-36.974
 21
-36.881
  0
LINE
  8
0
 10
-127.486
 11
-127.445
 20
-36.881
 21
-36.791
  0
LINE
  8
0
 10
-127.445
 11
-127.399
 20
-36.791
 21
-36.702
  0
LINE
  8
0
 10
-127.399
 11
-127.35
 20
-36.702
 21
-36.615
  0
LINE
  8
0
 10
-127.35
 11
-127.297
 20
-36.615
 21
-36.532
  0
LINE
  8
0
 10
-127.297
 11
-127.24
 20
-36.532
 21
-36.449
  0
LINE
  8
0
 10
-127.24
 11
-127.18
 20
-36.449
 21
-36.37
  0
LINE
  8
0
 10
-127.18
 11
-127.117
 20
-36.37
 21
-36.294
  0
LINE
  8
0
 10
-127.117
 11
-127.05
 20
-36.294
 21
-36.219
  0
LINE
  8
0
 10
-127.05
 11
-126.98
 20
-36.219
 21
-36.149
  0
LINE
  8
0
 10
-126.98
 11
-126.907
 20
-36.149
 21
-36.081
  0
LINE
  8
0
 10
-126.907
 11
-126.83
 20
-36.081
 21
-36.018
  0
LINE
  8
0
 10
-126.83
 11
-126.751
 20
-36.018
 21
-35.957
  0
LINE
  8
0
 10
-126.751
 11
-126.67
 20
-35.957
 21
-35.9
  0
LINE
  8
0
 10
-126.67
 11
-126.586
 20
-35.9
 21
-35.847
  0
LINE
  8
0
 10
-126.586
 11
-126.499
 20
-35.847
 21
-35.797
  0
LINE
  8
0
 10
-126.499
 11
-126.412
 20
-35.797
 21
-35.751
  0
LINE
  8
0
 10
-126.412
 11
-126.321
 20
-35.751
 21
-35.709
  0
LINE
  8
0
 10
-126.321
 11
-126.229
 20
-35.709
 21
-35.671
  0
LINE
  8
0
 10
-126.229
 11
-126.136
 20
-35.671
 21
-35.636
  0
LINE
  8
0
 10
-126.136
 11
-126.041
 20
-35.636
 21
-35.607
  0
LINE
  8
0
 10
-126.041
 11
-125.945
 20
-35.607
 21
-35.581
  0
LINE
  8
0
 10
-125.945
 11
-125.847
 20
-35.581
 21
-35.561
  0
LINE
  8
0
 10
-125.847
 11
-125.749
 20
-35.561
 21
-35.544
  0
LINE
  8
0
 10
-125.749
 11
-125.65
 20
-35.544
 21
-35.531
  0
LINE
  8
0
 10
-125.65
 11
-125.551
 20
-35.531
 21
-35.524
  0
LINE
  8
0
 10
-125.551
 11
-125.452
 20
-35.524
 21
-35.519
  0
LINE
  8
0
 10
-125.452
 11
-125.352
 20
-35.519
 21
-35.52
  0
LINE
  8
0
 10
-125.352
 11
-125.252
 20
-35.52
 21
-35.525
  0
LINE
  8
0
 10
-125.252
 11
-125.153
 20
-35.525
 21
-35.534
  0
LINE
  8
0
 10
-125.153
 11
-125.055
 20
-35.534
 21
-35.549
  0
LINE
  8
0
 10
-125.055
 11
-124.957
 20
-35.549
 21
-35.566
  0
LINE
  8
0
 10
-124.957
 11
-124.86
 20
-35.566
 21
-35.59
  0
LINE
  8
0
 10
-124.86
 11
-124.764
 20
-35.59
 21
-35.617
  0
LINE
  8
0
 10
-124.764
 11
-124.67
 20
-35.617
 21
-35.648
  0
LINE
  8
0
 10
-124.67
 11
-124.577
 20
-35.648
 21
-35.683
  0
LINE
  8
0
 10
-124.577
 11
-124.485
 20
-35.683
 21
-35.722
  0
LINE
  8
0
 10
-124.485
 11
-124.395
 20
-35.722
 21
-35.765
  0
LINE
  8
0
 10
-124.395
 11
-124.308
 20
-35.765
 21
-35.813
  0
LINE
  8
0
 10
-124.308
 11
-124.222
 20
-35.813
 21
-35.864
  0
LINE
  8
0
 10
-124.222
 11
-124.139
 20
-35.864
 21
-35.919
  0
LINE
  8
0
 10
-124.139
 11
-124.059
 20
-35.919
 21
-35.976
  0
LINE
  8
0
 10
-124.059
 11
-123.981
 20
-35.976
 21
-36.039
  0
LINE
  8
0
 10
-123.981
 11
-123.905
 20
-36.039
 21
-36.104
  0
LINE
  8
0
 10
-123.905
 11
-123.833
 20
-36.104
 21
-36.173
  0
LINE
  8
0
 10
-123.833
 11
-123.764
 20
-36.173
 21
-36.244
  0
LINE
  8
0
 10
-123.764
 11
-123.698
 20
-36.244
 21
-36.319
  0
LINE
  8
0
 10
-123.698
 11
-123.636
 20
-36.319
 21
-36.396
  0
LINE
  8
0
 10
-123.636
 11
-123.577
 20
-36.396
 21
-36.476
  0
LINE
  8
0
 10
-123.577
 11
-123.521
 20
-36.476
 21
-36.559
  0
LINE
  8
0
 10
-123.521
 11
-123.47
 20
-36.559
 21
-36.644
  0
LINE
  8
0
 10
-123.47
 11
-123.421
 20
-36.644
 21
-36.732
  0
LINE
  8
0
 10
-123.421
 11
-123.378
 20
-36.732
 21
-36.821
  0
LINE
  8
0
 10
-123.378
 11
-123.338
 20
-36.821
 21
-36.912
  0
LINE
  8
0
 10
-123.338
 11
-123.302
 20
-36.912
 21
-37.005
  0
LINE
  8
0
 10
-123.302
 11
-123.27
 20
-37.005
 21
-37.1
  0
LINE
  8
0
 10
-123.27
 11
-123.243
 20
-37.1
 21
-37.195
  0
LINE
  8
0
 10
-123.243
 11
-123.219
 20
-37.195
 21
-37.292
  0
LINE
  8
0
 10
-123.219
 11
-123.201
 20
-37.292
 21
-37.39
  0
LINE
  8
0
 10
-123.201
 11
-123.186
 20
-37.39
 21
-37.488
  0
LINE
  8
0
 10
-123.186
 11
-123.176
 20
-37.488
 21
-37.587
  0
LINE
  8
0
 10
-123.176
 11
-123.17
 20
-37.587
 21
-37.686
  0
LINE
  8
0
 10
-123.17
 11
-123.169
 20
-37.686
 21
-37.786
  0
LINE
  8
0
 10
-123.169
 11
-123.171
 20
-37.786
 21
-37.885
  0
LINE
  8
0
 10
-123.171
 11
-123.179
 20
-37.885
 21
-37.984
  0
LINE
  8
0
 10
-123.179
 11
-123.191
 20
-37.984
 21
-38.084
  0
LINE
  8
0
 10
-123.191
 11
-123.207
 20
-38.084
 21
-38.182
  0
LINE
  8
0
 10
-123.207
 11
-123.227
 20
-38.182
 21
-38.279
  0
LINE
  8
0
 10
-123.227
 11
-123.252
 20
-38.279
 21
-38.375
  0
LINE
  8
0
 10
-123.252
 11
-123.28
 20
-38.375
 21
-38.471
  0
LINE
  8
0
 10
-123.28
 11
-123.314
 20
-38.471
 21
-38.564
  0
LINE
  8
0
 10
-123.314
 11
-123.35
 20
-38.564
 21
-38.657
  0
LINE
  8
0
 10
-123.35
 11
-123.392
 20
-38.657
 21
-38.747
  0
LINE
  8
0
 10
-123.392
 11
-123.437
 20
-38.747
 21
-38.837
  0
LINE
  8
0
 10
-123.437
 11
-123.487
 20
-38.837
 21
-38.923
  0
LINE
  8
0
 10
-123.487
 11
-123.54
 20
-38.923
 21
-39.007
  0
LINE
  8
0
 10
-123.54
 11
-123.596
 20
-39.007
 21
-39.089
  0
LINE
  8
0
 10
-123.596
 11
-123.656
 20
-39.089
 21
-39.169
  0
LINE
  8
0
 10
-123.656
 11
-123.72
 20
-39.169
 21
-39.245
  0
LINE
  8
0
 10
-123.72
 11
-123.787
 20
-39.245
 21
-39.319
  0
LINE
  8
0
 10
-123.787
 11
-123.857
 20
-39.319
 21
-39.39
  0
LINE
  8
0
 10
-123.857
 11
-123.93
 20
-39.39
 21
-39.457
  0
LINE
  8
0
 10
-123.93
 11
-124.006
 20
-39.457
 21
-39.521
  0
LINE
  8
0
 10
-124.006
 11
-124.085
 20
-39.521
 21
-39.582
  0
LINE
  8
0
 10
-124.085
 11
-124.167
 20
-39.582
 21
-39.639
  0
LINE
  8
0
 10
-124.167
 11
-124.25
 20
-39.639
 21
-39.692
  0
LINE
  8
0
 10
-124.25
 11
-124.337
 20
-39.692
 21
-39.742
  0
LINE
  8
0
 10
-124.337
 11
-124.425
 20
-39.742
 21
-39.788
  0
LINE
  8
0
 10
-124.425
 11
-124.515
 20
-39.788
 21
-39.83
  0
LINE
  8
0
 10
-124.515
 11
-124.607
 20
-39.83
 21
-39.868
  0
LINE
  8
0
 10
-124.607
 11
-124.701
 20
-39.868
 21
-39.902
  0
LINE
  8
0
 10
-124.701
 11
-124.796
 20
-39.902
 21
-39.932
  0
LINE
  8
0
 10
-124.796
 11
-124.892
 20
-39.932
 21
-39.957
  0
LINE
  8
0
 10
-124.892
 11
-124.99
 20
-39.957
 21
-39.978
  0
LINE
  8
0
 10
-124.99
 11
-125.087
 20
-39.978
 21
-39.995
  0
LINE
  8
0
 10
-125.087
 11
-125.186
 20
-39.995
 21
-40.007
  0
LINE
  8
0
 10
-125.186
 11
-125.286
 20
-40.007
 21
-40.015
  0
LINE
  8
0
 10
-125.286
 11
-125.385
 20
-40.015
 21
-40.019
  0
LINE
  8
0
 10
-125.385
 11
-125.484
 20
-40.019
 21
-40.019
  0
LINE
  8
0
 10
-125.484
 11
-125.585
 20
-40.019
 21
-40.013
  0
LINE
  8
0
 10
-125.585
 11
-125.683
 20
-40.013
 21
-40.004
  0
LINE
  8
0
 10
-125.683
 11
-125.782
 20
-40.004
 21
-39.989
  0
LINE
  8
0
 10
-125.782
 11
-125.88
 20
-39.989
 21
-39.972
  0
LINE
  8
0
 10
-125.88
 11
-125.976
 20
-39.972
 21
-39.948
  0
LINE
  8
0
 10
-125.976
 11
-126.073
 20
-39.948
 21
-39.922
  0
LINE
  8
0
 10
-126.073
 11
-126.167
 20
-39.922
 21
-39.891
  0
LINE
  8
0
 10
-126.167
 11
-126.26
 20
-39.891
 21
-39.856
  0
LINE
  8
0
 10
-126.26
 11
-126.352
 20
-39.856
 21
-39.816
  0
LINE
  8
0
 10
-126.352
 11
-126.441
 20
-39.816
 21
-39.773
  0
LINE
  8
0
 10
-126.441
 11
-126.529
 20
-39.773
 21
-39.726
  0
LINE
  8
0
 10
-126.529
 11
-126.615
 20
-39.726
 21
-39.675
  0
LINE
  8
0
 10
-126.615
 11
-126.697
 20
-39.675
 21
-39.62
  0
LINE
  8
0
 10
-126.697
 11
-126.778
 20
-39.62
 21
-39.562
  0
LINE
  8
0
 10
-126.778
 11
-126.856
 20
-39.562
 21
-39.5
  0
LINE
  8
0
 10
-126.856
 11
-126.931
 20
-39.5
 21
-39.435
  0
LINE
  8
0
 10
-126.931
 11
-127.003
 20
-39.435
 21
-39.366
  0
LINE
  8
0
 10
-127.003
 11
-127.072
 20
-39.366
 21
-39.295
  0
LINE
  8
0
 10
-127.072
 11
-127.138
 20
-39.295
 21
-39.22
  0
LINE
  8
0
 10
-127.138
 11
-127.2
 20
-39.22
 21
-39.142
  0
LINE
  8
0
 10
-127.2
 11
-127.26
 20
-39.142
 21
-39.062
  0
LINE
  8
0
 10
-127.26
 11
-127.315
 20
-39.062
 21
-38.98
  0
LINE
  8
0
 10
-127.315
 11
-127.367
 20
-38.98
 21
-38.894
  0
LINE
  8
0
 10
-127.367
 11
-127.415
 20
-38.894
 21
-38.807
  0
LINE
  8
0
 10
-127.415
 11
-127.459
 20
-38.807
 21
-38.717
  0
LINE
  8
0
 10
-127.459
 11
-127.498
 20
-38.717
 21
-38.626
  0
LINE
  8
0
 10
-127.498
 11
-127.534
 20
-38.626
 21
-38.534
  0
LINE
  8
0
 10
-127.534
 11
-127.566
 20
-38.534
 21
-38.439
  0
LINE
  8
0
 10
-127.566
 11
-127.593
 20
-38.439
 21
-38.344
  0
LINE
  8
0
 10
-127.593
 11
-127.617
 20
-38.344
 21
-38.247
  0
LINE
  8
0
 10
-127.617
 11
-127.636
 20
-38.247
 21
-38.149
  0
LINE
  8
0
 10
-127.636
 11
-127.651
 20
-38.149
 21
-38.05
  0
LINE
  8
0
 10
-127.651
 11
-127.66
 20
-38.05
 21
-37.952
  0
LINE
  8
0
 10
-127.66
 11
-127.667
 20
-37.952
 21
-37.853
  0
LINE
  8
0
 10
-127.667
 11
-127.668
 20
-37.853
 21
-37.753
  0
LINE
  8
0
 10
-97.668
 11
-97.665
 20
-89.714
 21
-89.615
  0
LINE
  8
0
 10
-97.665
 11
-97.658
 20
-89.615
 21
-89.516
  0
LINE
  8
0
 10
-97.658
 11
-97.646
 20
-89.516
 21
-89.416
  0
LINE
  8
0
 10
-97.646
 11
-97.63
 20
-89.416
 21
-89.318
  0
LINE
  8
0
 10
-97.63
 11
-97.61
 20
-89.318
 21
-89.221
  0
LINE
  8
0
 10
-97.61
 11
-97.584
 20
-89.221
 21
-89.125
  0
LINE
  8
0
 10
-97.584
 11
-97.557
 20
-89.125
 21
-89.029
  0
LINE
  8
0
 10
-97.557
 11
-97.523
 20
-89.029
 21
-88.936
  0
LINE
  8
0
 10
-97.523
 11
-97.486
 20
-88.936
 21
-88.843
  0
LINE
  8
0
 10
-97.486
 11
-97.445
 20
-88.843
 21
-88.753
  0
LINE
  8
0
 10
-97.445
 11
-97.399
 20
-88.753
 21
-88.663
  0
LINE
  8
0
 10
-97.399
 11
-97.35
 20
-88.663
 21
-88.577
  0
LINE
  8
0
 10
-97.35
 11
-97.297
 20
-88.577
 21
-88.493
  0
LINE
  8
0
 10
-97.297
 11
-97.24
 20
-88.493
 21
-88.411
  0
LINE
  8
0
 10
-97.24
 11
-97.18
 20
-88.411
 21
-88.331
  0
LINE
  8
0
 10
-97.18
 11
-97.117
 20
-88.331
 21
-88.255
  0
LINE
  8
0
 10
-97.117
 11
-97.05
 20
-88.255
 21
-88.181
  0
LINE
  8
0
 10
-97.05
 11
-96.98
 20
-88.181
 21
-88.11
  0
LINE
  8
0
 10
-96.98
 11
-96.907
 20
-88.11
 21
-88.043
  0
LINE
  8
0
 10
-96.907
 11
-96.83
 20
-88.043
 21
-87.979
  0
LINE
  8
0
 10
-96.83
 11
-96.751
 20
-87.979
 21
-87.918
  0
LINE
  8
0
 10
-96.751
 11
-96.67
 20
-87.918
 21
-87.861
  0
LINE
  8
0
 10
-96.67
 11
-96.586
 20
-87.861
 21
-87.808
  0
LINE
  8
0
 10
-96.586
 11
-96.499
 20
-87.808
 21
-87.758
  0
LINE
  8
0
 10
-96.499
 11
-96.412
 20
-87.758
 21
-87.712
  0
LINE
  8
0
 10
-96.412
 11
-96.321
 20
-87.712
 21
-87.67
  0
LINE
  8
0
 10
-96.321
 11
-96.229
 20
-87.67
 21
-87.632
  0
LINE
  8
0
 10
-96.229
 11
-96.136
 20
-87.632
 21
-87.598
  0
LINE
  8
0
 10
-96.136
 11
-96.041
 20
-87.598
 21
-87.568
  0
LINE
  8
0
 10
-96.041
 11
-95.945
 20
-87.568
 21
-87.543
  0
LINE
  8
0
 10
-95.945
 11
-95.847
 20
-87.543
 21
-87.522
  0
LINE
  8
0
 10
-95.847
 11
-95.749
 20
-87.522
 21
-87.505
  0
LINE
  8
0
 10
-95.749
 11
-95.65
 20
-87.505
 21
-87.493
  0
LINE
  8
0
 10
-95.65
 11
-95.551
 20
-87.493
 21
-87.485
  0
LINE
  8
0
 10
-95.551
 11
-95.452
 20
-87.485
 21
-87.481
  0
LINE
  8
0
 10
-95.452
 11
-95.352
 20
-87.481
 21
-87.481
  0
LINE
  8
0
 10
-95.352
 11
-95.252
 20
-87.481
 21
-87.487
  0
LINE
  8
0
 10
-95.252
 11
-95.153
 20
-87.487
 21
-87.496
  0
LINE
  8
0
 10
-95.153
 11
-95.055
 20
-87.496
 21
-87.511
  0
LINE
  8
0
 10
-95.055
 11
-94.957
 20
-87.511
 21
-87.528
  0
LINE
  8
0
 10
-94.957
 11
-94.86
 20
-87.528
 21
-87.552
  0
LINE
  8
0
 10
-94.86
 11
-94.764
 20
-87.552
 21
-87.578
  0
LINE
  8
0
 10
-94.764
 11
-94.67
 20
-87.578
 21
-87.609
  0
LINE
  8
0
 10
-94.67
 11
-94.577
 20
-87.609
 21
-87.644
  0
LINE
  8
0
 10
-94.577
 11
-94.485
 20
-87.644
 21
-87.684
  0
LINE
  8
0
 10
-94.485
 11
-94.395
 20
-87.684
 21
-87.727
  0
LINE
  8
0
 10
-94.395
 11
-94.308
 20
-87.727
 21
-87.774
  0
LINE
  8
0
 10
-94.308
 11
-94.222
 20
-87.774
 21
-87.825
  0
LINE
  8
0
 10
-94.222
 11
-94.139
 20
-87.825
 21
-87.88
  0
LINE
  8
0
 10
-94.139
 11
-94.059
 20
-87.88
 21
-87.938
  0
LINE
  8
0
 10
-94.059
 11
-93.981
 20
-87.938
 21
-88
  0
LINE
  8
0
 10
-93.981
 11
-93.905
 20
-88
 21
-88.065
  0
LINE
  8
0
 10
-93.905
 11
-93.833
 20
-88.065
 21
-88.134
  0
LINE
  8
0
 10
-93.833
 11
-93.764
 20
-88.134
 21
-88.205
  0
LINE
  8
0
 10
-93.764
 11
-93.698
 20
-88.205
 21
-88.28
  0
LINE
  8
0
 10
-93.698
 11
-93.636
 20
-88.28
 21
-88.358
  0
LINE
  8
0
 10
-93.636
 11
-93.577
 20
-88.358
 21
-88.438
  0
LINE
  8
0
 10
-93.577
 11
-93.521
 20
-88.438
 21
-88.52
  0
LINE
  8
0
 10
-93.521
 11
-93.47
 20
-88.52
 21
-88.606
  0
LINE
  8
0
 10
-93.47
 11
-93.421
 20
-88.606
 21
-88.693
  0
LINE
  8
0
 10
-93.421
 11
-93.378
 20
-88.693
 21
-88.783
  0
LINE
  8
0
 10
-93.378
 11
-93.338
 20
-88.783
 21
-88.874
  0
LINE
  8
0
 10
-93.338
 11
-93.302
 20
-88.874
 21
-88.966
  0
LINE
  8
0
 10
-93.302
 11
-93.27
 20
-88.966
 21
-89.061
  0
LINE
  8
0
 10
-93.27
 11
-93.243
 20
-89.061
 21
-89.156
  0
LINE
  8
0
 10
-93.243
 11
-93.219
 20
-89.156
 21
-89.253
  0
LINE
  8
0
 10
-93.219
 11
-93.201
 20
-89.253
 21
-89.351
  0
LINE
  8
0
 10
-93.201
 11
-93.186
 20
-89.351
 21
-89.45
  0
LINE
  8
0
 10
-93.186
 11
-93.176
 20
-89.45
 21
-89.548
  0
LINE
  8
0
 10
-93.176
 11
-93.17
 20
-89.548
 21
-89.647
  0
LINE
  8
0
 10
-93.17
 11
-93.169
 20
-89.647
 21
-89.747
  0
LINE
  8
0
 10
-93.169
 11
-93.171
 20
-89.747
 21
-89.847
  0
LINE
  8
0
 10
-93.171
 11
-93.179
 20
-89.847
 21
-89.946
  0
LINE
  8
0
 10
-93.179
 11
-93.191
 20
-89.946
 21
-90.045
  0
LINE
  8
0
 10
-93.191
 11
-93.207
 20
-90.045
 21
-90.143
  0
LINE
  8
0
 10
-93.207
 11
-93.227
 20
-90.143
 21
-90.24
  0
LINE
  8
0
 10
-93.227
 11
-93.252
 20
-90.24
 21
-90.337
  0
LINE
  8
0
 10
-93.252
 11
-93.28
 20
-90.337
 21
-90.433
  0
LINE
  8
0
 10
-93.28
 11
-93.314
 20
-90.433
 21
-90.526
  0
LINE
  8
0
 10
-93.314
 11
-93.35
 20
-90.526
 21
-90.619
  0
LINE
  8
0
 10
-93.35
 11
-93.392
 20
-90.619
 21
-90.709
  0
LINE
  8
0
 10
-93.392
 11
-93.437
 20
-90.709
 21
-90.798
  0
LINE
  8
0
 10
-93.437
 11
-93.487
 20
-90.798
 21
-90.885
  0
LINE
  8
0
 10
-93.487
 11
-93.54
 20
-90.885
 21
-90.968
  0
LINE
  8
0
 10
-93.54
 11
-93.596
 20
-90.968
 21
-91.051
  0
LINE
  8
0
 10
-93.596
 11
-93.656
 20
-91.051
 21
-91.13
  0
LINE
  8
0
 10
-93.656
 11
-93.72
 20
-91.13
 21
-91.206
  0
LINE
  8
0
 10
-93.72
 11
-93.787
 20
-91.206
 21
-91.281
  0
LINE
  8
0
 10
-93.787
 11
-93.857
 20
-91.281
 21
-91.351
  0
LINE
  8
0
 10
-93.857
 11
-93.93
 20
-91.351
 21
-91.419
  0
LINE
  8
0
 10
-93.93
 11
-94.006
 20
-91.419
 21
-91.482
  0
LINE
  8
0
 10
-94.006
 11
-94.085
 20
-91.482
 21
-91.543
  0
LINE
  8
0
 10
-94.085
 11
-94.167
 20
-91.543
 21
-91.6
  0
LINE
  8
0
 10
-94.167
 11
-94.25
 20
-91.6
 21
-91.653
  0
LINE
  8
0
 10
-94.25
 11
-94.337
 20
-91.653
 21
-91.703
  0
LINE
  8
0
 10
-94.337
 11
-94.425
 20
-91.703
 21
-91.749
  0
LINE
  8
0
 10
-94.425
 11
-94.515
 20
-91.749
 21
-91.791
  0
LINE
  8
0
 10
-94.515
 11
-94.607
 20
-91.791
 21
-91.829
  0
LINE
  8
0
 10
-94.607
 11
-94.701
 20
-91.829
 21
-91.864
  0
LINE
  8
0
 10
-94.701
 11
-94.796
 20
-91.864
 21
-91.893
  0
LINE
  8
0
 10
-94.796
 11
-94.892
 20
-91.893
 21
-91.919
  0
LINE
  8
0
 10
-94.892
 11
-94.99
 20
-91.919
 21
-91.939
  0
LINE
  8
0
 10
-94.99
 11
-95.087
 20
-91.939
 21
-91.956
  0
LINE
  8
0
 10
-95.087
 11
-95.186
 20
-91.956
 21
-91.969
  0
LINE
  8
0
 10
-95.186
 11
-95.286
 20
-91.969
 21
-91.976
  0
LINE
  8
0
 10
-95.286
 11
-95.385
 20
-91.976
 21
-91.981
  0
LINE
  8
0
 10
-95.385
 11
-95.484
 20
-91.981
 21
-91.98
  0
LINE
  8
0
 10
-95.484
 11
-95.585
 20
-91.98
 21
-91.975
  0
LINE
  8
0
 10
-95.585
 11
-95.683
 20
-91.975
 21
-91.966
  0
LINE
  8
0
 10
-95.683
 11
-95.782
 20
-91.966
 21
-91.951
  0
LINE
  8
0
 10
-95.782
 11
-95.88
 20
-91.951
 21
-91.934
  0
LINE
  8
0
 10
-95.88
 11
-95.976
 20
-91.934
 21
-91.91
  0
LINE
  8
0
 10
-95.976
 11
-96.073
 20
-91.91
 21
-91.883
  0
LINE
  8
0
 10
-96.073
 11
-96.167
 20
-91.883
 21
-91.852
  0
LINE
  8
0
 10
-96.167
 11
-96.26
 20
-91.852
 21
-91.817
  0
LINE
  8
0
 10
-96.26
 11
-96.352
 20
-91.817
 21
-91.778
  0
LINE
  8
0
 10
-96.352
 11
-96.441
 20
-91.778
 21
-91.735
  0
LINE
  8
0
 10
-96.441
 11
-96.529
 20
-91.735
 21
-91.687
  0
LINE
  8
0
 10
-96.529
 11
-96.615
 20
-91.687
 21
-91.636
  0
LINE
  8
0
 10
-96.615
 11
-96.697
 20
-91.636
 21
-91.581
  0
LINE
  8
0
 10
-96.697
 11
-96.778
 20
-91.581
 21
-91.524
  0
LINE
  8
0
 10
-96.778
 11
-96.856
 20
-91.524
 21
-91.461
  0
LINE
  8
0
 10
-96.856
 11
-96.931
 20
-91.461
 21
-91.396
  0
LINE
  8
0
 10
-96.931
 11
-97.003
 20
-91.396
 21
-91.327
  0
LINE
  8
0
 10
-97.003
 11
-97.072
 20
-91.327
 21
-91.256
  0
LINE
  8
0
 10
-97.072
 11
-97.138
 20
-91.256
 21
-91.181
  0
LINE
  8
0
 10
-97.138
 11
-97.2
 20
-91.181
 21
-91.104
  0
LINE
  8
0
 10
-97.2
 11
-97.26
 20
-91.104
 21
-91.024
  0
LINE
  8
0
 10
-97.26
 11
-97.315
 20
-91.024
 21
-90.941
  0
LINE
  8
0
 10
-97.315
 11
-97.367
 20
-90.941
 21
-90.856
  0
LINE
  8
0
 10
-97.367
 11
-97.415
 20
-90.856
 21
-90.768
  0
LINE
  8
0
 10
-97.415
 11
-97.459
 20
-90.768
 21
-90.679
  0
LINE
  8
0
 10
-97.459
 11
-97.498
 20
-90.679
 21
-90.588
  0
LINE
  8
0
 10
-97.498
 11
-97.534
 20
-90.588
 21
-90.495
  0
LINE
  8
0
 10
-97.534
 11
-97.566
 20
-90.495
 21
-90.4
  0
LINE
  8
0
 10
-97.566
 11
-97.593
 20
-90.4
 21
-90.305
  0
LINE
  8
0
 10
-97.593
 11
-97.617
 20
-90.305
 21
-90.208
  0
LINE
  8
0
 10
-97.617
 11
-97.636
 20
-90.208
 21
-90.11
  0
LINE
  8
0
 10
-97.636
 11
-97.651
 20
-90.11
 21
-90.012
  0
LINE
  8
0
 10
-97.651
 11
-97.66
 20
-90.012
 21
-89.913
  0
LINE
  8
0
 10
-97.66
 11
-97.667
 20
-89.913
 21
-89.814
  0
LINE
  8
0
 10
-97.667
 11
-97.668
 20
-89.814
 21
-89.714
  0
LINE
  8
0
 10
-63.164
 11
-63.164
 20
-72.807
 21
-72.707
  0
LINE
  8
0
 10
-63.164
 11
-63.158
 20
-72.707
 21
-72.607
  0
LINE
  8
0
 10
-63.158
 11
-63.148
 20
-72.607
 21
-72.508
  0
LINE
  8
0
 10
-63.148
 11
-63.133
 20
-72.508
 21
-72.409
  0
LINE
  8
0
 10
-63.133
 11
-63.113
 20
-72.409
 21
-72.311
  0
LINE
  8
0
 10
-63.113
 11
-63.088
 20
-72.311
 21
-72.214
  0
LINE
  8
0
 10
-63.088
 11
-63.06
 20
-72.214
 21
-72.118
  0
LINE
  8
0
 10
-63.06
 11
-63.027
 20
-72.118
 21
-72.025
  0
LINE
  8
0
 10
-63.027
 11
-62.989
 20
-72.025
 21
-71.933
  0
LINE
  8
0
 10
-62.989
 11
-62.946
 20
-71.933
 21
-71.841
  0
LINE
  8
0
 10
-62.946
 11
-62.9
 20
-71.841
 21
-71.753
  0
LINE
  8
0
 10
-62.9
 11
-62.85
 20
-71.753
 21
-71.667
  0
LINE
  8
0
 10
-62.85
 11
-62.794
 20
-71.667
 21
-71.584
  0
LINE
  8
0
 10
-62.794
 11
-62.736
 20
-71.584
 21
-71.502
  0
LINE
  8
0
 10
-62.736
 11
-62.674
 20
-71.502
 21
-71.424
  0
LINE
  8
0
 10
-62.674
 11
-62.608
 20
-71.424
 21
-71.349
  0
LINE
  8
0
 10
-62.608
 11
-62.537
 20
-71.349
 21
-71.278
  0
LINE
  8
0
 10
-62.537
 11
-62.465
 20
-71.278
 21
-71.209
  0
LINE
  8
0
 10
-62.465
 11
-62.389
 20
-71.209
 21
-71.145
  0
LINE
  8
0
 10
-62.389
 11
-62.31
 20
-71.145
 21
-71.083
  0
LINE
  8
0
 10
-62.31
 11
-62.228
 20
-71.083
 21
-71.026
  0
LINE
  8
0
 10
-62.228
 11
-62.144
 20
-71.026
 21
-70.972
  0
LINE
  8
0
 10
-62.144
 11
-62.057
 20
-70.972
 21
-70.923
  0
LINE
  8
0
 10
-62.057
 11
-61.967
 20
-70.923
 21
-70.879
  0
LINE
  8
0
 10
-61.967
 11
-61.877
 20
-70.879
 21
-70.837
  0
LINE
  8
0
 10
-61.877
 11
-61.783
 20
-70.837
 21
-70.801
  0
LINE
  8
0
 10
-61.783
 11
-61.689
 20
-70.801
 21
-70.769
  0
LINE
  8
0
 10
-61.689
 11
-61.593
 20
-70.769
 21
-70.741
  0
LINE
  8
0
 10
-61.593
 11
-61.495
 20
-70.741
 21
-70.719
  0
LINE
  8
0
 10
-61.495
 11
-61.397
 20
-70.719
 21
-70.701
  0
LINE
  8
0
 10
-61.397
 11
-61.298
 20
-70.701
 21
-70.687
  0
LINE
  8
0
 10
-61.298
 11
-61.198
 20
-70.687
 21
-70.678
  0
LINE
  8
0
 10
-61.198
 11
-61.098
 20
-70.678
 21
-70.675
  0
LINE
  8
0
 10
-61.098
 11
-60.998
 20
-70.675
 21
-70.675
  0
LINE
  8
0
 10
-60.998
 11
-60.898
 20
-70.675
 21
-70.681
  0
LINE
  8
0
 10
-60.898
 11
-60.798
 20
-70.681
 21
-70.691
  0
LINE
  8
0
 10
-60.798
 11
-60.7
 20
-70.691
 21
-70.706
  0
LINE
  8
0
 10
-60.7
 11
-60.602
 20
-70.706
 21
-70.726
  0
LINE
  8
0
 10
-60.602
 11
-60.505
 20
-70.726
 21
-70.751
  0
LINE
  8
0
 10
-60.505
 11
-60.409
 20
-70.751
 21
-70.779
  0
LINE
  8
0
 10
-60.409
 11
-60.315
 20
-70.779
 21
-70.812
  0
LINE
  8
0
 10
-60.315
 11
-60.223
 20
-70.812
 21
-70.85
  0
LINE
  8
0
 10
-60.223
 11
-60.132
 20
-70.85
 21
-70.893
  0
LINE
  8
0
 10
-60.132
 11
-60.044
 20
-70.893
 21
-70.939
  0
LINE
  8
0
 10
-60.044
 11
-59.958
 20
-70.939
 21
-70.989
  0
LINE
  8
0
 10
-59.958
 11
-59.875
 20
-70.989
 21
-71.045
  0
LINE
  8
0
 10
-59.875
 11
-59.793
 20
-71.045
 21
-71.103
  0
LINE
  8
0
 10
-59.793
 11
-59.715
 20
-71.103
 21
-71.166
  0
LINE
  8
0
 10
-59.715
 11
-59.64
 20
-71.166
 21
-71.231
  0
LINE
  8
0
 10
-59.64
 11
-59.568
 20
-71.231
 21
-71.302
  0
LINE
  8
0
 10
-59.568
 11
-59.499
 20
-71.302
 21
-71.374
  0
LINE
  8
0
 10
-59.499
 11
-59.435
 20
-71.374
 21
-71.45
  0
LINE
  8
0
 10
-59.435
 11
-59.374
 20
-71.45
 21
-71.529
  0
LINE
  8
0
 10
-59.374
 11
-59.316
 20
-71.529
 21
-71.611
  0
LINE
  8
0
 10
-59.316
 11
-59.263
 20
-71.611
 21
-71.695
  0
LINE
  8
0
 10
-59.263
 11
-59.214
 20
-71.695
 21
-71.782
  0
LINE
  8
0
 10
-59.214
 11
-59.169
 20
-71.782
 21
-71.872
  0
LINE
  8
0
 10
-59.169
 11
-59.128
 20
-71.872
 21
-71.962
  0
LINE
  8
0
 10
-59.128
 11
-59.091
 20
-71.962
 21
-72.056
  0
LINE
  8
0
 10
-59.091
 11
-59.06
 20
-72.056
 21
-72.15
  0
LINE
  8
0
 10
-59.06
 11
-59.032
 20
-72.15
 21
-72.246
  0
LINE
  8
0
 10
-59.032
 11
-59.009
 20
-72.246
 21
-72.344
  0
LINE
  8
0
 10
-59.009
 11
-58.991
 20
-72.344
 21
-72.442
  0
LINE
  8
0
 10
-58.991
 11
-58.978
 20
-72.442
 21
-72.541
  0
LINE
  8
0
 10
-58.978
 11
-58.969
 20
-72.541
 21
-72.641
  0
LINE
  8
0
 10
-58.969
 11
-58.965
 20
-72.641
 21
-72.741
  0
LINE
  8
0
 10
-58.965
 11
-58.966
 20
-72.741
 21
-72.841
  0
LINE
  8
0
 10
-58.966
 11
-58.971
 20
-72.841
 21
-72.941
  0
LINE
  8
0
 10
-58.971
 11
-58.982
 20
-72.941
 21
-73.041
  0
LINE
  8
0
 10
-58.982
 11
-58.996
 20
-73.041
 21
-73.139
  0
LINE
  8
0
 10
-58.996
 11
-59.016
 20
-73.139
 21
-73.237
  0
LINE
  8
0
 10
-59.016
 11
-59.041
 20
-73.237
 21
-73.334
  0
LINE
  8
0
 10
-59.041
 11
-59.07
 20
-73.334
 21
-73.43
  0
LINE
  8
0
 10
-59.07
 11
-59.103
 20
-73.43
 21
-73.524
  0
LINE
  8
0
 10
-59.103
 11
-59.141
 20
-73.524
 21
-73.616
  0
LINE
  8
0
 10
-59.141
 11
-59.183
 20
-73.616
 21
-73.707
  0
LINE
  8
0
 10
-59.183
 11
-59.23
 20
-73.707
 21
-73.796
  0
LINE
  8
0
 10
-59.23
 11
-59.28
 20
-73.796
 21
-73.882
  0
LINE
  8
0
 10
-59.28
 11
-59.335
 20
-73.882
 21
-73.964
  0
LINE
  8
0
 10
-59.335
 11
-59.393
 20
-73.964
 21
-74.046
  0
LINE
  8
0
 10
-59.393
 11
-59.456
 20
-74.046
 21
-74.124
  0
LINE
  8
0
 10
-59.456
 11
-59.522
 20
-74.124
 21
-74.199
  0
LINE
  8
0
 10
-59.522
 11
-59.592
 20
-74.199
 21
-74.271
  0
LINE
  8
0
 10
-59.592
 11
-59.664
 20
-74.271
 21
-74.34
  0
LINE
  8
0
 10
-59.664
 11
-59.74
 20
-74.34
 21
-74.404
  0
LINE
  8
0
 10
-59.74
 11
-59.82
 20
-74.404
 21
-74.465
  0
LINE
  8
0
 10
-59.82
 11
-59.902
 20
-74.465
 21
-74.523
  0
LINE
  8
0
 10
-59.902
 11
-59.986
 20
-74.523
 21
-74.576
  0
LINE
  8
0
 10
-59.986
 11
-60.072
 20
-74.576
 21
-74.625
  0
LINE
  8
0
 10
-60.072
 11
-60.162
 20
-74.625
 21
-74.67
  0
LINE
  8
0
 10
-60.162
 11
-60.253
 20
-74.67
 21
-74.711
  0
LINE
  8
0
 10
-60.253
 11
-60.346
 20
-74.711
 21
-74.748
  0
LINE
  8
0
 10
-60.346
 11
-60.441
 20
-74.748
 21
-74.779
  0
LINE
  8
0
 10
-60.441
 11
-60.537
 20
-74.779
 21
-74.807
  0
LINE
  8
0
 10
-60.537
 11
-60.634
 20
-74.807
 21
-74.83
  0
LINE
  8
0
 10
-60.634
 11
-60.733
 20
-74.83
 21
-74.848
  0
LINE
  8
0
 10
-60.733
 11
-60.832
 20
-74.848
 21
-74.861
  0
LINE
  8
0
 10
-60.832
 11
-60.932
 20
-74.861
 21
-74.87
  0
LINE
  8
0
 10
-60.932
 11
-61.032
 20
-74.87
 21
-74.874
  0
LINE
  8
0
 10
-61.032
 11
-61.132
 20
-74.874
 21
-74.873
  0
LINE
  8
0
 10
-61.132
 11
-61.232
 20
-74.873
 21
-74.868
  0
LINE
  8
0
 10
-61.232
 11
-61.331
 20
-74.868
 21
-74.857
  0
LINE
  8
0
 10
-61.331
 11
-61.43
 20
-74.857
 21
-74.843
  0
LINE
  8
0
 10
-61.43
 11
-61.528
 20
-74.843
 21
-74.823
  0
LINE
  8
0
 10
-61.528
 11
-61.625
 20
-74.823
 21
-74.798
  0
LINE
  8
0
 10
-61.625
 11
-61.721
 20
-74.798
 21
-74.769
  0
LINE
  8
0
 10
-61.721
 11
-61.814
 20
-74.769
 21
-74.736
  0
LINE
  8
0
 10
-61.814
 11
-61.907
 20
-74.736
 21
-74.698
  0
LINE
  8
0
 10
-61.907
 11
-61.998
 20
-74.698
 21
-74.656
  0
LINE
  8
0
 10
-61.998
 11
-62.086
 20
-74.656
 21
-74.609
  0
LINE
  8
0
 10
-62.086
 11
-62.172
 20
-74.609
 21
-74.559
  0
LINE
  8
0
 10
-62.172
 11
-62.255
 20
-74.559
 21
-74.504
  0
LINE
  8
0
 10
-62.255
 11
-62.337
 20
-74.504
 21
-74.446
  0
LINE
  8
0
 10
-62.337
 11
-62.415
 20
-74.446
 21
-74.383
  0
LINE
  8
0
 10
-62.415
 11
-62.49
 20
-74.383
 21
-74.317
  0
LINE
  8
0
 10
-62.49
 11
-62.561
 20
-74.317
 21
-74.247
  0
LINE
  8
0
 10
-62.561
 11
-62.63
 20
-74.247
 21
-74.175
  0
LINE
  8
0
 10
-62.63
 11
-62.694
 20
-74.175
 21
-74.099
  0
LINE
  8
0
 10
-62.694
 11
-62.756
 20
-74.099
 21
-74.02
  0
LINE
  8
0
 10
-62.756
 11
-62.814
 20
-74.02
 21
-73.937
  0
LINE
  8
0
 10
-62.814
 11
-62.867
 20
-73.937
 21
-73.853
  0
LINE
  8
0
 10
-62.867
 11
-62.916
 20
-73.853
 21
-73.767
  0
LINE
  8
0
 10
-62.916
 11
-62.961
 20
-73.767
 21
-73.677
  0
LINE
  8
0
 10
-62.961
 11
-63.002
 20
-73.677
 21
-73.586
  0
LINE
  8
0
 10
-63.002
 11
-63.038
 20
-73.586
 21
-73.493
  0
LINE
  8
0
 10
-63.038
 11
-63.07
 20
-73.493
 21
-73.398
  0
LINE
  8
0
 10
-63.07
 11
-63.098
 20
-73.398
 21
-73.302
  0
LINE
  8
0
 10
-63.098
 11
-63.12
 20
-73.302
 21
-73.205
  0
LINE
  8
0
 10
-63.12
 11
-63.138
 20
-73.205
 21
-73.106
  0
LINE
  8
0
 10
-63.138
 11
-63.152
 20
-73.106
 21
-73.007
  0
LINE
  8
0
 10
-63.152
 11
-63.161
 20
-73.007
 21
-72.907
  0
LINE
  8
0
 10
-63.161
 11
-63.164
 20
-72.907
 21
-72.807
  0
LINE
  8
0
 10
-34.592
 11
-34.591
 20
89.237
 21
89.337
  0
LINE
  8
0
 10
-34.591
 11
-34.585
 20
89.337
 21
89.437
  0
LINE
  8
0
 10
-34.585
 11
-34.575
 20
89.437
 21
89.536
  0
LINE
  8
0
 10
-34.575
 11
-34.56
 20
89.536
 21
89.635
  0
LINE
  8
0
 10
-34.56
 11
-34.541
 20
89.635
 21
89.733
  0
LINE
  8
0
 10
-34.541
 11
-34.516
 20
89.733
 21
89.83
  0
LINE
  8
0
 10
-34.516
 11
-34.487
 20
89.83
 21
89.926
  0
LINE
  8
0
 10
-34.487
 11
-34.453
 20
89.926
 21
90.02
  0
LINE
  8
0
 10
-34.453
 11
-34.416
 20
90.02
 21
90.113
  0
LINE
  8
0
 10
-34.416
 11
-34.373
 20
90.113
 21
90.204
  0
LINE
  8
0
 10
-34.373
 11
-34.327
 20
90.204
 21
90.292
  0
LINE
  8
0
 10
-34.327
 11
-34.276
 20
90.292
 21
90.378
  0
LINE
  8
0
 10
-34.276
 11
-34.222
 20
90.378
 21
90.462
  0
LINE
  8
0
 10
-34.222
 11
-34.163
 20
90.462
 21
90.543
  0
LINE
  8
0
 10
-34.163
 11
-34.101
 20
90.543
 21
90.621
  0
LINE
  8
0
 10
-34.101
 11
-34.034
 20
90.621
 21
90.696
  0
LINE
  8
0
 10
-34.034
 11
-33.965
 20
90.696
 21
90.767
  0
LINE
  8
0
 10
-33.965
 11
-33.892
 20
90.767
 21
90.836
  0
LINE
  8
0
 10
-33.892
 11
-33.816
 20
90.836
 21
90.901
  0
LINE
  8
0
 10
-33.816
 11
-33.737
 20
90.901
 21
90.962
  0
LINE
  8
0
 10
-33.737
 11
-33.655
 20
90.962
 21
91.019
  0
LINE
  8
0
 10
-33.655
 11
-33.57
 20
91.019
 21
91.073
  0
LINE
  8
0
 10
-33.57
 11
-33.484
 20
91.073
 21
91.122
  0
LINE
  8
0
 10
-33.484
 11
-33.395
 20
91.122
 21
91.166
  0
LINE
  8
0
 10
-33.395
 11
-33.303
 20
91.166
 21
91.208
  0
LINE
  8
0
 10
-33.303
 11
-33.21
 20
91.208
 21
91.244
  0
LINE
  8
0
 10
-33.21
 11
-33.116
 20
91.244
 21
91.276
  0
LINE
  8
0
 10
-33.116
 11
-33.019
 20
91.276
 21
91.303
  0
LINE
  8
0
 10
-33.019
 11
-32.922
 20
91.303
 21
91.327
  0
LINE
  8
0
 10
-32.922
 11
-32.824
 20
91.327
 21
91.344
  0
LINE
  8
0
 10
-32.824
 11
-32.725
 20
91.344
 21
91.358
  0
LINE
  8
0
 10
-32.725
 11
-32.625
 20
91.358
 21
91.367
  0
LINE
  8
0
 10
-32.625
 11
-32.525
 20
91.367
 21
91.371
  0
LINE
  8
0
 10
-32.525
 11
-32.426
 20
91.371
 21
91.37
  0
LINE
  8
0
 10
-32.426
 11
-32.326
 20
91.37
 21
91.364
  0
LINE
  8
0
 10
-32.326
 11
-32.226
 20
91.364
 21
91.354
  0
LINE
  8
0
 10
-32.226
 11
-32.127
 20
91.354
 21
91.339
  0
LINE
  8
0
 10
-32.127
 11
-32.03
 20
91.339
 21
91.319
  0
LINE
  8
0
 10
-32.03
 11
-31.933
 20
91.319
 21
91.295
  0
LINE
  8
0
 10
-31.933
 11
-31.837
 20
91.295
 21
91.266
  0
LINE
  8
0
 10
-31.837
 11
-31.743
 20
91.266
 21
91.232
  0
LINE
  8
0
 10
-31.743
 11
-31.65
 20
91.232
 21
91.195
  0
LINE
  8
0
 10
-31.65
 11
-31.559
 20
91.195
 21
91.152
  0
LINE
  8
0
 10
-31.559
 11
-31.471
 20
91.152
 21
91.106
  0
LINE
  8
0
 10
-31.471
 11
-31.384
 20
91.106
 21
91.055
  0
LINE
  8
0
 10
-31.384
 11
-31.301
 20
91.055
 21
91.001
  0
LINE
  8
0
 10
-31.301
 11
-31.22
 20
91.001
 21
90.942
  0
LINE
  8
0
 10
-31.22
 11
-31.142
 20
90.942
 21
90.88
  0
LINE
  8
0
 10
-31.142
 11
-31.067
 20
90.88
 21
90.813
  0
LINE
  8
0
 10
-31.067
 11
-30.995
 20
90.813
 21
90.743
  0
LINE
  8
0
 10
-30.995
 11
-30.926
 20
90.743
 21
90.671
  0
LINE
  8
0
 10
-30.926
 11
-30.862
 20
90.671
 21
90.595
  0
LINE
  8
0
 10
-30.862
 11
-30.801
 20
90.595
 21
90.516
  0
LINE
  8
0
 10
-30.801
 11
-30.743
 20
90.516
 21
90.434
  0
LINE
  8
0
 10
-30.743
 11
-30.69
 20
90.434
 21
90.349
  0
LINE
  8
0
 10
-30.69
 11
-30.641
 20
90.349
 21
90.263
  0
LINE
  8
0
 10
-30.641
 11
-30.596
 20
90.263
 21
90.174
  0
LINE
  8
0
 10
-30.596
 11
-30.555
 20
90.174
 21
90.082
  0
LINE
  8
0
 10
-30.555
 11
-30.519
 20
90.082
 21
89.989
  0
LINE
  8
0
 10
-30.519
 11
-30.486
 20
89.989
 21
89.894
  0
LINE
  8
0
 10
-30.486
 11
-30.46
 20
89.894
 21
89.798
  0
LINE
  8
0
 10
-30.46
 11
-30.436
 20
89.798
 21
89.701
  0
LINE
  8
0
 10
-30.436
 11
-30.418
 20
89.701
 21
89.603
  0
LINE
  8
0
 10
-30.418
 11
-30.405
 20
89.603
 21
89.504
  0
LINE
  8
0
 10
-30.405
 11
-30.396
 20
89.504
 21
89.404
  0
LINE
  8
0
 10
-30.396
 11
-30.392
 20
89.404
 21
89.304
  0
LINE
  8
0
 10
-30.392
 11
-30.393
 20
89.304
 21
89.205
  0
LINE
  8
0
 10
-30.393
 11
-30.399
 20
89.205
 21
89.105
  0
LINE
  8
0
 10
-30.399
 11
-30.408
 20
89.105
 21
89.005
  0
LINE
  8
0
 10
-30.408
 11
-30.423
 20
89.005
 21
88.906
  0
LINE
  8
0
 10
-30.423
 11
-30.443
 20
88.906
 21
88.809
  0
LINE
  8
0
 10
-30.443
 11
-30.468
 20
88.809
 21
88.711
  0
LINE
  8
0
 10
-30.468
 11
-30.497
 20
88.711
 21
88.616
  0
LINE
  8
0
 10
-30.497
 11
-30.53
 20
88.616
 21
88.522
  0
LINE
  8
0
 10
-30.53
 11
-30.568
 20
88.522
 21
88.429
  0
LINE
  8
0
 10
-30.568
 11
-30.61
 20
88.429
 21
88.338
  0
LINE
  8
0
 10
-30.61
 11
-30.657
 20
88.338
 21
88.25
  0
LINE
  8
0
 10
-30.657
 11
-30.708
 20
88.25
 21
88.163
  0
LINE
  8
0
 10
-30.708
 11
-30.762
 20
88.163
 21
88.08
  0
LINE
  8
0
 10
-30.762
 11
-30.821
 20
88.08
 21
87.999
  0
LINE
  8
0
 10
-30.821
 11
-30.883
 20
87.999
 21
87.921
  0
LINE
  8
0
 10
-30.883
 11
-30.949
 20
87.921
 21
87.845
  0
LINE
  8
0
 10
-30.949
 11
-31.019
 20
87.845
 21
87.774
  0
LINE
  8
0
 10
-31.019
 11
-31.092
 20
87.774
 21
87.705
  0
LINE
  8
0
 10
-31.092
 11
-31.167
 20
87.705
 21
87.64
  0
LINE
  8
0
 10
-31.167
 11
-31.246
 20
87.64
 21
87.58
  0
LINE
  8
0
 10
-31.246
 11
-31.329
 20
87.58
 21
87.522
  0
LINE
  8
0
 10
-31.329
 11
-31.414
 20
87.522
 21
87.469
  0
LINE
  8
0
 10
-31.414
 11
-31.5
 20
87.469
 21
87.419
  0
LINE
  8
0
 10
-31.5
 11
-31.589
 20
87.419
 21
87.375
  0
LINE
  8
0
 10
-31.589
 11
-31.68
 20
87.375
 21
87.334
  0
LINE
  8
0
 10
-31.68
 11
-31.774
 20
87.334
 21
87.297
  0
LINE
  8
0
 10
-31.774
 11
-31.868
 20
87.297
 21
87.265
  0
LINE
  8
0
 10
-31.868
 11
-31.965
 20
87.265
 21
87.238
  0
LINE
  8
0
 10
-31.965
 11
-32.062
 20
87.238
 21
87.215
  0
LINE
  8
0
 10
-32.062
 11
-32.16
 20
87.215
 21
87.197
  0
LINE
  8
0
 10
-32.16
 11
-32.259
 20
87.197
 21
87.184
  0
LINE
  8
0
 10
-32.259
 11
-32.359
 20
87.184
 21
87.175
  0
LINE
  8
0
 10
-32.359
 11
-32.459
 20
87.175
 21
87.171
  0
LINE
  8
0
 10
-32.459
 11
-32.558
 20
87.171
 21
87.172
  0
LINE
  8
0
 10
-32.558
 11
-32.658
 20
87.172
 21
87.178
  0
LINE
  8
0
 10
-32.658
 11
-32.757
 20
87.178
 21
87.187
  0
LINE
  8
0
 10
-32.757
 11
-32.856
 20
87.187
 21
87.202
  0
LINE
  8
0
 10
-32.856
 11
-32.954
 20
87.202
 21
87.222
  0
LINE
  8
0
 10
-32.954
 11
-33.051
 20
87.222
 21
87.246
  0
LINE
  8
0
 10
-33.051
 11
-33.147
 20
87.246
 21
87.275
  0
LINE
  8
0
 10
-33.147
 11
-33.241
 20
87.275
 21
87.309
  0
LINE
  8
0
 10
-33.241
 11
-33.334
 20
87.309
 21
87.347
  0
LINE
  8
0
 10
-33.334
 11
-33.425
 20
87.347
 21
87.389
  0
LINE
  8
0
 10
-33.425
 11
-33.513
 20
87.389
 21
87.436
  0
LINE
  8
0
 10
-33.513
 11
-33.599
 20
87.436
 21
87.486
  0
LINE
  8
0
 10
-33.599
 11
-33.683
 20
87.486
 21
87.541
  0
LINE
  8
0
 10
-33.683
 11
-33.764
 20
87.541
 21
87.6
  0
LINE
  8
0
 10
-33.764
 11
-33.842
 20
87.6
 21
87.662
  0
LINE
  8
0
 10
-33.842
 11
-33.917
 20
87.662
 21
87.728
  0
LINE
  8
0
 10
-33.917
 11
-33.988
 20
87.728
 21
87.798
  0
LINE
  8
0
 10
-33.988
 11
-34.058
 20
87.798
 21
87.871
  0
LINE
  8
0
 10
-34.058
 11
-34.122
 20
87.871
 21
87.946
  0
LINE
  8
0
 10
-34.122
 11
-34.183
 20
87.946
 21
88.025
  0
LINE
  8
0
 10
-34.183
 11
-34.241
 20
88.025
 21
88.108
  0
LINE
  8
0
 10
-34.241
 11
-34.294
 20
88.108
 21
88.192
  0
LINE
  8
0
 10
-34.294
 11
-34.343
 20
88.192
 21
88.279
  0
LINE
  8
0
 10
-34.343
 11
-34.387
 20
88.279
 21
88.368
  0
LINE
  8
0
 10
-34.387
 11
-34.429
 20
88.368
 21
88.459
  0
LINE
  8
0
 10
-34.429
 11
-34.465
 20
88.459
 21
88.553
  0
LINE
  8
0
 10
-34.465
 11
-34.498
 20
88.553
 21
88.647
  0
LINE
  8
0
 10
-34.498
 11
-34.524
 20
88.647
 21
88.744
  0
LINE
  8
0
 10
-34.524
 11
-34.548
 20
88.744
 21
88.841
  0
LINE
  8
0
 10
-34.548
 11
-34.565
 20
88.841
 21
88.939
  0
LINE
  8
0
 10
-34.565
 11
-34.579
 20
88.939
 21
89.038
  0
LINE
  8
0
 10
-34.579
 11
-34.588
 20
89.038
 21
89.138
  0
LINE
  8
0
 10
-34.588
 11
-34.592
 20
89.138
 21
89.237
  0
LINE
  8
0
 10
-32.249
 11
-32.249
 20
127.45
 21
127.55
  0
LINE
  8
0
 10
-32.249
 11
-32.245
 20
127.55
 21
127.649
  0
LINE
  8
0
 10
-32.245
 11
-32.236
 20
127.649
 21
127.748
  0
LINE
  8
0
 10
-32.236
 11
-32.223
 20
127.748
 21
127.847
  0
LINE
  8
0
 10
-32.223
 11
-32.206
 20
127.847
 21
127.945
  0
LINE
  8
0
 10
-32.206
 11
-32.184
 20
127.945
 21
128.042
  0
LINE
  8
0
 10
-32.184
 11
-32.158
 20
128.042
 21
128.138
  0
LINE
  8
0
 10
-32.158
 11
-32.127
 20
128.138
 21
128.233
  0
LINE
  8
0
 10
-32.127
 11
-32.093
 20
128.233
 21
128.326
  0
LINE
  8
0
 10
-32.093
 11
-32.054
 20
128.326
 21
128.418
  0
LINE
  8
0
 10
-32.054
 11
-32.011
 20
128.418
 21
128.508
  0
LINE
  8
0
 10
-32.011
 11
-31.965
 20
128.508
 21
128.596
  0
LINE
  8
0
 10
-31.965
 11
-31.915
 20
128.596
 21
128.682
  0
LINE
  8
0
 10
-31.915
 11
-31.86
 20
128.682
 21
128.766
  0
LINE
  8
0
 10
-31.86
 11
-31.803
 20
128.766
 21
128.847
  0
LINE
  8
0
 10
-31.803
 11
-31.741
 20
128.847
 21
128.925
  0
LINE
  8
0
 10
-31.741
 11
-31.677
 20
128.925
 21
129.001
  0
LINE
  8
0
 10
-31.677
 11
-31.608
 20
129.001
 21
129.073
  0
LINE
  8
0
 10
-31.608
 11
-31.537
 20
129.073
 21
129.143
  0
LINE
  8
0
 10
-31.537
 11
-31.463
 20
129.143
 21
129.209
  0
LINE
  8
0
 10
-31.463
 11
-31.386
 20
129.209
 21
129.272
  0
LINE
  8
0
 10
-31.386
 11
-31.306
 20
129.272
 21
129.332
  0
LINE
  8
0
 10
-31.306
 11
-31.224
 20
129.332
 21
129.388
  0
LINE
  8
0
 10
-31.224
 11
-31.139
 20
129.388
 21
129.44
  0
LINE
  8
0
 10
-31.139
 11
-31.052
 20
129.44
 21
129.489
  0
LINE
  8
0
 10
-31.052
 11
-30.963
 20
129.489
 21
129.533
  0
LINE
  8
0
 10
-30.963
 11
-30.873
 20
129.533
 21
129.574
  0
LINE
  8
0
 10
-30.873
 11
-30.78
 20
129.574
 21
129.61
  0
LINE
  8
0
 10
-30.78
 11
-30.686
 20
129.61
 21
129.643
  0
LINE
  8
0
 10
-30.686
 11
-30.59
 20
129.643
 21
129.671
  0
LINE
  8
0
 10
-30.59
 11
-30.494
 20
129.671
 21
129.695
  0
LINE
  8
0
 10
-30.494
 11
-30.396
 20
129.695
 21
129.715
  0
LINE
  8
0
 10
-30.396
 11
-30.298
 20
129.715
 21
129.73
  0
LINE
  8
0
 10
-30.298
 11
-30.199
 20
129.73
 21
129.741
  0
LINE
  8
0
 10
-30.199
 11
-30.1
 20
129.741
 21
129.748
  0
LINE
  8
0
 10
-30.1
 11
-30
 20
129.748
 21
129.75
  0
LINE
  8
0
 10
-30
 11
-29.9
 20
129.75
 21
129.748
  0
LINE
  8
0
 10
-29.9
 11
-29.801
 20
129.748
 21
129.741
  0
LINE
  8
0
 10
-29.801
 11
-29.702
 20
129.741
 21
129.73
  0
LINE
  8
0
 10
-29.702
 11
-29.604
 20
129.73
 21
129.715
  0
LINE
  8
0
 10
-29.604
 11
-29.506
 20
129.715
 21
129.695
  0
LINE
  8
0
 10
-29.506
 11
-29.41
 20
129.695
 21
129.671
  0
LINE
  8
0
 10
-29.41
 11
-29.314
 20
129.671
 21
129.643
  0
LINE
  8
0
 10
-29.314
 11
-29.22
 20
129.643
 21
129.61
  0
LINE
  8
0
 10
-29.22
 11
-29.127
 20
129.61
 21
129.574
  0
LINE
  8
0
 10
-29.127
 11
-29.037
 20
129.574
 21
129.533
  0
LINE
  8
0
 10
-29.037
 11
-28.948
 20
129.533
 21
129.489
  0
LINE
  8
0
 10
-28.948
 11
-28.861
 20
129.489
 21
129.44
  0
LINE
  8
0
 10
-28.861
 11
-28.776
 20
129.44
 21
129.388
  0
LINE
  8
0
 10
-28.776
 11
-28.694
 20
129.388
 21
129.332
  0
LINE
  8
0
 10
-28.694
 11
-28.614
 20
129.332
 21
129.272
  0
LINE
  8
0
 10
-28.614
 11
-28.537
 20
129.272
 21
129.209
  0
LINE
  8
0
 10
-28.537
 11
-28.463
 20
129.209
 21
129.143
  0
LINE
  8
0
 10
-28.463
 11
-28.392
 20
129.143
 21
129.073
  0
LINE
  8
0
 10
-28.392
 11
-28.323
 20
129.073
 21
129.001
  0
LINE
  8
0
 10
-28.323
 11
-28.259
 20
129.001
 21
128.925
  0
LINE
  8
0
 10
-28.259
 11
-28.197
 20
128.925
 21
128.847
  0
LINE
  8
0
 10
-28.197
 11
-28.14
 20
128.847
 21
128.766
  0
LINE
  8
0
 10
-28.14
 11
-28.085
 20
128.766
 21
128.682
  0
LINE
  8
0
 10
-28.085
 11
-28.035
 20
128.682
 21
128.596
  0
LINE
  8
0
 10
-28.035
 11
-27.989
 20
128.596
 21
128.508
  0
LINE
  8
0
 10
-27.989
 11
-27.946
 20
128.508
 21
128.418
  0
LINE
  8
0
 10
-27.946
 11
-27.907
 20
128.418
 21
128.326
  0
LINE
  8
0
 10
-27.907
 11
-27.873
 20
128.326
 21
128.233
  0
LINE
  8
0
 10
-27.873
 11
-27.842
 20
128.233
 21
128.138
  0
LINE
  8
0
 10
-27.842
 11
-27.816
 20
128.138
 21
128.042
  0
LINE
  8
0
 10
-27.816
 11
-27.794
 20
128.042
 21
127.945
  0
LINE
  8
0
 10
-27.794
 11
-27.777
 20
127.945
 21
127.847
  0
LINE
  8
0
 10
-27.777
 11
-27.764
 20
127.847
 21
127.748
  0
LINE
  8
0
 10
-27.764
 11
-27.755
 20
127.748
 21
127.649
  0
LINE
  8
0
 10
-27.755
 11
-27.751
 20
127.649
 21
127.55
  0
LINE
  8
0
 10
-27.751
 11
-27.751
 20
127.55
 21
127.45
  0
LINE
  8
0
 10
-27.751
 11
-27.755
 20
127.45
 21
127.351
  0
LINE
  8
0
 10
-27.755
 11
-27.764
 20
127.351
 21
127.252
  0
LINE
  8
0
 10
-27.764
 11
-27.777
 20
127.252
 21
127.153
  0
LINE
  8
0
 10
-27.777
 11
-27.794
 20
127.153
 21
127.055
  0
LINE
  8
0
 10
-27.794
 11
-27.816
 20
127.055
 21
126.958
  0
LINE
  8
0
 10
-27.816
 11
-27.842
 20
126.958
 21
126.862
  0
LINE
  8
0
 10
-27.842
 11
-27.873
 20
126.862
 21
126.767
  0
LINE
  8
0
 10
-27.873
 11
-27.907
 20
126.767
 21
126.674
  0
LINE
  8
0
 10
-27.907
 11
-27.946
 20
126.674
 21
126.582
  0
LINE
  8
0
 10
-27.946
 11
-27.989
 20
126.582
 21
126.492
  0
LINE
  8
0
 10
-27.989
 11
-28.035
 20
126.492
 21
126.404
  0
LINE
  8
0
 10
-28.035
 11
-28.085
 20
126.404
 21
126.318
  0
LINE
  8
0
 10
-28.085
 11
-28.14
 20
126.318
 21
126.234
  0
LINE
  8
0
 10
-28.14
 11
-28.197
 20
126.234
 21
126.153
  0
LINE
  8
0
 10
-28.197
 11
-28.259
 20
126.153
 21
126.075
  0
LINE
  8
0
 10
-28.259
 11
-28.323
 20
126.075
 21
125.999
  0
LINE
  8
0
 10
-28.323
 11
-28.392
 20
125.999
 21
125.927
  0
LINE
  8
0
 10
-28.392
 11
-28.463
 20
125.927
 21
125.857
  0
LINE
  8
0
 10
-28.463
 11
-28.537
 20
125.857
 21
125.791
  0
LINE
  8
0
 10
-28.537
 11
-28.614
 20
125.791
 21
125.728
  0
LINE
  8
0
 10
-28.614
 11
-28.694
 20
125.728
 21
125.668
  0
LINE
  8
0
 10
-28.694
 11
-28.776
 20
125.668
 21
125.612
  0
LINE
  8
0
 10
-28.776
 11
-28.861
 20
125.612
 21
125.56
  0
LINE
  8
0
 10
-28.861
 11
-28.948
 20
125.56
 21
125.511
  0
LINE
  8
0
 10
-28.948
 11
-29.037
 20
125.511
 21
125.467
  0
LINE
  8
0
 10
-29.037
 11
-29.127
 20
125.467
 21
125.426
  0
LINE
  8
0
 10
-29.127
 11
-29.22
 20
125.426
 21
125.39
  0
LINE
  8
0
 10
-29.22
 11
-29.314
 20
125.39
 21
125.357
  0
LINE
  8
0
 10
-29.314
 11
-29.41
 20
125.357
 21
125.329
  0
LINE
  8
0
 10
-29.41
 11
-29.506
 20
125.329
 21
125.305
  0
LINE
  8
0
 10
-29.506
 11
-29.604
 20
125.305
 21
125.285
  0
LINE
  8
0
 10
-29.604
 11
-29.702
 20
125.285
 21
125.27
  0
LINE
  8
0
 10
-29.702
 11
-29.801
 20
125.27
 21
125.259
  0
LINE
  8
0
 10
-29.801
 11
-29.9
 20
125.259
 21
125.252
  0
LINE
  8
0
 10
-29.9
 11
-30
 20
125.252
 21
125.25
  0
LINE
  8
0
 10
-30
 11
-30.1
 20
125.25
 21
125.252
  0
LINE
  8
0
 10
-30.1
 11
-30.199
 20
125.252
 21
125.259
  0
LINE
  8
0
 10
-30.199
 11
-30.298
 20
125.259
 21
125.27
  0
LINE
  8
0
 10
-30.298
 11
-30.396
 20
125.27
 21
125.285
  0
LINE
  8
0
 10
-30.396
 11
-30.494
 20
125.285
 21
125.305
  0
LINE
  8
0
 10
-30.494
 11
-30.59
 20
125.305
 21
125.329
  0
LINE
  8
0
 10
-30.59
 11
-30.686
 20
125.329
 21
125.357
  0
LINE
  8
0
 10
-30.686
 11
-30.78
 20
125.357
 21
125.39
  0
LINE
  8
0
 10
-30.78
 11
-30.873
 20
125.39
 21
125.426
  0
LINE
  8
0
 10
-30.873
 11
-30.963
 20
125.426
 21
125.467
  0
LINE
  8
0
 10
-30.963
 11
-31.052
 20
125.467
 21
125.511
  0
LINE
  8
0
 10
-31.052
 11
-31.139
 20
125.511
 21
125.56
  0
LINE
  8
0
 10
-31.139
 11
-31.224
 20
125.56
 21
125.612
  0
LINE
  8
0
 10
-31.224
 11
-31.306
 20
125.612
 21
125.668
  0
LINE
  8
0
 10
-31.306
 11
-31.386
 20
125.668
 21
125.728
  0
LINE
  8
0
 10
-31.386
 11
-31.463
 20
125.728
 21
125.791
  0
LINE
  8
0
 10
-31.463
 11
-31.537
 20
125.791
 21
125.857
  0
LINE
  8
0
 10
-31.537
 11
-31.608
 20
125.857
 21
125.927
  0
LINE
  8
0
 10
-31.608
 11
-31.677
 20
125.927
 21
125.999
  0
LINE
  8
0
 10
-31.677
 11
-31.741
 20
125.999
 21
126.075
  0
LINE
  8
0
 10
-31.741
 11
-31.803
 20
126.075
 21
126.153
  0
LINE
  8
0
 10
-31.803
 11
-31.86
 20
126.153
 21
126.234
  0
LINE
  8
0
 10
-31.86
 11
-31.915
 20
126.234
 21
126.318
  0
LINE
  8
0
 10
-31.915
 11
-31.965
 20
126.318
 21
126.404
  0
LINE
  8
0
 10
-31.965
 11
-32.011
 20
126.404
 21
126.492
  0
LINE
  8
0
 10
-32.011
 11
-32.054
 20
126.492
 21
126.582
  0
LINE
  8
0
 10
-32.054
 11
-32.093
 20
126.582
 21
126.674
  0
LINE
  8
0
 10
-32.093
 11
-32.127
 20
126.674
 21
126.767
  0
LINE
  8
0
 10
-32.127
 11
-32.158
 20
126.767
 21
126.862
  0
LINE
  8
0
 10
-32.158
 11
-32.184
 20
126.862
 21
126.958
  0
LINE
  8
0
 10
-32.184
 11
-32.206
 20
126.958
 21
127.055
  0
LINE
  8
0
 10
-32.206
 11
-32.223
 20
127.055
 21
127.153
  0
LINE
  8
0
 10
-32.223
 11
-32.236
 20
127.153
 21
127.252
  0
LINE
  8
0
 10
-32.236
 11
-32.245
 20
127.252
 21
127.351
  0
LINE
  8
0
 10
-32.245
 11
-32.249
 20
127.351
 21
127.45
  0
LINE
  8
0
 10
27.751
 11
27.751
 20
127.45
 21
127.55
  0
LINE
  8
0
 10
27.751
 11
27.755
 20
127.55
 21
127.649
  0
LINE
  8
0
 10
27.755
 11
27.764
 20
127.649
 21
127.748
  0
LINE
  8
0
 10
27.764
 11
27.777
 20
127.748
 21
127.847
  0
LINE
  8
0
 10
27.777
 11
27.794
 20
127.847
 21
127.945
  0
LINE
  8
0
 10
27.794
 11
27.816
 20
127.945
 21
128.042
  0
LINE
  8
0
 10
27.816
 11
27.842
 20
128.042
 21
128.138
  0
LINE
  8
0
 10
27.842
 11
27.873
 20
128.138
 21
128.233
  0
LINE
  8
0
 10
27.873
 11
27.907
 20
128.233
 21
128.326
  0
LINE
  8
0
 10
27.907
 11
27.946
 20
128.326
 21
128.418
  0
LINE
  8
0
 10
27.946
 11
27.989
 20
128.418
 21
128.508
  0
LINE
  8
0
 10
27.989
 11
28.035
 20
128.508
 21
128.596
  0
LINE
  8
0
 10
28.035
 11
28.085
 20
128.596
 21
128.682
  0
LINE
  8
0
 10
28.085
 11
28.14
 20
128.682
 21
128.766
  0
LINE
  8
0
 10
28.14
 11
28.197
 20
128.766
 21
128.847
  0
LINE
  8
0
 10
28.197
 11
28.259
 20
128.847
 21
128.925
  0
LINE
  8
0
 10
28.259
 11
28.323
 20
128.925
 21
129.001
  0
LINE
  8
0
 10
28.323
 11
28.392
 20
129.001
 21
129.073
  0
LINE
  8
0
 10
28.392
 11
28.463
 20
129.073
 21
129.143
  0
LINE
  8
0
 10
28.463
 11
28.537
 20
129.143
 21
129.209
  0
LINE
  8
0
 10
28.537
 11
28.614
 20
129.209
 21
129.272
  0
LINE
  8
0
 10
28.614
 11
28.694
 20
129.272
 21
129.332
  0
LINE
  8
0
 10
28.694
 11
28.776
 20
129.332
 21
129.388
  0
LINE
  8
0
 10
28.776
 11
28.861
 20
129.388
 21
129.44
  0
LINE
  8
0
 10
28.861
 11
28.948
 20
129.44
 21
129.489
  0
LINE
  8
0
 10
28.948
 11
29.037
 20
129.489
 21
129.533
  0
LINE
  8
0
 10
29.037
 11
29.127
 20
129.533
 21
129.574
  0
LINE
  8
0
 10
29.127
 11
29.22
 20
129.574
 21
129.61
  0
LINE
  8
0
 10
29.22
 11
29.314
 20
129.61
 21
129.643
  0
LINE
  8
0
 10
29.314
 11
29.41
 20
129.643
 21
129.671
  0
LINE
  8
0
 10
29.41
 11
29.506
 20
129.671
 21
129.695
  0
LINE
  8
0
 10
29.506
 11
29.604
 20
129.695
 21
129.715
  0
LINE
  8
0
 10
29.604
 11
29.702
 20
129.715
 21
129.73
  0
LINE
  8
0
 10
29.702
 11
29.801
 20
129.73
 21
129.741
  0
LINE
  8
0
 10
29.801
 11
29.9
 20
129.741
 21
129.748
  0
LINE
  8
0
 10
29.9
 11
30
 20
129.748
 21
129.75
  0
LINE
  8
0
 10
30
 11
30.1
 20
129.75
 21
129.748
  0
LINE
  8
0
 10
30.1
 11
30.199
 20
129.748
 21
129.741
  0
LINE
  8
0
 10
30.199
 11
30.298
 20
129.741
 21
129.73
  0
LINE
  8
0
 10
30.298
 11
30.396
 20
129.73
 21
129.715
  0
LINE
  8
0
 10
30.396
 11
30.494
 20
129.715
 21
129.695
  0
LINE
  8
0
 10
30.494
 11
30.59
 20
129.695
 21
129.671
  0
LINE
  8
0
 10
30.59
 11
30.686
 20
129.671
 21
129.643
  0
LINE
  8
0
 10
30.686
 11
30.78
 20
129.643
 21
129.61
  0
LINE
  8
0
 10
30.78
 11
30.873
 20
129.61
 21
129.574
  0
LINE
  8
0
 10
30.873
 11
30.963
 20
129.574
 21
129.533
  0
LINE
  8
0
 10
30.963
 11
31.052
 20
129.533
 21
129.489
  0
LINE
  8
0
 10
31.052
 11
31.139
 20
129.489
 21
129.44
  0
LINE
  8
0
 10
31.139
 11
31.224
 20
129.44
 21
129.388
  0
LINE
  8
0
 10
31.224
 11
31.306
 20
129.388
 21
129.332
  0
LINE
  8
0
 10
31.306
 11
31.386
 20
129.332
 21
129.272
  0
LINE
  8
0
 10
31.386
 11
31.463
 20
129.272
 21
129.209
  0
LINE
  8
0
 10
31.463
 11
31.537
 20
129.209
 21
129.143
  0
LINE
  8
0
 10
31.537
 11
31.608
 20
129.143
 21
129.073
  0
LINE
  8
0
 10
31.608
 11
31.677
 20
129.073
 21
129.001
  0
LINE
  8
0
 10
31.677
 11
31.741
 20
129.001
 21
128.925
  0
LINE
  8
0
 10
31.741
 11
31.803
 20
128.925
 21
128.847
  0
LINE
  8
0
 10
31.803
 11
31.86
 20
128.847
 21
128.766
  0
LINE
  8
0
 10
31.86
 11
31.915
 20
128.766
 21
128.682
  0
LINE
  8
0
 10
31.915
 11
31.965
 20
128.682
 21
128.596
  0
LINE
  8
0
 10
31.965
 11
32.011
 20
128.596
 21
128.508
  0
LINE
  8
0
 10
32.011
 11
32.054
 20
128.508
 21
128.418
  0
LINE
  8
0
 10
32.054
 11
32.093
 20
128.418
 21
128.326
  0
LINE
  8
0
 10
32.093
 11
32.127
 20
128.326
 21
128.233
  0
LINE
  8
0
 10
32.127
 11
32.158
 20
128.233
 21
128.138
  0
LINE
  8
0
 10
32.158
 11
32.184
 20
128.138
 21
128.042
  0
LINE
  8
0
 10
32.184
 11
32.206
 20
128.042
 21
127.945
  0
LINE
  8
0
 10
32.206
 11
32.223
 20
127.945
 21
127.847
  0
LINE
  8
0
 10
32.223
 11
32.236
 20
127.847
 21
127.748
  0
LINE
  8
0
 10
32.236
 11
32.245
 20
127.748
 21
127.649
  0
LINE
  8
0
 10
32.245
 11
32.249
 20
127.649
 21
127.55
  0
LINE
  8
0
 10
32.249
 11
32.249
 20
127.55
 21
127.45
  0
LINE
  8
0
 10
32.249
 11
32.245
 20
127.45
 21
127.351
  0
LINE
  8
0
 10
32.245
 11
32.236
 20
127.351
 21
127.252
  0
LINE
  8
0
 10
32.236
 11
32.223
 20
127.252
 21
127.153
  0
LINE
  8
0
 10
32.223
 11
32.206
 20
127.153
 21
127.055
  0
LINE
  8
0
 10
32.206
 11
32.184
 20
127.055
 21
126.958
  0
LINE
  8
0
 10
32.184
 11
32.158
 20
126.958
 21
126.862
  0
LINE
  8
0
 10
32.158
 11
32.127
 20
126.862
 21
126.767
  0
LINE
  8
0
 10
32.127
 11
32.093
 20
126.767
 21
126.674
  0
LINE
  8
0
 10
32.093
 11
32.054
 20
126.674
 21
126.582
  0
LINE
  8
0
 10
32.054
 11
32.011
 20
126.582
 21
126.492
  0
LINE
  8
0
 10
32.011
 11
31.965
 20
126.492
 21
126.404
  0
LINE
  8
0
 10
31.965
 11
31.915
 20
126.404
 21
126.318
  0
LINE
  8
0
 10
31.915
 11
31.86
 20
126.318
 21
126.234
  0
LINE
  8
0
 10
31.86
 11
31.803
 20
126.234
 21
126.153
  0
LINE
  8
0
 10
31.803
 11
31.741
 20
126.153
 21
126.075
  0
LINE
  8
0
 10
31.741
 11
31.677
 20
126.075
 21
125.999
  0
LINE
  8
0
 10
31.677
 11
31.608
 20
125.999
 21
125.927
  0
LINE
  8
0
 10
31.608
 11
31.537
 20
125.927
 21
125.857
  0
LINE
  8
0
 10
31.537
 11
31.463
 20
125.857
 21
125.791
  0
LINE
  8
0
 10
31.463
 11
31.386
 20
125.791
 21
125.728
  0
LINE
  8
0
 10
31.386
 11
31.306
 20
125.728
 21
125.668
  0
LINE
  8
0
 10
31.306
 11
31.224
 20
125.668
 21
125.612
  0
LINE
  8
0
 10
31.224
 11
31.139
 20
125.612
 21
125.56
  0
LINE
  8
0
 10
31.139
 11
31.052
 20
125.56
 21
125.511
  0
LINE
  8
0
 10
31.052
 11
30.963
 20
125.511
 21
125.467
  0
LINE
  8
0
 10
30.963
 11
30.873
 20
125.467
 21
125.426
  0
LINE
  8
0
 10
30.873
 11
30.78
 20
125.426
 21
125.39
  0
LINE
  8
0
 10
30.78
 11
30.686
 20
125.39
 21
125.357
  0
LINE
  8
0
 10
30.686
 11
30.59
 20
125.357
 21
125.329
  0
LINE
  8
0
 10
30.59
 11
30.494
 20
125.329
 21
125.305
  0
LINE
  8
0
 10
30.494
 11
30.396
 20
125.305
 21
125.285
  0
LINE
  8
0
 10
30.396
 11
30.298
 20
125.285
 21
125.27
  0
LINE
  8
0
 10
30.298
 11
30.199
 20
125.27
 21
125.259
  0
LINE
  8
0
 10
30.199
 11
30.1
 20
125.259
 21
125.252
  0
LINE
  8
0
 10
30.1
 11
30
 20
125.252
 21
125.25
  0
LINE
  8
0
 10
30
 11
29.9
 20
125.25
 21
125.252
  0
LINE
  8
0
 10
29.9
 11
29.801
 20
125.252
 21
125.259
  0
LINE
  8
0
 10
29.801
 11
29.702
 20
125.259
 21
125.27
  0
LINE
  8
0
 10
29.702
 11
29.604
 20
125.27
 21
125.285
  0
LINE
  8
0
 10
29.604
 11
29.506
 20
125.285
 21
125.305
  0
LINE
  8
0
 10
29.506
 11
29.41
 20
125.305
 21
125.329
  0
LINE
  8
0
 10
29.41
 11
29.314
 20
125.329
 21
125.357
  0
LINE
  8
0
 10
29.314
 11
29.22
 20
125.357
 21
125.39
  0
LINE
  8
0
 10
29.22
 11
29.127
 20
125.39
 21
125.426
  0
LINE
  8
0
 10
29.127
 11
29.037
 20
125.426
 21
125.467
  0
LINE
  8
0
 10
29.037
 11
28.948
 20
125.467
 21
125.511
  0
LINE
  8
0
 10
28.948
 11
28.861
 20
125.511
 21
125.56
  0
LINE
  8
0
 10
28.861
 11
28.776
 20
125.56
 21
125.612
  0
LINE
  8
0
 10
28.776
 11
28.694
 20
125.612
 21
125.668
  0
LINE
  8
0
 10
28.694
 11
28.614
 20
125.668
 21
125.728
  0
LINE
  8
0
 10
28.614
 11
28.537
 20
125.728
 21
125.791
  0
LINE
  8
0
 10
28.537
 11
28.463
 20
125.791
 21
125.857
  0
LINE
  8
0
 10
28.463
 11
28.392
 20
125.857
 21
125.927
  0
LINE
  8
0
 10
28.392
 11
28.323
 20
125.927
 21
125.999
  0
LINE
  8
0
 10
28.323
 11
28.259
 20
125.999
 21
126.075
  0
LINE
  8
0
 10
28.259
 11
28.197
 20
126.075
 21
126.153
  0
LINE
  8
0
 10
28.197
 11
28.14
 20
126.153
 21
126.234
  0
LINE
  8
0
 10
28.14
 11
28.085
 20
126.234
 21
126.318
  0
LINE
  8
0
 10
28.085
 11
28.035
 20
126.318
 21
126.404
  0
LINE
  8
0
 10
28.035
 11
27.989
 20
126.404
 21
126.492
  0
LINE
  8
0
 10
27.989
 11
27.946
 20
126.492
 21
126.582
  0
LINE
  8
0
 10
27.946
 11
27.907
 20
126.582
 21
126.674
  0
LINE
  8
0
 10
27.907
 11
27.873
 20
126.674
 21
126.767
  0
LINE
  8
0
 10
27.873
 11
27.842
 20
126.767
 21
126.862
  0
LINE
  8
0
 10
27.842
 11
27.816
 20
126.862
 21
126.958
  0
LINE
  8
0
 10
27.816
 11
27.794
 20
126.958
 21
127.055
  0
LINE
  8
0
 10
27.794
 11
27.777
 20
127.055
 21
127.153
  0
LINE
  8
0
 10
27.777
 11
27.764
 20
127.153
 21
127.252
  0
LINE
  8
0
 10
27.764
 11
27.755
 20
127.252
 21
127.351
  0
LINE
  8
0
 10
27.755
 11
27.751
 20
127.351
 21
127.45
  0
LINE
  8
0
 10
91.457
 11
91.457
 20
-16.529
 21
-16.43
  0
LINE
  8
0
 10
91.457
 11
91.464
 20
-16.43
 21
-16.331
  0
LINE
  8
0
 10
91.464
 11
91.473
 20
-16.331
 21
-16.231
  0
LINE
  8
0
 10
91.473
 11
91.489
 20
-16.231
 21
-16.132
  0
LINE
  8
0
 10
91.489
 11
91.508
 20
-16.132
 21
-16.034
  0
LINE
  8
0
 10
91.508
 11
91.533
 20
-16.034
 21
-15.937
  0
LINE
  8
0
 10
91.533
 11
91.561
 20
-15.937
 21
-15.841
  0
LINE
  8
0
 10
91.561
 11
91.595
 20
-15.841
 21
-15.748
  0
LINE
  8
0
 10
91.595
 11
91.633
 20
-15.748
 21
-15.655
  0
LINE
  8
0
 10
91.633
 11
91.675
 20
-15.655
 21
-15.564
  0
LINE
  8
0
 10
91.675
 11
91.721
 20
-15.564
 21
-15.475
  0
LINE
  8
0
 10
91.721
 11
91.772
 20
-15.475
 21
-15.39
  0
LINE
  8
0
 10
91.772
 11
91.827
 20
-15.39
 21
-15.306
  0
LINE
  8
0
 10
91.827
 11
91.885
 20
-15.306
 21
-15.225
  0
LINE
  8
0
 10
91.885
 11
91.948
 20
-15.225
 21
-15.147
  0
LINE
  8
0
 10
91.948
 11
92.014
 20
-15.147
 21
-15.072
  0
LINE
  8
0
 10
92.014
 11
92.083
 20
-15.072
 21
-15
  0
LINE
  8
0
 10
92.083
 11
92.156
 20
-15
 21
-14.932
  0
LINE
  8
0
 10
92.156
 11
92.233
 20
-14.932
 21
-14.867
  0
LINE
  8
0
 10
92.233
 11
92.311
 20
-14.867
 21
-14.806
  0
LINE
  8
0
 10
92.311
 11
92.394
 20
-14.806
 21
-14.748
  0
LINE
  8
0
 10
92.394
 11
92.478
 20
-14.748
 21
-14.695
  0
LINE
  8
0
 10
92.478
 11
92.565
 20
-14.695
 21
-14.645
  0
LINE
  8
0
 10
92.565
 11
92.654
 20
-14.645
 21
-14.6
  0
LINE
  8
0
 10
92.654
 11
92.746
 20
-14.6
 21
-14.559
  0
LINE
  8
0
 10
92.746
 11
92.839
 20
-14.559
 21
-14.523
  0
LINE
  8
0
 10
92.839
 11
92.934
 20
-14.523
 21
-14.491
  0
LINE
  8
0
 10
92.934
 11
93.03
 20
-14.491
 21
-14.464
  0
LINE
  8
0
 10
93.03
 11
93.127
 20
-14.464
 21
-14.441
  0
LINE
  8
0
 10
93.127
 11
93.225
 20
-14.441
 21
-14.422
  0
LINE
  8
0
 10
93.225
 11
93.324
 20
-14.422
 21
-14.409
  0
LINE
  8
0
 10
93.324
 11
93.424
 20
-14.409
 21
-14.401
  0
LINE
  8
0
 10
93.424
 11
93.524
 20
-14.401
 21
-14.397
  0
LINE
  8
0
 10
93.524
 11
93.623
 20
-14.397
 21
-14.397
  0
LINE
  8
0
 10
93.623
 11
93.723
 20
-14.397
 21
-14.404
  0
LINE
  8
0
 10
93.723
 11
93.823
 20
-14.404
 21
-14.413
  0
LINE
  8
0
 10
93.823
 11
93.921
 20
-14.413
 21
-14.428
  0
LINE
  8
0
 10
93.921
 11
94.02
 20
-14.428
 21
-14.448
  0
LINE
  8
0
 10
94.02
 11
94.117
 20
-14.448
 21
-14.473
  0
LINE
  8
0
 10
94.117
 11
94.212
 20
-14.473
 21
-14.501
  0
LINE
  8
0
 10
94.212
 11
94.306
 20
-14.501
 21
-14.535
  0
LINE
  8
0
 10
94.306
 11
94.399
 20
-14.535
 21
-14.573
  0
LINE
  8
0
 10
94.399
 11
94.49
 20
-14.573
 21
-14.615
  0
LINE
  8
0
 10
94.49
 11
94.578
 20
-14.615
 21
-14.661
  0
LINE
  8
0
 10
94.578
 11
94.664
 20
-14.661
 21
-14.712
  0
LINE
  8
0
 10
94.664
 11
94.747
 20
-14.712
 21
-14.767
  0
LINE
  8
0
 10
94.747
 11
94.828
 20
-14.767
 21
-14.825
  0
LINE
  8
0
 10
94.828
 11
94.907
 20
-14.825
 21
-14.888
  0
LINE
  8
0
 10
94.907
 11
94.981
 20
-14.888
 21
-14.954
  0
LINE
  8
0
 10
94.981
 11
95.053
 20
-14.954
 21
-15.023
  0
LINE
  8
0
 10
95.053
 11
95.122
 20
-15.023
 21
-15.096
  0
LINE
  8
0
 10
95.122
 11
95.186
 20
-15.096
 21
-15.172
  0
LINE
  8
0
 10
95.186
 11
95.248
 20
-15.172
 21
-15.251
  0
LINE
  8
0
 10
95.248
 11
95.305
 20
-15.251
 21
-15.334
  0
LINE
  8
0
 10
95.305
 11
95.358
 20
-15.334
 21
-15.418
  0
LINE
  8
0
 10
95.358
 11
95.408
 20
-15.418
 21
-15.505
  0
LINE
  8
0
 10
95.408
 11
95.453
 20
-15.505
 21
-15.594
  0
LINE
  8
0
 10
95.453
 11
95.494
 20
-15.594
 21
-15.686
  0
LINE
  8
0
 10
95.494
 11
95.53
 20
-15.686
 21
-15.778
  0
LINE
  8
0
 10
95.53
 11
95.562
 20
-15.778
 21
-15.873
  0
LINE
  8
0
 10
95.562
 11
95.589
 20
-15.873
 21
-15.969
  0
LINE
  8
0
 10
95.589
 11
95.613
 20
-15.969
 21
-16.067
  0
LINE
  8
0
 10
95.613
 11
95.631
 20
-16.067
 21
-16.165
  0
LINE
  8
0
 10
95.631
 11
95.644
 20
-16.165
 21
-16.263
  0
LINE
  8
0
 10
95.644
 11
95.653
 20
-16.263
 21
-16.364
  0
LINE
  8
0
 10
95.653
 11
95.656
 20
-16.364
 21
-16.464
  0
LINE
  8
0
 10
95.656
 11
95.656
 20
-16.464
 21
-16.563
  0
LINE
  8
0
 10
95.656
 11
95.65
 20
-16.563
 21
-16.663
  0
LINE
  8
0
 10
95.65
 11
95.64
 20
-16.663
 21
-16.762
  0
LINE
  8
0
 10
95.64
 11
95.625
 20
-16.762
 21
-16.861
  0
LINE
  8
0
 10
95.625
 11
95.605
 20
-16.861
 21
-16.959
  0
LINE
  8
0
 10
95.605
 11
95.58
 20
-16.959
 21
-17.056
  0
LINE
  8
0
 10
95.58
 11
95.552
 20
-17.056
 21
-17.152
  0
LINE
  8
0
 10
95.552
 11
95.518
 20
-17.152
 21
-17.246
  0
LINE
  8
0
 10
95.518
 11
95.481
 20
-17.246
 21
-17.338
  0
LINE
  8
0
 10
95.481
 11
95.438
 20
-17.338
 21
-17.429
  0
LINE
  8
0
 10
95.438
 11
95.392
 20
-17.429
 21
-17.518
  0
LINE
  8
0
 10
95.392
 11
95.342
 20
-17.518
 21
-17.603
  0
LINE
  8
0
 10
95.342
 11
95.286
 20
-17.603
 21
-17.687
  0
LINE
  8
0
 10
95.286
 11
95.228
 20
-17.687
 21
-17.768
  0
LINE
  8
0
 10
95.228
 11
95.166
 20
-17.768
 21
-17.846
  0
LINE
  8
0
 10
95.166
 11
95.1
 20
-17.846
 21
-17.921
  0
LINE
  8
0
 10
95.1
 11
95.03
 20
-17.921
 21
-17.993
  0
LINE
  8
0
 10
95.03
 11
94.957
 20
-17.993
 21
-18.062
  0
LINE
  8
0
 10
94.957
 11
94.881
 20
-18.062
 21
-18.126
  0
LINE
  8
0
 10
94.881
 11
94.802
 20
-18.126
 21
-18.188
  0
LINE
  8
0
 10
94.802
 11
94.72
 20
-18.188
 21
-18.245
  0
LINE
  8
0
 10
94.72
 11
94.635
 20
-18.245
 21
-18.298
  0
LINE
  8
0
 10
94.635
 11
94.548
 20
-18.298
 21
-18.348
  0
LINE
  8
0
 10
94.548
 11
94.459
 20
-18.348
 21
-18.393
  0
LINE
  8
0
 10
94.459
 11
94.368
 20
-18.393
 21
-18.434
  0
LINE
  8
0
 10
94.368
 11
94.275
 20
-18.434
 21
-18.47
  0
LINE
  8
0
 10
94.275
 11
94.18
 20
-18.47
 21
-18.502
  0
LINE
  8
0
 10
94.18
 11
94.084
 20
-18.502
 21
-18.529
  0
LINE
  8
0
 10
94.084
 11
93.986
 20
-18.529
 21
-18.552
  0
LINE
  8
0
 10
93.986
 11
93.889
 20
-18.552
 21
-18.571
  0
LINE
  8
0
 10
93.889
 11
93.79
 20
-18.571
 21
-18.584
  0
LINE
  8
0
 10
93.79
 11
93.69
 20
-18.584
 21
-18.593
  0
LINE
  8
0
 10
93.69
 11
93.59
 20
-18.593
 21
-18.596
  0
LINE
  8
0
 10
93.59
 11
93.49
 20
-18.596
 21
-18.596
  0
LINE
  8
0
 10
93.49
 11
93.391
 20
-18.596
 21
-18.59
  0
LINE
  8
0
 10
93.391
 11
93.291
 20
-18.59
 21
-18.58
  0
LINE
  8
0
 10
93.291
 11
93.192
 20
-18.58
 21
-18.565
  0
LINE
  8
0
 10
93.192
 11
93.094
 20
-18.565
 21
-18.545
  0
LINE
  8
0
 10
93.094
 11
92.997
 20
-18.545
 21
-18.52
  0
LINE
  8
0
 10
92.997
 11
92.901
 20
-18.52
 21
-18.492
  0
LINE
  8
0
 10
92.901
 11
92.808
 20
-18.492
 21
-18.458
  0
LINE
  8
0
 10
92.808
 11
92.715
 20
-18.458
 21
-18.421
  0
LINE
  8
0
 10
92.715
 11
92.624
 20
-18.421
 21
-18.378
  0
LINE
  8
0
 10
92.624
 11
92.535
 20
-18.378
 21
-18.332
  0
LINE
  8
0
 10
92.535
 11
92.45
 20
-18.332
 21
-18.282
  0
LINE
  8
0
 10
92.45
 11
92.366
 20
-18.282
 21
-18.226
  0
LINE
  8
0
 10
92.366
 11
92.285
 20
-18.226
 21
-18.168
  0
LINE
  8
0
 10
92.285
 11
92.207
 20
-18.168
 21
-18.106
  0
LINE
  8
0
 10
92.207
 11
92.132
 20
-18.106
 21
-18.04
  0
LINE
  8
0
 10
92.132
 11
92.06
 20
-18.04
 21
-17.97
  0
LINE
  8
0
 10
92.06
 11
91.992
 20
-17.97
 21
-17.897
  0
LINE
  8
0
 10
91.992
 11
91.927
 20
-17.897
 21
-17.821
  0
LINE
  8
0
 10
91.927
 11
91.866
 20
-17.821
 21
-17.742
  0
LINE
  8
0
 10
91.866
 11
91.808
 20
-17.742
 21
-17.66
  0
LINE
  8
0
 10
91.808
 11
91.755
 20
-17.66
 21
-17.575
  0
LINE
  8
0
 10
91.755
 11
91.705
 20
-17.575
 21
-17.488
  0
LINE
  8
0
 10
91.705
 11
91.66
 20
-17.488
 21
-17.399
  0
LINE
  8
0
 10
91.66
 11
91.619
 20
-17.399
 21
-17.307
  0
LINE
  8
0
 10
91.619
 11
91.583
 20
-17.307
 21
-17.215
  0
LINE
  8
0
 10
91.583
 11
91.551
 20
-17.215
 21
-17.12
  0
LINE
  8
0
 10
91.551
 11
91.524
 20
-17.12
 21
-17.024
  0
LINE
  8
0
 10
91.524
 11
91.501
 20
-17.024
 21
-16.926
  0
LINE
  8
0
 10
91.501
 11
91.483
 20
-16.926
 21
-16.828
  0
LINE
  8
0
 10
91.483
 11
91.47
 20
-16.828
 21
-16.73
  0
LINE
  8
0
 10
91.47
 11
91.461
 20
-16.73
 21
-16.63
  0
LINE
  8
0
 10
91.461
 11
91.457
 20
-16.63
 21
-16.529
  0
LINE
  8
0
 10
93.169
 11
93.17
 20
-89.747
 21
-89.647
  0
LINE
  8
0
 10
93.17
 11
93.176
 20
-89.647
 21
-89.548
  0
LINE
  8
0
 10
93.176
 11
93.186
 20
-89.548
 21
-89.45
  0
LINE
  8
0
 10
93.186
 11
93.201
 20
-89.45
 21
-89.351
  0
LINE
  8
0
 10
93.201
 11
93.219
 20
-89.351
 21
-89.253
  0
LINE
  8
0
 10
93.219
 11
93.243
 20
-89.253
 21
-89.156
  0
LINE
  8
0
 10
93.243
 11
93.27
 20
-89.156
 21
-89.061
  0
LINE
  8
0
 10
93.27
 11
93.302
 20
-89.061
 21
-88.966
  0
LINE
  8
0
 10
93.302
 11
93.338
 20
-88.966
 21
-88.874
  0
LINE
  8
0
 10
93.338
 11
93.378
 20
-88.874
 21
-88.783
  0
LINE
  8
0
 10
93.378
 11
93.421
 20
-88.783
 21
-88.693
  0
LINE
  8
0
 10
93.421
 11
93.47
 20
-88.693
 21
-88.606
  0
LINE
  8
0
 10
93.47
 11
93.521
 20
-88.606
 21
-88.52
  0
LINE
  8
0
 10
93.521
 11
93.577
 20
-88.52
 21
-88.438
  0
LINE
  8
0
 10
93.577
 11
93.636
 20
-88.438
 21
-88.358
  0
LINE
  8
0
 10
93.636
 11
93.698
 20
-88.358
 21
-88.28
  0
LINE
  8
0
 10
93.698
 11
93.764
 20
-88.28
 21
-88.205
  0
LINE
  8
0
 10
93.764
 11
93.833
 20
-88.205
 21
-88.134
  0
LINE
  8
0
 10
93.833
 11
93.905
 20
-88.134
 21
-88.065
  0
LINE
  8
0
 10
93.905
 11
93.981
 20
-88.065
 21
-88
  0
LINE
  8
0
 10
93.981
 11
94.059
 20
-88
 21
-87.938
  0
LINE
  8
0
 10
94.059
 11
94.139
 20
-87.938
 21
-87.88
  0
LINE
  8
0
 10
94.139
 11
94.222
 20
-87.88
 21
-87.825
  0
LINE
  8
0
 10
94.222
 11
94.308
 20
-87.825
 21
-87.774
  0
LINE
  8
0
 10
94.308
 11
94.395
 20
-87.774
 21
-87.727
  0
LINE
  8
0
 10
94.395
 11
94.485
 20
-87.727
 21
-87.684
  0
LINE
  8
0
 10
94.485
 11
94.577
 20
-87.684
 21
-87.644
  0
LINE
  8
0
 10
94.577
 11
94.67
 20
-87.644
 21
-87.609
  0
LINE
  8
0
 10
94.67
 11
94.764
 20
-87.609
 21
-87.578
  0
LINE
  8
0
 10
94.764
 11
94.86
 20
-87.578
 21
-87.552
  0
LINE
  8
0
 10
94.86
 11
94.957
 20
-87.552
 21
-87.528
  0
LINE
  8
0
 10
94.957
 11
95.055
 20
-87.528
 21
-87.511
  0
LINE
  8
0
 10
95.055
 11
95.153
 20
-87.511
 21
-87.496
  0
LINE
  8
0
 10
95.153
 11
95.252
 20
-87.496
 21
-87.487
  0
LINE
  8
0
 10
95.252
 11
95.352
 20
-87.487
 21
-87.481
  0
LINE
  8
0
 10
95.352
 11
95.452
 20
-87.481
 21
-87.481
  0
LINE
  8
0
 10
95.452
 11
95.551
 20
-87.481
 21
-87.485
  0
LINE
  8
0
 10
95.551
 11
95.65
 20
-87.485
 21
-87.493
  0
LINE
  8
0
 10
95.65
 11
95.749
 20
-87.493
 21
-87.505
  0
LINE
  8
0
 10
95.749
 11
95.847
 20
-87.505
 21
-87.522
  0
LINE
  8
0
 10
95.847
 11
95.945
 20
-87.522
 21
-87.543
  0
LINE
  8
0
 10
95.945
 11
96.041
 20
-87.543
 21
-87.568
  0
LINE
  8
0
 10
96.041
 11
96.136
 20
-87.568
 21
-87.598
  0
LINE
  8
0
 10
96.136
 11
96.229
 20
-87.598
 21
-87.632
  0
LINE
  8
0
 10
96.229
 11
96.321
 20
-87.632
 21
-87.67
  0
LINE
  8
0
 10
96.321
 11
96.412
 20
-87.67
 21
-87.712
  0
LINE
  8
0
 10
96.412
 11
96.499
 20
-87.712
 21
-87.758
  0
LINE
  8
0
 10
96.499
 11
96.586
 20
-87.758
 21
-87.808
  0
LINE
  8
0
 10
96.586
 11
96.67
 20
-87.808
 21
-87.861
  0
LINE
  8
0
 10
96.67
 11
96.751
 20
-87.861
 21
-87.918
  0
LINE
  8
0
 10
96.751
 11
96.83
 20
-87.918
 21
-87.979
  0
LINE
  8
0
 10
96.83
 11
96.907
 20
-87.979
 21
-88.043
  0
LINE
  8
0
 10
96.907
 11
96.98
 20
-88.043
 21
-88.11
  0
LINE
  8
0
 10
96.98
 11
97.05
 20
-88.11
 21
-88.181
  0
LINE
  8
0
 10
97.05
 11
97.117
 20
-88.181
 21
-88.255
  0
LINE
  8
0
 10
97.117
 11
97.18
 20
-88.255
 21
-88.331
  0
LINE
  8
0
 10
97.18
 11
97.24
 20
-88.331
 21
-88.411
  0
LINE
  8
0
 10
97.24
 11
97.297
 20
-88.411
 21
-88.493
  0
LINE
  8
0
 10
97.297
 11
97.35
 20
-88.493
 21
-88.577
  0
LINE
  8
0
 10
97.35
 11
97.399
 20
-88.577
 21
-88.663
  0
LINE
  8
0
 10
97.399
 11
97.445
 20
-88.663
 21
-88.753
  0
LINE
  8
0
 10
97.445
 11
97.486
 20
-88.753
 21
-88.843
  0
LINE
  8
0
 10
97.486
 11
97.523
 20
-88.843
 21
-88.936
  0
LINE
  8
0
 10
97.523
 11
97.557
 20
-88.936
 21
-89.029
  0
LINE
  8
0
 10
97.557
 11
97.584
 20
-89.029
 21
-89.125
  0
LINE
  8
0
 10
97.584
 11
97.61
 20
-89.125
 21
-89.221
  0
LINE
  8
0
 10
97.61
 11
97.63
 20
-89.221
 21
-89.318
  0
LINE
  8
0
 10
97.63
 11
97.646
 20
-89.318
 21
-89.416
  0
LINE
  8
0
 10
97.646
 11
97.658
 20
-89.416
 21
-89.516
  0
LINE
  8
0
 10
97.658
 11
97.665
 20
-89.516
 21
-89.615
  0
LINE
  8
0
 10
97.665
 11
97.668
 20
-89.615
 21
-89.714
  0
LINE
  8
0
 10
97.668
 11
97.667
 20
-89.714
 21
-89.814
  0
LINE
  8
0
 10
97.667
 11
97.66
 20
-89.814
 21
-89.913
  0
LINE
  8
0
 10
97.66
 11
97.651
 20
-89.913
 21
-90.012
  0
LINE
  8
0
 10
97.651
 11
97.636
 20
-90.012
 21
-90.11
  0
LINE
  8
0
 10
97.636
 11
97.617
 20
-90.11
 21
-90.208
  0
LINE
  8
0
 10
97.617
 11
97.593
 20
-90.208
 21
-90.305
  0
LINE
  8
0
 10
97.593
 11
97.566
 20
-90.305
 21
-90.4
  0
LINE
  8
0
 10
97.566
 11
97.534
 20
-90.4
 21
-90.495
  0
LINE
  8
0
 10
97.534
 11
97.498
 20
-90.495
 21
-90.588
  0
LINE
  8
0
 10
97.498
 11
97.459
 20
-90.588
 21
-90.679
  0
LINE
  8
0
 10
97.459
 11
97.415
 20
-90.679
 21
-90.768
  0
LINE
  8
0
 10
97.415
 11
97.367
 20
-90.768
 21
-90.856
  0
LINE
  8
0
 10
97.367
 11
97.315
 20
-90.856
 21
-90.941
  0
LINE
  8
0
 10
97.315
 11
97.26
 20
-90.941
 21
-91.024
  0
LINE
  8
0
 10
97.26
 11
97.2
 20
-91.024
 21
-91.104
  0
LINE
  8
0
 10
97.2
 11
97.138
 20
-91.104
 21
-91.181
  0
LINE
  8
0
 10
97.138
 11
97.072
 20
-91.181
 21
-91.256
  0
LINE
  8
0
 10
97.072
 11
97.003
 20
-91.256
 21
-91.327
  0
LINE
  8
0
 10
97.003
 11
96.931
 20
-91.327
 21
-91.396
  0
LINE
  8
0
 10
96.931
 11
96.856
 20
-91.396
 21
-91.461
  0
LINE
  8
0
 10
96.856
 11
96.778
 20
-91.461
 21
-91.524
  0
LINE
  8
0
 10
96.778
 11
96.697
 20
-91.524
 21
-91.581
  0
LINE
  8
0
 10
96.697
 11
96.615
 20
-91.581
 21
-91.636
  0
LINE
  8
0
 10
96.615
 11
96.529
 20
-91.636
 21
-91.687
  0
LINE
  8
0
 10
96.529
 11
96.441
 20
-91.687
 21
-91.735
  0
LINE
  8
0
 10
96.441
 11
96.352
 20
-91.735
 21
-91.778
  0
LINE
  8
0
 10
96.352
 11
96.26
 20
-91.778
 21
-91.817
  0
LINE
  8
0
 10
96.26
 11
96.167
 20
-91.817
 21
-91.852
  0
LINE
  8
0
 10
96.167
 11
96.073
 20
-91.852
 21
-91.883
  0
LINE
  8
0
 10
96.073
 11
95.976
 20
-91.883
 21
-91.91
  0
LINE
  8
0
 10
95.976
 11
95.88
 20
-91.91
 21
-91.934
  0
LINE
  8
0
 10
95.88
 11
95.782
 20
-91.934
 21
-91.951
  0
LINE
  8
0
 10
95.782
 11
95.683
 20
-91.951
 21
-91.966
  0
LINE
  8
0
 10
95.683
 11
95.585
 20
-91.966
 21
-91.975
  0
LINE
  8
0
 10
95.585
 11
95.484
 20
-91.975
 21
-91.98
  0
LINE
  8
0
 10
95.484
 11
95.385
 20
-91.98
 21
-91.981
  0
LINE
  8
0
 10
95.385
 11
95.286
 20
-91.981
 21
-91.976
  0
LINE
  8
0
 10
95.286
 11
95.186
 20
-91.976
 21
-91.969
  0
LINE
  8
0
 10
95.186
 11
95.087
 20
-91.969
 21
-91.956
  0
LINE
  8
0
 10
95.087
 11
94.99
 20
-91.956
 21
-91.939
  0
LINE
  8
0
 10
94.99
 11
94.892
 20
-91.939
 21
-91.919
  0
LINE
  8
0
 10
94.892
 11
94.796
 20
-91.919
 21
-91.893
  0
LINE
  8
0
 10
94.796
 11
94.701
 20
-91.893
 21
-91.864
  0
LINE
  8
0
 10
94.701
 11
94.607
 20
-91.864
 21
-91.829
  0
LINE
  8
0
 10
94.607
 11
94.515
 20
-91.829
 21
-91.791
  0
LINE
  8
0
 10
94.515
 11
94.425
 20
-91.791
 21
-91.749
  0
LINE
  8
0
 10
94.425
 11
94.337
 20
-91.749
 21
-91.703
  0
LINE
  8
0
 10
94.337
 11
94.25
 20
-91.703
 21
-91.653
  0
LINE
  8
0
 10
94.25
 11
94.167
 20
-91.653
 21
-91.6
  0
LINE
  8
0
 10
94.167
 11
94.085
 20
-91.6
 21
-91.543
  0
LINE
  8
0
 10
94.085
 11
94.006
 20
-91.543
 21
-91.482
  0
LINE
  8
0
 10
94.006
 11
93.93
 20
-91.482
 21
-91.419
  0
LINE
  8
0
 10
93.93
 11
93.857
 20
-91.419
 21
-91.351
  0
LINE
  8
0
 10
93.857
 11
93.787
 20
-91.351
 21
-91.281
  0
LINE
  8
0
 10
93.787
 11
93.72
 20
-91.281
 21
-91.206
  0
LINE
  8
0
 10
93.72
 11
93.656
 20
-91.206
 21
-91.13
  0
LINE
  8
0
 10
93.656
 11
93.596
 20
-91.13
 21
-91.051
  0
LINE
  8
0
 10
93.596
 11
93.54
 20
-91.051
 21
-90.968
  0
LINE
  8
0
 10
93.54
 11
93.487
 20
-90.968
 21
-90.885
  0
LINE
  8
0
 10
93.487
 11
93.437
 20
-90.885
 21
-90.798
  0
LINE
  8
0
 10
93.437
 11
93.392
 20
-90.798
 21
-90.709
  0
LINE
  8
0
 10
93.392
 11
93.35
 20
-90.709
 21
-90.619
  0
LINE
  8
0
 10
93.35
 11
93.314
 20
-90.619
 21
-90.526
  0
LINE
  8
0
 10
93.314
 11
93.28
 20
-90.526
 21
-90.433
  0
LINE
  8
0
 10
93.28
 11
93.252
 20
-90.433
 21
-90.337
  0
LINE
  8
0
 10
93.252
 11
93.227
 20
-90.337
 21
-90.24
  0
LINE
  8
0
 10
93.227
 11
93.207
 20
-90.24
 21
-90.143
  0
LINE
  8
0
 10
93.207
 11
93.191
 20
-90.143
 21
-90.045
  0
LINE
  8
0
 10
93.191
 11
93.179
 20
-90.045
 21
-89.946
  0
LINE
  8
0
 10
93.179
 11
93.171
 20
-89.946
 21
-89.847
  0
LINE
  8
0
 10
93.171
 11
93.169
 20
-89.847
 21
-89.747
  0
LINE
  8
0
 10
123.169
 11
123.17
 20
-37.786
 21
-37.686
  0
LINE
  8
0
 10
123.17
 11
123.176
 20
-37.686
 21
-37.587
  0
LINE
  8
0
 10
123.176
 11
123.186
 20
-37.587
 21
-37.488
  0
LINE
  8
0
 10
123.186
 11
123.201
 20
-37.488
 21
-37.39
  0
LINE
  8
0
 10
123.201
 11
123.219
 20
-37.39
 21
-37.292
  0
LINE
  8
0
 10
123.219
 11
123.243
 20
-37.292
 21
-37.195
  0
LINE
  8
0
 10
123.243
 11
123.27
 20
-37.195
 21
-37.1
  0
LINE
  8
0
 10
123.27
 11
123.302
 20
-37.1
 21
-37.005
  0
LINE
  8
0
 10
123.302
 11
123.338
 20
-37.005
 21
-36.912
  0
LINE
  8
0
 10
123.338
 11
123.378
 20
-36.912
 21
-36.821
  0
LINE
  8
0
 10
123.378
 11
123.421
 20
-36.821
 21
-36.732
  0
LINE
  8
0
 10
123.421
 11
123.47
 20
-36.732
 21
-36.644
  0
LINE
  8
0
 10
123.47
 11
123.521
 20
-36.644
 21
-36.559
  0
LINE
  8
0
 10
123.521
 11
123.577
 20
-36.559
 21
-36.476
  0
LINE
  8
0
 10
123.577
 11
123.636
 20
-36.476
 21
-36.396
  0
LINE
  8
0
 10
123.636
 11
123.698
 20
-36.396
 21
-36.319
  0
LINE
  8
0
 10
123.698
 11
123.764
 20
-36.319
 21
-36.244
  0
LINE
  8
0
 10
123.764
 11
123.833
 20
-36.244
 21
-36.173
  0
LINE
  8
0
 10
123.833
 11
123.905
 20
-36.173
 21
-36.104
  0
LINE
  8
0
 10
123.905
 11
123.981
 20
-36.104
 21
-36.039
  0
LINE
  8
0
 10
123.981
 11
124.059
 20
-36.039
 21
-35.976
  0
LINE
  8
0
 10
124.059
 11
124.139
 20
-35.976
 21
-35.919
  0
LINE
  8
0
 10
124.139
 11
124.222
 20
-35.919
 21
-35.864
  0
LINE
  8
0
 10
124.222
 11
124.308
 20
-35.864
 21
-35.813
  0
LINE
  8
0
 10
124.308
 11
124.395
 20
-35.813
 21
-35.765
  0
LINE
  8
0
 10
124.395
 11
124.485
 20
-35.765
 21
-35.722
  0
LINE
  8
0
 10
124.485
 11
124.577
 20
-35.722
 21
-35.683
  0
LINE
  8
0
 10
124.577
 11
124.67
 20
-35.683
 21
-35.648
  0
LINE
  8
0
 10
124.67
 11
124.764
 20
-35.648
 21
-35.617
  0
LINE
  8
0
 10
124.764
 11
124.86
 20
-35.617
 21
-35.59
  0
LINE
  8
0
 10
124.86
 11
124.957
 20
-35.59
 21
-35.566
  0
LINE
  8
0
 10
124.957
 11
125.055
 20
-35.566
 21
-35.549
  0
LINE
  8
0
 10
125.055
 11
125.153
 20
-35.549
 21
-35.534
  0
LINE
  8
0
 10
125.153
 11
125.252
 20
-35.534
 21
-35.525
  0
LINE
  8
0
 10
125.252
 11
125.352
 20
-35.525
 21
-35.52
  0
LINE
  8
0
 10
125.352
 11
125.452
 20
-35.52
 21
-35.519
  0
LINE
  8
0
 10
125.452
 11
125.551
 20
-35.519
 21
-35.524
  0
LINE
  8
0
 10
125.551
 11
125.65
 20
-35.524
 21
-35.531
  0
LINE
  8
0
 10
125.65
 11
125.749
 20
-35.531
 21
-35.544
  0
LINE
  8
0
 10
125.749
 11
125.847
 20
-35.544
 21
-35.561
  0
LINE
  8
0
 10
125.847
 11
125.945
 20
-35.561
 21
-35.581
  0
LINE
  8
0
 10
125.945
 11
126.041
 20
-35.581
 21
-35.607
  0
LINE
  8
0
 10
126.041
 11
126.136
 20
-35.607
 21
-35.636
  0
LINE
  8
0
 10
126.136
 11
126.229
 20
-35.636
 21
-35.671
  0
LINE
  8
0
 10
126.229
 11
126.321
 20
-35.671
 21
-35.709
  0
LINE
  8
0
 10
126.321
 11
126.412
 20
-35.709
 21
-35.751
  0
LINE
  8
0
 10
126.412
 11
126.499
 20
-35.751
 21
-35.797
  0
LINE
  8
0
 10
126.499
 11
126.586
 20
-35.797
 21
-35.847
  0
LINE
  8
0
 10
126.586
 11
126.67
 20
-35.847
 21
-35.9
  0
LINE
  8
0
 10
126.67
 11
126.751
 20
-35.9
 21
-35.957
  0
LINE
  8
0
 10
126.751
 11
126.83
 20
-35.957
 21
-36.018
  0
LINE
  8
0
 10
126.83
 11
126.907
 20
-36.018
 21
-36.081
  0
LINE
  8
0
 10
126.907
 11
126.98
 20
-36.081
 21
-36.149
  0
LINE
  8
0
 10
126.98
 11
127.05
 20
-36.149
 21
-36.219
  0
LINE
  8
0
 10
127.05
 11
127.117
 20
-36.219
 21
-36.294
  0
LINE
  8
0
 10
127.117
 11
127.18
 20
-36.294
 21
-36.37
  0
LINE
  8
0
 10
127.18
 11
127.24
 20
-36.37
 21
-36.449
  0
LINE
  8
0
 10
127.24
 11
127.297
 20
-36.449
 21
-36.532
  0
LINE
  8
0
 10
127.297
 11
127.35
 20
-36.532
 21
-36.615
  0
LINE
  8
0
 10
127.35
 11
127.399
 20
-36.615
 21
-36.702
  0
LINE
  8
0
 10
127.399
 11
127.445
 20
-36.702
 21
-36.791
  0
LINE
  8
0
 10
127.445
 11
127.486
 20
-36.791
 21
-36.881
  0
LINE
  8
0
 10
127.486
 11
127.523
 20
-36.881
 21
-36.974
  0
LINE
  8
0
 10
127.523
 11
127.557
 20
-36.974
 21
-37.067
  0
LINE
  8
0
 10
127.557
 11
127.584
 20
-37.067
 21
-37.163
  0
LINE
  8
0
 10
127.584
 11
127.61
 20
-37.163
 21
-37.26
  0
LINE
  8
0
 10
127.61
 11
127.63
 20
-37.26
 21
-37.357
  0
LINE
  8
0
 10
127.63
 11
127.646
 20
-37.357
 21
-37.455
  0
LINE
  8
0
 10
127.646
 11
127.658
 20
-37.455
 21
-37.554
  0
LINE
  8
0
 10
127.658
 11
127.665
 20
-37.554
 21
-37.653
  0
LINE
  8
0
 10
127.665
 11
127.668
 20
-37.653
 21
-37.753
  0
LINE
  8
0
 10
127.668
 11
127.667
 20
-37.753
 21
-37.853
  0
LINE
  8
0
 10
127.667
 11
127.66
 20
-37.853
 21
-37.952
  0
LINE
  8
0
 10
127.66
 11
127.651
 20
-37.952
 21
-38.05
  0
LINE
  8
0
 10
127.651
 11
127.636
 20
-38.05
 21
-38.149
  0
LINE
  8
0
 10
127.636
 11
127.617
 20
-38.149
 21
-38.247
  0
LINE
  8
0
 10
127.617
 11
127.593
 20
-38.247
 21
-38.344
  0
LINE
  8
0
 10
127.593
 11
127.566
 20
-38.344
 21
-38.439
  0
LINE
  8
0
 10
127.566
 11
127.534
 20
-38.439
 21
-38.534
  0
LINE
  8
0
 10
127.534
 11
127.498
 20
-38.534
 21
-38.626
  0
LINE
  8
0
 10
127.498
 11
127.459
 20
-38.626
 21
-38.717
  0
LINE
  8
0
 10
127.459
 11
127.415
 20
-38.717
 21
-38.807
  0
LINE
  8
0
 10
127.415
 11
127.367
 20
-38.807
 21
-38.894
  0
LINE
  8
0
 10
127.367
 11
127.315
 20
-38.894
 21
-38.98
  0
LINE
  8
0
 10
127.315
 11
127.26
 20
-38.98
 21
-39.062
  0
LINE
  8
0
 10
127.26
 11
127.2
 20
-39.062
 21
-39.142
  0
LINE
  8
0
 10
127.2
 11
127.138
 20
-39.142
 21
-39.22
  0
LINE
  8
0
 10
127.138
 11
127.072
 20
-39.22
 21
-39.295
  0
LINE
  8
0
 10
127.072
 11
127.003
 20
-39.295
 21
-39.366
  0
LINE
  8
0
 10
127.003
 11
126.931
 20
-39.366
 21
-39.435
  0
LINE
  8
0
 10
126.931
 11
126.856
 20
-39.435
 21
-39.5
  0
LINE
  8
0
 10
126.856
 11
126.778
 20
-39.5
 21
-39.562
  0
LINE
  8
0
 10
126.778
 11
126.697
 20
-39.562
 21
-39.62
  0
LINE
  8
0
 10
126.697
 11
126.615
 20
-39.62
 21
-39.675
  0
LINE
  8
0
 10
126.615
 11
126.529
 20
-39.675
 21
-39.726
  0
LINE
  8
0
 10
126.529
 11
126.441
 20
-39.726
 21
-39.773
  0
LINE
  8
0
 10
126.441
 11
126.352
 20
-39.773
 21
-39.816
  0
LINE
  8
0
 10
126.352
 11
126.26
 20
-39.816
 21
-39.856
  0
LINE
  8
0
 10
126.26
 11
126.167
 20
-39.856
 21
-39.891
  0
LINE
  8
0
 10
126.167
 11
126.073
 20
-39.891
 21
-39.922
  0
LINE
  8
0
 10
126.073
 11
125.976
 20
-39.922
 21
-39.948
  0
LINE
  8
0
 10
125.976
 11
125.88
 20
-39.948
 21
-39.972
  0
LINE
  8
0
 10
125.88
 11
125.782
 20
-39.972
 21
-39.989
  0
LINE
  8
0
 10
125.782
 11
125.683
 20
-39.989
 21
-40.004
  0
LINE
  8
0
 10
125.683
 11
125.585
 20
-40.004
 21
-40.013
  0
LINE
  8
0
 10
125.585
 11
125.484
 20
-40.013
 21
-40.019
  0
LINE
  8
0
 10
125.484
 11
125.385
 20
-40.019
 21
-40.019
  0
LINE
  8
0
 10
125.385
 11
125.286
 20
-40.019
 21
-40.015
  0
LINE
  8
0
 10
125.286
 11
125.186
 20
-40.015
 21
-40.007
  0
LINE
  8
0
 10
125.186
 11
125.087
 20
-40.007
 21
-39.995
  0
LINE
  8
0
 10
125.087
 11
124.99
 20
-39.995
 21
-39.978
  0
LINE
  8
0
 10
124.99
 11
124.892
 20
-39.978
 21
-39.957
  0
LINE
  8
0
 10
124.892
 11
124.796
 20
-39.957
 21
-39.932
  0
LINE
  8
0
 10
124.796
 11
124.701
 20
-39.932
 21
-39.902
  0
LINE
  8
0
 10
124.701
 11
124.607
 20
-39.902
 21
-39.868
  0
LINE
  8
0
 10
124.607
 11
124.515
 20
-39.868
 21
-39.83
  0
LINE
  8
0
 10
124.515
 11
124.425
 20
-39.83
 21
-39.788
  0
LINE
  8
0
 10
124.425
 11
124.337
 20
-39.788
 21
-39.742
  0
LINE
  8
0
 10
124.337
 11
124.25
 20
-39.742
 21
-39.692
  0
LINE
  8
0
 10
124.25
 11
124.167
 20
-39.692
 21
-39.639
  0
LINE
  8
0
 10
124.167
 11
124.085
 20
-39.639
 21
-39.582
  0
LINE
  8
0
 10
124.085
 11
124.006
 20
-39.582
 21
-39.521
  0
LINE
  8
0
 10
124.006
 11
123.93
 20
-39.521
 21
-39.457
  0
LINE
  8
0
 10
123.93
 11
123.857
 20
-39.457
 21
-39.39
  0
LINE
  8
0
 10
123.857
 11
123.787
 20
-39.39
 21
-39.319
  0
LINE
  8
0
 10
123.787
 11
123.72
 20
-39.319
 21
-39.245
  0
LINE
  8
0
 10
123.72
 11
123.656
 20
-39.245
 21
-39.169
  0
LINE
  8
0
 10
123.656
 11
123.596
 20
-39.169
 21
-39.089
  0
LINE
  8
0
 10
123.596
 11
123.54
 20
-39.089
 21
-39.007
  0
LINE
  8
0
 10
123.54
 11
123.487
 20
-39.007
 21
-38.923
  0
LINE
  8
0
 10
123.487
 11
123.437
 20
-38.923
 21
-38.837
  0
LINE
  8
0
 10
123.437
 11
123.392
 20
-38.837
 21
-38.747
  0
LINE
  8
0
 10
123.392
 11
123.35
 20
-38.747
 21
-38.657
  0
LINE
  8
0
 10
123.35
 11
123.314
 20
-38.657
 21
-38.564
  0
LINE
  8
0
 10
123.314
 11
123.28
 20
-38.564
 21
-38.471
  0
LINE
  8
0
 10
123.28
 11
123.252
 20
-38.471
 21
-38.375
  0
LINE
  8
0
 10
123.252
 11
123.227
 20
-38.375
 21
-38.279
  0
LINE
  8
0
 10
123.227
 11
123.207
 20
-38.279
 21
-38.182
  0
LINE
  8
0
 10
123.207
 11
123.191
 20
-38.182
 21
-38.084
  0
LINE
  8
0
 10
123.191
 11
123.179
 20
-38.084
 21
-37.984
  0
LINE
  8
0
 10
123.179
 11
123.171
 20
-37.984
 21
-37.885
  0
LINE
  8
0
 10
123.171
 11
123.169
 20
-37.885
 21
-37.786
  0
ENDSEC
  0
SECTION
  2
OBJECTS
  0
DICTIONARY
  0
ENDSEC
  0
EOF
