  0
SECTION
  2
BLOCKS
  0
ENDSEC
  0
SECTION
  2
ENTITIES
  0
LINE
  8
0
 10
-19
 11
-18.974
 20
0
 21
0.994
  0
LINE
  8
0
 10
-18.974
 11
-18.896
 20
0.994
 21
1.986
  0
LINE
  8
0
 10
-18.896
 11
-18.766
 20
1.986
 21
2.972
  0
LINE
  8
0
 10
-18.766
 11
-18.585
 20
2.972
 21
3.95
  0
LINE
  8
0
 10
-18.585
 11
-18.353
 20
3.95
 21
4.918
  0
LINE
  8
0
 10
-18.353
 11
-18.07
 20
4.918
 21
5.871
  0
LINE
  8
0
 10
-18.07
 11
-17.738
 20
5.871
 21
6.809
  0
LINE
  8
0
 10
-17.738
 11
-17.357
 20
6.809
 21
7.728
  0
LINE
  8
0
 10
-17.357
 11
-16.929
 20
7.728
 21
8.626
  0
LINE
  8
0
 10
-16.929
 11
-16.454
 20
8.626
 21
9.5
  0
LINE
  8
0
 10
-16.454
 11
-15.935
 20
9.5
 21
10.348
  0
LINE
  8
0
 10
-15.935
 11
-15.371
 20
10.348
 21
11.168
  0
LINE
  8
0
 10
-15.371
 11
-14.766
 20
11.168
 21
11.957
  0
LINE
  8
0
 10
-14.766
 11
-14.12
 20
11.957
 21
12.713
  0
LINE
  8
0
 10
-14.12
 11
-13.435
 20
12.713
 21
13.435
  0
LINE
  8
0
 10
-13.435
 11
-12.713
 20
13.435
 21
14.12
  0
LINE
  8
0
 10
-12.713
 11
-11.957
 20
14.12
 21
14.766
  0
LINE
  8
0
 10
-11.957
 11
-11.168
 20
14.766
 21
15.371
  0
LINE
  8
0
 10
-11.168
 11
-10.348
 20
15.371
 21
15.935
  0
LINE
  8
0
 10
-10.348
 11
-9.5
 20
15.935
 21
16.454
  0
LINE
  8
0
 10
-9.5
 11
-9.47
 20
16.454
 21
16.47
  0
LINE
  8
0
 10
-9.47
 11
-5.5
 20
16.47
 21
12.5
  0
LINE
  8
0
 10
-5.5
 11
-5.5
 20
12.5
 21
2.347
  0
LINE
  8
0
 10
-5.5
 11
-5.675
 20
2.347
 21
1.948
  0
LINE
  8
0
 10
-5.675
 11
-5.918
 20
1.948
 21
0.988
  0
LINE
  8
0
 10
-5.918
 11
-6
 20
0.988
 21
0
  0
LINE
  8
0
 10
-6
 11
-5.918
 20
0
 21
-0.988
  0
LINE
  8
0
 10
-5.918
 11
-5.675
 20
-0.988
 21
-1.948
  0
LINE
  8
0
 10
-5.675
 11
-5.277
 20
-1.948
 21
-2.856
  0
LINE
  8
0
 10
-5.277
 11
-4.735
 20
-2.856
 21
-3.685
  0
LINE
  8
0
 10
-4.735
 11
-4.064
 20
-3.685
 21
-4.414
  0
LINE
  8
0
 10
-4.064
 11
-3.282
 20
-4.414
 21
-5.023
  0
LINE
  8
0
 10
-3.282
 11
-2.41
 20
-5.023
 21
-5.495
  0
LINE
  8
0
 10
-2.41
 11
-1.473
 20
-5.495
 21
-5.816
  0
LINE
  8
0
 10
-1.473
 11
-0.495
 20
-5.816
 21
-5.98
  0
LINE
  8
0
 10
-0.495
 11
0.495
 20
-5.98
 21
-5.98
  0
LINE
  8
0
 10
0.495
 11
1.473
 20
-5.98
 21
-5.816
  0
LINE
  8
0
 10
1.473
 11
2.41
 20
-5.816
 21
-5.495
  0
LINE
  8
0
 10
2.41
 11
3.282
 20
-5.495
 21
-5.023
  0
LINE
  8
0
 10
3.282
 11
4.064
 20
-5.023
 21
-4.414
  0
LINE
  8
0
 10
4.064
 11
4.735
 20
-4.414
 21
-3.685
  0
LINE
  8
0
 10
4.735
 11
5.277
 20
-3.685
 21
-2.856
  0
LINE
  8
0
 10
5.277
 11
5.675
 20
-2.856
 21
-1.948
  0
LINE
  8
0
 10
5.675
 11
5.918
 20
-1.948
 21
-0.988
  0
LINE
  8
0
 10
5.918
 11
6
 20
-0.988
 21
0
  0
LINE
  8
0
 10
6
 11
5.918
 20
0
 21
0.988
  0
LINE
  8
0
 10
5.918
 11
5.675
 20
0.988
 21
1.948
  0
LINE
  8
0
 10
5.675
 11
5.5
 20
1.948
 21
2.347
  0
LINE
  8
0
 10
5.5
 11
5.5
 20
2.347
 21
12.5
  0
LINE
  8
0
 10
5.5
 11
9.47
 20
12.5
 21
16.47
  0
LINE
  8
0
 10
9.47
 11
9.5
 20
16.47
 21
16.454
  0
LINE
  8
0
 10
9.5
 11
10.348
 20
16.454
 21
15.935
  0
LINE
  8
0
 10
10.348
 11
11.168
 20
15.935
 21
15.371
  0
LINE
  8
0
 10
11.168
 11
11.957
 20
15.371
 21
14.766
  0
LINE
  8
0
 10
11.957
 11
12.713
 20
14.766
 21
14.12
  0
LINE
  8
0
 10
12.713
 11
13.435
 20
14.12
 21
13.435
  0
LINE
  8
0
 10
13.435
 11
14.12
 20
13.435
 21
12.713
  0
LINE
  8
0
 10
14.12
 11
14.766
 20
12.713
 21
11.957
  0
LINE
  8
0
 10
14.766
 11
15.371
 20
11.957
 21
11.168
  0
LINE
  8
0
 10
15.371
 11
15.935
 20
11.168
 21
10.348
  0
LINE
  8
0
 10
15.935
 11
16.454
 20
10.348
 21
9.5
  0
LINE
  8
0
 10
16.454
 11
16.929
 20
9.5
 21
8.626
  0
LINE
  8
0
 10
16.929
 11
17.357
 20
8.626
 21
7.728
  0
LINE
  8
0
 10
17.357
 11
17.738
 20
7.728
 21
6.809
  0
LINE
  8
0
 10
17.738
 11
18.07
 20
6.809
 21
5.871
  0
LINE
  8
0
 10
18.07
 11
18.353
 20
5.871
 21
4.918
  0
LINE
  8
0
 10
18.353
 11
18.585
 20
4.918
 21
3.95
  0
LINE
  8
0
 10
18.585
 11
18.766
 20
3.95
 21
2.972
  0
LINE
  8
0
 10
18.766
 11
18.896
 20
2.972
 21
1.986
  0
LINE
  8
0
 10
18.896
 11
18.974
 20
1.986
 21
0.994
  0
LINE
  8
0
 10
18.974
 11
19
 20
0.994
 21
0
  0
LINE
  8
0
 10
19
 11
18.974
 20
0
 21
-0.994
  0
LINE
  8
0
 10
18.974
 11
18.896
 20
-0.994
 21
-1.986
  0
LINE
  8
0
 10
18.896
 11
18.766
 20
-1.986
 21
-2.972
  0
LINE
  8
0
 10
18.766
 11
18.585
 20
-2.972
 21
-3.95
  0
LINE
  8
0
 10
18.585
 11
18.353
 20
-3.95
 21
-4.918
  0
LINE
  8
0
 10
18.353
 11
18.07
 20
-4.918
 21
-5.871
  0
LINE
  8
0
 10
18.07
 11
17.738
 20
-5.871
 21
-6.809
  0
LINE
  8
0
 10
17.738
 11
17.357
 20
-6.809
 21
-7.728
  0
LINE
  8
0
 10
17.357
 11
16.929
 20
-7.728
 21
-8.626
  0
LINE
  8
0
 10
16.929
 11
16.454
 20
-8.626
 21
-9.5
  0
LINE
  8
0
 10
16.454
 11
15.935
 20
-9.5
 21
-10.348
  0
LINE
  8
0
 10
15.935
 11
15.371
 20
-10.348
 21
-11.168
  0
LINE
  8
0
 10
15.371
 11
14.766
 20
-11.168
 21
-11.957
  0
LINE
  8
0
 10
14.766
 11
14.12
 20
-11.957
 21
-12.713
  0
LINE
  8
0
 10
14.12
 11
13.435
 20
-12.713
 21
-13.435
  0
LINE
  8
0
 10
13.435
 11
12.713
 20
-13.435
 21
-14.12
  0
LINE
  8
0
 10
12.713
 11
11.957
 20
-14.12
 21
-14.766
  0
LINE
  8
0
 10
11.957
 11
11.168
 20
-14.766
 21
-15.371
  0
LINE
  8
0
 10
11.168
 11
10.348
 20
-15.371
 21
-15.935
  0
LINE
  8
0
 10
10.348
 11
9.5
 20
-15.935
 21
-16.454
  0
LINE
  8
0
 10
9.5
 11
8.626
 20
-16.454
 21
-16.929
  0
LINE
  8
0
 10
8.626
 11
7.728
 20
-16.929
 21
-17.357
  0
LINE
  8
0
 10
7.728
 11
6.809
 20
-17.357
 21
-17.738
  0
LINE
  8
0
 10
6.809
 11
5.871
 20
-17.738
 21
-18.07
  0
LINE
  8
0
 10
5.871
 11
4.918
 20
-18.07
 21
-18.353
  0
LINE
  8
0
 10
4.918
 11
3.95
 20
-18.353
 21
-18.585
  0
LINE
  8
0
 10
3.95
 11
2.972
 20
-18.585
 21
-18.766
  0
LINE
  8
0
 10
2.972
 11
1.986
 20
-18.766
 21
-18.896
  0
LINE
  8
0
 10
1.986
 11
0.994
 20
-18.896
 21
-18.974
  0
LINE
  8
0
 10
0.994
 11
0
 20
-18.974
 21
-19
  0
LINE
  8
0
 10
0
 11
-0.994
 20
-19
 21
-18.974
  0
LINE
  8
0
 10
-0.994
 11
-1.986
 20
-18.974
 21
-18.896
  0
LINE
  8
0
 10
-1.986
 11
-2.972
 20
-18.896
 21
-18.766
  0
LINE
  8
0
 10
-2.972
 11
-3.95
 20
-18.766
 21
-18.585
  0
LINE
  8
0
 10
-3.95
 11
-4.918
 20
-18.585
 21
-18.353
  0
LINE
  8
0
 10
-4.918
 11
-5.871
 20
-18.353
 21
-18.07
  0
LINE
  8
0
 10
-5.871
 11
-6.809
 20
-18.07
 21
-17.738
  0
LINE
  8
0
 10
-6.809
 11
-7.728
 20
-17.738
 21
-17.357
  0
LINE
  8
0
 10
-7.728
 11
-8.626
 20
-17.357
 21
-16.929
  0
LINE
  8
0
 10
-8.626
 11
-9.5
 20
-16.929
 21
-16.454
  0
LINE
  8
0
 10
-9.5
 11
-10.348
 20
-16.454
 21
-15.935
  0
LINE
  8
0
 10
-10.348
 11
-11.168
 20
-15.935
 21
-15.371
  0
LINE
  8
0
 10
-11.168
 11
-11.957
 20
-15.371
 21
-14.766
  0
LINE
  8
0
 10
-11.957
 11
-12.713
 20
-14.766
 21
-14.12
  0
LINE
  8
0
 10
-12.713
 11
-13.435
 20
-14.12
 21
-13.435
  0
LINE
  8
0
 10
-13.435
 11
-14.12
 20
-13.435
 21
-12.713
  0
LINE
  8
0
 10
-14.12
 11
-14.766
 20
-12.713
 21
-11.957
  0
LINE
  8
0
 10
-14.766
 11
-15.371
 20
-11.957
 21
-11.168
  0
LINE
  8
0
 10
-15.371
 11
-15.935
 20
-11.168
 21
-10.348
  0
LINE
  8
0
 10
-15.935
 11
-16.454
 20
-10.348
 21
-9.5
  0
LINE
  8
0
 10
-16.454
 11
-16.929
 20
-9.5
 21
-8.626
  0
LINE
  8
0
 10
-16.929
 11
-17.357
 20
-8.626
 21
-7.728
  0
LINE
  8
0
 10
-17.357
 11
-17.738
 20
-7.728
 21
-6.809
  0
LINE
  8
0
 10
-17.738
 11
-18.07
 20
-6.809
 21
-5.871
  0
LINE
  8
0
 10
-18.07
 11
-18.353
 20
-5.871
 21
-4.918
  0
LINE
  8
0
 10
-18.353
 11
-18.585
 20
-4.918
 21
-3.95
  0
LINE
  8
0
 10
-18.585
 11
-18.766
 20
-3.95
 21
-2.972
  0
LINE
  8
0
 10
-18.766
 11
-18.896
 20
-2.972
 21
-1.986
  0
LINE
  8
0
 10
-18.896
 11
-18.974
 20
-1.986
 21
-0.994
  0
LINE
  8
0
 10
-18.974
 11
-19
 20
-0.994
 21
0
  0
LINE
  8
0
 10
-14.16
 11
-13.672
 20
7.451
 21
8.209
  0
LINE
  8
0
 10
-13.672
 11
-12.852
 20
8.209
 21
8.584
  0
LINE
  8
0
 10
-12.852
 11
-11.852
 20
8.584
 21
8.584
  0
LINE
  8
0
 10
-11.852
 11
-10.96
 20
8.584
 21
8.456
  0
LINE
  8
0
 10
-10.96
 11
-10.279
 20
8.456
 21
7.865
  0
LINE
  8
0
 10
-10.279
 11
-10.024
 20
7.865
 21
7
  0
LINE
  8
0
 10
-10.024
 11
-10.278
 20
7
 21
6.135
  0
LINE
  8
0
 10
-10.278
 11
-10.96
 20
6.135
 21
5.545
  0
LINE
  8
0
 10
-10.96
 11
-11.852
 20
5.545
 21
5.416
  0
LINE
  8
0
 10
-11.852
 11
-12.852
 20
5.416
 21
5.416
  0
LINE
  8
0
 10
-12.852
 11
-13.672
 20
5.416
 21
5.791
  0
LINE
  8
0
 10
-13.672
 11
-14.159
 20
5.791
 21
6.549
  0
LINE
  8
0
 10
-14.159
 11
-14.16
 20
6.549
 21
7.451
  0
LINE
  8
0
 10
-1.584
 11
-1.584
 20
-14.272
 21
-13.272
  0
LINE
  8
0
 10
-1.584
 11
-1.209
 20
-13.272
 21
-12.452
  0
LINE
  8
0
 10
-1.209
 11
-0.451
 20
-12.452
 21
-11.965
  0
LINE
  8
0
 10
-0.451
 11
0.451
 20
-11.965
 21
-11.965
  0
LINE
  8
0
 10
0.451
 11
1.209
 20
-11.965
 21
-12.452
  0
LINE
  8
0
 10
1.209
 11
1.584
 20
-12.452
 21
-13.272
  0
LINE
  8
0
 10
1.584
 11
1.584
 20
-13.272
 21
-14.272
  0
LINE
  8
0
 10
1.584
 11
1.455
 20
-14.272
 21
-15.165
  0
LINE
  8
0
 10
1.455
 11
0.865
 20
-15.165
 21
-15.846
  0
LINE
  8
0
 10
0.865
 11
0
 20
-15.846
 21
-16.1
  0
LINE
  8
0
 10
0
 11
-0.865
 20
-16.1
 21
-15.846
  0
LINE
  8
0
 10
-0.865
 11
-1.455
 20
-15.846
 21
-15.165
  0
LINE
  8
0
 10
-1.455
 11
-1.584
 20
-15.165
 21
-14.272
  0
LINE
  8
0
 10
10.024
 11
10.279
 20
7
 21
7.865
  0
LINE
  8
0
 10
10.279
 11
10.96
 20
7.865
 21
8.456
  0
LINE
  8
0
 10
10.96
 11
11.852
 20
8.456
 21
8.584
  0
LINE
  8
0
 10
11.852
 11
12.852
 20
8.584
 21
8.584
  0
LINE
  8
0
 10
12.852
 11
13.672
 20
8.584
 21
8.209
  0
LINE
  8
0
 10
13.672
 11
14.16
 20
8.209
 21
7.451
  0
LINE
  8
0
 10
14.16
 11
14.159
 20
7.451
 21
6.549
  0
LINE
  8
0
 10
14.159
 11
13.672
 20
6.549
 21
5.791
  0
LINE
  8
0
 10
13.672
 11
12.852
 20
5.791
 21
5.416
  0
LINE
  8
0
 10
12.852
 11
11.852
 20
5.416
 21
5.416
  0
LINE
  8
0
 10
11.852
 11
10.96
 20
5.416
 21
5.545
  0
LINE
  8
0
 10
10.96
 11
10.278
 20
5.545
 21
6.135
  0
LINE
  8
0
 10
10.278
 11
10.024
 20
6.135
 21
7
  0
ENDSEC
  0
SECTION
  2
OBJECTS
  0
DICTIONARY
  0
ENDSEC
  0
EOF
