  0
SECTION
  2
BLOCKS
  0
ENDSEC
  0
SECTION
  2
ENTITIES
  0
LINE
  8
0
 10
-137.026
 11
-137.026
 20
-28.38
 21
-28.18
  0
LINE
  8
0
 10
-137.026
 11
-137.025
 20
-28.18
 21
-28.08
  0
LINE
  8
0
 10
-137.025
 11
-137.021
 20
-28.08
 21
-27.88
  0
LINE
  8
0
 10
-137.021
 11
-137.019
 20
-27.88
 21
-27.78
  0
LINE
  8
0
 10
-137.019
 11
-137.01
 20
-27.78
 21
-27.48
  0
LINE
  8
0
 10
-137.01
 11
-137
 20
-27.48
 21
-27.281
  0
LINE
  8
0
 10
-137
 11
-136.988
 20
-27.281
 21
-27.081
  0
LINE
  8
0
 10
-136.988
 11
-136.982
 20
-27.081
 21
-26.982
  0
LINE
  8
0
 10
-136.982
 11
-136.968
 20
-26.982
 21
-26.782
  0
LINE
  8
0
 10
-136.968
 11
-136.96
 20
-26.782
 21
-26.683
  0
LINE
  8
0
 10
-136.96
 11
-136.943
 20
-26.683
 21
-26.484
  0
LINE
  8
0
 10
-136.943
 11
-136.934
 20
-26.484
 21
-26.384
  0
LINE
  8
0
 10
-136.934
 11
-136.914
 20
-26.384
 21
-26.185
  0
LINE
  8
0
 10
-136.914
 11
-136.903
 20
-26.185
 21
-26.085
  0
LINE
  8
0
 10
-136.903
 11
-136.867
 20
-26.085
 21
-25.787
  0
LINE
  8
0
 10
-136.867
 11
-136.854
 20
-25.787
 21
-25.688
  0
LINE
  8
0
 10
-136.854
 11
-136.827
 20
-25.688
 21
-25.491
  0
LINE
  8
0
 10
-136.827
 11
-136.813
 20
-25.491
 21
-25.391
  0
LINE
  8
0
 10
-136.813
 11
-136.783
 20
-25.391
 21
-25.194
  0
LINE
  8
0
 10
-136.783
 11
-136.767
 20
-25.194
 21
-25.095
  0
LINE
  8
0
 10
-136.767
 11
-136.734
 20
-25.095
 21
-24.898
  0
LINE
  8
0
 10
-136.734
 11
-136.699
 20
-24.898
 21
-24.701
  0
LINE
  8
0
 10
-136.699
 11
-136.681
 20
-24.701
 21
-24.602
  0
LINE
  8
0
 10
-136.681
 11
-136.643
 20
-24.602
 21
-24.406
  0
LINE
  8
0
 10
-136.643
 11
-136.623
 20
-24.406
 21
-24.308
  0
LINE
  8
0
 10
-136.623
 11
-136.581
 20
-24.308
 21
-24.112
  0
LINE
  8
0
 10
-136.581
 11
-136.539
 20
-24.112
 21
-23.918
  0
LINE
  8
0
 10
-136.539
 11
-136.517
 20
-23.918
 21
-23.82
  0
LINE
  8
0
 10
-136.517
 11
-136.494
 20
-23.82
 21
-23.722
  0
LINE
  8
0
 10
-136.494
 11
-136.448
 20
-23.722
 21
-23.528
  0
LINE
  8
0
 10
-136.448
 11
-136.399
 20
-23.528
 21
-23.335
  0
LINE
  8
0
 10
-136.399
 11
-136.348
 20
-23.335
 21
-23.141
  0
LINE
  8
0
 10
-136.348
 11
-136.322
 20
-23.141
 21
-23.044
  0
LINE
  8
0
 10
-136.322
 11
-136.268
 20
-23.044
 21
-22.851
  0
LINE
  8
0
 10
-136.268
 11
-136.241
 20
-22.851
 21
-22.756
  0
LINE
  8
0
 10
-136.241
 11
-136.213
 20
-22.756
 21
-22.659
  0
LINE
  8
0
 10
-136.213
 11
-136.126
 20
-22.659
 21
-22.372
  0
LINE
  8
0
 10
-136.126
 11
-136.066
 20
-22.372
 21
-22.182
  0
LINE
  8
0
 10
-136.066
 11
-136.035
 20
-22.182
 21
-22.087
  0
LINE
  8
0
 10
-136.035
 11
-136.003
 20
-22.087
 21
-21.992
  0
LINE
  8
0
 10
-136.003
 11
-135.971
 20
-21.992
 21
-21.897
  0
LINE
  8
0
 10
-135.971
 11
-135.907
 20
-21.897
 21
-21.708
  0
LINE
  8
0
 10
-135.907
 11
-135.874
 20
-21.708
 21
-21.614
  0
LINE
  8
0
 10
-135.874
 11
-135.806
 20
-21.614
 21
-21.425
  0
LINE
  8
0
 10
-135.806
 11
-135.771
 20
-21.425
 21
-21.331
  0
LINE
  8
0
 10
-135.771
 11
-135.736
 20
-21.331
 21
-21.238
  0
LINE
  8
0
 10
-135.736
 11
-135.664
 20
-21.238
 21
-21.051
  0
LINE
  8
0
 10
-135.664
 11
-135.591
 20
-21.051
 21
-20.866
  0
LINE
  8
0
 10
-135.591
 11
-135.478
 20
-20.866
 21
-20.588
  0
LINE
  8
0
 10
-135.478
 11
-135.36
 20
-20.588
 21
-20.312
  0
LINE
  8
0
 10
-135.36
 11
-135.278
 20
-20.312
 21
-20.129
  0
LINE
  8
0
 10
-135.278
 11
-135.196
 20
-20.129
 21
-19.948
  0
LINE
  8
0
 10
-135.196
 11
-135.154
 20
-19.948
 21
-19.856
  0
LINE
  8
0
 10
-135.154
 11
-135.112
 20
-19.856
 21
-19.766
  0
LINE
  8
0
 10
-135.112
 11
-135.069
 20
-19.766
 21
-19.676
  0
LINE
  8
0
 10
-135.069
 11
-134.981
 20
-19.676
 21
-19.496
  0
LINE
  8
0
 10
-134.981
 11
-134.893
 20
-19.496
 21
-19.317
  0
LINE
  8
0
 10
-134.893
 11
-134.756
 20
-19.317
 21
-19.05
  0
LINE
  8
0
 10
-134.756
 11
-134.662
 20
-19.05
 21
-18.872
  0
LINE
  8
0
 10
-134.662
 11
-134.567
 20
-18.872
 21
-18.697
  0
LINE
  8
0
 10
-134.567
 11
-134.518
 20
-18.697
 21
-18.609
  0
LINE
  8
0
 10
-134.518
 11
-134.47
 20
-18.609
 21
-18.523
  0
LINE
  8
0
 10
-134.47
 11
-134.421
 20
-18.523
 21
-18.436
  0
LINE
  8
0
 10
-134.421
 11
-134.371
 20
-18.436
 21
-18.349
  0
LINE
  8
0
 10
-134.371
 11
-134.321
 20
-18.349
 21
-18.262
  0
LINE
  8
0
 10
-134.321
 11
-51.345
 20
-18.262
 21
125.457
  0
LINE
  8
0
 10
-51.345
 11
-51.245
 20
125.457
 21
125.63
  0
LINE
  8
0
 10
-51.245
 11
-51.194
 20
125.63
 21
125.716
  0
LINE
  8
0
 10
-51.194
 11
-51.143
 20
125.716
 21
125.801
  0
LINE
  8
0
 10
-51.143
 11
-51.091
 20
125.801
 21
125.887
  0
LINE
  8
0
 10
-51.091
 11
-51.039
 20
125.887
 21
125.972
  0
LINE
  8
0
 10
-51.039
 11
-50.987
 20
125.972
 21
126.057
  0
LINE
  8
0
 10
-50.987
 11
-50.934
 20
126.057
 21
126.142
  0
LINE
  8
0
 10
-50.934
 11
-50.88
 20
126.142
 21
126.227
  0
LINE
  8
0
 10
-50.88
 11
-50.772
 20
126.227
 21
126.395
  0
LINE
  8
0
 10
-50.772
 11
-50.717
 20
126.395
 21
126.479
  0
LINE
  8
0
 10
-50.717
 11
-50.607
 20
126.479
 21
126.645
  0
LINE
  8
0
 10
-50.607
 11
-50.551
 20
126.645
 21
126.728
  0
LINE
  8
0
 10
-50.551
 11
-50.495
 20
126.728
 21
126.811
  0
LINE
  8
0
 10
-50.495
 11
-50.381
 20
126.811
 21
126.975
  0
LINE
  8
0
 10
-50.381
 11
-50.323
 20
126.975
 21
127.057
  0
LINE
  8
0
 10
-50.323
 11
-50.207
 20
127.057
 21
127.219
  0
LINE
  8
0
 10
-50.207
 11
-50.089
 20
127.219
 21
127.381
  0
LINE
  8
0
 10
-50.089
 11
-49.909
 20
127.381
 21
127.621
  0
LINE
  8
0
 10
-49.909
 11
-49.787
 20
127.621
 21
127.779
  0
LINE
  8
0
 10
-49.787
 11
-49.725
 20
127.779
 21
127.858
  0
LINE
  8
0
 10
-49.725
 11
-49.663
 20
127.858
 21
127.936
  0
LINE
  8
0
 10
-49.663
 11
-49.601
 20
127.936
 21
128.014
  0
LINE
  8
0
 10
-49.601
 11
-49.475
 20
128.014
 21
128.17
  0
LINE
  8
0
 10
-49.475
 11
-49.412
 20
128.17
 21
128.247
  0
LINE
  8
0
 10
-49.412
 11
-49.348
 20
128.247
 21
128.324
  0
LINE
  8
0
 10
-49.348
 11
-49.219
 20
128.324
 21
128.477
  0
LINE
  8
0
 10
-49.219
 11
-49.154
 20
128.477
 21
128.553
  0
LINE
  8
0
 10
-49.154
 11
-49.088
 20
128.553
 21
128.628
  0
LINE
  8
0
 10
-49.088
 11
-48.89
 20
128.628
 21
128.853
  0
LINE
  8
0
 10
-48.89
 11
-48.823
 20
128.853
 21
128.927
  0
LINE
  8
0
 10
-48.823
 11
-48.688
 20
128.927
 21
129.075
  0
LINE
  8
0
 10
-48.688
 11
-48.62
 20
129.075
 21
129.148
  0
LINE
  8
0
 10
-48.62
 11
-48.483
 20
129.148
 21
129.293
  0
LINE
  8
0
 10
-48.483
 11
-48.413
 20
129.293
 21
129.366
  0
LINE
  8
0
 10
-48.413
 11
-48.344
 20
129.366
 21
129.437
  0
LINE
  8
0
 10
-48.344
 11
-48.274
 20
129.437
 21
129.509
  0
LINE
  8
0
 10
-48.274
 11
-48.204
 20
129.509
 21
129.58
  0
LINE
  8
0
 10
-48.204
 11
-48.133
 20
129.58
 21
129.651
  0
LINE
  8
0
 10
-48.133
 11
-47.991
 20
129.651
 21
129.792
  0
LINE
  8
0
 10
-47.991
 11
-47.848
 20
129.792
 21
129.931
  0
LINE
  8
0
 10
-47.848
 11
-47.775
 20
129.931
 21
130
  0
LINE
  8
0
 10
-47.775
 11
-47.63
 20
130
 21
130.137
  0
LINE
  8
0
 10
-47.63
 11
-47.556
 20
130.137
 21
130.205
  0
LINE
  8
0
 10
-47.556
 11
-47.483
 20
130.205
 21
130.272
  0
LINE
  8
0
 10
-47.483
 11
-47.409
 20
130.272
 21
130.339
  0
LINE
  8
0
 10
-47.409
 11
-47.26
 20
130.339
 21
130.473
  0
LINE
  8
0
 10
-47.26
 11
-47.185
 20
130.473
 21
130.539
  0
LINE
  8
0
 10
-47.185
 11
-47.109
 20
130.539
 21
130.605
  0
LINE
  8
0
 10
-47.109
 11
-47.034
 20
130.605
 21
130.67
  0
LINE
  8
0
 10
-47.034
 11
-46.958
 20
130.67
 21
130.735
  0
LINE
  8
0
 10
-46.958
 11
-46.805
 20
130.735
 21
130.864
  0
LINE
  8
0
 10
-46.805
 11
-46.65
 20
130.864
 21
130.991
  0
LINE
  8
0
 10
-46.65
 11
-46.573
 20
130.991
 21
131.054
  0
LINE
  8
0
 10
-46.573
 11
-46.495
 20
131.054
 21
131.117
  0
LINE
  8
0
 10
-46.495
 11
-46.417
 20
131.117
 21
131.179
  0
LINE
  8
0
 10
-46.417
 11
-46.338
 20
131.179
 21
131.241
  0
LINE
  8
0
 10
-46.338
 11
-46.101
 20
131.241
 21
131.424
  0
LINE
  8
0
 10
-46.101
 11
-45.861
 20
131.424
 21
131.604
  0
LINE
  8
0
 10
-45.861
 11
-45.78
 20
131.604
 21
131.663
  0
LINE
  8
0
 10
-45.78
 11
-45.618
 20
131.663
 21
131.78
  0
LINE
  8
0
 10
-45.618
 11
-45.536
 20
131.78
 21
131.838
  0
LINE
  8
0
 10
-45.536
 11
-45.454
 20
131.838
 21
131.895
  0
LINE
  8
0
 10
-45.454
 11
-45.29
 20
131.895
 21
132.009
  0
LINE
  8
0
 10
-45.29
 11
-45.124
 20
132.009
 21
132.121
  0
LINE
  8
0
 10
-45.124
 11
-45.041
 20
132.121
 21
132.176
  0
LINE
  8
0
 10
-45.041
 11
-44.958
 20
132.176
 21
132.231
  0
LINE
  8
0
 10
-44.958
 11
-44.874
 20
132.231
 21
132.286
  0
LINE
  8
0
 10
-44.874
 11
-44.706
 20
132.286
 21
132.394
  0
LINE
  8
0
 10
-44.706
 11
-44.536
 20
132.394
 21
132.5
  0
LINE
  8
0
 10
-44.536
 11
-44.366
 20
132.5
 21
132.604
  0
LINE
  8
0
 10
-44.366
 11
-44.28
 20
132.604
 21
132.656
  0
LINE
  8
0
 10
-44.28
 11
-44.108
 20
132.656
 21
132.758
  0
LINE
  8
0
 10
-44.108
 11
-44.022
 20
132.758
 21
132.808
  0
LINE
  8
0
 10
-44.022
 11
-43.935
 20
132.808
 21
132.858
  0
LINE
  8
0
 10
-43.935
 11
-43.674
 20
132.858
 21
133.005
  0
LINE
  8
0
 10
-43.674
 11
-43.498
 20
133.005
 21
133.101
  0
LINE
  8
0
 10
-43.498
 11
-43.322
 20
133.101
 21
133.195
  0
LINE
  8
0
 10
-43.322
 11
-43.144
 20
133.195
 21
133.287
  0
LINE
  8
0
 10
-43.144
 11
-43.055
 20
133.287
 21
133.333
  0
LINE
  8
0
 10
-43.055
 11
-42.966
 20
133.333
 21
133.378
  0
LINE
  8
0
 10
-42.966
 11
-42.877
 20
133.378
 21
133.422
  0
LINE
  8
0
 10
-42.877
 11
-42.697
 20
133.422
 21
133.51
  0
LINE
  8
0
 10
-42.697
 11
-42.607
 20
133.51
 21
133.553
  0
LINE
  8
0
 10
-42.607
 11
-42.516
 20
133.553
 21
133.596
  0
LINE
  8
0
 10
-42.516
 11
-42.426
 20
133.596
 21
133.638
  0
LINE
  8
0
 10
-42.426
 11
-42.244
 20
133.638
 21
133.722
  0
LINE
  8
0
 10
-42.244
 11
-42.153
 20
133.722
 21
133.763
  0
LINE
  8
0
 10
-42.153
 11
-42.062
 20
133.763
 21
133.803
  0
LINE
  8
0
 10
-42.062
 11
-41.878
 20
133.803
 21
133.883
  0
LINE
  8
0
 10
-41.878
 11
-41.694
 20
133.883
 21
133.961
  0
LINE
  8
0
 10
-41.694
 11
-41.602
 20
133.961
 21
133.999
  0
LINE
  8
0
 10
-41.602
 11
-41.509
 20
133.999
 21
134.037
  0
LINE
  8
0
 10
-41.509
 11
-41.416
 20
134.037
 21
134.074
  0
LINE
  8
0
 10
-41.416
 11
-41.323
 20
134.074
 21
134.111
  0
LINE
  8
0
 10
-41.323
 11
-41.23
 20
134.111
 21
134.147
  0
LINE
  8
0
 10
-41.23
 11
-41.044
 20
134.147
 21
134.219
  0
LINE
  8
0
 10
-41.044
 11
-40.95
 20
134.219
 21
134.254
  0
LINE
  8
0
 10
-40.95
 11
-40.856
 20
134.254
 21
134.288
  0
LINE
  8
0
 10
-40.856
 11
-40.668
 20
134.288
 21
134.356
  0
LINE
  8
0
 10
-40.668
 11
-40.574
 20
134.356
 21
134.389
  0
LINE
  8
0
 10
-40.574
 11
-40.384
 20
134.389
 21
134.454
  0
LINE
  8
0
 10
-40.384
 11
-40.29
 20
134.454
 21
134.485
  0
LINE
  8
0
 10
-40.29
 11
-40.195
 20
134.485
 21
134.516
  0
LINE
  8
0
 10
-40.195
 11
-40.099
 20
134.516
 21
134.547
  0
LINE
  8
0
 10
-40.099
 11
-39.909
 20
134.547
 21
134.607
  0
LINE
  8
0
 10
-39.909
 11
-39.813
 20
134.607
 21
134.637
  0
LINE
  8
0
 10
-39.813
 11
-39.622
 20
134.637
 21
134.694
  0
LINE
  8
0
 10
-39.622
 11
-39.526
 20
134.694
 21
134.722
  0
LINE
  8
0
 10
-39.526
 11
-39.333
 20
134.722
 21
134.776
  0
LINE
  8
0
 10
-39.333
 11
-39.237
 20
134.776
 21
134.802
  0
LINE
  8
0
 10
-39.237
 11
-39.043
 20
134.802
 21
134.854
  0
LINE
  8
0
 10
-39.043
 11
-38.947
 20
134.854
 21
134.879
  0
LINE
  8
0
 10
-38.947
 11
-38.656
 20
134.879
 21
134.951
  0
LINE
  8
0
 10
-38.656
 11
-38.558
 20
134.951
 21
134.974
  0
LINE
  8
0
 10
-38.558
 11
-38.461
 20
134.974
 21
134.996
  0
LINE
  8
0
 10
-38.461
 11
-38.266
 20
134.996
 21
135.04
  0
LINE
  8
0
 10
-38.266
 11
-38.168
 20
135.04
 21
135.061
  0
LINE
  8
0
 10
-38.168
 11
-37.972
 20
135.061
 21
135.102
  0
LINE
  8
0
 10
-37.972
 11
-37.776
 20
135.102
 21
135.14
  0
LINE
  8
0
 10
-37.776
 11
-37.678
 20
135.14
 21
135.159
  0
LINE
  8
0
 10
-37.678
 11
-37.58
 20
135.159
 21
135.177
  0
LINE
  8
0
 10
-37.58
 11
-37.481
 20
135.177
 21
135.195
  0
LINE
  8
0
 10
-37.481
 11
-37.383
 20
135.195
 21
135.212
  0
LINE
  8
0
 10
-37.383
 11
-37.284
 20
135.212
 21
135.229
  0
LINE
  8
0
 10
-37.284
 11
-37.185
 20
135.229
 21
135.245
  0
LINE
  8
0
 10
-37.185
 11
-36.988
 20
135.245
 21
135.276
  0
LINE
  8
0
 10
-36.988
 11
-36.691
 20
135.276
 21
135.318
  0
LINE
  8
0
 10
-36.691
 11
-36.493
 20
135.318
 21
135.344
  0
LINE
  8
0
 10
-36.493
 11
-36.394
 20
135.344
 21
135.356
  0
LINE
  8
0
 10
-36.394
 11
-36.294
 20
135.356
 21
135.368
  0
LINE
  8
0
 10
-36.294
 11
-36.096
 20
135.368
 21
135.39
  0
LINE
  8
0
 10
-36.096
 11
-35.897
 20
135.39
 21
135.41
  0
LINE
  8
0
 10
-35.897
 11
-35.797
 20
135.41
 21
135.419
  0
LINE
  8
0
 10
-35.797
 11
-35.697
 20
135.419
 21
135.428
  0
LINE
  8
0
 10
-35.697
 11
-35.598
 20
135.428
 21
135.436
  0
LINE
  8
0
 10
-35.598
 11
-35.498
 20
135.436
 21
135.444
  0
LINE
  8
0
 10
-35.498
 11
-35.299
 20
135.444
 21
135.458
  0
LINE
  8
0
 10
-35.299
 11
-35.099
 20
135.458
 21
135.47
  0
LINE
  8
0
 10
-35.099
 11
-34.899
 20
135.47
 21
135.48
  0
LINE
  8
0
 10
-34.899
 11
-34.8
 20
135.48
 21
135.484
  0
LINE
  8
0
 10
-34.8
 11
-34.7
 20
135.484
 21
135.488
  0
LINE
  8
0
 10
-34.7
 11
-34.6
 20
135.488
 21
135.491
  0
LINE
  8
0
 10
-34.6
 11
-34.5
 20
135.491
 21
135.494
  0
LINE
  8
0
 10
-34.5
 11
-34.4
 20
135.494
 21
135.496
  0
LINE
  8
0
 10
-34.4
 11
-34.3
 20
135.496
 21
135.498
  0
LINE
  8
0
 10
-34.3
 11
-34.1
 20
135.498
 21
135.5
  0
LINE
  8
0
 10
-34.1
 11
34.1
 20
135.5
 21
135.5
  0
LINE
  8
0
 10
34.1
 11
34.3
 20
135.5
 21
135.498
  0
LINE
  8
0
 10
34.3
 11
34.4
 20
135.498
 21
135.496
  0
LINE
  8
0
 10
34.4
 11
34.5
 20
135.496
 21
135.494
  0
LINE
  8
0
 10
34.5
 11
34.6
 20
135.494
 21
135.491
  0
LINE
  8
0
 10
34.6
 11
34.7
 20
135.491
 21
135.488
  0
LINE
  8
0
 10
34.7
 11
34.8
 20
135.488
 21
135.484
  0
LINE
  8
0
 10
34.8
 11
34.899
 20
135.484
 21
135.48
  0
LINE
  8
0
 10
34.899
 11
35.099
 20
135.48
 21
135.47
  0
LINE
  8
0
 10
35.099
 11
35.299
 20
135.47
 21
135.458
  0
LINE
  8
0
 10
35.299
 11
35.498
 20
135.458
 21
135.444
  0
LINE
  8
0
 10
35.498
 11
35.598
 20
135.444
 21
135.436
  0
LINE
  8
0
 10
35.598
 11
35.697
 20
135.436
 21
135.428
  0
LINE
  8
0
 10
35.697
 11
35.797
 20
135.428
 21
135.419
  0
LINE
  8
0
 10
35.797
 11
35.897
 20
135.419
 21
135.41
  0
LINE
  8
0
 10
35.897
 11
36.096
 20
135.41
 21
135.39
  0
LINE
  8
0
 10
36.096
 11
36.294
 20
135.39
 21
135.368
  0
LINE
  8
0
 10
36.294
 11
36.394
 20
135.368
 21
135.356
  0
LINE
  8
0
 10
36.394
 11
36.493
 20
135.356
 21
135.344
  0
LINE
  8
0
 10
36.493
 11
36.691
 20
135.344
 21
135.318
  0
LINE
  8
0
 10
36.691
 11
36.988
 20
135.318
 21
135.276
  0
LINE
  8
0
 10
36.988
 11
37.185
 20
135.276
 21
135.245
  0
LINE
  8
0
 10
37.185
 11
37.284
 20
135.245
 21
135.229
  0
LINE
  8
0
 10
37.284
 11
37.383
 20
135.229
 21
135.212
  0
LINE
  8
0
 10
37.383
 11
37.481
 20
135.212
 21
135.195
  0
LINE
  8
0
 10
37.481
 11
37.58
 20
135.195
 21
135.177
  0
LINE
  8
0
 10
37.58
 11
37.678
 20
135.177
 21
135.159
  0
LINE
  8
0
 10
37.678
 11
37.776
 20
135.159
 21
135.14
  0
LINE
  8
0
 10
37.776
 11
37.972
 20
135.14
 21
135.102
  0
LINE
  8
0
 10
37.972
 11
38.168
 20
135.102
 21
135.061
  0
LINE
  8
0
 10
38.168
 11
38.266
 20
135.061
 21
135.04
  0
LINE
  8
0
 10
38.266
 11
38.461
 20
135.04
 21
134.996
  0
LINE
  8
0
 10
38.461
 11
38.558
 20
134.996
 21
134.974
  0
LINE
  8
0
 10
38.558
 11
38.656
 20
134.974
 21
134.951
  0
LINE
  8
0
 10
38.656
 11
38.947
 20
134.951
 21
134.879
  0
LINE
  8
0
 10
38.947
 11
39.043
 20
134.879
 21
134.854
  0
LINE
  8
0
 10
39.043
 11
39.237
 20
134.854
 21
134.802
  0
LINE
  8
0
 10
39.237
 11
39.333
 20
134.802
 21
134.776
  0
LINE
  8
0
 10
39.333
 11
39.526
 20
134.776
 21
134.722
  0
LINE
  8
0
 10
39.526
 11
39.622
 20
134.722
 21
134.694
  0
LINE
  8
0
 10
39.622
 11
39.813
 20
134.694
 21
134.637
  0
LINE
  8
0
 10
39.813
 11
39.909
 20
134.637
 21
134.607
  0
LINE
  8
0
 10
39.909
 11
40.099
 20
134.607
 21
134.547
  0
LINE
  8
0
 10
40.099
 11
40.195
 20
134.547
 21
134.516
  0
LINE
  8
0
 10
40.195
 11
40.29
 20
134.516
 21
134.485
  0
LINE
  8
0
 10
40.29
 11
40.384
 20
134.485
 21
134.454
  0
LINE
  8
0
 10
40.384
 11
40.574
 20
134.454
 21
134.389
  0
LINE
  8
0
 10
40.574
 11
40.668
 20
134.389
 21
134.356
  0
LINE
  8
0
 10
40.668
 11
40.856
 20
134.356
 21
134.288
  0
LINE
  8
0
 10
40.856
 11
40.95
 20
134.288
 21
134.254
  0
LINE
  8
0
 10
40.95
 11
41.044
 20
134.254
 21
134.219
  0
LINE
  8
0
 10
41.044
 11
41.23
 20
134.219
 21
134.147
  0
LINE
  8
0
 10
41.23
 11
41.323
 20
134.147
 21
134.111
  0
LINE
  8
0
 10
41.323
 11
41.416
 20
134.111
 21
134.074
  0
LINE
  8
0
 10
41.416
 11
41.509
 20
134.074
 21
134.037
  0
LINE
  8
0
 10
41.509
 11
41.602
 20
134.037
 21
133.999
  0
LINE
  8
0
 10
41.602
 11
41.694
 20
133.999
 21
133.961
  0
LINE
  8
0
 10
41.694
 11
41.878
 20
133.961
 21
133.883
  0
LINE
  8
0
 10
41.878
 11
42.062
 20
133.883
 21
133.803
  0
LINE
  8
0
 10
42.062
 11
42.153
 20
133.803
 21
133.763
  0
LINE
  8
0
 10
42.153
 11
42.244
 20
133.763
 21
133.722
  0
LINE
  8
0
 10
42.244
 11
42.426
 20
133.722
 21
133.638
  0
LINE
  8
0
 10
42.426
 11
42.516
 20
133.638
 21
133.596
  0
LINE
  8
0
 10
42.516
 11
42.607
 20
133.596
 21
133.553
  0
LINE
  8
0
 10
42.607
 11
42.697
 20
133.553
 21
133.51
  0
LINE
  8
0
 10
42.697
 11
42.877
 20
133.51
 21
133.422
  0
LINE
  8
0
 10
42.877
 11
42.966
 20
133.422
 21
133.378
  0
LINE
  8
0
 10
42.966
 11
43.055
 20
133.378
 21
133.333
  0
LINE
  8
0
 10
43.055
 11
43.144
 20
133.333
 21
133.287
  0
LINE
  8
0
 10
43.144
 11
43.322
 20
133.287
 21
133.195
  0
LINE
  8
0
 10
43.322
 11
43.498
 20
133.195
 21
133.101
  0
LINE
  8
0
 10
43.498
 11
43.674
 20
133.101
 21
133.005
  0
LINE
  8
0
 10
43.674
 11
43.935
 20
133.005
 21
132.858
  0
LINE
  8
0
 10
43.935
 11
44.022
 20
132.858
 21
132.808
  0
LINE
  8
0
 10
44.022
 11
44.108
 20
132.808
 21
132.758
  0
LINE
  8
0
 10
44.108
 11
44.28
 20
132.758
 21
132.656
  0
LINE
  8
0
 10
44.28
 11
44.366
 20
132.656
 21
132.604
  0
LINE
  8
0
 10
44.366
 11
44.536
 20
132.604
 21
132.5
  0
LINE
  8
0
 10
44.536
 11
44.706
 20
132.5
 21
132.394
  0
LINE
  8
0
 10
44.706
 11
44.874
 20
132.394
 21
132.286
  0
LINE
  8
0
 10
44.874
 11
44.958
 20
132.286
 21
132.231
  0
LINE
  8
0
 10
44.958
 11
45.041
 20
132.231
 21
132.176
  0
LINE
  8
0
 10
45.041
 11
45.124
 20
132.176
 21
132.121
  0
LINE
  8
0
 10
45.124
 11
45.29
 20
132.121
 21
132.009
  0
LINE
  8
0
 10
45.29
 11
45.454
 20
132.009
 21
131.895
  0
LINE
  8
0
 10
45.454
 11
45.536
 20
131.895
 21
131.838
  0
LINE
  8
0
 10
45.536
 11
45.618
 20
131.838
 21
131.78
  0
LINE
  8
0
 10
45.618
 11
45.78
 20
131.78
 21
131.663
  0
LINE
  8
0
 10
45.78
 11
45.861
 20
131.663
 21
131.604
  0
LINE
  8
0
 10
45.861
 11
46.101
 20
131.604
 21
131.424
  0
LINE
  8
0
 10
46.101
 11
46.338
 20
131.424
 21
131.241
  0
LINE
  8
0
 10
46.338
 11
46.417
 20
131.241
 21
131.179
  0
LINE
  8
0
 10
46.417
 11
46.495
 20
131.179
 21
131.117
  0
LINE
  8
0
 10
46.495
 11
46.573
 20
131.117
 21
131.054
  0
LINE
  8
0
 10
46.573
 11
46.65
 20
131.054
 21
130.991
  0
LINE
  8
0
 10
46.65
 11
46.805
 20
130.991
 21
130.864
  0
LINE
  8
0
 10
46.805
 11
46.958
 20
130.864
 21
130.735
  0
LINE
  8
0
 10
46.958
 11
47.034
 20
130.735
 21
130.67
  0
LINE
  8
0
 10
47.034
 11
47.109
 20
130.67
 21
130.605
  0
LINE
  8
0
 10
47.109
 11
47.185
 20
130.605
 21
130.539
  0
LINE
  8
0
 10
47.185
 11
47.26
 20
130.539
 21
130.473
  0
LINE
  8
0
 10
47.26
 11
47.409
 20
130.473
 21
130.339
  0
LINE
  8
0
 10
47.409
 11
47.483
 20
130.339
 21
130.272
  0
LINE
  8
0
 10
47.483
 11
47.556
 20
130.272
 21
130.205
  0
LINE
  8
0
 10
47.556
 11
47.63
 20
130.205
 21
130.137
  0
LINE
  8
0
 10
47.63
 11
47.775
 20
130.137
 21
130
  0
LINE
  8
0
 10
47.775
 11
47.848
 20
130
 21
129.931
  0
LINE
  8
0
 10
47.848
 11
47.991
 20
129.931
 21
129.792
  0
LINE
  8
0
 10
47.991
 11
48.133
 20
129.792
 21
129.651
  0
LINE
  8
0
 10
48.133
 11
48.204
 20
129.651
 21
129.58
  0
LINE
  8
0
 10
48.204
 11
48.274
 20
129.58
 21
129.509
  0
LINE
  8
0
 10
48.274
 11
48.344
 20
129.509
 21
129.437
  0
LINE
  8
0
 10
48.344
 11
48.413
 20
129.437
 21
129.366
  0
LINE
  8
0
 10
48.413
 11
48.483
 20
129.366
 21
129.293
  0
LINE
  8
0
 10
48.483
 11
48.62
 20
129.293
 21
129.148
  0
LINE
  8
0
 10
48.62
 11
48.688
 20
129.148
 21
129.075
  0
LINE
  8
0
 10
48.688
 11
48.823
 20
129.075
 21
128.927
  0
LINE
  8
0
 10
48.823
 11
48.89
 20
128.927
 21
128.853
  0
LINE
  8
0
 10
48.89
 11
49.088
 20
128.853
 21
128.628
  0
LINE
  8
0
 10
49.088
 11
49.154
 20
128.628
 21
128.553
  0
LINE
  8
0
 10
49.154
 11
49.219
 20
128.553
 21
128.477
  0
LINE
  8
0
 10
49.219
 11
49.348
 20
128.477
 21
128.324
  0
LINE
  8
0
 10
49.348
 11
49.412
 20
128.324
 21
128.247
  0
LINE
  8
0
 10
49.412
 11
49.475
 20
128.247
 21
128.17
  0
LINE
  8
0
 10
49.475
 11
49.601
 20
128.17
 21
128.014
  0
LINE
  8
0
 10
49.601
 11
49.663
 20
128.014
 21
127.936
  0
LINE
  8
0
 10
49.663
 11
49.725
 20
127.936
 21
127.858
  0
LINE
  8
0
 10
49.725
 11
49.787
 20
127.858
 21
127.779
  0
LINE
  8
0
 10
49.787
 11
49.909
 20
127.779
 21
127.621
  0
LINE
  8
0
 10
49.909
 11
50.089
 20
127.621
 21
127.381
  0
LINE
  8
0
 10
50.089
 11
50.207
 20
127.381
 21
127.219
  0
LINE
  8
0
 10
50.207
 11
50.323
 20
127.219
 21
127.057
  0
LINE
  8
0
 10
50.323
 11
50.381
 20
127.057
 21
126.975
  0
LINE
  8
0
 10
50.381
 11
50.495
 20
126.975
 21
126.811
  0
LINE
  8
0
 10
50.495
 11
50.551
 20
126.811
 21
126.728
  0
LINE
  8
0
 10
50.551
 11
50.607
 20
126.728
 21
126.645
  0
LINE
  8
0
 10
50.607
 11
50.717
 20
126.645
 21
126.479
  0
LINE
  8
0
 10
50.717
 11
50.772
 20
126.479
 21
126.395
  0
LINE
  8
0
 10
50.772
 11
50.88
 20
126.395
 21
126.227
  0
LINE
  8
0
 10
50.88
 11
50.934
 20
126.227
 21
126.142
  0
LINE
  8
0
 10
50.934
 11
50.987
 20
126.142
 21
126.057
  0
LINE
  8
0
 10
50.987
 11
51.039
 20
126.057
 21
125.972
  0
LINE
  8
0
 10
51.039
 11
51.091
 20
125.972
 21
125.887
  0
LINE
  8
0
 10
51.091
 11
51.143
 20
125.887
 21
125.801
  0
LINE
  8
0
 10
51.143
 11
51.194
 20
125.801
 21
125.716
  0
LINE
  8
0
 10
51.194
 11
51.245
 20
125.716
 21
125.63
  0
LINE
  8
0
 10
51.245
 11
51.345
 20
125.63
 21
125.457
  0
LINE
  8
0
 10
51.345
 11
134.321
 20
125.457
 21
-18.262
  0
LINE
  8
0
 10
134.321
 11
134.371
 20
-18.262
 21
-18.349
  0
LINE
  8
0
 10
134.371
 11
134.421
 20
-18.349
 21
-18.436
  0
LINE
  8
0
 10
134.421
 11
134.47
 20
-18.436
 21
-18.523
  0
LINE
  8
0
 10
134.47
 11
134.518
 20
-18.523
 21
-18.609
  0
LINE
  8
0
 10
134.518
 11
134.567
 20
-18.609
 21
-18.697
  0
LINE
  8
0
 10
134.567
 11
134.662
 20
-18.697
 21
-18.872
  0
LINE
  8
0
 10
134.662
 11
134.756
 20
-18.872
 21
-19.05
  0
LINE
  8
0
 10
134.756
 11
134.893
 20
-19.05
 21
-19.317
  0
LINE
  8
0
 10
134.893
 11
134.981
 20
-19.317
 21
-19.496
  0
LINE
  8
0
 10
134.981
 11
135.069
 20
-19.496
 21
-19.676
  0
LINE
  8
0
 10
135.069
 11
135.112
 20
-19.676
 21
-19.766
  0
LINE
  8
0
 10
135.112
 11
135.154
 20
-19.766
 21
-19.856
  0
LINE
  8
0
 10
135.154
 11
135.196
 20
-19.856
 21
-19.948
  0
LINE
  8
0
 10
135.196
 11
135.278
 20
-19.948
 21
-20.129
  0
LINE
  8
0
 10
135.278
 11
135.36
 20
-20.129
 21
-20.312
  0
LINE
  8
0
 10
135.36
 11
135.478
 20
-20.312
 21
-20.588
  0
LINE
  8
0
 10
135.478
 11
135.591
 20
-20.588
 21
-20.866
  0
LINE
  8
0
 10
135.591
 11
135.664
 20
-20.866
 21
-21.051
  0
LINE
  8
0
 10
135.664
 11
135.736
 20
-21.051
 21
-21.238
  0
LINE
  8
0
 10
135.736
 11
135.771
 20
-21.238
 21
-21.331
  0
LINE
  8
0
 10
135.771
 11
135.806
 20
-21.331
 21
-21.425
  0
LINE
  8
0
 10
135.806
 11
135.874
 20
-21.425
 21
-21.614
  0
LINE
  8
0
 10
135.874
 11
135.907
 20
-21.614
 21
-21.708
  0
LINE
  8
0
 10
135.907
 11
135.971
 20
-21.708
 21
-21.897
  0
LINE
  8
0
 10
135.971
 11
136.003
 20
-21.897
 21
-21.992
  0
LINE
  8
0
 10
136.003
 11
136.035
 20
-21.992
 21
-22.087
  0
LINE
  8
0
 10
136.035
 11
136.066
 20
-22.087
 21
-22.182
  0
LINE
  8
0
 10
136.066
 11
136.126
 20
-22.182
 21
-22.372
  0
LINE
  8
0
 10
136.126
 11
136.213
 20
-22.372
 21
-22.659
  0
LINE
  8
0
 10
136.213
 11
136.241
 20
-22.659
 21
-22.756
  0
LINE
  8
0
 10
136.241
 11
136.268
 20
-22.756
 21
-22.851
  0
LINE
  8
0
 10
136.268
 11
136.322
 20
-22.851
 21
-23.044
  0
LINE
  8
0
 10
136.322
 11
136.348
 20
-23.044
 21
-23.141
  0
LINE
  8
0
 10
136.348
 11
136.399
 20
-23.141
 21
-23.335
  0
LINE
  8
0
 10
136.399
 11
136.448
 20
-23.335
 21
-23.528
  0
LINE
  8
0
 10
136.448
 11
136.494
 20
-23.528
 21
-23.722
  0
LINE
  8
0
 10
136.494
 11
136.517
 20
-23.722
 21
-23.82
  0
LINE
  8
0
 10
136.517
 11
136.539
 20
-23.82
 21
-23.918
  0
LINE
  8
0
 10
136.539
 11
136.581
 20
-23.918
 21
-24.112
  0
LINE
  8
0
 10
136.581
 11
136.623
 20
-24.112
 21
-24.308
  0
LINE
  8
0
 10
136.623
 11
136.643
 20
-24.308
 21
-24.406
  0
LINE
  8
0
 10
136.643
 11
136.681
 20
-24.406
 21
-24.602
  0
LINE
  8
0
 10
136.681
 11
136.699
 20
-24.602
 21
-24.701
  0
LINE
  8
0
 10
136.699
 11
136.734
 20
-24.701
 21
-24.898
  0
LINE
  8
0
 10
136.734
 11
136.767
 20
-24.898
 21
-25.095
  0
LINE
  8
0
 10
136.767
 11
136.783
 20
-25.095
 21
-25.194
  0
LINE
  8
0
 10
136.783
 11
136.813
 20
-25.194
 21
-25.391
  0
LINE
  8
0
 10
136.813
 11
136.827
 20
-25.391
 21
-25.491
  0
LINE
  8
0
 10
136.827
 11
136.854
 20
-25.491
 21
-25.688
  0
LINE
  8
0
 10
136.854
 11
136.867
 20
-25.688
 21
-25.787
  0
LINE
  8
0
 10
136.867
 11
136.903
 20
-25.787
 21
-26.085
  0
LINE
  8
0
 10
136.903
 11
136.914
 20
-26.085
 21
-26.185
  0
LINE
  8
0
 10
136.914
 11
136.934
 20
-26.185
 21
-26.384
  0
LINE
  8
0
 10
136.934
 11
136.943
 20
-26.384
 21
-26.484
  0
LINE
  8
0
 10
136.943
 11
136.96
 20
-26.484
 21
-26.683
  0
LINE
  8
0
 10
136.96
 11
136.968
 20
-26.683
 21
-26.782
  0
LINE
  8
0
 10
136.968
 11
136.982
 20
-26.782
 21
-26.982
  0
LINE
  8
0
 10
136.982
 11
136.988
 20
-26.982
 21
-27.081
  0
LINE
  8
0
 10
136.988
 11
137
 20
-27.081
 21
-27.281
  0
LINE
  8
0
 10
137
 11
137.01
 20
-27.281
 21
-27.48
  0
LINE
  8
0
 10
137.01
 11
137.019
 20
-27.48
 21
-27.78
  0
LINE
  8
0
 10
137.019
 11
137.021
 20
-27.78
 21
-27.88
  0
LINE
  8
0
 10
137.021
 11
137.025
 20
-27.88
 21
-28.08
  0
LINE
  8
0
 10
137.025
 11
137.026
 20
-28.08
 21
-28.18
  0
LINE
  8
0
 10
137.026
 11
137.026
 20
-28.18
 21
-28.38
  0
LINE
  8
0
 10
137.026
 11
137.024
 20
-28.38
 21
-28.58
  0
LINE
  8
0
 10
137.024
 11
137.023
 20
-28.58
 21
-28.68
  0
LINE
  8
0
 10
137.023
 11
137.018
 20
-28.68
 21
-28.88
  0
LINE
  8
0
 10
137.018
 11
137.011
 20
-28.88
 21
-29.08
  0
LINE
  8
0
 10
137.011
 11
137.002
 20
-29.08
 21
-29.28
  0
LINE
  8
0
 10
137.002
 11
136.997
 20
-29.28
 21
-29.38
  0
LINE
  8
0
 10
136.997
 11
136.992
 20
-29.38
 21
-29.479
  0
LINE
  8
0
 10
136.992
 11
136.972
 20
-29.479
 21
-29.778
  0
LINE
  8
0
 10
136.972
 11
136.956
 20
-29.778
 21
-29.978
  0
LINE
  8
0
 10
136.956
 11
136.929
 20
-29.978
 21
-30.277
  0
LINE
  8
0
 10
136.929
 11
136.919
 20
-30.277
 21
-30.376
  0
LINE
  8
0
 10
136.919
 11
136.908
 20
-30.376
 21
-30.475
  0
LINE
  8
0
 10
136.908
 11
136.885
 20
-30.475
 21
-30.674
  0
LINE
  8
0
 10
136.885
 11
136.861
 20
-30.674
 21
-30.872
  0
LINE
  8
0
 10
136.861
 11
136.848
 20
-30.872
 21
-30.971
  0
LINE
  8
0
 10
136.848
 11
136.834
 20
-30.971
 21
-31.071
  0
LINE
  8
0
 10
136.834
 11
136.805
 20
-31.071
 21
-31.269
  0
LINE
  8
0
 10
136.805
 11
136.79
 20
-31.269
 21
-31.367
  0
LINE
  8
0
 10
136.79
 11
136.759
 20
-31.367
 21
-31.564
  0
LINE
  8
0
 10
136.759
 11
136.725
 20
-31.564
 21
-31.762
  0
LINE
  8
0
 10
136.725
 11
136.69
 20
-31.762
 21
-31.958
  0
LINE
  8
0
 10
136.69
 11
136.652
 20
-31.958
 21
-32.155
  0
LINE
  8
0
 10
136.652
 11
136.633
 20
-32.155
 21
-32.253
  0
LINE
  8
0
 10
136.633
 11
136.592
 20
-32.253
 21
-32.448
  0
LINE
  8
0
 10
136.592
 11
136.571
 20
-32.448
 21
-32.547
  0
LINE
  8
0
 10
136.571
 11
136.528
 20
-32.547
 21
-32.741
  0
LINE
  8
0
 10
136.528
 11
136.506
 20
-32.741
 21
-32.839
  0
LINE
  8
0
 10
136.506
 11
136.436
 20
-32.839
 21
-33.13
  0
LINE
  8
0
 10
136.436
 11
136.411
 20
-33.13
 21
-33.228
  0
LINE
  8
0
 10
136.411
 11
136.386
 20
-33.228
 21
-33.325
  0
LINE
  8
0
 10
136.386
 11
136.308
 20
-33.325
 21
-33.615
  0
LINE
  8
0
 10
136.308
 11
136.282
 20
-33.615
 21
-33.71
  0
LINE
  8
0
 10
136.282
 11
136.199
 20
-33.71
 21
-33.998
  0
LINE
  8
0
 10
136.199
 11
136.17
 20
-33.998
 21
-34.095
  0
LINE
  8
0
 10
136.17
 11
136.111
 20
-34.095
 21
-34.286
  0
LINE
  8
0
 10
136.111
 11
136.081
 20
-34.286
 21
-34.381
  0
LINE
  8
0
 10
136.081
 11
136.05
 20
-34.381
 21
-34.476
  0
LINE
  8
0
 10
136.05
 11
135.988
 20
-34.476
 21
-34.666
  0
LINE
  8
0
 10
135.988
 11
135.923
 20
-34.666
 21
-34.855
  0
LINE
  8
0
 10
135.923
 11
135.89
 20
-34.855
 21
-34.949
  0
LINE
  8
0
 10
135.89
 11
135.857
 20
-34.949
 21
-35.043
  0
LINE
  8
0
 10
135.857
 11
135.823
 20
-35.043
 21
-35.138
  0
LINE
  8
0
 10
135.823
 11
135.789
 20
-35.138
 21
-35.231
  0
LINE
  8
0
 10
135.789
 11
135.754
 20
-35.231
 21
-35.326
  0
LINE
  8
0
 10
135.754
 11
135.682
 20
-35.326
 21
-35.512
  0
LINE
  8
0
 10
135.682
 11
135.646
 20
-35.512
 21
-35.605
  0
LINE
  8
0
 10
135.646
 11
135.572
 20
-35.605
 21
-35.791
  0
LINE
  8
0
 10
135.572
 11
135.534
 20
-35.791
 21
-35.884
  0
LINE
  8
0
 10
135.534
 11
135.496
 20
-35.884
 21
-35.976
  0
LINE
  8
0
 10
135.496
 11
135.458
 20
-35.976
 21
-36.068
  0
LINE
  8
0
 10
135.458
 11
135.419
 20
-36.068
 21
-36.16
  0
LINE
  8
0
 10
135.419
 11
135.339
 20
-36.16
 21
-36.344
  0
LINE
  8
0
 10
135.339
 11
135.299
 20
-36.344
 21
-36.435
  0
LINE
  8
0
 10
135.299
 11
135.258
 20
-36.435
 21
-36.527
  0
LINE
  8
0
 10
135.258
 11
135.217
 20
-36.527
 21
-36.617
  0
LINE
  8
0
 10
135.217
 11
135.133
 20
-36.617
 21
-36.799
  0
LINE
  8
0
 10
135.133
 11
135.047
 20
-36.799
 21
-36.98
  0
LINE
  8
0
 10
135.047
 11
134.96
 20
-36.98
 21
-37.159
  0
LINE
  8
0
 10
134.96
 11
134.915
 20
-37.159
 21
-37.249
  0
LINE
  8
0
 10
134.915
 11
134.87
 20
-37.249
 21
-37.338
  0
LINE
  8
0
 10
134.87
 11
134.779
 20
-37.338
 21
-37.517
  0
LINE
  8
0
 10
134.779
 11
134.686
 20
-37.517
 21
-37.693
  0
LINE
  8
0
 10
134.686
 11
134.639
 20
-37.693
 21
-37.781
  0
LINE
  8
0
 10
134.639
 11
134.543
 20
-37.781
 21
-37.957
  0
LINE
  8
0
 10
134.543
 11
134.495
 20
-37.957
 21
-38.044
  0
LINE
  8
0
 10
134.495
 11
134.396
 20
-38.044
 21
-38.219
  0
LINE
  8
0
 10
134.396
 11
100.396
 20
-38.219
 21
-97.108
  0
LINE
  8
0
 10
100.396
 11
100.296
 20
-97.108
 21
-97.281
  0
LINE
  8
0
 10
100.296
 11
100.195
 20
-97.281
 21
-97.454
  0
LINE
  8
0
 10
100.195
 11
100.091
 20
-97.454
 21
-97.625
  0
LINE
  8
0
 10
100.091
 11
100.039
 20
-97.625
 21
-97.71
  0
LINE
  8
0
 10
100.039
 11
99.933
 20
-97.71
 21
-97.88
  0
LINE
  8
0
 10
99.933
 11
99.88
 20
-97.88
 21
-97.963
  0
LINE
  8
0
 10
99.88
 11
99.771
 20
-97.963
 21
-98.132
  0
LINE
  8
0
 10
99.771
 11
99.661
 20
-98.132
 21
-98.299
  0
LINE
  8
0
 10
99.661
 11
99.549
 20
-98.299
 21
-98.464
  0
LINE
  8
0
 10
99.549
 11
99.436
 20
-98.464
 21
-98.629
  0
LINE
  8
0
 10
99.436
 11
99.32
 20
-98.629
 21
-98.793
  0
LINE
  8
0
 10
99.32
 11
99.203
 20
-98.793
 21
-98.955
  0
LINE
  8
0
 10
99.203
 11
99.085
 20
-98.955
 21
-99.116
  0
LINE
  8
0
 10
99.085
 11
98.965
 20
-99.116
 21
-99.276
  0
LINE
  8
0
 10
98.965
 11
98.843
 20
-99.276
 21
-99.434
  0
LINE
  8
0
 10
98.843
 11
98.782
 20
-99.434
 21
-99.513
  0
LINE
  8
0
 10
98.782
 11
98.658
 20
-99.513
 21
-99.671
  0
LINE
  8
0
 10
98.658
 11
98.533
 20
-99.671
 21
-99.826
  0
LINE
  8
0
 10
98.533
 11
98.47
 20
-99.826
 21
-99.903
  0
LINE
  8
0
 10
98.47
 11
98.406
 20
-99.903
 21
-99.981
  0
LINE
  8
0
 10
98.406
 11
98.342
 20
-99.981
 21
-100.057
  0
LINE
  8
0
 10
98.342
 11
98.277
 20
-100.057
 21
-100.134
  0
LINE
  8
0
 10
98.277
 11
98.212
 20
-100.134
 21
-100.21
  0
LINE
  8
0
 10
98.212
 11
98.147
 20
-100.21
 21
-100.285
  0
LINE
  8
0
 10
98.147
 11
98.016
 20
-100.285
 21
-100.436
  0
LINE
  8
0
 10
98.016
 11
97.882
 20
-100.436
 21
-100.585
  0
LINE
  8
0
 10
97.882
 11
97.815
 20
-100.585
 21
-100.659
  0
LINE
  8
0
 10
97.815
 11
97.748
 20
-100.659
 21
-100.732
  0
LINE
  8
0
 10
97.748
 11
97.612
 20
-100.732
 21
-100.879
  0
LINE
  8
0
 10
97.612
 11
97.543
 20
-100.879
 21
-100.953
  0
LINE
  8
0
 10
97.543
 11
97.335
 20
-100.953
 21
-101.169
  0
LINE
  8
0
 10
97.335
 11
97.053
 20
-101.169
 21
-101.451
  0
LINE
  8
0
 10
97.053
 11
96.91
 20
-101.451
 21
-101.592
  0
LINE
  8
0
 10
96.91
 11
96.693
 20
-101.592
 21
-101.798
  0
LINE
  8
0
 10
96.693
 11
96.619
 20
-101.798
 21
-101.866
  0
LINE
  8
0
 10
96.619
 11
96.472
 20
-101.866
 21
-102
  0
LINE
  8
0
 10
96.472
 11
96.397
 20
-102
 21
-102.068
  0
LINE
  8
0
 10
96.397
 11
96.249
 20
-102.068
 21
-102.201
  0
LINE
  8
0
 10
96.249
 11
96.097
 20
-102.201
 21
-102.333
  0
LINE
  8
0
 10
96.097
 11
96.022
 20
-102.333
 21
-102.398
  0
LINE
  8
0
 10
96.022
 11
95.792
 20
-102.398
 21
-102.591
  0
LINE
  8
0
 10
95.792
 11
95.715
 20
-102.591
 21
-102.655
  0
LINE
  8
0
 10
95.715
 11
95.56
 20
-102.655
 21
-102.78
  0
LINE
  8
0
 10
95.56
 11
95.482
 20
-102.78
 21
-102.842
  0
LINE
  8
0
 10
95.482
 11
95.325
 20
-102.842
 21
-102.966
  0
LINE
  8
0
 10
95.325
 11
95.246
 20
-102.966
 21
-103.028
  0
LINE
  8
0
 10
95.246
 11
95.167
 20
-103.028
 21
-103.089
  0
LINE
  8
0
 10
95.167
 11
95.007
 20
-103.089
 21
-103.209
  0
LINE
  8
0
 10
95.007
 11
94.846
 20
-103.209
 21
-103.328
  0
LINE
  8
0
 10
94.846
 11
94.766
 20
-103.328
 21
-103.387
  0
LINE
  8
0
 10
94.766
 11
94.685
 20
-103.387
 21
-103.445
  0
LINE
  8
0
 10
94.685
 11
94.521
 20
-103.445
 21
-103.561
  0
LINE
  8
0
 10
94.521
 11
94.44
 20
-103.561
 21
-103.618
  0
LINE
  8
0
 10
94.44
 11
94.275
 20
-103.618
 21
-103.732
  0
LINE
  8
0
 10
94.275
 11
94.026
 20
-103.732
 21
-103.899
  0
LINE
  8
0
 10
94.026
 11
93.942
 20
-103.899
 21
-103.953
  0
LINE
  8
0
 10
93.942
 11
93.858
 20
-103.953
 21
-104.007
  0
LINE
  8
0
 10
93.858
 11
93.689
 20
-104.007
 21
-104.115
  0
LINE
  8
0
 10
93.689
 11
93.52
 20
-104.115
 21
-104.221
  0
LINE
  8
0
 10
93.52
 11
93.349
 20
-104.221
 21
-104.325
  0
LINE
  8
0
 10
93.349
 11
93.091
 20
-104.325
 21
-104.478
  0
LINE
  8
0
 10
93.091
 11
92.918
 20
-104.478
 21
-104.578
  0
LINE
  8
0
 10
92.918
 11
92.831
 20
-104.578
 21
-104.627
  0
LINE
  8
0
 10
92.831
 11
92.743
 20
-104.627
 21
-104.676
  0
LINE
  8
0
 10
92.743
 11
92.568
 20
-104.676
 21
-104.772
  0
LINE
  8
0
 10
92.568
 11
92.304
 20
-104.772
 21
-104.914
  0
LINE
  8
0
 10
92.304
 11
92.126
 20
-104.914
 21
-105.005
  0
LINE
  8
0
 10
92.126
 11
91.947
 20
-105.005
 21
-105.095
  0
LINE
  8
0
 10
91.947
 11
91.858
 20
-105.095
 21
-105.139
  0
LINE
  8
0
 10
91.858
 11
91.768
 20
-105.139
 21
-105.183
  0
LINE
  8
0
 10
91.768
 11
91.678
 20
-105.183
 21
-105.227
  0
LINE
  8
0
 10
91.678
 11
91.497
 20
-105.227
 21
-105.312
  0
LINE
  8
0
 10
91.497
 11
91.407
 20
-105.312
 21
-105.354
  0
LINE
  8
0
 10
91.407
 11
91.316
 20
-105.354
 21
-105.396
  0
LINE
  8
0
 10
91.316
 11
91.134
 20
-105.396
 21
-105.478
  0
LINE
  8
0
 10
91.134
 11
91.042
 20
-105.478
 21
-105.519
  0
LINE
  8
0
 10
91.042
 11
90.766
 20
-105.519
 21
-105.637
  0
LINE
  8
0
 10
90.766
 11
90.674
 20
-105.637
 21
-105.675
  0
LINE
  8
0
 10
90.674
 11
90.396
 20
-105.675
 21
-105.788
  0
LINE
  8
0
 10
90.396
 11
90.21
 20
-105.788
 21
-105.86
  0
LINE
  8
0
 10
90.21
 11
90.117
 20
-105.86
 21
-105.896
  0
LINE
  8
0
 10
90.117
 11
89.929
 20
-105.896
 21
-105.966
  0
LINE
  8
0
 10
89.929
 11
89.741
 20
-105.966
 21
-106.034
  0
LINE
  8
0
 10
89.741
 11
89.647
 20
-106.034
 21
-106.068
  0
LINE
  8
0
 10
89.647
 11
89.458
 20
-106.068
 21
-106.133
  0
LINE
  8
0
 10
89.458
 11
89.363
 20
-106.133
 21
-106.165
  0
LINE
  8
0
 10
89.363
 11
89.172
 20
-106.165
 21
-106.227
  0
LINE
  8
0
 10
89.172
 11
88.983
 20
-106.227
 21
-106.287
  0
LINE
  8
0
 10
88.983
 11
88.887
 20
-106.287
 21
-106.317
  0
LINE
  8
0
 10
88.887
 11
88.791
 20
-106.317
 21
-106.346
  0
LINE
  8
0
 10
88.791
 11
88.6
 20
-106.346
 21
-106.403
  0
LINE
  8
0
 10
88.6
 11
88.408
 20
-106.403
 21
-106.457
  0
LINE
  8
0
 10
88.408
 11
88.215
 20
-106.457
 21
-106.51
  0
LINE
  8
0
 10
88.215
 11
88.118
 20
-106.51
 21
-106.536
  0
LINE
  8
0
 10
88.118
 11
88.021
 20
-106.536
 21
-106.561
  0
LINE
  8
0
 10
88.021
 11
87.924
 20
-106.561
 21
-106.586
  0
LINE
  8
0
 10
87.924
 11
87.828
 20
-106.586
 21
-106.61
  0
LINE
  8
0
 10
87.828
 11
87.73
 20
-106.61
 21
-106.634
  0
LINE
  8
0
 10
87.73
 11
87.633
 20
-106.634
 21
-106.657
  0
LINE
  8
0
 10
87.633
 11
87.438
 20
-106.657
 21
-106.703
  0
LINE
  8
0
 10
87.438
 11
87.341
 20
-106.703
 21
-106.724
  0
LINE
  8
0
 10
87.341
 11
87.145
 20
-106.724
 21
-106.766
  0
LINE
  8
0
 10
87.145
 11
86.949
 20
-106.766
 21
-106.806
  0
LINE
  8
0
 10
86.949
 11
86.753
 20
-106.806
 21
-106.845
  0
LINE
  8
0
 10
86.753
 11
86.655
 20
-106.845
 21
-106.863
  0
LINE
  8
0
 10
86.655
 11
86.458
 20
-106.863
 21
-106.899
  0
LINE
  8
0
 10
86.458
 11
86.359
 20
-106.899
 21
-106.916
  0
LINE
  8
0
 10
86.359
 11
86.261
 20
-106.916
 21
-106.932
  0
LINE
  8
0
 10
86.261
 11
86.063
 20
-106.932
 21
-106.963
  0
LINE
  8
0
 10
86.063
 11
85.866
 20
-106.963
 21
-106.992
  0
LINE
  8
0
 10
85.866
 11
85.766
 20
-106.992
 21
-107.006
  0
LINE
  8
0
 10
85.766
 11
85.569
 20
-107.006
 21
-107.033
  0
LINE
  8
0
 10
85.569
 11
85.271
 20
-107.033
 21
-107.069
  0
LINE
  8
0
 10
85.271
 11
85.071
 20
-107.069
 21
-107.09
  0
LINE
  8
0
 10
85.071
 11
84.773
 20
-107.09
 21
-107.119
  0
LINE
  8
0
 10
84.773
 11
84.674
 20
-107.119
 21
-107.127
  0
LINE
  8
0
 10
84.674
 11
84.574
 20
-107.127
 21
-107.135
  0
LINE
  8
0
 10
84.574
 11
84.374
 20
-107.135
 21
-107.149
  0
LINE
  8
0
 10
84.374
 11
84.176
 20
-107.149
 21
-107.162
  0
LINE
  8
0
 10
84.176
 11
83.876
 20
-107.162
 21
-107.177
  0
LINE
  8
0
 10
83.876
 11
83.675
 20
-107.177
 21
-107.185
  0
LINE
  8
0
 10
83.675
 11
83.476
 20
-107.185
 21
-107.19
  0
LINE
  8
0
 10
83.476
 11
83.375
 20
-107.19
 21
-107.192
  0
LINE
  8
0
 10
83.375
 11
83.276
 20
-107.192
 21
-107.193
  0
LINE
  8
0
 10
83.276
 11
83.176
 20
-107.193
 21
-107.194
  0
LINE
  8
0
 10
83.176
 11
82.976
 20
-107.194
 21
-107.195
  0
LINE
  8
0
 10
82.976
 11
-82.976
 20
-107.195
 21
-107.195
  0
LINE
  8
0
 10
-82.976
 11
-83.176
 20
-107.195
 21
-107.194
  0
LINE
  8
0
 10
-83.176
 11
-83.276
 20
-107.194
 21
-107.193
  0
LINE
  8
0
 10
-83.276
 11
-83.375
 20
-107.193
 21
-107.192
  0
LINE
  8
0
 10
-83.375
 11
-83.476
 20
-107.192
 21
-107.19
  0
LINE
  8
0
 10
-83.476
 11
-83.675
 20
-107.19
 21
-107.185
  0
LINE
  8
0
 10
-83.675
 11
-83.876
 20
-107.185
 21
-107.177
  0
LINE
  8
0
 10
-83.876
 11
-84.176
 20
-107.177
 21
-107.162
  0
LINE
  8
0
 10
-84.176
 11
-84.374
 20
-107.162
 21
-107.149
  0
LINE
  8
0
 10
-84.374
 11
-84.574
 20
-107.149
 21
-107.135
  0
LINE
  8
0
 10
-84.574
 11
-84.674
 20
-107.135
 21
-107.127
  0
LINE
  8
0
 10
-84.674
 11
-84.773
 20
-107.127
 21
-107.119
  0
LINE
  8
0
 10
-84.773
 11
-85.071
 20
-107.119
 21
-107.09
  0
LINE
  8
0
 10
-85.071
 11
-85.271
 20
-107.09
 21
-107.069
  0
LINE
  8
0
 10
-85.271
 11
-85.569
 20
-107.069
 21
-107.033
  0
LINE
  8
0
 10
-85.569
 11
-85.766
 20
-107.033
 21
-107.006
  0
LINE
  8
0
 10
-85.766
 11
-85.866
 20
-107.006
 21
-106.992
  0
LINE
  8
0
 10
-85.866
 11
-86.063
 20
-106.992
 21
-106.963
  0
LINE
  8
0
 10
-86.063
 11
-86.261
 20
-106.963
 21
-106.932
  0
LINE
  8
0
 10
-86.261
 11
-86.359
 20
-106.932
 21
-106.916
  0
LINE
  8
0
 10
-86.359
 11
-86.458
 20
-106.916
 21
-106.899
  0
LINE
  8
0
 10
-86.458
 11
-86.655
 20
-106.899
 21
-106.863
  0
LINE
  8
0
 10
-86.655
 11
-86.753
 20
-106.863
 21
-106.845
  0
LINE
  8
0
 10
-86.753
 11
-86.949
 20
-106.845
 21
-106.806
  0
LINE
  8
0
 10
-86.949
 11
-87.145
 20
-106.806
 21
-106.766
  0
LINE
  8
0
 10
-87.145
 11
-87.341
 20
-106.766
 21
-106.724
  0
LINE
  8
0
 10
-87.341
 11
-87.438
 20
-106.724
 21
-106.703
  0
LINE
  8
0
 10
-87.438
 11
-87.633
 20
-106.703
 21
-106.657
  0
LINE
  8
0
 10
-87.633
 11
-87.73
 20
-106.657
 21
-106.634
  0
LINE
  8
0
 10
-87.73
 11
-87.828
 20
-106.634
 21
-106.61
  0
LINE
  8
0
 10
-87.828
 11
-87.924
 20
-106.61
 21
-106.586
  0
LINE
  8
0
 10
-87.924
 11
-88.021
 20
-106.586
 21
-106.561
  0
LINE
  8
0
 10
-88.021
 11
-88.118
 20
-106.561
 21
-106.536
  0
LINE
  8
0
 10
-88.118
 11
-88.215
 20
-106.536
 21
-106.51
  0
LINE
  8
0
 10
-88.215
 11
-88.408
 20
-106.51
 21
-106.457
  0
LINE
  8
0
 10
-88.408
 11
-88.6
 20
-106.457
 21
-106.403
  0
LINE
  8
0
 10
-88.6
 11
-88.791
 20
-106.403
 21
-106.346
  0
LINE
  8
0
 10
-88.791
 11
-88.887
 20
-106.346
 21
-106.317
  0
LINE
  8
0
 10
-88.887
 11
-88.983
 20
-106.317
 21
-106.287
  0
LINE
  8
0
 10
-88.983
 11
-89.172
 20
-106.287
 21
-106.227
  0
LINE
  8
0
 10
-89.172
 11
-89.363
 20
-106.227
 21
-106.165
  0
LINE
  8
0
 10
-89.363
 11
-89.458
 20
-106.165
 21
-106.133
  0
LINE
  8
0
 10
-89.458
 11
-89.647
 20
-106.133
 21
-106.068
  0
LINE
  8
0
 10
-89.647
 11
-89.741
 20
-106.068
 21
-106.034
  0
LINE
  8
0
 10
-89.741
 11
-89.929
 20
-106.034
 21
-105.966
  0
LINE
  8
0
 10
-89.929
 11
-90.117
 20
-105.966
 21
-105.896
  0
LINE
  8
0
 10
-90.117
 11
-90.21
 20
-105.896
 21
-105.86
  0
LINE
  8
0
 10
-90.21
 11
-90.396
 20
-105.86
 21
-105.788
  0
LINE
  8
0
 10
-90.396
 11
-90.674
 20
-105.788
 21
-105.675
  0
LINE
  8
0
 10
-90.674
 11
-90.766
 20
-105.675
 21
-105.637
  0
LINE
  8
0
 10
-90.766
 11
-91.042
 20
-105.637
 21
-105.519
  0
LINE
  8
0
 10
-91.042
 11
-91.134
 20
-105.519
 21
-105.478
  0
LINE
  8
0
 10
-91.134
 11
-91.316
 20
-105.478
 21
-105.396
  0
LINE
  8
0
 10
-91.316
 11
-91.407
 20
-105.396
 21
-105.354
  0
LINE
  8
0
 10
-91.407
 11
-91.497
 20
-105.354
 21
-105.312
  0
LINE
  8
0
 10
-91.497
 11
-91.678
 20
-105.312
 21
-105.227
  0
LINE
  8
0
 10
-91.678
 11
-91.768
 20
-105.227
 21
-105.183
  0
LINE
  8
0
 10
-91.768
 11
-91.858
 20
-105.183
 21
-105.139
  0
LINE
  8
0
 10
-91.858
 11
-91.947
 20
-105.139
 21
-105.095
  0
LINE
  8
0
 10
-91.947
 11
-92.126
 20
-105.095
 21
-105.005
  0
LINE
  8
0
 10
-92.126
 11
-92.304
 20
-105.005
 21
-104.914
  0
LINE
  8
0
 10
-92.304
 11
-92.568
 20
-104.914
 21
-104.772
  0
LINE
  8
0
 10
-92.568
 11
-92.743
 20
-104.772
 21
-104.676
  0
LINE
  8
0
 10
-92.743
 11
-92.831
 20
-104.676
 21
-104.627
  0
LINE
  8
0
 10
-92.831
 11
-92.918
 20
-104.627
 21
-104.578
  0
LINE
  8
0
 10
-92.918
 11
-93.091
 20
-104.578
 21
-104.478
  0
LINE
  8
0
 10
-93.091
 11
-93.349
 20
-104.478
 21
-104.325
  0
LINE
  8
0
 10
-93.349
 11
-93.52
 20
-104.325
 21
-104.221
  0
LINE
  8
0
 10
-93.52
 11
-93.689
 20
-104.221
 21
-104.115
  0
LINE
  8
0
 10
-93.689
 11
-93.858
 20
-104.115
 21
-104.007
  0
LINE
  8
0
 10
-93.858
 11
-93.942
 20
-104.007
 21
-103.953
  0
LINE
  8
0
 10
-93.942
 11
-94.026
 20
-103.953
 21
-103.899
  0
LINE
  8
0
 10
-94.026
 11
-94.275
 20
-103.899
 21
-103.732
  0
LINE
  8
0
 10
-94.275
 11
-94.44
 20
-103.732
 21
-103.618
  0
LINE
  8
0
 10
-94.44
 11
-94.521
 20
-103.618
 21
-103.561
  0
LINE
  8
0
 10
-94.521
 11
-94.685
 20
-103.561
 21
-103.445
  0
LINE
  8
0
 10
-94.685
 11
-94.766
 20
-103.445
 21
-103.387
  0
LINE
  8
0
 10
-94.766
 11
-94.846
 20
-103.387
 21
-103.328
  0
LINE
  8
0
 10
-94.846
 11
-95.007
 20
-103.328
 21
-103.209
  0
LINE
  8
0
 10
-95.007
 11
-95.167
 20
-103.209
 21
-103.089
  0
LINE
  8
0
 10
-95.167
 11
-95.246
 20
-103.089
 21
-103.028
  0
LINE
  8
0
 10
-95.246
 11
-95.325
 20
-103.028
 21
-102.966
  0
LINE
  8
0
 10
-95.325
 11
-95.482
 20
-102.966
 21
-102.842
  0
LINE
  8
0
 10
-95.482
 11
-95.56
 20
-102.842
 21
-102.78
  0
LINE
  8
0
 10
-95.56
 11
-95.715
 20
-102.78
 21
-102.655
  0
LINE
  8
0
 10
-95.715
 11
-95.792
 20
-102.655
 21
-102.591
  0
LINE
  8
0
 10
-95.792
 11
-96.022
 20
-102.591
 21
-102.398
  0
LINE
  8
0
 10
-96.022
 11
-96.097
 20
-102.398
 21
-102.333
  0
LINE
  8
0
 10
-96.097
 11
-96.249
 20
-102.333
 21
-102.201
  0
LINE
  8
0
 10
-96.249
 11
-96.397
 20
-102.201
 21
-102.068
  0
LINE
  8
0
 10
-96.397
 11
-96.472
 20
-102.068
 21
-102
  0
LINE
  8
0
 10
-96.472
 11
-96.619
 20
-102
 21
-101.866
  0
LINE
  8
0
 10
-96.619
 11
-96.693
 20
-101.866
 21
-101.798
  0
LINE
  8
0
 10
-96.693
 11
-96.91
 20
-101.798
 21
-101.592
  0
LINE
  8
0
 10
-96.91
 11
-97.053
 20
-101.592
 21
-101.451
  0
LINE
  8
0
 10
-97.053
 11
-97.335
 20
-101.451
 21
-101.169
  0
LINE
  8
0
 10
-97.335
 11
-97.543
 20
-101.169
 21
-100.953
  0
LINE
  8
0
 10
-97.543
 11
-97.612
 20
-100.953
 21
-100.879
  0
LINE
  8
0
 10
-97.612
 11
-97.748
 20
-100.879
 21
-100.732
  0
LINE
  8
0
 10
-97.748
 11
-97.815
 20
-100.732
 21
-100.659
  0
LINE
  8
0
 10
-97.815
 11
-97.882
 20
-100.659
 21
-100.585
  0
LINE
  8
0
 10
-97.882
 11
-98.016
 20
-100.585
 21
-100.436
  0
LINE
  8
0
 10
-98.016
 11
-98.147
 20
-100.436
 21
-100.285
  0
LINE
  8
0
 10
-98.147
 11
-98.212
 20
-100.285
 21
-100.21
  0
LINE
  8
0
 10
-98.212
 11
-98.277
 20
-100.21
 21
-100.134
  0
LINE
  8
0
 10
-98.277
 11
-98.342
 20
-100.134
 21
-100.057
  0
LINE
  8
0
 10
-98.342
 11
-98.406
 20
-100.057
 21
-99.981
  0
LINE
  8
0
 10
-98.406
 11
-98.47
 20
-99.981
 21
-99.903
  0
LINE
  8
0
 10
-98.47
 11
-98.533
 20
-99.903
 21
-99.826
  0
LINE
  8
0
 10
-98.533
 11
-98.658
 20
-99.826
 21
-99.671
  0
LINE
  8
0
 10
-98.658
 11
-98.782
 20
-99.671
 21
-99.513
  0
LINE
  8
0
 10
-98.782
 11
-98.843
 20
-99.513
 21
-99.434
  0
LINE
  8
0
 10
-98.843
 11
-98.965
 20
-99.434
 21
-99.276
  0
LINE
  8
0
 10
-98.965
 11
-99.085
 20
-99.276
 21
-99.116
  0
LINE
  8
0
 10
-99.085
 11
-99.203
 20
-99.116
 21
-98.955
  0
LINE
  8
0
 10
-99.203
 11
-99.32
 20
-98.955
 21
-98.793
  0
LINE
  8
0
 10
-99.32
 11
-99.436
 20
-98.793
 21
-98.629
  0
LINE
  8
0
 10
-99.436
 11
-99.549
 20
-98.629
 21
-98.464
  0
LINE
  8
0
 10
-99.549
 11
-99.661
 20
-98.464
 21
-98.299
  0
LINE
  8
0
 10
-99.661
 11
-99.771
 20
-98.299
 21
-98.132
  0
LINE
  8
0
 10
-99.771
 11
-99.88
 20
-98.132
 21
-97.963
  0
LINE
  8
0
 10
-99.88
 11
-99.933
 20
-97.963
 21
-97.88
  0
LINE
  8
0
 10
-99.933
 11
-100.039
 20
-97.88
 21
-97.71
  0
LINE
  8
0
 10
-100.039
 11
-100.091
 20
-97.71
 21
-97.625
  0
LINE
  8
0
 10
-100.091
 11
-100.195
 20
-97.625
 21
-97.454
  0
LINE
  8
0
 10
-100.195
 11
-100.296
 20
-97.454
 21
-97.281
  0
LINE
  8
0
 10
-100.296
 11
-100.396
 20
-97.281
 21
-97.108
  0
LINE
  8
0
 10
-100.396
 11
-134.396
 20
-97.108
 21
-38.219
  0
LINE
  8
0
 10
-134.396
 11
-134.495
 20
-38.219
 21
-38.044
  0
LINE
  8
0
 10
-134.495
 11
-134.543
 20
-38.044
 21
-37.957
  0
LINE
  8
0
 10
-134.543
 11
-134.639
 20
-37.957
 21
-37.781
  0
LINE
  8
0
 10
-134.639
 11
-134.686
 20
-37.781
 21
-37.693
  0
LINE
  8
0
 10
-134.686
 11
-134.779
 20
-37.693
 21
-37.517
  0
LINE
  8
0
 10
-134.779
 11
-134.87
 20
-37.517
 21
-37.338
  0
LINE
  8
0
 10
-134.87
 11
-134.915
 20
-37.338
 21
-37.249
  0
LINE
  8
0
 10
-134.915
 11
-134.96
 20
-37.249
 21
-37.159
  0
LINE
  8
0
 10
-134.96
 11
-135.047
 20
-37.159
 21
-36.98
  0
LINE
  8
0
 10
-135.047
 11
-135.133
 20
-36.98
 21
-36.799
  0
LINE
  8
0
 10
-135.133
 11
-135.217
 20
-36.799
 21
-36.617
  0
LINE
  8
0
 10
-135.217
 11
-135.258
 20
-36.617
 21
-36.527
  0
LINE
  8
0
 10
-135.258
 11
-135.299
 20
-36.527
 21
-36.435
  0
LINE
  8
0
 10
-135.299
 11
-135.339
 20
-36.435
 21
-36.344
  0
LINE
  8
0
 10
-135.339
 11
-135.419
 20
-36.344
 21
-36.16
  0
LINE
  8
0
 10
-135.419
 11
-135.458
 20
-36.16
 21
-36.068
  0
LINE
  8
0
 10
-135.458
 11
-135.496
 20
-36.068
 21
-35.976
  0
LINE
  8
0
 10
-135.496
 11
-135.534
 20
-35.976
 21
-35.884
  0
LINE
  8
0
 10
-135.534
 11
-135.572
 20
-35.884
 21
-35.791
  0
LINE
  8
0
 10
-135.572
 11
-135.646
 20
-35.791
 21
-35.605
  0
LINE
  8
0
 10
-135.646
 11
-135.682
 20
-35.605
 21
-35.512
  0
LINE
  8
0
 10
-135.682
 11
-135.754
 20
-35.512
 21
-35.326
  0
LINE
  8
0
 10
-135.754
 11
-135.789
 20
-35.326
 21
-35.231
  0
LINE
  8
0
 10
-135.789
 11
-135.823
 20
-35.231
 21
-35.138
  0
LINE
  8
0
 10
-135.823
 11
-135.857
 20
-35.138
 21
-35.043
  0
LINE
  8
0
 10
-135.857
 11
-135.89
 20
-35.043
 21
-34.949
  0
LINE
  8
0
 10
-135.89
 11
-135.923
 20
-34.949
 21
-34.855
  0
LINE
  8
0
 10
-135.923
 11
-135.988
 20
-34.855
 21
-34.666
  0
LINE
  8
0
 10
-135.988
 11
-136.05
 20
-34.666
 21
-34.476
  0
LINE
  8
0
 10
-136.05
 11
-136.081
 20
-34.476
 21
-34.381
  0
LINE
  8
0
 10
-136.081
 11
-136.111
 20
-34.381
 21
-34.286
  0
LINE
  8
0
 10
-136.111
 11
-136.17
 20
-34.286
 21
-34.095
  0
LINE
  8
0
 10
-136.17
 11
-136.199
 20
-34.095
 21
-33.998
  0
LINE
  8
0
 10
-136.199
 11
-136.282
 20
-33.998
 21
-33.71
  0
LINE
  8
0
 10
-136.282
 11
-136.308
 20
-33.71
 21
-33.615
  0
LINE
  8
0
 10
-136.308
 11
-136.386
 20
-33.615
 21
-33.325
  0
LINE
  8
0
 10
-136.386
 11
-136.411
 20
-33.325
 21
-33.228
  0
LINE
  8
0
 10
-136.411
 11
-136.436
 20
-33.228
 21
-33.13
  0
LINE
  8
0
 10
-136.436
 11
-136.506
 20
-33.13
 21
-32.839
  0
LINE
  8
0
 10
-136.506
 11
-136.528
 20
-32.839
 21
-32.741
  0
LINE
  8
0
 10
-136.528
 11
-136.571
 20
-32.741
 21
-32.547
  0
LINE
  8
0
 10
-136.571
 11
-136.592
 20
-32.547
 21
-32.448
  0
LINE
  8
0
 10
-136.592
 11
-136.633
 20
-32.448
 21
-32.253
  0
LINE
  8
0
 10
-136.633
 11
-136.652
 20
-32.253
 21
-32.155
  0
LINE
  8
0
 10
-136.652
 11
-136.69
 20
-32.155
 21
-31.958
  0
LINE
  8
0
 10
-136.69
 11
-136.725
 20
-31.958
 21
-31.762
  0
LINE
  8
0
 10
-136.725
 11
-136.759
 20
-31.762
 21
-31.564
  0
LINE
  8
0
 10
-136.759
 11
-136.79
 20
-31.564
 21
-31.367
  0
LINE
  8
0
 10
-136.79
 11
-136.805
 20
-31.367
 21
-31.269
  0
LINE
  8
0
 10
-136.805
 11
-136.834
 20
-31.269
 21
-31.071
  0
LINE
  8
0
 10
-136.834
 11
-136.848
 20
-31.071
 21
-30.971
  0
LINE
  8
0
 10
-136.848
 11
-136.861
 20
-30.971
 21
-30.872
  0
LINE
  8
0
 10
-136.861
 11
-136.885
 20
-30.872
 21
-30.674
  0
LINE
  8
0
 10
-136.885
 11
-136.908
 20
-30.674
 21
-30.475
  0
LINE
  8
0
 10
-136.908
 11
-136.919
 20
-30.475
 21
-30.376
  0
LINE
  8
0
 10
-136.919
 11
-136.929
 20
-30.376
 21
-30.277
  0
LINE
  8
0
 10
-136.929
 11
-136.956
 20
-30.277
 21
-29.978
  0
LINE
  8
0
 10
-136.956
 11
-136.972
 20
-29.978
 21
-29.778
  0
LINE
  8
0
 10
-136.972
 11
-136.992
 20
-29.778
 21
-29.479
  0
LINE
  8
0
 10
-136.992
 11
-136.997
 20
-29.479
 21
-29.38
  0
LINE
  8
0
 10
-136.997
 11
-137.002
 20
-29.38
 21
-29.28
  0
LINE
  8
0
 10
-137.002
 11
-137.011
 20
-29.28
 21
-29.08
  0
LINE
  8
0
 10
-137.011
 11
-137.018
 20
-29.08
 21
-28.88
  0
LINE
  8
0
 10
-137.018
 11
-137.023
 20
-28.88
 21
-28.68
  0
LINE
  8
0
 10
-137.023
 11
-137.024
 20
-28.68
 21
-28.58
  0
LINE
  8
0
 10
-137.024
 11
-137.026
 20
-28.58
 21
-28.38
  0
LINE
  8
0
 10
-127.668
 11
-127.665
 20
-37.753
 21
-37.653
  0
LINE
  8
0
 10
-127.665
 11
-127.658
 20
-37.653
 21
-37.554
  0
LINE
  8
0
 10
-127.658
 11
-127.646
 20
-37.554
 21
-37.455
  0
LINE
  8
0
 10
-127.646
 11
-127.63
 20
-37.455
 21
-37.357
  0
LINE
  8
0
 10
-127.63
 11
-127.61
 20
-37.357
 21
-37.26
  0
LINE
  8
0
 10
-127.61
 11
-127.584
 20
-37.26
 21
-37.163
  0
LINE
  8
0
 10
-127.584
 11
-127.557
 20
-37.163
 21
-37.067
  0
LINE
  8
0
 10
-127.557
 11
-127.523
 20
-37.067
 21
-36.974
  0
LINE
  8
0
 10
-127.523
 11
-127.486
 20
-36.974
 21
-36.881
  0
LINE
  8
0
 10
-127.486
 11
-127.445
 20
-36.881
 21
-36.791
  0
LINE
  8
0
 10
-127.445
 11
-127.399
 20
-36.791
 21
-36.702
  0
LINE
  8
0
 10
-127.399
 11
-127.35
 20
-36.702
 21
-36.615
  0
LINE
  8
0
 10
-127.35
 11
-127.297
 20
-36.615
 21
-36.532
  0
LINE
  8
0
 10
-127.297
 11
-127.24
 20
-36.532
 21
-36.449
  0
LINE
  8
0
 10
-127.24
 11
-127.18
 20
-36.449
 21
-36.37
  0
LINE
  8
0
 10
-127.18
 11
-127.117
 20
-36.37
 21
-36.294
  0
LINE
  8
0
 10
-127.117
 11
-127.05
 20
-36.294
 21
-36.219
  0
LINE
  8
0
 10
-127.05
 11
-126.98
 20
-36.219
 21
-36.149
  0
LINE
  8
0
 10
-126.98
 11
-126.907
 20
-36.149
 21
-36.081
  0
LINE
  8
0
 10
-126.907
 11
-126.83
 20
-36.081
 21
-36.018
  0
LINE
  8
0
 10
-126.83
 11
-126.751
 20
-36.018
 21
-35.957
  0
LINE
  8
0
 10
-126.751
 11
-126.67
 20
-35.957
 21
-35.9
  0
LINE
  8
0
 10
-126.67
 11
-126.586
 20
-35.9
 21
-35.847
  0
LINE
  8
0
 10
-126.586
 11
-126.499
 20
-35.847
 21
-35.797
  0
LINE
  8
0
 10
-126.499
 11
-126.412
 20
-35.797
 21
-35.751
  0
LINE
  8
0
 10
-126.412
 11
-126.321
 20
-35.751
 21
-35.709
  0
LINE
  8
0
 10
-126.321
 11
-126.229
 20
-35.709
 21
-35.671
  0
LINE
  8
0
 10
-126.229
 11
-126.136
 20
-35.671
 21
-35.636
  0
LINE
  8
0
 10
-126.136
 11
-126.041
 20
-35.636
 21
-35.607
  0
LINE
  8
0
 10
-126.041
 11
-125.945
 20
-35.607
 21
-35.581
  0
LINE
  8
0
 10
-125.945
 11
-125.847
 20
-35.581
 21
-35.561
  0
LINE
  8
0
 10
-125.847
 11
-125.749
 20
-35.561
 21
-35.544
  0
LINE
  8
0
 10
-125.749
 11
-125.65
 20
-35.544
 21
-35.531
  0
LINE
  8
0
 10
-125.65
 11
-125.551
 20
-35.531
 21
-35.524
  0
LINE
  8
0
 10
-125.551
 11
-125.452
 20
-35.524
 21
-35.519
  0
LINE
  8
0
 10
-125.452
 11
-125.352
 20
-35.519
 21
-35.52
  0
LINE
  8
0
 10
-125.352
 11
-125.252
 20
-35.52
 21
-35.525
  0
LINE
  8
0
 10
-125.252
 11
-125.153
 20
-35.525
 21
-35.534
  0
LINE
  8
0
 10
-125.153
 11
-125.055
 20
-35.534
 21
-35.549
  0
LINE
  8
0
 10
-125.055
 11
-124.957
 20
-35.549
 21
-35.566
  0
LINE
  8
0
 10
-124.957
 11
-124.86
 20
-35.566
 21
-35.59
  0
LINE
  8
0
 10
-124.86
 11
-124.764
 20
-35.59
 21
-35.617
  0
LINE
  8
0
 10
-124.764
 11
-124.67
 20
-35.617
 21
-35.648
  0
LINE
  8
0
 10
-124.67
 11
-124.577
 20
-35.648
 21
-35.683
  0
LINE
  8
0
 10
-124.577
 11
-124.485
 20
-35.683
 21
-35.722
  0
LINE
  8
0
 10
-124.485
 11
-124.395
 20
-35.722
 21
-35.765
  0
LINE
  8
0
 10
-124.395
 11
-124.308
 20
-35.765
 21
-35.813
  0
LINE
  8
0
 10
-124.308
 11
-124.222
 20
-35.813
 21
-35.864
  0
LINE
  8
0
 10
-124.222
 11
-124.139
 20
-35.864
 21
-35.919
  0
LINE
  8
0
 10
-124.139
 11
-124.059
 20
-35.919
 21
-35.976
  0
LINE
  8
0
 10
-124.059
 11
-123.981
 20
-35.976
 21
-36.039
  0
LINE
  8
0
 10
-123.981
 11
-123.905
 20
-36.039
 21
-36.104
  0
LINE
  8
0
 10
-123.905
 11
-123.833
 20
-36.104
 21
-36.173
  0
LINE
  8
0
 10
-123.833
 11
-123.764
 20
-36.173
 21
-36.244
  0
LINE
  8
0
 10
-123.764
 11
-123.698
 20
-36.244
 21
-36.319
  0
LINE
  8
0
 10
-123.698
 11
-123.636
 20
-36.319
 21
-36.396
  0
LINE
  8
0
 10
-123.636
 11
-123.577
 20
-36.396
 21
-36.476
  0
LINE
  8
0
 10
-123.577
 11
-123.521
 20
-36.476
 21
-36.559
  0
LINE
  8
0
 10
-123.521
 11
-123.47
 20
-36.559
 21
-36.644
  0
LINE
  8
0
 10
-123.47
 11
-123.421
 20
-36.644
 21
-36.732
  0
LINE
  8
0
 10
-123.421
 11
-123.378
 20
-36.732
 21
-36.821
  0
LINE
  8
0
 10
-123.378
 11
-123.338
 20
-36.821
 21
-36.912
  0
LINE
  8
0
 10
-123.338
 11
-123.302
 20
-36.912
 21
-37.005
  0
LINE
  8
0
 10
-123.302
 11
-123.27
 20
-37.005
 21
-37.1
  0
LINE
  8
0
 10
-123.27
 11
-123.243
 20
-37.1
 21
-37.195
  0
LINE
  8
0
 10
-123.243
 11
-123.219
 20
-37.195
 21
-37.292
  0
LINE
  8
0
 10
-123.219
 11
-123.201
 20
-37.292
 21
-37.39
  0
LINE
  8
0
 10
-123.201
 11
-123.186
 20
-37.39
 21
-37.488
  0
LINE
  8
0
 10
-123.186
 11
-123.176
 20
-37.488
 21
-37.587
  0
LINE
  8
0
 10
-123.176
 11
-123.17
 20
-37.587
 21
-37.686
  0
LINE
  8
0
 10
-123.17
 11
-123.169
 20
-37.686
 21
-37.786
  0
LINE
  8
0
 10
-123.169
 11
-123.171
 20
-37.786
 21
-37.885
  0
LINE
  8
0
 10
-123.171
 11
-123.179
 20
-37.885
 21
-37.984
  0
LINE
  8
0
 10
-123.179
 11
-123.191
 20
-37.984
 21
-38.084
  0
LINE
  8
0
 10
-123.191
 11
-123.207
 20
-38.084
 21
-38.182
  0
LINE
  8
0
 10
-123.207
 11
-123.227
 20
-38.182
 21
-38.279
  0
LINE
  8
0
 10
-123.227
 11
-123.252
 20
-38.279
 21
-38.375
  0
LINE
  8
0
 10
-123.252
 11
-123.28
 20
-38.375
 21
-38.471
  0
LINE
  8
0
 10
-123.28
 11
-123.314
 20
-38.471
 21
-38.564
  0
LINE
  8
0
 10
-123.314
 11
-123.35
 20
-38.564
 21
-38.657
  0
LINE
  8
0
 10
-123.35
 11
-123.392
 20
-38.657
 21
-38.747
  0
LINE
  8
0
 10
-123.392
 11
-123.437
 20
-38.747
 21
-38.837
  0
LINE
  8
0
 10
-123.437
 11
-123.487
 20
-38.837
 21
-38.923
  0
LINE
  8
0
 10
-123.487
 11
-123.54
 20
-38.923
 21
-39.007
  0
LINE
  8
0
 10
-123.54
 11
-123.596
 20
-39.007
 21
-39.089
  0
LINE
  8
0
 10
-123.596
 11
-123.656
 20
-39.089
 21
-39.169
  0
LINE
  8
0
 10
-123.656
 11
-123.72
 20
-39.169
 21
-39.245
  0
LINE
  8
0
 10
-123.72
 11
-123.787
 20
-39.245
 21
-39.319
  0
LINE
  8
0
 10
-123.787
 11
-123.857
 20
-39.319
 21
-39.39
  0
LINE
  8
0
 10
-123.857
 11
-123.93
 20
-39.39
 21
-39.457
  0
LINE
  8
0
 10
-123.93
 11
-124.006
 20
-39.457
 21
-39.521
  0
LINE
  8
0
 10
-124.006
 11
-124.085
 20
-39.521
 21
-39.582
  0
LINE
  8
0
 10
-124.085
 11
-124.167
 20
-39.582
 21
-39.639
  0
LINE
  8
0
 10
-124.167
 11
-124.25
 20
-39.639
 21
-39.692
  0
LINE
  8
0
 10
-124.25
 11
-124.337
 20
-39.692
 21
-39.742
  0
LINE
  8
0
 10
-124.337
 11
-124.425
 20
-39.742
 21
-39.788
  0
LINE
  8
0
 10
-124.425
 11
-124.515
 20
-39.788
 21
-39.83
  0
LINE
  8
0
 10
-124.515
 11
-124.607
 20
-39.83
 21
-39.868
  0
LINE
  8
0
 10
-124.607
 11
-124.701
 20
-39.868
 21
-39.902
  0
LINE
  8
0
 10
-124.701
 11
-124.796
 20
-39.902
 21
-39.932
  0
LINE
  8
0
 10
-124.796
 11
-124.892
 20
-39.932
 21
-39.957
  0
LINE
  8
0
 10
-124.892
 11
-124.99
 20
-39.957
 21
-39.978
  0
LINE
  8
0
 10
-124.99
 11
-125.087
 20
-39.978
 21
-39.995
  0
LINE
  8
0
 10
-125.087
 11
-125.186
 20
-39.995
 21
-40.007
  0
LINE
  8
0
 10
-125.186
 11
-125.286
 20
-40.007
 21
-40.015
  0
LINE
  8
0
 10
-125.286
 11
-125.385
 20
-40.015
 21
-40.019
  0
LINE
  8
0
 10
-125.385
 11
-125.484
 20
-40.019
 21
-40.019
  0
LINE
  8
0
 10
-125.484
 11
-125.585
 20
-40.019
 21
-40.013
  0
LINE
  8
0
 10
-125.585
 11
-125.683
 20
-40.013
 21
-40.004
  0
LINE
  8
0
 10
-125.683
 11
-125.782
 20
-40.004
 21
-39.989
  0
LINE
  8
0
 10
-125.782
 11
-125.88
 20
-39.989
 21
-39.972
  0
LINE
  8
0
 10
-125.88
 11
-125.976
 20
-39.972
 21
-39.948
  0
LINE
  8
0
 10
-125.976
 11
-126.073
 20
-39.948
 21
-39.922
  0
LINE
  8
0
 10
-126.073
 11
-126.167
 20
-39.922
 21
-39.891
  0
LINE
  8
0
 10
-126.167
 11
-126.26
 20
-39.891
 21
-39.856
  0
LINE
  8
0
 10
-126.26
 11
-126.352
 20
-39.856
 21
-39.816
  0
LINE
  8
0
 10
-126.352
 11
-126.441
 20
-39.816
 21
-39.773
  0
LINE
  8
0
 10
-126.441
 11
-126.529
 20
-39.773
 21
-39.726
  0
LINE
  8
0
 10
-126.529
 11
-126.615
 20
-39.726
 21
-39.675
  0
LINE
  8
0
 10
-126.615
 11
-126.697
 20
-39.675
 21
-39.62
  0
LINE
  8
0
 10
-126.697
 11
-126.778
 20
-39.62
 21
-39.562
  0
LINE
  8
0
 10
-126.778
 11
-126.856
 20
-39.562
 21
-39.5
  0
LINE
  8
0
 10
-126.856
 11
-126.931
 20
-39.5
 21
-39.435
  0
LINE
  8
0
 10
-126.931
 11
-127.003
 20
-39.435
 21
-39.366
  0
LINE
  8
0
 10
-127.003
 11
-127.072
 20
-39.366
 21
-39.295
  0
LINE
  8
0
 10
-127.072
 11
-127.138
 20
-39.295
 21
-39.22
  0
LINE
  8
0
 10
-127.138
 11
-127.2
 20
-39.22
 21
-39.142
  0
LINE
  8
0
 10
-127.2
 11
-127.26
 20
-39.142
 21
-39.062
  0
LINE
  8
0
 10
-127.26
 11
-127.315
 20
-39.062
 21
-38.98
  0
LINE
  8
0
 10
-127.315
 11
-127.367
 20
-38.98
 21
-38.894
  0
LINE
  8
0
 10
-127.367
 11
-127.415
 20
-38.894
 21
-38.807
  0
LINE
  8
0
 10
-127.415
 11
-127.459
 20
-38.807
 21
-38.717
  0
LINE
  8
0
 10
-127.459
 11
-127.498
 20
-38.717
 21
-38.626
  0
LINE
  8
0
 10
-127.498
 11
-127.534
 20
-38.626
 21
-38.534
  0
LINE
  8
0
 10
-127.534
 11
-127.566
 20
-38.534
 21
-38.439
  0
LINE
  8
0
 10
-127.566
 11
-127.593
 20
-38.439
 21
-38.344
  0
LINE
  8
0
 10
-127.593
 11
-127.617
 20
-38.344
 21
-38.247
  0
LINE
  8
0
 10
-127.617
 11
-127.636
 20
-38.247
 21
-38.149
  0
LINE
  8
0
 10
-127.636
 11
-127.651
 20
-38.149
 21
-38.05
  0
LINE
  8
0
 10
-127.651
 11
-127.66
 20
-38.05
 21
-37.952
  0
LINE
  8
0
 10
-127.66
 11
-127.667
 20
-37.952
 21
-37.853
  0
LINE
  8
0
 10
-127.667
 11
-127.668
 20
-37.853
 21
-37.753
  0
LINE
  8
0
 10
-104.441
 11
-104.44
 20
-73.144
 21
-73.044
  0
LINE
  8
0
 10
-104.44
 11
-104.434
 20
-73.044
 21
-72.945
  0
LINE
  8
0
 10
-104.434
 11
-104.423
 20
-72.945
 21
-72.846
  0
LINE
  8
0
 10
-104.423
 11
-104.407
 20
-72.846
 21
-72.748
  0
LINE
  8
0
 10
-104.407
 11
-104.386
 20
-72.748
 21
-72.649
  0
LINE
  8
0
 10
-104.386
 11
-104.359
 20
-72.649
 21
-72.554
  0
LINE
  8
0
 10
-104.359
 11
-104.329
 20
-72.554
 21
-72.458
  0
LINE
  8
0
 10
-104.329
 11
-104.294
 20
-72.458
 21
-72.365
  0
LINE
  8
0
 10
-104.294
 11
-104.254
 20
-72.365
 21
-72.274
  0
LINE
  8
0
 10
-104.254
 11
-104.21
 20
-72.274
 21
-72.185
  0
LINE
  8
0
 10
-104.21
 11
-104.161
 20
-72.185
 21
-72.098
  0
LINE
  8
0
 10
-104.161
 11
-104.107
 20
-72.098
 21
-72.013
  0
LINE
  8
0
 10
-104.107
 11
-104.051
 20
-72.013
 21
-71.931
  0
LINE
  8
0
 10
-104.051
 11
-103.989
 20
-71.931
 21
-71.853
  0
LINE
  8
0
 10
-103.989
 11
-103.925
 20
-71.853
 21
-71.777
  0
LINE
  8
0
 10
-103.925
 11
-103.856
 20
-71.777
 21
-71.704
  0
LINE
  8
0
 10
-103.856
 11
-103.784
 20
-71.704
 21
-71.635
  0
LINE
  8
0
 10
-103.784
 11
-103.707
 20
-71.635
 21
-71.571
  0
LINE
  8
0
 10
-103.707
 11
-103.63
 20
-71.571
 21
-71.509
  0
LINE
  8
0
 10
-103.63
 11
-103.547
 20
-71.509
 21
-71.453
  0
LINE
  8
0
 10
-103.547
 11
-103.463
 20
-71.453
 21
-71.399
  0
LINE
  8
0
 10
-103.463
 11
-103.375
 20
-71.399
 21
-71.351
  0
LINE
  8
0
 10
-103.375
 11
-103.287
 20
-71.351
 21
-71.307
  0
LINE
  8
0
 10
-103.287
 11
-103.195
 20
-71.307
 21
-71.267
  0
LINE
  8
0
 10
-103.195
 11
-103.102
 20
-71.267
 21
-71.231
  0
LINE
  8
0
 10
-103.102
 11
-103.007
 20
-71.231
 21
-71.201
  0
LINE
  8
0
 10
-103.007
 11
-102.911
 20
-71.201
 21
-71.174
  0
LINE
  8
0
 10
-102.911
 11
-102.812
 20
-71.174
 21
-71.154
  0
LINE
  8
0
 10
-102.812
 11
-102.714
 20
-71.154
 21
-71.138
  0
LINE
  8
0
 10
-102.714
 11
-102.615
 20
-71.138
 21
-71.127
  0
LINE
  8
0
 10
-102.615
 11
-102.516
 20
-71.127
 21
-71.121
  0
LINE
  8
0
 10
-102.516
 11
-102.416
 20
-71.121
 21
-71.119
  0
LINE
  8
0
 10
-102.416
 11
-102.316
 20
-71.119
 21
-71.123
  0
LINE
  8
0
 10
-102.316
 11
-102.217
 20
-71.123
 21
-71.131
  0
LINE
  8
0
 10
-102.217
 11
-102.118
 20
-71.131
 21
-71.146
  0
LINE
  8
0
 10
-102.118
 11
-102.021
 20
-71.146
 21
-71.164
  0
LINE
  8
0
 10
-102.021
 11
-101.924
 20
-71.164
 21
-71.187
  0
LINE
  8
0
 10
-101.924
 11
-101.827
 20
-71.187
 21
-71.216
  0
LINE
  8
0
 10
-101.827
 11
-101.735
 20
-71.216
 21
-71.248
  0
LINE
  8
0
 10
-101.735
 11
-101.642
 20
-71.248
 21
-71.285
  0
LINE
  8
0
 10
-101.642
 11
-101.551
 20
-71.285
 21
-71.328
  0
LINE
  8
0
 10
-101.551
 11
-101.464
 20
-71.328
 21
-71.374
  0
LINE
  8
0
 10
-101.464
 11
-101.377
 20
-71.374
 21
-71.426
  0
LINE
  8
0
 10
-101.377
 11
-101.294
 20
-71.426
 21
-71.48
  0
LINE
  8
0
 10
-101.294
 11
-101.215
 20
-71.48
 21
-71.54
  0
LINE
  8
0
 10
-101.215
 11
-101.137
 20
-71.54
 21
-71.604
  0
LINE
  8
0
 10
-101.137
 11
-101.064
 20
-71.604
 21
-71.671
  0
LINE
  8
0
 10
-101.064
 11
-96.75
 20
-71.671
 21
-75.984
  0
LINE
  8
0
 10
-96.75
 11
-96.683
 20
-75.984
 21
-76.057
  0
LINE
  8
0
 10
-96.683
 11
-96.62
 20
-76.057
 21
-76.135
  0
LINE
  8
0
 10
-96.62
 11
-96.561
 20
-76.135
 21
-76.214
  0
LINE
  8
0
 10
-96.561
 11
-96.505
 20
-76.214
 21
-76.298
  0
LINE
  8
0
 10
-96.505
 11
-96.455
 20
-76.298
 21
-76.384
  0
LINE
  8
0
 10
-96.455
 11
-96.408
 20
-76.384
 21
-76.471
  0
LINE
  8
0
 10
-96.408
 11
-96.365
 20
-76.471
 21
-76.562
  0
LINE
  8
0
 10
-96.365
 11
-96.328
 20
-76.562
 21
-76.655
  0
LINE
  8
0
 10
-96.328
 11
-96.295
 20
-76.655
 21
-76.748
  0
LINE
  8
0
 10
-96.295
 11
-96.267
 20
-76.748
 21
-76.844
  0
LINE
  8
0
 10
-96.267
 11
-96.244
 20
-76.844
 21
-76.941
  0
LINE
  8
0
 10
-96.244
 11
-96.225
 20
-76.941
 21
-77.039
  0
LINE
  8
0
 10
-96.225
 11
-96.211
 20
-77.039
 21
-77.137
  0
LINE
  8
0
 10
-96.211
 11
-96.203
 20
-77.137
 21
-77.236
  0
LINE
  8
0
 10
-96.203
 11
-96.199
 20
-77.236
 21
-77.337
  0
LINE
  8
0
 10
-96.199
 11
-96.2
 20
-77.337
 21
-77.437
  0
LINE
  8
0
 10
-96.2
 11
-96.206
 20
-77.437
 21
-77.536
  0
LINE
  8
0
 10
-96.206
 11
-96.217
 20
-77.536
 21
-77.635
  0
LINE
  8
0
 10
-96.217
 11
-96.233
 20
-77.635
 21
-77.733
  0
LINE
  8
0
 10
-96.233
 11
-96.254
 20
-77.733
 21
-77.831
  0
LINE
  8
0
 10
-96.254
 11
-96.281
 20
-77.831
 21
-77.927
  0
LINE
  8
0
 10
-96.281
 11
-96.311
 20
-77.927
 21
-78.023
  0
LINE
  8
0
 10
-96.311
 11
-96.346
 20
-78.023
 21
-78.116
  0
LINE
  8
0
 10
-96.346
 11
-96.387
 20
-78.116
 21
-78.207
  0
LINE
  8
0
 10
-96.387
 11
-96.43
 20
-78.207
 21
-78.296
  0
LINE
  8
0
 10
-96.43
 11
-96.479
 20
-78.296
 21
-78.383
  0
LINE
  8
0
 10
-96.479
 11
-96.533
 20
-78.383
 21
-78.467
  0
LINE
  8
0
 10
-96.533
 11
-96.59
 20
-78.467
 21
-78.55
  0
LINE
  8
0
 10
-96.59
 11
-96.651
 20
-78.55
 21
-78.628
  0
LINE
  8
0
 10
-96.651
 11
-96.715
 20
-78.628
 21
-78.704
  0
LINE
  8
0
 10
-96.715
 11
-96.785
 20
-78.704
 21
-78.776
  0
LINE
  8
0
 10
-96.785
 11
-96.857
 20
-78.776
 21
-78.846
  0
LINE
  8
0
 10
-96.857
 11
-96.933
 20
-78.846
 21
-78.909
  0
LINE
  8
0
 10
-96.933
 11
-97.01
 20
-78.909
 21
-78.971
  0
LINE
  8
0
 10
-97.01
 11
-97.093
 20
-78.971
 21
-79.027
  0
LINE
  8
0
 10
-97.093
 11
-97.177
 20
-79.027
 21
-79.082
  0
LINE
  8
0
 10
-97.177
 11
-97.265
 20
-79.082
 21
-79.13
  0
LINE
  8
0
 10
-97.265
 11
-97.354
 20
-79.13
 21
-79.174
  0
LINE
  8
0
 10
-97.354
 11
-97.445
 20
-79.174
 21
-79.214
  0
LINE
  8
0
 10
-97.445
 11
-97.539
 20
-79.214
 21
-79.25
  0
LINE
  8
0
 10
-97.539
 11
-97.633
 20
-79.25
 21
-79.28
  0
LINE
  8
0
 10
-97.633
 11
-97.729
 20
-79.28
 21
-79.307
  0
LINE
  8
0
 10
-97.729
 11
-97.828
 20
-79.307
 21
-79.327
  0
LINE
  8
0
 10
-97.828
 11
-97.926
 20
-79.327
 21
-79.343
  0
LINE
  8
0
 10
-97.926
 11
-98.025
 20
-79.343
 21
-79.354
  0
LINE
  8
0
 10
-98.025
 11
-98.124
 20
-79.354
 21
-79.36
  0
LINE
  8
0
 10
-98.124
 11
-98.224
 20
-79.36
 21
-79.361
  0
LINE
  8
0
 10
-98.224
 11
-98.324
 20
-79.361
 21
-79.358
  0
LINE
  8
0
 10
-98.324
 11
-98.423
 20
-79.358
 21
-79.35
  0
LINE
  8
0
 10
-98.423
 11
-98.522
 20
-79.35
 21
-79.335
  0
LINE
  8
0
 10
-98.522
 11
-98.619
 20
-79.335
 21
-79.317
  0
LINE
  8
0
 10
-98.619
 11
-98.717
 20
-79.317
 21
-79.294
  0
LINE
  8
0
 10
-98.717
 11
-98.813
 20
-79.294
 21
-79.265
  0
LINE
  8
0
 10
-98.813
 11
-98.905
 20
-79.265
 21
-79.233
  0
LINE
  8
0
 10
-98.905
 11
-98.999
 20
-79.233
 21
-79.195
  0
LINE
  8
0
 10
-98.999
 11
-99.089
 20
-79.195
 21
-79.153
  0
LINE
  8
0
 10
-99.089
 11
-99.177
 20
-79.153
 21
-79.107
  0
LINE
  8
0
 10
-99.177
 11
-99.263
 20
-79.107
 21
-79.055
  0
LINE
  8
0
 10
-99.263
 11
-99.347
 20
-79.055
 21
-79
  0
LINE
  8
0
 10
-99.347
 11
-99.425
 20
-79
 21
-78.941
  0
LINE
  8
0
 10
-99.425
 11
-99.503
 20
-78.941
 21
-78.877
  0
LINE
  8
0
 10
-99.503
 11
-99.577
 20
-78.877
 21
-78.81
  0
LINE
  8
0
 10
-99.577
 11
-103.89
 20
-78.81
 21
-74.497
  0
LINE
  8
0
 10
-103.89
 11
-103.957
 20
-74.497
 21
-74.423
  0
LINE
  8
0
 10
-103.957
 11
-104.02
 20
-74.423
 21
-74.346
  0
LINE
  8
0
 10
-104.02
 11
-104.08
 20
-74.346
 21
-74.267
  0
LINE
  8
0
 10
-104.08
 11
-104.135
 20
-74.267
 21
-74.183
  0
LINE
  8
0
 10
-104.135
 11
-104.186
 20
-74.183
 21
-74.097
  0
LINE
  8
0
 10
-104.186
 11
-104.233
 20
-74.097
 21
-74.01
  0
LINE
  8
0
 10
-104.233
 11
-104.275
 20
-74.01
 21
-73.919
  0
LINE
  8
0
 10
-104.275
 11
-104.312
 20
-73.919
 21
-73.826
  0
LINE
  8
0
 10
-104.312
 11
-104.345
 20
-73.826
 21
-73.733
  0
LINE
  8
0
 10
-104.345
 11
-104.373
 20
-73.733
 21
-73.637
  0
LINE
  8
0
 10
-104.373
 11
-104.397
 20
-73.637
 21
-73.54
  0
LINE
  8
0
 10
-104.397
 11
-104.415
 20
-73.54
 21
-73.442
  0
LINE
  8
0
 10
-104.415
 11
-104.429
 20
-73.442
 21
-73.344
  0
LINE
  8
0
 10
-104.429
 11
-104.438
 20
-73.344
 21
-73.245
  0
LINE
  8
0
 10
-104.438
 11
-104.441
 20
-73.245
 21
-73.144
  0
LINE
  8
0
 10
-97.668
 11
-97.665
 20
-89.714
 21
-89.615
  0
LINE
  8
0
 10
-97.665
 11
-97.658
 20
-89.615
 21
-89.516
  0
LINE
  8
0
 10
-97.658
 11
-97.646
 20
-89.516
 21
-89.416
  0
LINE
  8
0
 10
-97.646
 11
-97.63
 20
-89.416
 21
-89.318
  0
LINE
  8
0
 10
-97.63
 11
-97.61
 20
-89.318
 21
-89.221
  0
LINE
  8
0
 10
-97.61
 11
-97.584
 20
-89.221
 21
-89.125
  0
LINE
  8
0
 10
-97.584
 11
-97.557
 20
-89.125
 21
-89.029
  0
LINE
  8
0
 10
-97.557
 11
-97.523
 20
-89.029
 21
-88.936
  0
LINE
  8
0
 10
-97.523
 11
-97.486
 20
-88.936
 21
-88.843
  0
LINE
  8
0
 10
-97.486
 11
-97.445
 20
-88.843
 21
-88.753
  0
LINE
  8
0
 10
-97.445
 11
-97.399
 20
-88.753
 21
-88.663
  0
LINE
  8
0
 10
-97.399
 11
-97.35
 20
-88.663
 21
-88.577
  0
LINE
  8
0
 10
-97.35
 11
-97.297
 20
-88.577
 21
-88.493
  0
LINE
  8
0
 10
-97.297
 11
-97.24
 20
-88.493
 21
-88.411
  0
LINE
  8
0
 10
-97.24
 11
-97.18
 20
-88.411
 21
-88.331
  0
LINE
  8
0
 10
-97.18
 11
-97.117
 20
-88.331
 21
-88.255
  0
LINE
  8
0
 10
-97.117
 11
-97.05
 20
-88.255
 21
-88.181
  0
LINE
  8
0
 10
-97.05
 11
-96.98
 20
-88.181
 21
-88.11
  0
LINE
  8
0
 10
-96.98
 11
-96.907
 20
-88.11
 21
-88.043
  0
LINE
  8
0
 10
-96.907
 11
-96.83
 20
-88.043
 21
-87.979
  0
LINE
  8
0
 10
-96.83
 11
-96.751
 20
-87.979
 21
-87.918
  0
LINE
  8
0
 10
-96.751
 11
-96.67
 20
-87.918
 21
-87.861
  0
LINE
  8
0
 10
-96.67
 11
-96.586
 20
-87.861
 21
-87.808
  0
LINE
  8
0
 10
-96.586
 11
-96.499
 20
-87.808
 21
-87.758
  0
LINE
  8
0
 10
-96.499
 11
-96.412
 20
-87.758
 21
-87.712
  0
LINE
  8
0
 10
-96.412
 11
-96.321
 20
-87.712
 21
-87.67
  0
LINE
  8
0
 10
-96.321
 11
-96.229
 20
-87.67
 21
-87.632
  0
LINE
  8
0
 10
-96.229
 11
-96.136
 20
-87.632
 21
-87.598
  0
LINE
  8
0
 10
-96.136
 11
-96.041
 20
-87.598
 21
-87.568
  0
LINE
  8
0
 10
-96.041
 11
-95.945
 20
-87.568
 21
-87.543
  0
LINE
  8
0
 10
-95.945
 11
-95.847
 20
-87.543
 21
-87.522
  0
LINE
  8
0
 10
-95.847
 11
-95.749
 20
-87.522
 21
-87.505
  0
LINE
  8
0
 10
-95.749
 11
-95.65
 20
-87.505
 21
-87.493
  0
LINE
  8
0
 10
-95.65
 11
-95.551
 20
-87.493
 21
-87.485
  0
LINE
  8
0
 10
-95.551
 11
-95.452
 20
-87.485
 21
-87.481
  0
LINE
  8
0
 10
-95.452
 11
-95.352
 20
-87.481
 21
-87.481
  0
LINE
  8
0
 10
-95.352
 11
-95.252
 20
-87.481
 21
-87.487
  0
LINE
  8
0
 10
-95.252
 11
-95.153
 20
-87.487
 21
-87.496
  0
LINE
  8
0
 10
-95.153
 11
-95.055
 20
-87.496
 21
-87.511
  0
LINE
  8
0
 10
-95.055
 11
-94.957
 20
-87.511
 21
-87.528
  0
LINE
  8
0
 10
-94.957
 11
-94.86
 20
-87.528
 21
-87.552
  0
LINE
  8
0
 10
-94.86
 11
-94.764
 20
-87.552
 21
-87.578
  0
LINE
  8
0
 10
-94.764
 11
-94.67
 20
-87.578
 21
-87.609
  0
LINE
  8
0
 10
-94.67
 11
-94.577
 20
-87.609
 21
-87.644
  0
LINE
  8
0
 10
-94.577
 11
-94.485
 20
-87.644
 21
-87.684
  0
LINE
  8
0
 10
-94.485
 11
-94.395
 20
-87.684
 21
-87.727
  0
LINE
  8
0
 10
-94.395
 11
-94.308
 20
-87.727
 21
-87.774
  0
LINE
  8
0
 10
-94.308
 11
-94.222
 20
-87.774
 21
-87.825
  0
LINE
  8
0
 10
-94.222
 11
-94.139
 20
-87.825
 21
-87.88
  0
LINE
  8
0
 10
-94.139
 11
-94.059
 20
-87.88
 21
-87.938
  0
LINE
  8
0
 10
-94.059
 11
-93.981
 20
-87.938
 21
-88
  0
LINE
  8
0
 10
-93.981
 11
-93.905
 20
-88
 21
-88.065
  0
LINE
  8
0
 10
-93.905
 11
-93.833
 20
-88.065
 21
-88.134
  0
LINE
  8
0
 10
-93.833
 11
-93.764
 20
-88.134
 21
-88.205
  0
LINE
  8
0
 10
-93.764
 11
-93.698
 20
-88.205
 21
-88.28
  0
LINE
  8
0
 10
-93.698
 11
-93.636
 20
-88.28
 21
-88.358
  0
LINE
  8
0
 10
-93.636
 11
-93.577
 20
-88.358
 21
-88.438
  0
LINE
  8
0
 10
-93.577
 11
-93.521
 20
-88.438
 21
-88.52
  0
LINE
  8
0
 10
-93.521
 11
-93.47
 20
-88.52
 21
-88.606
  0
LINE
  8
0
 10
-93.47
 11
-93.421
 20
-88.606
 21
-88.693
  0
LINE
  8
0
 10
-93.421
 11
-93.378
 20
-88.693
 21
-88.783
  0
LINE
  8
0
 10
-93.378
 11
-93.338
 20
-88.783
 21
-88.874
  0
LINE
  8
0
 10
-93.338
 11
-93.302
 20
-88.874
 21
-88.966
  0
LINE
  8
0
 10
-93.302
 11
-93.27
 20
-88.966
 21
-89.061
  0
LINE
  8
0
 10
-93.27
 11
-93.243
 20
-89.061
 21
-89.156
  0
LINE
  8
0
 10
-93.243
 11
-93.219
 20
-89.156
 21
-89.253
  0
LINE
  8
0
 10
-93.219
 11
-93.201
 20
-89.253
 21
-89.351
  0
LINE
  8
0
 10
-93.201
 11
-93.186
 20
-89.351
 21
-89.45
  0
LINE
  8
0
 10
-93.186
 11
-93.176
 20
-89.45
 21
-89.548
  0
LINE
  8
0
 10
-93.176
 11
-93.17
 20
-89.548
 21
-89.647
  0
LINE
  8
0
 10
-93.17
 11
-93.169
 20
-89.647
 21
-89.747
  0
LINE
  8
0
 10
-93.169
 11
-93.171
 20
-89.747
 21
-89.847
  0
LINE
  8
0
 10
-93.171
 11
-93.179
 20
-89.847
 21
-89.946
  0
LINE
  8
0
 10
-93.179
 11
-93.191
 20
-89.946
 21
-90.045
  0
LINE
  8
0
 10
-93.191
 11
-93.207
 20
-90.045
 21
-90.143
  0
LINE
  8
0
 10
-93.207
 11
-93.227
 20
-90.143
 21
-90.24
  0
LINE
  8
0
 10
-93.227
 11
-93.252
 20
-90.24
 21
-90.337
  0
LINE
  8
0
 10
-93.252
 11
-93.28
 20
-90.337
 21
-90.433
  0
LINE
  8
0
 10
-93.28
 11
-93.314
 20
-90.433
 21
-90.526
  0
LINE
  8
0
 10
-93.314
 11
-93.35
 20
-90.526
 21
-90.619
  0
LINE
  8
0
 10
-93.35
 11
-93.392
 20
-90.619
 21
-90.709
  0
LINE
  8
0
 10
-93.392
 11
-93.437
 20
-90.709
 21
-90.798
  0
LINE
  8
0
 10
-93.437
 11
-93.487
 20
-90.798
 21
-90.885
  0
LINE
  8
0
 10
-93.487
 11
-93.54
 20
-90.885
 21
-90.968
  0
LINE
  8
0
 10
-93.54
 11
-93.596
 20
-90.968
 21
-91.051
  0
LINE
  8
0
 10
-93.596
 11
-93.656
 20
-91.051
 21
-91.13
  0
LINE
  8
0
 10
-93.656
 11
-93.72
 20
-91.13
 21
-91.206
  0
LINE
  8
0
 10
-93.72
 11
-93.787
 20
-91.206
 21
-91.281
  0
LINE
  8
0
 10
-93.787
 11
-93.857
 20
-91.281
 21
-91.351
  0
LINE
  8
0
 10
-93.857
 11
-93.93
 20
-91.351
 21
-91.419
  0
LINE
  8
0
 10
-93.93
 11
-94.006
 20
-91.419
 21
-91.482
  0
LINE
  8
0
 10
-94.006
 11
-94.085
 20
-91.482
 21
-91.543
  0
LINE
  8
0
 10
-94.085
 11
-94.167
 20
-91.543
 21
-91.6
  0
LINE
  8
0
 10
-94.167
 11
-94.25
 20
-91.6
 21
-91.653
  0
LINE
  8
0
 10
-94.25
 11
-94.337
 20
-91.653
 21
-91.703
  0
LINE
  8
0
 10
-94.337
 11
-94.425
 20
-91.703
 21
-91.749
  0
LINE
  8
0
 10
-94.425
 11
-94.515
 20
-91.749
 21
-91.791
  0
LINE
  8
0
 10
-94.515
 11
-94.607
 20
-91.791
 21
-91.829
  0
LINE
  8
0
 10
-94.607
 11
-94.701
 20
-91.829
 21
-91.864
  0
LINE
  8
0
 10
-94.701
 11
-94.796
 20
-91.864
 21
-91.893
  0
LINE
  8
0
 10
-94.796
 11
-94.892
 20
-91.893
 21
-91.919
  0
LINE
  8
0
 10
-94.892
 11
-94.99
 20
-91.919
 21
-91.939
  0
LINE
  8
0
 10
-94.99
 11
-95.087
 20
-91.939
 21
-91.956
  0
LINE
  8
0
 10
-95.087
 11
-95.186
 20
-91.956
 21
-91.969
  0
LINE
  8
0
 10
-95.186
 11
-95.286
 20
-91.969
 21
-91.976
  0
LINE
  8
0
 10
-95.286
 11
-95.385
 20
-91.976
 21
-91.981
  0
LINE
  8
0
 10
-95.385
 11
-95.484
 20
-91.981
 21
-91.98
  0
LINE
  8
0
 10
-95.484
 11
-95.585
 20
-91.98
 21
-91.975
  0
LINE
  8
0
 10
-95.585
 11
-95.683
 20
-91.975
 21
-91.966
  0
LINE
  8
0
 10
-95.683
 11
-95.782
 20
-91.966
 21
-91.951
  0
LINE
  8
0
 10
-95.782
 11
-95.88
 20
-91.951
 21
-91.934
  0
LINE
  8
0
 10
-95.88
 11
-95.976
 20
-91.934
 21
-91.91
  0
LINE
  8
0
 10
-95.976
 11
-96.073
 20
-91.91
 21
-91.883
  0
LINE
  8
0
 10
-96.073
 11
-96.167
 20
-91.883
 21
-91.852
  0
LINE
  8
0
 10
-96.167
 11
-96.26
 20
-91.852
 21
-91.817
  0
LINE
  8
0
 10
-96.26
 11
-96.352
 20
-91.817
 21
-91.778
  0
LINE
  8
0
 10
-96.352
 11
-96.441
 20
-91.778
 21
-91.735
  0
LINE
  8
0
 10
-96.441
 11
-96.529
 20
-91.735
 21
-91.687
  0
LINE
  8
0
 10
-96.529
 11
-96.615
 20
-91.687
 21
-91.636
  0
LINE
  8
0
 10
-96.615
 11
-96.697
 20
-91.636
 21
-91.581
  0
LINE
  8
0
 10
-96.697
 11
-96.778
 20
-91.581
 21
-91.524
  0
LINE
  8
0
 10
-96.778
 11
-96.856
 20
-91.524
 21
-91.461
  0
LINE
  8
0
 10
-96.856
 11
-96.931
 20
-91.461
 21
-91.396
  0
LINE
  8
0
 10
-96.931
 11
-97.003
 20
-91.396
 21
-91.327
  0
LINE
  8
0
 10
-97.003
 11
-97.072
 20
-91.327
 21
-91.256
  0
LINE
  8
0
 10
-97.072
 11
-97.138
 20
-91.256
 21
-91.181
  0
LINE
  8
0
 10
-97.138
 11
-97.2
 20
-91.181
 21
-91.104
  0
LINE
  8
0
 10
-97.2
 11
-97.26
 20
-91.104
 21
-91.024
  0
LINE
  8
0
 10
-97.26
 11
-97.315
 20
-91.024
 21
-90.941
  0
LINE
  8
0
 10
-97.315
 11
-97.367
 20
-90.941
 21
-90.856
  0
LINE
  8
0
 10
-97.367
 11
-97.415
 20
-90.856
 21
-90.768
  0
LINE
  8
0
 10
-97.415
 11
-97.459
 20
-90.768
 21
-90.679
  0
LINE
  8
0
 10
-97.459
 11
-97.498
 20
-90.679
 21
-90.588
  0
LINE
  8
0
 10
-97.498
 11
-97.534
 20
-90.588
 21
-90.495
  0
LINE
  8
0
 10
-97.534
 11
-97.566
 20
-90.495
 21
-90.4
  0
LINE
  8
0
 10
-97.566
 11
-97.593
 20
-90.4
 21
-90.305
  0
LINE
  8
0
 10
-97.593
 11
-97.617
 20
-90.305
 21
-90.208
  0
LINE
  8
0
 10
-97.617
 11
-97.636
 20
-90.208
 21
-90.11
  0
LINE
  8
0
 10
-97.636
 11
-97.651
 20
-90.11
 21
-90.012
  0
LINE
  8
0
 10
-97.651
 11
-97.66
 20
-90.012
 21
-89.913
  0
LINE
  8
0
 10
-97.66
 11
-97.667
 20
-89.913
 21
-89.814
  0
LINE
  8
0
 10
-97.667
 11
-97.668
 20
-89.814
 21
-89.714
  0
LINE
  8
0
 10
-85.385
 11
-85.385
 20
-20.471
 21
-20.372
  0
LINE
  8
0
 10
-85.385
 11
-85.381
 20
-20.372
 21
-20.171
  0
LINE
  8
0
 10
-85.381
 11
-85.379
 20
-20.171
 21
-20.071
  0
LINE
  8
0
 10
-85.379
 11
-85.369
 20
-20.071
 21
-19.872
  0
LINE
  8
0
 10
-85.369
 11
-85.363
 20
-19.872
 21
-19.773
  0
LINE
  8
0
 10
-85.363
 11
-85.356
 20
-19.773
 21
-19.673
  0
LINE
  8
0
 10
-85.356
 11
-85.348
 20
-19.673
 21
-19.573
  0
LINE
  8
0
 10
-85.348
 11
-85.339
 20
-19.573
 21
-19.474
  0
LINE
  8
0
 10
-85.339
 11
-85.329
 20
-19.474
 21
-19.374
  0
LINE
  8
0
 10
-85.329
 11
-85.318
 20
-19.374
 21
-19.275
  0
LINE
  8
0
 10
-85.318
 11
-85.306
 20
-19.275
 21
-19.176
  0
LINE
  8
0
 10
-85.306
 11
-85.293
 20
-19.176
 21
-19.076
  0
LINE
  8
0
 10
-85.293
 11
-85.279
 20
-19.076
 21
-18.978
  0
LINE
  8
0
 10
-85.279
 11
-85.248
 20
-18.978
 21
-18.78
  0
LINE
  8
0
 10
-85.248
 11
-85.231
 20
-18.78
 21
-18.682
  0
LINE
  8
0
 10
-85.231
 11
-85.214
 20
-18.682
 21
-18.584
  0
LINE
  8
0
 10
-85.214
 11
-85.174
 20
-18.584
 21
-18.388
  0
LINE
  8
0
 10
-85.174
 11
-85.153
 20
-18.388
 21
-18.29
  0
LINE
  8
0
 10
-85.153
 11
-85.109
 20
-18.29
 21
-18.096
  0
LINE
  8
0
 10
-85.109
 11
-85.085
 20
-18.096
 21
-17.999
  0
LINE
  8
0
 10
-85.085
 11
-85.06
 20
-17.999
 21
-17.901
  0
LINE
  8
0
 10
-85.06
 11
-85.035
 20
-17.901
 21
-17.805
  0
LINE
  8
0
 10
-85.035
 11
-85.008
 20
-17.805
 21
-17.708
  0
LINE
  8
0
 10
-85.008
 11
-84.98
 20
-17.708
 21
-17.613
  0
LINE
  8
0
 10
-84.98
 11
-84.952
 20
-17.613
 21
-17.518
  0
LINE
  8
0
 10
-84.952
 11
-84.86
 20
-17.518
 21
-17.232
  0
LINE
  8
0
 10
-84.86
 11
-84.827
 20
-17.232
 21
-17.137
  0
LINE
  8
0
 10
-84.827
 11
-84.794
 20
-17.137
 21
-17.043
  0
LINE
  8
0
 10
-84.794
 11
-84.76
 20
-17.043
 21
-16.95
  0
LINE
  8
0
 10
-84.76
 11
-84.725
 20
-16.95
 21
-16.856
  0
LINE
  8
0
 10
-84.725
 11
-84.689
 20
-16.856
 21
-16.763
  0
LINE
  8
0
 10
-84.689
 11
-84.651
 20
-16.763
 21
-16.67
  0
LINE
  8
0
 10
-84.651
 11
-84.613
 20
-16.67
 21
-16.578
  0
LINE
  8
0
 10
-84.613
 11
-84.535
 20
-16.578
 21
-16.394
  0
LINE
  8
0
 10
-84.535
 11
-84.452
 20
-16.394
 21
-16.212
  0
LINE
  8
0
 10
-84.452
 11
-84.41
 20
-16.212
 21
-16.122
  0
LINE
  8
0
 10
-84.41
 11
-84.366
 20
-16.122
 21
-16.032
  0
LINE
  8
0
 10
-84.366
 11
-84.322
 20
-16.032
 21
-15.943
  0
LINE
  8
0
 10
-84.322
 11
-84.276
 20
-15.943
 21
-15.853
  0
LINE
  8
0
 10
-84.276
 11
-84.23
 20
-15.853
 21
-15.765
  0
LINE
  8
0
 10
-84.23
 11
-84.183
 20
-15.765
 21
-15.677
  0
LINE
  8
0
 10
-84.183
 11
-84.135
 20
-15.677
 21
-15.589
  0
LINE
  8
0
 10
-84.135
 11
-84.037
 20
-15.589
 21
-15.415
  0
LINE
  8
0
 10
-84.037
 11
-28.669
 20
-15.415
 21
80.486
  0
LINE
  8
0
 10
-28.669
 11
-28.567
 20
80.486
 21
80.658
  0
LINE
  8
0
 10
-28.567
 11
-28.515
 20
80.658
 21
80.743
  0
LINE
  8
0
 10
-28.515
 11
-28.462
 20
80.743
 21
80.828
  0
LINE
  8
0
 10
-28.462
 11
-28.409
 20
80.828
 21
80.912
  0
LINE
  8
0
 10
-28.409
 11
-28.354
 20
80.912
 21
80.996
  0
LINE
  8
0
 10
-28.354
 11
-28.299
 20
80.996
 21
81.079
  0
LINE
  8
0
 10
-28.299
 11
-28.243
 20
81.079
 21
81.162
  0
LINE
  8
0
 10
-28.243
 11
-28.186
 20
81.162
 21
81.244
  0
LINE
  8
0
 10
-28.186
 11
-28.07
 20
81.244
 21
81.406
  0
LINE
  8
0
 10
-28.07
 11
-28.01
 20
81.406
 21
81.486
  0
LINE
  8
0
 10
-28.01
 11
-27.95
 20
81.486
 21
81.566
  0
LINE
  8
0
 10
-27.95
 11
-27.889
 20
81.566
 21
81.645
  0
LINE
  8
0
 10
-27.889
 11
-27.827
 20
81.645
 21
81.724
  0
LINE
  8
0
 10
-27.827
 11
-27.765
 20
81.724
 21
81.802
  0
LINE
  8
0
 10
-27.765
 11
-27.701
 20
81.802
 21
81.879
  0
LINE
  8
0
 10
-27.701
 11
-27.637
 20
81.879
 21
81.955
  0
LINE
  8
0
 10
-27.637
 11
-27.572
 20
81.955
 21
82.031
  0
LINE
  8
0
 10
-27.572
 11
-27.507
 20
82.031
 21
82.107
  0
LINE
  8
0
 10
-27.507
 11
-27.373
 20
82.107
 21
82.255
  0
LINE
  8
0
 10
-27.373
 11
-27.305
 20
82.255
 21
82.329
  0
LINE
  8
0
 10
-27.305
 11
-27.237
 20
82.329
 21
82.401
  0
LINE
  8
0
 10
-27.237
 11
-27.168
 20
82.401
 21
82.473
  0
LINE
  8
0
 10
-27.168
 11
-27.098
 20
82.473
 21
82.545
  0
LINE
  8
0
 10
-27.098
 11
-27.027
 20
82.545
 21
82.615
  0
LINE
  8
0
 10
-27.027
 11
-26.955
 20
82.615
 21
82.685
  0
LINE
  8
0
 10
-26.955
 11
-26.883
 20
82.685
 21
82.754
  0
LINE
  8
0
 10
-26.883
 11
-26.81
 20
82.754
 21
82.822
  0
LINE
  8
0
 10
-26.81
 11
-26.737
 20
82.822
 21
82.89
  0
LINE
  8
0
 10
-26.737
 11
-26.663
 20
82.89
 21
82.957
  0
LINE
  8
0
 10
-26.663
 11
-26.513
 20
82.957
 21
83.089
  0
LINE
  8
0
 10
-26.513
 11
-26.36
 20
83.089
 21
83.217
  0
LINE
  8
0
 10
-26.36
 11
-26.204
 20
83.217
 21
83.343
  0
LINE
  8
0
 10
-26.204
 11
-26.126
 20
83.343
 21
83.404
  0
LINE
  8
0
 10
-26.126
 11
-26.046
 20
83.404
 21
83.465
  0
LINE
  8
0
 10
-26.046
 11
-25.966
 20
83.465
 21
83.525
  0
LINE
  8
0
 10
-25.966
 11
-25.886
 20
83.525
 21
83.584
  0
LINE
  8
0
 10
-25.886
 11
-25.805
 20
83.584
 21
83.643
  0
LINE
  8
0
 10
-25.805
 11
-25.641
 20
83.643
 21
83.757
  0
LINE
  8
0
 10
-25.641
 11
-25.558
 20
83.757
 21
83.813
  0
LINE
  8
0
 10
-25.558
 11
-25.475
 20
83.813
 21
83.868
  0
LINE
  8
0
 10
-25.475
 11
-25.307
 20
83.868
 21
83.976
  0
LINE
  8
0
 10
-25.307
 11
-25.222
 20
83.976
 21
84.028
  0
LINE
  8
0
 10
-25.222
 11
-25.136
 20
84.028
 21
84.08
  0
LINE
  8
0
 10
-25.136
 11
-25.05
 20
84.08
 21
84.131
  0
LINE
  8
0
 10
-25.05
 11
-24.964
 20
84.131
 21
84.181
  0
LINE
  8
0
 10
-24.964
 11
-24.877
 20
84.181
 21
84.23
  0
LINE
  8
0
 10
-24.877
 11
-24.79
 20
84.23
 21
84.278
  0
LINE
  8
0
 10
-24.79
 11
-24.702
 20
84.278
 21
84.326
  0
LINE
  8
0
 10
-24.702
 11
-24.524
 20
84.326
 21
84.418
  0
LINE
  8
0
 10
-24.524
 11
-24.435
 20
84.418
 21
84.463
  0
LINE
  8
0
 10
-24.435
 11
-24.345
 20
84.463
 21
84.507
  0
LINE
  8
0
 10
-24.345
 11
-24.255
 20
84.507
 21
84.55
  0
LINE
  8
0
 10
-24.255
 11
-24.164
 20
84.55
 21
84.592
  0
LINE
  8
0
 10
-24.164
 11
-24.073
 20
84.592
 21
84.633
  0
LINE
  8
0
 10
-24.073
 11
-23.982
 20
84.633
 21
84.673
  0
LINE
  8
0
 10
-23.982
 11
-23.798
 20
84.673
 21
84.751
  0
LINE
  8
0
 10
-23.798
 11
-23.612
 20
84.751
 21
84.825
  0
LINE
  8
0
 10
-23.612
 11
-23.519
 20
84.825
 21
84.86
  0
LINE
  8
0
 10
-23.519
 11
-23.425
 20
84.86
 21
84.895
  0
LINE
  8
0
 10
-23.425
 11
-23.331
 20
84.895
 21
84.929
  0
LINE
  8
0
 10
-23.331
 11
-23.237
 20
84.929
 21
84.962
  0
LINE
  8
0
 10
-23.237
 11
-23.047
 20
84.962
 21
85.024
  0
LINE
  8
0
 10
-23.047
 11
-22.952
 20
85.024
 21
85.054
  0
LINE
  8
0
 10
-22.952
 11
-22.857
 20
85.054
 21
85.083
  0
LINE
  8
0
 10
-22.857
 11
-22.761
 20
85.083
 21
85.111
  0
LINE
  8
0
 10
-22.761
 11
-22.568
 20
85.111
 21
85.165
  0
LINE
  8
0
 10
-22.568
 11
-22.471
 20
85.165
 21
85.19
  0
LINE
  8
0
 10
-22.471
 11
-22.375
 20
85.19
 21
85.214
  0
LINE
  8
0
 10
-22.375
 11
-22.277
 20
85.214
 21
85.237
  0
LINE
  8
0
 10
-22.277
 11
-22.18
 20
85.237
 21
85.259
  0
LINE
  8
0
 10
-22.18
 11
-22.082
 20
85.259
 21
85.281
  0
LINE
  8
0
 10
-22.082
 11
-21.985
 20
85.281
 21
85.301
  0
LINE
  8
0
 10
-21.985
 11
-21.887
 20
85.301
 21
85.32
  0
LINE
  8
0
 10
-21.887
 11
-21.788
 20
85.32
 21
85.339
  0
LINE
  8
0
 10
-21.788
 11
-21.69
 20
85.339
 21
85.356
  0
LINE
  8
0
 10
-21.69
 11
-21.591
 20
85.356
 21
85.373
  0
LINE
  8
0
 10
-21.591
 11
-21.493
 20
85.373
 21
85.388
  0
LINE
  8
0
 10
-21.493
 11
-21.295
 20
85.388
 21
85.416
  0
LINE
  8
0
 10
-21.295
 11
-21.097
 20
85.416
 21
85.44
  0
LINE
  8
0
 10
-21.097
 11
-20.898
 20
85.44
 21
85.46
  0
LINE
  8
0
 10
-20.898
 11
-20.699
 20
85.46
 21
85.476
  0
LINE
  8
0
 10
-20.699
 11
-20.499
 20
85.476
 21
85.488
  0
LINE
  8
0
 10
-20.499
 11
-20.3
 20
85.488
 21
85.496
  0
LINE
  8
0
 10
-20.3
 11
-20.2
 20
85.496
 21
85.498
  0
LINE
  8
0
 10
-20.2
 11
-20.1
 20
85.498
 21
85.5
  0
LINE
  8
0
 10
-20.1
 11
20.1
 20
85.5
 21
85.5
  0
LINE
  8
0
 10
20.1
 11
20.2
 20
85.5
 21
85.498
  0
LINE
  8
0
 10
20.2
 11
20.3
 20
85.498
 21
85.496
  0
LINE
  8
0
 10
20.3
 11
20.499
 20
85.496
 21
85.488
  0
LINE
  8
0
 10
20.499
 11
20.699
 20
85.488
 21
85.476
  0
LINE
  8
0
 10
20.699
 11
20.898
 20
85.476
 21
85.46
  0
LINE
  8
0
 10
20.898
 11
21.097
 20
85.46
 21
85.44
  0
LINE
  8
0
 10
21.097
 11
21.295
 20
85.44
 21
85.416
  0
LINE
  8
0
 10
21.295
 11
21.493
 20
85.416
 21
85.388
  0
LINE
  8
0
 10
21.493
 11
21.591
 20
85.388
 21
85.373
  0
LINE
  8
0
 10
21.591
 11
21.69
 20
85.373
 21
85.356
  0
LINE
  8
0
 10
21.69
 11
21.788
 20
85.356
 21
85.339
  0
LINE
  8
0
 10
21.788
 11
21.887
 20
85.339
 21
85.32
  0
LINE
  8
0
 10
21.887
 11
21.985
 20
85.32
 21
85.301
  0
LINE
  8
0
 10
21.985
 11
22.082
 20
85.301
 21
85.281
  0
LINE
  8
0
 10
22.082
 11
22.18
 20
85.281
 21
85.259
  0
LINE
  8
0
 10
22.18
 11
22.277
 20
85.259
 21
85.237
  0
LINE
  8
0
 10
22.277
 11
22.375
 20
85.237
 21
85.214
  0
LINE
  8
0
 10
22.375
 11
22.471
 20
85.214
 21
85.19
  0
LINE
  8
0
 10
22.471
 11
22.568
 20
85.19
 21
85.165
  0
LINE
  8
0
 10
22.568
 11
22.761
 20
85.165
 21
85.111
  0
LINE
  8
0
 10
22.761
 11
22.857
 20
85.111
 21
85.083
  0
LINE
  8
0
 10
22.857
 11
22.952
 20
85.083
 21
85.054
  0
LINE
  8
0
 10
22.952
 11
23.047
 20
85.054
 21
85.024
  0
LINE
  8
0
 10
23.047
 11
23.237
 20
85.024
 21
84.962
  0
LINE
  8
0
 10
23.237
 11
23.331
 20
84.962
 21
84.929
  0
LINE
  8
0
 10
23.331
 11
23.425
 20
84.929
 21
84.895
  0
LINE
  8
0
 10
23.425
 11
23.519
 20
84.895
 21
84.86
  0
LINE
  8
0
 10
23.519
 11
23.612
 20
84.86
 21
84.825
  0
LINE
  8
0
 10
23.612
 11
23.798
 20
84.825
 21
84.751
  0
LINE
  8
0
 10
23.798
 11
23.982
 20
84.751
 21
84.673
  0
LINE
  8
0
 10
23.982
 11
24.073
 20
84.673
 21
84.633
  0
LINE
  8
0
 10
24.073
 11
24.164
 20
84.633
 21
84.592
  0
LINE
  8
0
 10
24.164
 11
24.255
 20
84.592
 21
84.55
  0
LINE
  8
0
 10
24.255
 11
24.345
 20
84.55
 21
84.507
  0
LINE
  8
0
 10
24.345
 11
24.435
 20
84.507
 21
84.463
  0
LINE
  8
0
 10
24.435
 11
24.524
 20
84.463
 21
84.418
  0
LINE
  8
0
 10
24.524
 11
24.702
 20
84.418
 21
84.326
  0
LINE
  8
0
 10
24.702
 11
24.79
 20
84.326
 21
84.278
  0
LINE
  8
0
 10
24.79
 11
24.877
 20
84.278
 21
84.23
  0
LINE
  8
0
 10
24.877
 11
24.964
 20
84.23
 21
84.181
  0
LINE
  8
0
 10
24.964
 11
25.05
 20
84.181
 21
84.131
  0
LINE
  8
0
 10
25.05
 11
25.136
 20
84.131
 21
84.08
  0
LINE
  8
0
 10
25.136
 11
25.222
 20
84.08
 21
84.028
  0
LINE
  8
0
 10
25.222
 11
25.307
 20
84.028
 21
83.976
  0
LINE
  8
0
 10
25.307
 11
25.475
 20
83.976
 21
83.868
  0
LINE
  8
0
 10
25.475
 11
25.558
 20
83.868
 21
83.813
  0
LINE
  8
0
 10
25.558
 11
25.641
 20
83.813
 21
83.757
  0
LINE
  8
0
 10
25.641
 11
25.805
 20
83.757
 21
83.643
  0
LINE
  8
0
 10
25.805
 11
25.886
 20
83.643
 21
83.584
  0
LINE
  8
0
 10
25.886
 11
25.966
 20
83.584
 21
83.525
  0
LINE
  8
0
 10
25.966
 11
26.046
 20
83.525
 21
83.465
  0
LINE
  8
0
 10
26.046
 11
26.126
 20
83.465
 21
83.404
  0
LINE
  8
0
 10
26.126
 11
26.204
 20
83.404
 21
83.343
  0
LINE
  8
0
 10
26.204
 11
26.36
 20
83.343
 21
83.217
  0
LINE
  8
0
 10
26.36
 11
26.513
 20
83.217
 21
83.089
  0
LINE
  8
0
 10
26.513
 11
26.663
 20
83.089
 21
82.957
  0
LINE
  8
0
 10
26.663
 11
26.737
 20
82.957
 21
82.89
  0
LINE
  8
0
 10
26.737
 11
26.81
 20
82.89
 21
82.822
  0
LINE
  8
0
 10
26.81
 11
26.883
 20
82.822
 21
82.754
  0
LINE
  8
0
 10
26.883
 11
26.955
 20
82.754
 21
82.685
  0
LINE
  8
0
 10
26.955
 11
27.027
 20
82.685
 21
82.615
  0
LINE
  8
0
 10
27.027
 11
27.098
 20
82.615
 21
82.545
  0
LINE
  8
0
 10
27.098
 11
27.168
 20
82.545
 21
82.473
  0
LINE
  8
0
 10
27.168
 11
27.237
 20
82.473
 21
82.401
  0
LINE
  8
0
 10
27.237
 11
27.305
 20
82.401
 21
82.329
  0
LINE
  8
0
 10
27.305
 11
27.373
 20
82.329
 21
82.255
  0
LINE
  8
0
 10
27.373
 11
27.507
 20
82.255
 21
82.107
  0
LINE
  8
0
 10
27.507
 11
27.572
 20
82.107
 21
82.031
  0
LINE
  8
0
 10
27.572
 11
27.637
 20
82.031
 21
81.955
  0
LINE
  8
0
 10
27.637
 11
27.701
 20
81.955
 21
81.879
  0
LINE
  8
0
 10
27.701
 11
27.765
 20
81.879
 21
81.802
  0
LINE
  8
0
 10
27.765
 11
27.827
 20
81.802
 21
81.724
  0
LINE
  8
0
 10
27.827
 11
27.889
 20
81.724
 21
81.645
  0
LINE
  8
0
 10
27.889
 11
27.95
 20
81.645
 21
81.566
  0
LINE
  8
0
 10
27.95
 11
28.01
 20
81.566
 21
81.486
  0
LINE
  8
0
 10
28.01
 11
28.07
 20
81.486
 21
81.406
  0
LINE
  8
0
 10
28.07
 11
28.186
 20
81.406
 21
81.244
  0
LINE
  8
0
 10
28.186
 11
28.243
 20
81.244
 21
81.162
  0
LINE
  8
0
 10
28.243
 11
28.299
 20
81.162
 21
81.079
  0
LINE
  8
0
 10
28.299
 11
28.354
 20
81.079
 21
80.996
  0
LINE
  8
0
 10
28.354
 11
28.409
 20
80.996
 21
80.912
  0
LINE
  8
0
 10
28.409
 11
28.462
 20
80.912
 21
80.828
  0
LINE
  8
0
 10
28.462
 11
28.515
 20
80.828
 21
80.743
  0
LINE
  8
0
 10
28.515
 11
28.567
 20
80.743
 21
80.658
  0
LINE
  8
0
 10
28.567
 11
28.669
 20
80.658
 21
80.486
  0
LINE
  8
0
 10
28.669
 11
84.037
 20
80.486
 21
-15.415
  0
LINE
  8
0
 10
84.037
 11
84.135
 20
-15.415
 21
-15.589
  0
LINE
  8
0
 10
84.135
 11
84.183
 20
-15.589
 21
-15.677
  0
LINE
  8
0
 10
84.183
 11
84.23
 20
-15.677
 21
-15.765
  0
LINE
  8
0
 10
84.23
 11
84.276
 20
-15.765
 21
-15.853
  0
LINE
  8
0
 10
84.276
 11
84.322
 20
-15.853
 21
-15.943
  0
LINE
  8
0
 10
84.322
 11
84.366
 20
-15.943
 21
-16.032
  0
LINE
  8
0
 10
84.366
 11
84.41
 20
-16.032
 21
-16.122
  0
LINE
  8
0
 10
84.41
 11
84.452
 20
-16.122
 21
-16.212
  0
LINE
  8
0
 10
84.452
 11
84.535
 20
-16.212
 21
-16.394
  0
LINE
  8
0
 10
84.535
 11
84.613
 20
-16.394
 21
-16.578
  0
LINE
  8
0
 10
84.613
 11
84.651
 20
-16.578
 21
-16.67
  0
LINE
  8
0
 10
84.651
 11
84.689
 20
-16.67
 21
-16.763
  0
LINE
  8
0
 10
84.689
 11
84.725
 20
-16.763
 21
-16.856
  0
LINE
  8
0
 10
84.725
 11
84.76
 20
-16.856
 21
-16.95
  0
LINE
  8
0
 10
84.76
 11
84.794
 20
-16.95
 21
-17.043
  0
LINE
  8
0
 10
84.794
 11
84.827
 20
-17.043
 21
-17.137
  0
LINE
  8
0
 10
84.827
 11
84.86
 20
-17.137
 21
-17.232
  0
LINE
  8
0
 10
84.86
 11
84.952
 20
-17.232
 21
-17.518
  0
LINE
  8
0
 10
84.952
 11
84.98
 20
-17.518
 21
-17.613
  0
LINE
  8
0
 10
84.98
 11
85.008
 20
-17.613
 21
-17.708
  0
LINE
  8
0
 10
85.008
 11
85.035
 20
-17.708
 21
-17.805
  0
LINE
  8
0
 10
85.035
 11
85.06
 20
-17.805
 21
-17.901
  0
LINE
  8
0
 10
85.06
 11
85.085
 20
-17.901
 21
-17.999
  0
LINE
  8
0
 10
85.085
 11
85.109
 20
-17.999
 21
-18.096
  0
LINE
  8
0
 10
85.109
 11
85.153
 20
-18.096
 21
-18.29
  0
LINE
  8
0
 10
85.153
 11
85.174
 20
-18.29
 21
-18.388
  0
LINE
  8
0
 10
85.174
 11
85.214
 20
-18.388
 21
-18.584
  0
LINE
  8
0
 10
85.214
 11
85.231
 20
-18.584
 21
-18.682
  0
LINE
  8
0
 10
85.231
 11
85.248
 20
-18.682
 21
-18.78
  0
LINE
  8
0
 10
85.248
 11
85.279
 20
-18.78
 21
-18.978
  0
LINE
  8
0
 10
85.279
 11
85.293
 20
-18.978
 21
-19.076
  0
LINE
  8
0
 10
85.293
 11
85.306
 20
-19.076
 21
-19.176
  0
LINE
  8
0
 10
85.306
 11
85.318
 20
-19.176
 21
-19.275
  0
LINE
  8
0
 10
85.318
 11
85.329
 20
-19.275
 21
-19.374
  0
LINE
  8
0
 10
85.329
 11
85.339
 20
-19.374
 21
-19.474
  0
LINE
  8
0
 10
85.339
 11
85.348
 20
-19.474
 21
-19.573
  0
LINE
  8
0
 10
85.348
 11
85.356
 20
-19.573
 21
-19.673
  0
LINE
  8
0
 10
85.356
 11
85.363
 20
-19.673
 21
-19.773
  0
LINE
  8
0
 10
85.363
 11
85.369
 20
-19.773
 21
-19.872
  0
LINE
  8
0
 10
85.369
 11
85.379
 20
-19.872
 21
-20.071
  0
LINE
  8
0
 10
85.379
 11
85.381
 20
-20.071
 21
-20.171
  0
LINE
  8
0
 10
85.381
 11
85.385
 20
-20.171
 21
-20.372
  0
LINE
  8
0
 10
85.385
 11
85.385
 20
-20.372
 21
-20.471
  0
LINE
  8
0
 10
85.385
 11
85.384
 20
-20.471
 21
-20.571
  0
LINE
  8
0
 10
85.384
 11
85.382
 20
-20.571
 21
-20.67
  0
LINE
  8
0
 10
85.382
 11
85.379
 20
-20.67
 21
-20.77
  0
LINE
  8
0
 10
85.379
 11
85.375
 20
-20.77
 21
-20.871
  0
LINE
  8
0
 10
85.375
 11
85.37
 20
-20.871
 21
-20.971
  0
LINE
  8
0
 10
85.37
 11
85.365
 20
-20.971
 21
-21.07
  0
LINE
  8
0
 10
85.365
 11
85.358
 20
-21.07
 21
-21.17
  0
LINE
  8
0
 10
85.358
 11
85.35
 20
-21.17
 21
-21.27
  0
LINE
  8
0
 10
85.35
 11
85.341
 20
-21.27
 21
-21.369
  0
LINE
  8
0
 10
85.341
 11
85.331
 20
-21.369
 21
-21.469
  0
LINE
  8
0
 10
85.331
 11
85.32
 20
-21.469
 21
-21.567
  0
LINE
  8
0
 10
85.32
 11
85.296
 20
-21.567
 21
-21.766
  0
LINE
  8
0
 10
85.296
 11
85.267
 20
-21.766
 21
-21.964
  0
LINE
  8
0
 10
85.267
 11
85.234
 20
-21.964
 21
-22.161
  0
LINE
  8
0
 10
85.234
 11
85.198
 20
-22.161
 21
-22.357
  0
LINE
  8
0
 10
85.198
 11
85.177
 20
-22.357
 21
-22.455
  0
LINE
  8
0
 10
85.177
 11
85.156
 20
-22.455
 21
-22.553
  0
LINE
  8
0
 10
85.156
 11
85.135
 20
-22.553
 21
-22.65
  0
LINE
  8
0
 10
85.135
 11
85.113
 20
-22.65
 21
-22.747
  0
LINE
  8
0
 10
85.113
 11
85.089
 20
-22.747
 21
-22.844
  0
LINE
  8
0
 10
85.089
 11
85.064
 20
-22.844
 21
-22.941
  0
LINE
  8
0
 10
85.064
 11
85.039
 20
-22.941
 21
-23.038
  0
LINE
  8
0
 10
85.039
 11
85.012
 20
-23.038
 21
-23.135
  0
LINE
  8
0
 10
85.012
 11
84.985
 20
-23.135
 21
-23.23
  0
LINE
  8
0
 10
84.985
 11
84.956
 20
-23.23
 21
-23.326
  0
LINE
  8
0
 10
84.956
 11
84.897
 20
-23.326
 21
-23.517
  0
LINE
  8
0
 10
84.897
 11
84.833
 20
-23.517
 21
-23.705
  0
LINE
  8
0
 10
84.833
 11
84.8
 20
-23.705
 21
-23.801
  0
LINE
  8
0
 10
84.8
 11
84.731
 20
-23.801
 21
-23.988
  0
LINE
  8
0
 10
84.731
 11
84.695
 20
-23.988
 21
-24.081
  0
LINE
  8
0
 10
84.695
 11
84.62
 20
-24.081
 21
-24.266
  0
LINE
  8
0
 10
84.62
 11
84.542
 20
-24.266
 21
-24.449
  0
LINE
  8
0
 10
84.542
 11
84.46
 20
-24.449
 21
-24.632
  0
LINE
  8
0
 10
84.46
 11
84.374
 20
-24.632
 21
-24.812
  0
LINE
  8
0
 10
84.374
 11
84.284
 20
-24.812
 21
-24.991
  0
LINE
  8
0
 10
84.284
 11
84.238
 20
-24.991
 21
-25.08
  0
LINE
  8
0
 10
84.238
 11
84.192
 20
-25.08
 21
-25.168
  0
LINE
  8
0
 10
84.192
 11
84.095
 20
-25.168
 21
-25.343
  0
LINE
  8
0
 10
84.095
 11
64.095
 20
-25.343
 21
-59.984
  0
LINE
  8
0
 10
64.095
 11
63.995
 20
-59.984
 21
-60.157
  0
LINE
  8
0
 10
63.995
 11
63.892
 20
-60.157
 21
-60.328
  0
LINE
  8
0
 10
63.892
 11
63.839
 20
-60.328
 21
-60.412
  0
LINE
  8
0
 10
63.839
 11
63.785
 20
-60.412
 21
-60.497
  0
LINE
  8
0
 10
63.785
 11
63.675
 20
-60.497
 21
-60.664
  0
LINE
  8
0
 10
63.675
 11
63.562
 20
-60.664
 21
-60.828
  0
LINE
  8
0
 10
63.562
 11
63.445
 20
-60.828
 21
-60.991
  0
LINE
  8
0
 10
63.445
 11
63.325
 20
-60.991
 21
-61.15
  0
LINE
  8
0
 10
63.325
 11
63.202
 20
-61.15
 21
-61.307
  0
LINE
  8
0
 10
63.202
 11
63.14
 20
-61.307
 21
-61.385
  0
LINE
  8
0
 10
63.14
 11
63.012
 20
-61.385
 21
-61.538
  0
LINE
  8
0
 10
63.012
 11
62.946
 20
-61.538
 21
-61.615
  0
LINE
  8
0
 10
62.946
 11
62.815
 20
-61.615
 21
-61.764
  0
LINE
  8
0
 10
62.815
 11
62.679
 20
-61.764
 21
-61.911
  0
LINE
  8
0
 10
62.679
 11
62.61
 20
-61.911
 21
-61.984
  0
LINE
  8
0
 10
62.61
 11
62.541
 20
-61.984
 21
-62.055
  0
LINE
  8
0
 10
62.541
 11
62.471
 20
-62.055
 21
-62.127
  0
LINE
  8
0
 10
62.471
 11
62.4
 20
-62.127
 21
-62.197
  0
LINE
  8
0
 10
62.4
 11
62.328
 20
-62.197
 21
-62.267
  0
LINE
  8
0
 10
62.328
 11
62.256
 20
-62.267
 21
-62.336
  0
LINE
  8
0
 10
62.256
 11
62.183
 20
-62.336
 21
-62.404
  0
LINE
  8
0
 10
62.183
 11
62.035
 20
-62.404
 21
-62.538
  0
LINE
  8
0
 10
62.035
 11
61.961
 20
-62.538
 21
-62.605
  0
LINE
  8
0
 10
61.961
 11
61.885
 20
-62.605
 21
-62.67
  0
LINE
  8
0
 10
61.885
 11
61.809
 20
-62.67
 21
-62.734
  0
LINE
  8
0
 10
61.809
 11
61.655
 20
-62.734
 21
-62.861
  0
LINE
  8
0
 10
61.655
 11
61.498
 20
-62.861
 21
-62.985
  0
LINE
  8
0
 10
61.498
 11
61.338
 20
-62.985
 21
-63.106
  0
LINE
  8
0
 10
61.338
 11
61.177
 20
-63.106
 21
-63.223
  0
LINE
  8
0
 10
61.177
 11
61.013
 20
-63.223
 21
-63.337
  0
LINE
  8
0
 10
61.013
 11
60.93
 20
-63.337
 21
-63.393
  0
LINE
  8
0
 10
60.93
 11
60.677
 20
-63.393
 21
-63.556
  0
LINE
  8
0
 10
60.677
 11
60.592
 20
-63.556
 21
-63.608
  0
LINE
  8
0
 10
60.592
 11
60.507
 20
-63.608
 21
-63.659
  0
LINE
  8
0
 10
60.507
 11
60.421
 20
-63.659
 21
-63.71
  0
LINE
  8
0
 10
60.421
 11
60.335
 20
-63.71
 21
-63.759
  0
LINE
  8
0
 10
60.335
 11
60.159
 20
-63.759
 21
-63.857
  0
LINE
  8
0
 10
60.159
 11
60.072
 20
-63.857
 21
-63.905
  0
LINE
  8
0
 10
60.072
 11
59.894
 20
-63.905
 21
-63.996
  0
LINE
  8
0
 10
59.894
 11
59.805
 20
-63.996
 21
-64.04
  0
LINE
  8
0
 10
59.805
 11
59.715
 20
-64.04
 21
-64.084
  0
LINE
  8
0
 10
59.715
 11
59.625
 20
-64.084
 21
-64.127
  0
LINE
  8
0
 10
59.625
 11
59.534
 20
-64.127
 21
-64.169
  0
LINE
  8
0
 10
59.534
 11
59.443
 20
-64.169
 21
-64.21
  0
LINE
  8
0
 10
59.443
 11
59.352
 20
-64.21
 21
-64.25
  0
LINE
  8
0
 10
59.352
 11
59.26
 20
-64.25
 21
-64.289
  0
LINE
  8
0
 10
59.26
 11
59.167
 20
-64.289
 21
-64.328
  0
LINE
  8
0
 10
59.167
 11
59.075
 20
-64.328
 21
-64.365
  0
LINE
  8
0
 10
59.075
 11
58.888
 20
-64.365
 21
-64.437
  0
LINE
  8
0
 10
58.888
 11
58.795
 20
-64.437
 21
-64.471
  0
LINE
  8
0
 10
58.795
 11
58.701
 20
-64.471
 21
-64.505
  0
LINE
  8
0
 10
58.701
 11
58.606
 20
-64.505
 21
-64.537
  0
LINE
  8
0
 10
58.606
 11
58.511
 20
-64.537
 21
-64.569
  0
LINE
  8
0
 10
58.511
 11
58.416
 20
-64.569
 21
-64.6
  0
LINE
  8
0
 10
58.416
 11
58.321
 20
-64.6
 21
-64.629
  0
LINE
  8
0
 10
58.321
 11
58.226
 20
-64.629
 21
-64.658
  0
LINE
  8
0
 10
58.226
 11
58.13
 20
-64.658
 21
-64.686
  0
LINE
  8
0
 10
58.13
 11
58.033
 20
-64.686
 21
-64.714
  0
LINE
  8
0
 10
58.033
 11
57.937
 20
-64.714
 21
-64.74
  0
LINE
  8
0
 10
57.937
 11
57.84
 20
-64.74
 21
-64.765
  0
LINE
  8
0
 10
57.84
 11
57.647
 20
-64.765
 21
-64.811
  0
LINE
  8
0
 10
57.647
 11
57.548
 20
-64.811
 21
-64.833
  0
LINE
  8
0
 10
57.548
 11
57.353
 20
-64.833
 21
-64.875
  0
LINE
  8
0
 10
57.353
 11
57.255
 20
-64.875
 21
-64.894
  0
LINE
  8
0
 10
57.255
 11
57.157
 20
-64.894
 21
-64.912
  0
LINE
  8
0
 10
57.157
 11
57.059
 20
-64.912
 21
-64.929
  0
LINE
  8
0
 10
57.059
 11
56.96
 20
-64.929
 21
-64.946
  0
LINE
  8
0
 10
56.96
 11
56.862
 20
-64.946
 21
-64.961
  0
LINE
  8
0
 10
56.862
 11
56.762
 20
-64.961
 21
-64.975
  0
LINE
  8
0
 10
56.762
 11
56.663
 20
-64.975
 21
-64.988
  0
LINE
  8
0
 10
56.663
 11
56.465
 20
-64.988
 21
-65.012
  0
LINE
  8
0
 10
56.465
 11
56.266
 20
-65.012
 21
-65.032
  0
LINE
  8
0
 10
56.266
 11
56.167
 20
-65.032
 21
-65.04
  0
LINE
  8
0
 10
56.167
 11
56.067
 20
-65.04
 21
-65.047
  0
LINE
  8
0
 10
56.067
 11
55.968
 20
-65.047
 21
-65.053
  0
LINE
  8
0
 10
55.968
 11
55.867
 20
-65.053
 21
-65.059
  0
LINE
  8
0
 10
55.867
 11
55.768
 20
-65.059
 21
-65.063
  0
LINE
  8
0
 10
55.768
 11
55.568
 20
-65.063
 21
-65.069
  0
LINE
  8
0
 10
55.568
 11
55.368
 20
-65.069
 21
-65.071
  0
LINE
  8
0
 10
55.368
 11
-55.368
 20
-65.071
 21
-65.071
  0
LINE
  8
0
 10
-55.368
 11
-55.568
 20
-65.071
 21
-65.069
  0
LINE
  8
0
 10
-55.568
 11
-55.768
 20
-65.069
 21
-65.063
  0
LINE
  8
0
 10
-55.768
 11
-55.867
 20
-65.063
 21
-65.059
  0
LINE
  8
0
 10
-55.867
 11
-55.968
 20
-65.059
 21
-65.053
  0
LINE
  8
0
 10
-55.968
 11
-56.067
 20
-65.053
 21
-65.047
  0
LINE
  8
0
 10
-56.067
 11
-56.167
 20
-65.047
 21
-65.04
  0
LINE
  8
0
 10
-56.167
 11
-56.266
 20
-65.04
 21
-65.032
  0
LINE
  8
0
 10
-56.266
 11
-56.465
 20
-65.032
 21
-65.012
  0
LINE
  8
0
 10
-56.465
 11
-56.663
 20
-65.012
 21
-64.988
  0
LINE
  8
0
 10
-56.663
 11
-56.762
 20
-64.988
 21
-64.975
  0
LINE
  8
0
 10
-56.762
 11
-56.862
 20
-64.975
 21
-64.961
  0
LINE
  8
0
 10
-56.862
 11
-56.96
 20
-64.961
 21
-64.946
  0
LINE
  8
0
 10
-56.96
 11
-57.059
 20
-64.946
 21
-64.929
  0
LINE
  8
0
 10
-57.059
 11
-57.157
 20
-64.929
 21
-64.912
  0
LINE
  8
0
 10
-57.157
 11
-57.255
 20
-64.912
 21
-64.894
  0
LINE
  8
0
 10
-57.255
 11
-57.353
 20
-64.894
 21
-64.875
  0
LINE
  8
0
 10
-57.353
 11
-57.548
 20
-64.875
 21
-64.833
  0
LINE
  8
0
 10
-57.548
 11
-57.647
 20
-64.833
 21
-64.811
  0
LINE
  8
0
 10
-57.647
 11
-57.84
 20
-64.811
 21
-64.765
  0
LINE
  8
0
 10
-57.84
 11
-57.937
 20
-64.765
 21
-64.74
  0
LINE
  8
0
 10
-57.937
 11
-58.033
 20
-64.74
 21
-64.714
  0
LINE
  8
0
 10
-58.033
 11
-58.13
 20
-64.714
 21
-64.686
  0
LINE
  8
0
 10
-58.13
 11
-58.226
 20
-64.686
 21
-64.658
  0
LINE
  8
0
 10
-58.226
 11
-58.321
 20
-64.658
 21
-64.629
  0
LINE
  8
0
 10
-58.321
 11
-58.416
 20
-64.629
 21
-64.6
  0
LINE
  8
0
 10
-58.416
 11
-58.511
 20
-64.6
 21
-64.569
  0
LINE
  8
0
 10
-58.511
 11
-58.606
 20
-64.569
 21
-64.537
  0
LINE
  8
0
 10
-58.606
 11
-58.701
 20
-64.537
 21
-64.505
  0
LINE
  8
0
 10
-58.701
 11
-58.795
 20
-64.505
 21
-64.471
  0
LINE
  8
0
 10
-58.795
 11
-58.888
 20
-64.471
 21
-64.437
  0
LINE
  8
0
 10
-58.888
 11
-59.075
 20
-64.437
 21
-64.365
  0
LINE
  8
0
 10
-59.075
 11
-59.167
 20
-64.365
 21
-64.328
  0
LINE
  8
0
 10
-59.167
 11
-59.26
 20
-64.328
 21
-64.289
  0
LINE
  8
0
 10
-59.26
 11
-59.352
 20
-64.289
 21
-64.25
  0
LINE
  8
0
 10
-59.352
 11
-59.443
 20
-64.25
 21
-64.21
  0
LINE
  8
0
 10
-59.443
 11
-59.534
 20
-64.21
 21
-64.169
  0
LINE
  8
0
 10
-59.534
 11
-59.625
 20
-64.169
 21
-64.127
  0
LINE
  8
0
 10
-59.625
 11
-59.715
 20
-64.127
 21
-64.084
  0
LINE
  8
0
 10
-59.715
 11
-59.805
 20
-64.084
 21
-64.04
  0
LINE
  8
0
 10
-59.805
 11
-59.894
 20
-64.04
 21
-63.996
  0
LINE
  8
0
 10
-59.894
 11
-60.072
 20
-63.996
 21
-63.905
  0
LINE
  8
0
 10
-60.072
 11
-60.159
 20
-63.905
 21
-63.857
  0
LINE
  8
0
 10
-60.159
 11
-60.335
 20
-63.857
 21
-63.759
  0
LINE
  8
0
 10
-60.335
 11
-60.421
 20
-63.759
 21
-63.71
  0
LINE
  8
0
 10
-60.421
 11
-60.507
 20
-63.71
 21
-63.659
  0
LINE
  8
0
 10
-60.507
 11
-60.592
 20
-63.659
 21
-63.608
  0
LINE
  8
0
 10
-60.592
 11
-60.677
 20
-63.608
 21
-63.556
  0
LINE
  8
0
 10
-60.677
 11
-60.93
 20
-63.556
 21
-63.393
  0
LINE
  8
0
 10
-60.93
 11
-61.013
 20
-63.393
 21
-63.337
  0
LINE
  8
0
 10
-61.013
 11
-61.177
 20
-63.337
 21
-63.223
  0
LINE
  8
0
 10
-61.177
 11
-61.338
 20
-63.223
 21
-63.106
  0
LINE
  8
0
 10
-61.338
 11
-61.498
 20
-63.106
 21
-62.985
  0
LINE
  8
0
 10
-61.498
 11
-61.655
 20
-62.985
 21
-62.861
  0
LINE
  8
0
 10
-61.655
 11
-61.809
 20
-62.861
 21
-62.734
  0
LINE
  8
0
 10
-61.809
 11
-61.885
 20
-62.734
 21
-62.67
  0
LINE
  8
0
 10
-61.885
 11
-61.961
 20
-62.67
 21
-62.605
  0
LINE
  8
0
 10
-61.961
 11
-62.035
 20
-62.605
 21
-62.538
  0
LINE
  8
0
 10
-62.035
 11
-62.183
 20
-62.538
 21
-62.404
  0
LINE
  8
0
 10
-62.183
 11
-62.256
 20
-62.404
 21
-62.336
  0
LINE
  8
0
 10
-62.256
 11
-62.328
 20
-62.336
 21
-62.267
  0
LINE
  8
0
 10
-62.328
 11
-62.4
 20
-62.267
 21
-62.197
  0
LINE
  8
0
 10
-62.4
 11
-62.471
 20
-62.197
 21
-62.127
  0
LINE
  8
0
 10
-62.471
 11
-62.541
 20
-62.127
 21
-62.055
  0
LINE
  8
0
 10
-62.541
 11
-62.61
 20
-62.055
 21
-61.984
  0
LINE
  8
0
 10
-62.61
 11
-62.679
 20
-61.984
 21
-61.911
  0
LINE
  8
0
 10
-62.679
 11
-62.815
 20
-61.911
 21
-61.764
  0
LINE
  8
0
 10
-62.815
 11
-62.946
 20
-61.764
 21
-61.615
  0
LINE
  8
0
 10
-62.946
 11
-63.012
 20
-61.615
 21
-61.538
  0
LINE
  8
0
 10
-63.012
 11
-63.14
 20
-61.538
 21
-61.385
  0
LINE
  8
0
 10
-63.14
 11
-63.202
 20
-61.385
 21
-61.307
  0
LINE
  8
0
 10
-63.202
 11
-63.325
 20
-61.307
 21
-61.15
  0
LINE
  8
0
 10
-63.325
 11
-63.445
 20
-61.15
 21
-60.991
  0
LINE
  8
0
 10
-63.445
 11
-63.562
 20
-60.991
 21
-60.828
  0
LINE
  8
0
 10
-63.562
 11
-63.675
 20
-60.828
 21
-60.664
  0
LINE
  8
0
 10
-63.675
 11
-63.785
 20
-60.664
 21
-60.497
  0
LINE
  8
0
 10
-63.785
 11
-63.839
 20
-60.497
 21
-60.412
  0
LINE
  8
0
 10
-63.839
 11
-63.892
 20
-60.412
 21
-60.328
  0
LINE
  8
0
 10
-63.892
 11
-63.995
 20
-60.328
 21
-60.157
  0
LINE
  8
0
 10
-63.995
 11
-64.095
 20
-60.157
 21
-59.984
  0
LINE
  8
0
 10
-64.095
 11
-84.095
 20
-59.984
 21
-25.343
  0
LINE
  8
0
 10
-84.095
 11
-84.192
 20
-25.343
 21
-25.168
  0
LINE
  8
0
 10
-84.192
 11
-84.238
 20
-25.168
 21
-25.08
  0
LINE
  8
0
 10
-84.238
 11
-84.284
 20
-25.08
 21
-24.991
  0
LINE
  8
0
 10
-84.284
 11
-84.374
 20
-24.991
 21
-24.812
  0
LINE
  8
0
 10
-84.374
 11
-84.46
 20
-24.812
 21
-24.632
  0
LINE
  8
0
 10
-84.46
 11
-84.542
 20
-24.632
 21
-24.449
  0
LINE
  8
0
 10
-84.542
 11
-84.62
 20
-24.449
 21
-24.266
  0
LINE
  8
0
 10
-84.62
 11
-84.695
 20
-24.266
 21
-24.081
  0
LINE
  8
0
 10
-84.695
 11
-84.731
 20
-24.081
 21
-23.988
  0
LINE
  8
0
 10
-84.731
 11
-84.8
 20
-23.988
 21
-23.801
  0
LINE
  8
0
 10
-84.8
 11
-84.833
 20
-23.801
 21
-23.705
  0
LINE
  8
0
 10
-84.833
 11
-84.897
 20
-23.705
 21
-23.517
  0
LINE
  8
0
 10
-84.897
 11
-84.956
 20
-23.517
 21
-23.326
  0
LINE
  8
0
 10
-84.956
 11
-84.985
 20
-23.326
 21
-23.23
  0
LINE
  8
0
 10
-84.985
 11
-85.012
 20
-23.23
 21
-23.135
  0
LINE
  8
0
 10
-85.012
 11
-85.039
 20
-23.135
 21
-23.038
  0
LINE
  8
0
 10
-85.039
 11
-85.064
 20
-23.038
 21
-22.941
  0
LINE
  8
0
 10
-85.064
 11
-85.089
 20
-22.941
 21
-22.844
  0
LINE
  8
0
 10
-85.089
 11
-85.113
 20
-22.844
 21
-22.747
  0
LINE
  8
0
 10
-85.113
 11
-85.135
 20
-22.747
 21
-22.65
  0
LINE
  8
0
 10
-85.135
 11
-85.156
 20
-22.65
 21
-22.553
  0
LINE
  8
0
 10
-85.156
 11
-85.177
 20
-22.553
 21
-22.455
  0
LINE
  8
0
 10
-85.177
 11
-85.198
 20
-22.455
 21
-22.357
  0
LINE
  8
0
 10
-85.198
 11
-85.234
 20
-22.357
 21
-22.161
  0
LINE
  8
0
 10
-85.234
 11
-85.267
 20
-22.161
 21
-21.964
  0
LINE
  8
0
 10
-85.267
 11
-85.296
 20
-21.964
 21
-21.766
  0
LINE
  8
0
 10
-85.296
 11
-85.32
 20
-21.766
 21
-21.567
  0
LINE
  8
0
 10
-85.32
 11
-85.331
 20
-21.567
 21
-21.469
  0
LINE
  8
0
 10
-85.331
 11
-85.341
 20
-21.469
 21
-21.369
  0
LINE
  8
0
 10
-85.341
 11
-85.35
 20
-21.369
 21
-21.27
  0
LINE
  8
0
 10
-85.35
 11
-85.358
 20
-21.27
 21
-21.17
  0
LINE
  8
0
 10
-85.358
 11
-85.365
 20
-21.17
 21
-21.07
  0
LINE
  8
0
 10
-85.365
 11
-85.37
 20
-21.07
 21
-20.971
  0
LINE
  8
0
 10
-85.37
 11
-85.375
 20
-20.971
 21
-20.871
  0
LINE
  8
0
 10
-85.375
 11
-85.379
 20
-20.871
 21
-20.77
  0
LINE
  8
0
 10
-85.379
 11
-85.382
 20
-20.77
 21
-20.67
  0
LINE
  8
0
 10
-85.382
 11
-85.384
 20
-20.67
 21
-20.571
  0
LINE
  8
0
 10
-85.384
 11
-85.385
 20
-20.571
 21
-20.471
  0
LINE
  8
0
 10
-32.249
 11
-32.249
 20
127.45
 21
127.55
  0
LINE
  8
0
 10
-32.249
 11
-32.245
 20
127.55
 21
127.649
  0
LINE
  8
0
 10
-32.245
 11
-32.236
 20
127.649
 21
127.748
  0
LINE
  8
0
 10
-32.236
 11
-32.223
 20
127.748
 21
127.847
  0
LINE
  8
0
 10
-32.223
 11
-32.206
 20
127.847
 21
127.945
  0
LINE
  8
0
 10
-32.206
 11
-32.184
 20
127.945
 21
128.042
  0
LINE
  8
0
 10
-32.184
 11
-32.158
 20
128.042
 21
128.138
  0
LINE
  8
0
 10
-32.158
 11
-32.127
 20
128.138
 21
128.233
  0
LINE
  8
0
 10
-32.127
 11
-32.093
 20
128.233
 21
128.326
  0
LINE
  8
0
 10
-32.093
 11
-32.054
 20
128.326
 21
128.418
  0
LINE
  8
0
 10
-32.054
 11
-32.011
 20
128.418
 21
128.508
  0
LINE
  8
0
 10
-32.011
 11
-31.965
 20
128.508
 21
128.596
  0
LINE
  8
0
 10
-31.965
 11
-31.915
 20
128.596
 21
128.682
  0
LINE
  8
0
 10
-31.915
 11
-31.86
 20
128.682
 21
128.766
  0
LINE
  8
0
 10
-31.86
 11
-31.803
 20
128.766
 21
128.847
  0
LINE
  8
0
 10
-31.803
 11
-31.741
 20
128.847
 21
128.925
  0
LINE
  8
0
 10
-31.741
 11
-31.677
 20
128.925
 21
129.001
  0
LINE
  8
0
 10
-31.677
 11
-31.608
 20
129.001
 21
129.073
  0
LINE
  8
0
 10
-31.608
 11
-31.537
 20
129.073
 21
129.143
  0
LINE
  8
0
 10
-31.537
 11
-31.463
 20
129.143
 21
129.209
  0
LINE
  8
0
 10
-31.463
 11
-31.386
 20
129.209
 21
129.272
  0
LINE
  8
0
 10
-31.386
 11
-31.306
 20
129.272
 21
129.332
  0
LINE
  8
0
 10
-31.306
 11
-31.224
 20
129.332
 21
129.388
  0
LINE
  8
0
 10
-31.224
 11
-31.139
 20
129.388
 21
129.44
  0
LINE
  8
0
 10
-31.139
 11
-31.052
 20
129.44
 21
129.489
  0
LINE
  8
0
 10
-31.052
 11
-30.963
 20
129.489
 21
129.533
  0
LINE
  8
0
 10
-30.963
 11
-30.873
 20
129.533
 21
129.574
  0
LINE
  8
0
 10
-30.873
 11
-30.78
 20
129.574
 21
129.61
  0
LINE
  8
0
 10
-30.78
 11
-30.686
 20
129.61
 21
129.643
  0
LINE
  8
0
 10
-30.686
 11
-30.59
 20
129.643
 21
129.671
  0
LINE
  8
0
 10
-30.59
 11
-30.494
 20
129.671
 21
129.695
  0
LINE
  8
0
 10
-30.494
 11
-30.396
 20
129.695
 21
129.715
  0
LINE
  8
0
 10
-30.396
 11
-30.298
 20
129.715
 21
129.73
  0
LINE
  8
0
 10
-30.298
 11
-30.199
 20
129.73
 21
129.741
  0
LINE
  8
0
 10
-30.199
 11
-30.1
 20
129.741
 21
129.748
  0
LINE
  8
0
 10
-30.1
 11
-30
 20
129.748
 21
129.75
  0
LINE
  8
0
 10
-30
 11
-29.9
 20
129.75
 21
129.748
  0
LINE
  8
0
 10
-29.9
 11
-29.801
 20
129.748
 21
129.741
  0
LINE
  8
0
 10
-29.801
 11
-29.702
 20
129.741
 21
129.73
  0
LINE
  8
0
 10
-29.702
 11
-29.604
 20
129.73
 21
129.715
  0
LINE
  8
0
 10
-29.604
 11
-29.506
 20
129.715
 21
129.695
  0
LINE
  8
0
 10
-29.506
 11
-29.41
 20
129.695
 21
129.671
  0
LINE
  8
0
 10
-29.41
 11
-29.314
 20
129.671
 21
129.643
  0
LINE
  8
0
 10
-29.314
 11
-29.22
 20
129.643
 21
129.61
  0
LINE
  8
0
 10
-29.22
 11
-29.127
 20
129.61
 21
129.574
  0
LINE
  8
0
 10
-29.127
 11
-29.037
 20
129.574
 21
129.533
  0
LINE
  8
0
 10
-29.037
 11
-28.948
 20
129.533
 21
129.489
  0
LINE
  8
0
 10
-28.948
 11
-28.861
 20
129.489
 21
129.44
  0
LINE
  8
0
 10
-28.861
 11
-28.776
 20
129.44
 21
129.388
  0
LINE
  8
0
 10
-28.776
 11
-28.694
 20
129.388
 21
129.332
  0
LINE
  8
0
 10
-28.694
 11
-28.614
 20
129.332
 21
129.272
  0
LINE
  8
0
 10
-28.614
 11
-28.537
 20
129.272
 21
129.209
  0
LINE
  8
0
 10
-28.537
 11
-28.463
 20
129.209
 21
129.143
  0
LINE
  8
0
 10
-28.463
 11
-28.392
 20
129.143
 21
129.073
  0
LINE
  8
0
 10
-28.392
 11
-28.323
 20
129.073
 21
129.001
  0
LINE
  8
0
 10
-28.323
 11
-28.259
 20
129.001
 21
128.925
  0
LINE
  8
0
 10
-28.259
 11
-28.197
 20
128.925
 21
128.847
  0
LINE
  8
0
 10
-28.197
 11
-28.14
 20
128.847
 21
128.766
  0
LINE
  8
0
 10
-28.14
 11
-28.085
 20
128.766
 21
128.682
  0
LINE
  8
0
 10
-28.085
 11
-28.035
 20
128.682
 21
128.596
  0
LINE
  8
0
 10
-28.035
 11
-27.989
 20
128.596
 21
128.508
  0
LINE
  8
0
 10
-27.989
 11
-27.946
 20
128.508
 21
128.418
  0
LINE
  8
0
 10
-27.946
 11
-27.907
 20
128.418
 21
128.326
  0
LINE
  8
0
 10
-27.907
 11
-27.873
 20
128.326
 21
128.233
  0
LINE
  8
0
 10
-27.873
 11
-27.842
 20
128.233
 21
128.138
  0
LINE
  8
0
 10
-27.842
 11
-27.816
 20
128.138
 21
128.042
  0
LINE
  8
0
 10
-27.816
 11
-27.794
 20
128.042
 21
127.945
  0
LINE
  8
0
 10
-27.794
 11
-27.777
 20
127.945
 21
127.847
  0
LINE
  8
0
 10
-27.777
 11
-27.764
 20
127.847
 21
127.748
  0
LINE
  8
0
 10
-27.764
 11
-27.755
 20
127.748
 21
127.649
  0
LINE
  8
0
 10
-27.755
 11
-27.751
 20
127.649
 21
127.55
  0
LINE
  8
0
 10
-27.751
 11
-27.751
 20
127.55
 21
127.45
  0
LINE
  8
0
 10
-27.751
 11
-27.755
 20
127.45
 21
127.351
  0
LINE
  8
0
 10
-27.755
 11
-27.764
 20
127.351
 21
127.252
  0
LINE
  8
0
 10
-27.764
 11
-27.777
 20
127.252
 21
127.153
  0
LINE
  8
0
 10
-27.777
 11
-27.794
 20
127.153
 21
127.055
  0
LINE
  8
0
 10
-27.794
 11
-27.816
 20
127.055
 21
126.958
  0
LINE
  8
0
 10
-27.816
 11
-27.842
 20
126.958
 21
126.862
  0
LINE
  8
0
 10
-27.842
 11
-27.873
 20
126.862
 21
126.767
  0
LINE
  8
0
 10
-27.873
 11
-27.907
 20
126.767
 21
126.674
  0
LINE
  8
0
 10
-27.907
 11
-27.946
 20
126.674
 21
126.582
  0
LINE
  8
0
 10
-27.946
 11
-27.989
 20
126.582
 21
126.492
  0
LINE
  8
0
 10
-27.989
 11
-28.035
 20
126.492
 21
126.404
  0
LINE
  8
0
 10
-28.035
 11
-28.085
 20
126.404
 21
126.318
  0
LINE
  8
0
 10
-28.085
 11
-28.14
 20
126.318
 21
126.234
  0
LINE
  8
0
 10
-28.14
 11
-28.197
 20
126.234
 21
126.153
  0
LINE
  8
0
 10
-28.197
 11
-28.259
 20
126.153
 21
126.075
  0
LINE
  8
0
 10
-28.259
 11
-28.323
 20
126.075
 21
125.999
  0
LINE
  8
0
 10
-28.323
 11
-28.392
 20
125.999
 21
125.927
  0
LINE
  8
0
 10
-28.392
 11
-28.463
 20
125.927
 21
125.857
  0
LINE
  8
0
 10
-28.463
 11
-28.537
 20
125.857
 21
125.791
  0
LINE
  8
0
 10
-28.537
 11
-28.614
 20
125.791
 21
125.728
  0
LINE
  8
0
 10
-28.614
 11
-28.694
 20
125.728
 21
125.668
  0
LINE
  8
0
 10
-28.694
 11
-28.776
 20
125.668
 21
125.612
  0
LINE
  8
0
 10
-28.776
 11
-28.861
 20
125.612
 21
125.56
  0
LINE
  8
0
 10
-28.861
 11
-28.948
 20
125.56
 21
125.511
  0
LINE
  8
0
 10
-28.948
 11
-29.037
 20
125.511
 21
125.467
  0
LINE
  8
0
 10
-29.037
 11
-29.127
 20
125.467
 21
125.426
  0
LINE
  8
0
 10
-29.127
 11
-29.22
 20
125.426
 21
125.39
  0
LINE
  8
0
 10
-29.22
 11
-29.314
 20
125.39
 21
125.357
  0
LINE
  8
0
 10
-29.314
 11
-29.41
 20
125.357
 21
125.329
  0
LINE
  8
0
 10
-29.41
 11
-29.506
 20
125.329
 21
125.305
  0
LINE
  8
0
 10
-29.506
 11
-29.604
 20
125.305
 21
125.285
  0
LINE
  8
0
 10
-29.604
 11
-29.702
 20
125.285
 21
125.27
  0
LINE
  8
0
 10
-29.702
 11
-29.801
 20
125.27
 21
125.259
  0
LINE
  8
0
 10
-29.801
 11
-29.9
 20
125.259
 21
125.252
  0
LINE
  8
0
 10
-29.9
 11
-30
 20
125.252
 21
125.25
  0
LINE
  8
0
 10
-30
 11
-30.1
 20
125.25
 21
125.252
  0
LINE
  8
0
 10
-30.1
 11
-30.199
 20
125.252
 21
125.259
  0
LINE
  8
0
 10
-30.199
 11
-30.298
 20
125.259
 21
125.27
  0
LINE
  8
0
 10
-30.298
 11
-30.396
 20
125.27
 21
125.285
  0
LINE
  8
0
 10
-30.396
 11
-30.494
 20
125.285
 21
125.305
  0
LINE
  8
0
 10
-30.494
 11
-30.59
 20
125.305
 21
125.329
  0
LINE
  8
0
 10
-30.59
 11
-30.686
 20
125.329
 21
125.357
  0
LINE
  8
0
 10
-30.686
 11
-30.78
 20
125.357
 21
125.39
  0
LINE
  8
0
 10
-30.78
 11
-30.873
 20
125.39
 21
125.426
  0
LINE
  8
0
 10
-30.873
 11
-30.963
 20
125.426
 21
125.467
  0
LINE
  8
0
 10
-30.963
 11
-31.052
 20
125.467
 21
125.511
  0
LINE
  8
0
 10
-31.052
 11
-31.139
 20
125.511
 21
125.56
  0
LINE
  8
0
 10
-31.139
 11
-31.224
 20
125.56
 21
125.612
  0
LINE
  8
0
 10
-31.224
 11
-31.306
 20
125.612
 21
125.668
  0
LINE
  8
0
 10
-31.306
 11
-31.386
 20
125.668
 21
125.728
  0
LINE
  8
0
 10
-31.386
 11
-31.463
 20
125.728
 21
125.791
  0
LINE
  8
0
 10
-31.463
 11
-31.537
 20
125.791
 21
125.857
  0
LINE
  8
0
 10
-31.537
 11
-31.608
 20
125.857
 21
125.927
  0
LINE
  8
0
 10
-31.608
 11
-31.677
 20
125.927
 21
125.999
  0
LINE
  8
0
 10
-31.677
 11
-31.741
 20
125.999
 21
126.075
  0
LINE
  8
0
 10
-31.741
 11
-31.803
 20
126.075
 21
126.153
  0
LINE
  8
0
 10
-31.803
 11
-31.86
 20
126.153
 21
126.234
  0
LINE
  8
0
 10
-31.86
 11
-31.915
 20
126.234
 21
126.318
  0
LINE
  8
0
 10
-31.915
 11
-31.965
 20
126.318
 21
126.404
  0
LINE
  8
0
 10
-31.965
 11
-32.011
 20
126.404
 21
126.492
  0
LINE
  8
0
 10
-32.011
 11
-32.054
 20
126.492
 21
126.582
  0
LINE
  8
0
 10
-32.054
 11
-32.093
 20
126.582
 21
126.674
  0
LINE
  8
0
 10
-32.093
 11
-32.127
 20
126.674
 21
126.767
  0
LINE
  8
0
 10
-32.127
 11
-32.158
 20
126.767
 21
126.862
  0
LINE
  8
0
 10
-32.158
 11
-32.184
 20
126.862
 21
126.958
  0
LINE
  8
0
 10
-32.184
 11
-32.206
 20
126.958
 21
127.055
  0
LINE
  8
0
 10
-32.206
 11
-32.223
 20
127.055
 21
127.153
  0
LINE
  8
0
 10
-32.223
 11
-32.236
 20
127.153
 21
127.252
  0
LINE
  8
0
 10
-32.236
 11
-32.245
 20
127.252
 21
127.351
  0
LINE
  8
0
 10
-32.245
 11
-32.249
 20
127.351
 21
127.45
  0
LINE
  8
0
 10
-19.898
 11
-19.896
 20
123.699
 21
123.799
  0
LINE
  8
0
 10
-19.896
 11
-19.89
 20
123.799
 21
123.898
  0
LINE
  8
0
 10
-19.89
 11
-19.879
 20
123.898
 21
123.997
  0
LINE
  8
0
 10
-19.879
 11
-19.863
 20
123.997
 21
124.096
  0
LINE
  8
0
 10
-19.863
 11
-19.842
 20
124.096
 21
124.193
  0
LINE
  8
0
 10
-19.842
 11
-19.817
 20
124.193
 21
124.289
  0
LINE
  8
0
 10
-19.817
 11
-19.785
 20
124.289
 21
124.385
  0
LINE
  8
0
 10
-19.785
 11
-19.75
 20
124.385
 21
124.478
  0
LINE
  8
0
 10
-19.75
 11
-19.71
 20
124.478
 21
124.569
  0
LINE
  8
0
 10
-19.71
 11
-19.666
 20
124.569
 21
124.658
  0
LINE
  8
0
 10
-19.666
 11
-19.617
 20
124.658
 21
124.745
  0
LINE
  8
0
 10
-19.617
 11
-19.564
 20
124.745
 21
124.83
  0
LINE
  8
0
 10
-19.564
 11
-19.507
 20
124.83
 21
124.912
  0
LINE
  8
0
 10
-19.507
 11
-19.445
 20
124.912
 21
124.99
  0
LINE
  8
0
 10
-19.445
 11
-19.381
 20
124.99
 21
125.065
  0
LINE
  8
0
 10
-19.381
 11
-19.312
 20
125.065
 21
125.138
  0
LINE
  8
0
 10
-19.312
 11
-19.239
 20
125.138
 21
125.207
  0
LINE
  8
0
 10
-19.239
 11
-19.165
 20
125.207
 21
125.271
  0
LINE
  8
0
 10
-19.165
 11
-19.086
 20
125.271
 21
125.333
  0
LINE
  8
0
 10
-19.086
 11
-19.004
 20
125.333
 21
125.39
  0
LINE
  8
0
 10
-19.004
 11
-18.92
 20
125.39
 21
125.443
  0
LINE
  8
0
 10
-18.92
 11
-18.832
 20
125.443
 21
125.492
  0
LINE
  8
0
 10
-18.832
 11
-18.743
 20
125.492
 21
125.537
  0
LINE
  8
0
 10
-18.743
 11
-18.652
 20
125.537
 21
125.575
  0
LINE
  8
0
 10
-18.652
 11
-18.558
 20
125.575
 21
125.611
  0
LINE
  8
0
 10
-18.558
 11
-18.463
 20
125.611
 21
125.641
  0
LINE
  8
0
 10
-18.463
 11
-12.571
 20
125.641
 21
127.22
  0
LINE
  8
0
 10
-12.571
 11
-12.474
 20
127.22
 21
127.241
  0
LINE
  8
0
 10
-12.474
 11
-12.375
 20
127.241
 21
127.257
  0
LINE
  8
0
 10
-12.375
 11
-12.277
 20
127.257
 21
127.269
  0
LINE
  8
0
 10
-12.277
 11
-12.177
 20
127.269
 21
127.275
  0
LINE
  8
0
 10
-12.177
 11
-12.077
 20
127.275
 21
127.276
  0
LINE
  8
0
 10
-12.077
 11
-11.978
 20
127.276
 21
127.273
  0
LINE
  8
0
 10
-11.978
 11
-11.878
 20
127.273
 21
127.264
  0
LINE
  8
0
 10
-11.878
 11
-11.779
 20
127.264
 21
127.25
  0
LINE
  8
0
 10
-11.779
 11
-11.682
 20
127.25
 21
127.232
  0
LINE
  8
0
 10
-11.682
 11
-11.585
 20
127.232
 21
127.208
  0
LINE
  8
0
 10
-11.585
 11
-11.489
 20
127.208
 21
127.18
  0
LINE
  8
0
 10
-11.489
 11
-11.395
 20
127.18
 21
127.147
  0
LINE
  8
0
 10
-11.395
 11
-11.303
 20
127.147
 21
127.11
  0
LINE
  8
0
 10
-11.303
 11
-11.213
 20
127.11
 21
127.068
  0
LINE
  8
0
 10
-11.213
 11
-11.124
 20
127.068
 21
127.021
  0
LINE
  8
0
 10
-11.124
 11
-11.038
 20
127.021
 21
126.97
  0
LINE
  8
0
 10
-11.038
 11
-10.955
 20
126.97
 21
126.915
  0
LINE
  8
0
 10
-10.955
 11
-10.875
 20
126.915
 21
126.856
  0
LINE
  8
0
 10
-10.875
 11
-10.798
 20
126.856
 21
126.793
  0
LINE
  8
0
 10
-10.798
 11
-10.723
 20
126.793
 21
126.726
  0
LINE
  8
0
 10
-10.723
 11
-10.654
 20
126.726
 21
126.655
  0
LINE
  8
0
 10
-10.654
 11
-10.586
 20
126.655
 21
126.581
  0
LINE
  8
0
 10
-10.586
 11
-10.523
 20
126.581
 21
126.504
  0
LINE
  8
0
 10
-10.523
 11
-10.464
 20
126.504
 21
126.423
  0
LINE
  8
0
 10
-10.464
 11
-10.409
 20
126.423
 21
126.341
  0
LINE
  8
0
 10
-10.409
 11
-10.358
 20
126.341
 21
126.255
  0
LINE
  8
0
 10
-10.358
 11
-10.312
 20
126.255
 21
126.166
  0
LINE
  8
0
 10
-10.312
 11
-10.269
 20
126.166
 21
126.076
  0
LINE
  8
0
 10
-10.269
 11
-10.232
 20
126.076
 21
125.984
  0
LINE
  8
0
 10
-10.232
 11
-10.198
 20
125.984
 21
125.89
  0
LINE
  8
0
 10
-10.198
 11
-10.17
 20
125.89
 21
125.794
  0
LINE
  8
0
 10
-10.17
 11
-10.146
 20
125.794
 21
125.697
  0
LINE
  8
0
 10
-10.146
 11
-10.129
 20
125.697
 21
125.599
  0
LINE
  8
0
 10
-10.129
 11
-10.114
 20
125.599
 21
125.501
  0
LINE
  8
0
 10
-10.114
 11
-10.107
 20
125.501
 21
125.401
  0
LINE
  8
0
 10
-10.107
 11
-10.102
 20
125.401
 21
125.301
  0
LINE
  8
0
 10
-10.102
 11
-10.104
 20
125.301
 21
125.201
  0
LINE
  8
0
 10
-10.104
 11
-10.11
 20
125.201
 21
125.102
  0
LINE
  8
0
 10
-10.11
 11
-10.121
 20
125.102
 21
125.003
  0
LINE
  8
0
 10
-10.121
 11
-10.137
 20
125.003
 21
124.904
  0
LINE
  8
0
 10
-10.137
 11
-10.158
 20
124.904
 21
124.807
  0
LINE
  8
0
 10
-10.158
 11
-10.183
 20
124.807
 21
124.711
  0
LINE
  8
0
 10
-10.183
 11
-10.215
 20
124.711
 21
124.615
  0
LINE
  8
0
 10
-10.215
 11
-10.25
 20
124.615
 21
124.522
  0
LINE
  8
0
 10
-10.25
 11
-10.29
 20
124.522
 21
124.431
  0
LINE
  8
0
 10
-10.29
 11
-10.334
 20
124.431
 21
124.342
  0
LINE
  8
0
 10
-10.334
 11
-10.383
 20
124.342
 21
124.255
  0
LINE
  8
0
 10
-10.383
 11
-10.436
 20
124.255
 21
124.17
  0
LINE
  8
0
 10
-10.436
 11
-10.493
 20
124.17
 21
124.088
  0
LINE
  8
0
 10
-10.493
 11
-10.555
 20
124.088
 21
124.01
  0
LINE
  8
0
 10
-10.555
 11
-10.619
 20
124.01
 21
123.935
  0
LINE
  8
0
 10
-10.619
 11
-10.688
 20
123.935
 21
123.862
  0
LINE
  8
0
 10
-10.688
 11
-10.761
 20
123.862
 21
123.793
  0
LINE
  8
0
 10
-10.761
 11
-10.835
 20
123.793
 21
123.729
  0
LINE
  8
0
 10
-10.835
 11
-10.914
 20
123.729
 21
123.667
  0
LINE
  8
0
 10
-10.914
 11
-10.996
 20
123.667
 21
123.61
  0
LINE
  8
0
 10
-10.996
 11
-11.08
 20
123.61
 21
123.557
  0
LINE
  8
0
 10
-11.08
 11
-11.168
 20
123.557
 21
123.508
  0
LINE
  8
0
 10
-11.168
 11
-11.257
 20
123.508
 21
123.463
  0
LINE
  8
0
 10
-11.257
 11
-11.348
 20
123.463
 21
123.425
  0
LINE
  8
0
 10
-11.348
 11
-11.442
 20
123.425
 21
123.389
  0
LINE
  8
0
 10
-11.442
 11
-11.537
 20
123.389
 21
123.359
  0
LINE
  8
0
 10
-11.537
 11
-17.429
 20
123.359
 21
121.78
  0
LINE
  8
0
 10
-17.429
 11
-17.526
 20
121.78
 21
121.759
  0
LINE
  8
0
 10
-17.526
 11
-17.625
 20
121.759
 21
121.743
  0
LINE
  8
0
 10
-17.625
 11
-17.723
 20
121.743
 21
121.731
  0
LINE
  8
0
 10
-17.723
 11
-17.823
 20
121.731
 21
121.725
  0
LINE
  8
0
 10
-17.823
 11
-17.923
 20
121.725
 21
121.724
  0
LINE
  8
0
 10
-17.923
 11
-18.022
 20
121.724
 21
121.727
  0
LINE
  8
0
 10
-18.022
 11
-18.122
 20
121.727
 21
121.736
  0
LINE
  8
0
 10
-18.122
 11
-18.221
 20
121.736
 21
121.75
  0
LINE
  8
0
 10
-18.221
 11
-18.318
 20
121.75
 21
121.768
  0
LINE
  8
0
 10
-18.318
 11
-18.415
 20
121.768
 21
121.792
  0
LINE
  8
0
 10
-18.415
 11
-18.511
 20
121.792
 21
121.82
  0
LINE
  8
0
 10
-18.511
 11
-18.605
 20
121.82
 21
121.853
  0
LINE
  8
0
 10
-18.605
 11
-18.697
 20
121.853
 21
121.89
  0
LINE
  8
0
 10
-18.697
 11
-18.787
 20
121.89
 21
121.932
  0
LINE
  8
0
 10
-18.787
 11
-18.876
 20
121.932
 21
121.979
  0
LINE
  8
0
 10
-18.876
 11
-18.962
 20
121.979
 21
122.03
  0
LINE
  8
0
 10
-18.962
 11
-19.045
 20
122.03
 21
122.085
  0
LINE
  8
0
 10
-19.045
 11
-19.125
 20
122.085
 21
122.144
  0
LINE
  8
0
 10
-19.125
 11
-19.202
 20
122.144
 21
122.207
  0
LINE
  8
0
 10
-19.202
 11
-19.277
 20
122.207
 21
122.274
  0
LINE
  8
0
 10
-19.277
 11
-19.346
 20
122.274
 21
122.345
  0
LINE
  8
0
 10
-19.346
 11
-19.414
 20
122.345
 21
122.419
  0
LINE
  8
0
 10
-19.414
 11
-19.477
 20
122.419
 21
122.496
  0
LINE
  8
0
 10
-19.477
 11
-19.536
 20
122.496
 21
122.577
  0
LINE
  8
0
 10
-19.536
 11
-19.591
 20
122.577
 21
122.659
  0
LINE
  8
0
 10
-19.591
 11
-19.642
 20
122.659
 21
122.745
  0
LINE
  8
0
 10
-19.642
 11
-19.688
 20
122.745
 21
122.834
  0
LINE
  8
0
 10
-19.688
 11
-19.731
 20
122.834
 21
122.924
  0
LINE
  8
0
 10
-19.731
 11
-19.768
 20
122.924
 21
123.016
  0
LINE
  8
0
 10
-19.768
 11
-19.802
 20
123.016
 21
123.11
  0
LINE
  8
0
 10
-19.802
 11
-19.83
 20
123.11
 21
123.206
  0
LINE
  8
0
 10
-19.83
 11
-19.854
 20
123.206
 21
123.303
  0
LINE
  8
0
 10
-19.854
 11
-19.871
 20
123.303
 21
123.401
  0
LINE
  8
0
 10
-19.871
 11
-19.886
 20
123.401
 21
123.499
  0
LINE
  8
0
 10
-19.886
 11
-19.893
 20
123.499
 21
123.599
  0
LINE
  8
0
 10
-19.893
 11
-19.898
 20
123.599
 21
123.699
  0
LINE
  8
0
 10
27.751
 11
27.751
 20
127.45
 21
127.55
  0
LINE
  8
0
 10
27.751
 11
27.755
 20
127.55
 21
127.649
  0
LINE
  8
0
 10
27.755
 11
27.764
 20
127.649
 21
127.748
  0
LINE
  8
0
 10
27.764
 11
27.777
 20
127.748
 21
127.847
  0
LINE
  8
0
 10
27.777
 11
27.794
 20
127.847
 21
127.945
  0
LINE
  8
0
 10
27.794
 11
27.816
 20
127.945
 21
128.042
  0
LINE
  8
0
 10
27.816
 11
27.842
 20
128.042
 21
128.138
  0
LINE
  8
0
 10
27.842
 11
27.873
 20
128.138
 21
128.233
  0
LINE
  8
0
 10
27.873
 11
27.907
 20
128.233
 21
128.326
  0
LINE
  8
0
 10
27.907
 11
27.946
 20
128.326
 21
128.418
  0
LINE
  8
0
 10
27.946
 11
27.989
 20
128.418
 21
128.508
  0
LINE
  8
0
 10
27.989
 11
28.035
 20
128.508
 21
128.596
  0
LINE
  8
0
 10
28.035
 11
28.085
 20
128.596
 21
128.682
  0
LINE
  8
0
 10
28.085
 11
28.14
 20
128.682
 21
128.766
  0
LINE
  8
0
 10
28.14
 11
28.197
 20
128.766
 21
128.847
  0
LINE
  8
0
 10
28.197
 11
28.259
 20
128.847
 21
128.925
  0
LINE
  8
0
 10
28.259
 11
28.323
 20
128.925
 21
129.001
  0
LINE
  8
0
 10
28.323
 11
28.392
 20
129.001
 21
129.073
  0
LINE
  8
0
 10
28.392
 11
28.463
 20
129.073
 21
129.143
  0
LINE
  8
0
 10
28.463
 11
28.537
 20
129.143
 21
129.209
  0
LINE
  8
0
 10
28.537
 11
28.614
 20
129.209
 21
129.272
  0
LINE
  8
0
 10
28.614
 11
28.694
 20
129.272
 21
129.332
  0
LINE
  8
0
 10
28.694
 11
28.776
 20
129.332
 21
129.388
  0
LINE
  8
0
 10
28.776
 11
28.861
 20
129.388
 21
129.44
  0
LINE
  8
0
 10
28.861
 11
28.948
 20
129.44
 21
129.489
  0
LINE
  8
0
 10
28.948
 11
29.037
 20
129.489
 21
129.533
  0
LINE
  8
0
 10
29.037
 11
29.127
 20
129.533
 21
129.574
  0
LINE
  8
0
 10
29.127
 11
29.22
 20
129.574
 21
129.61
  0
LINE
  8
0
 10
29.22
 11
29.314
 20
129.61
 21
129.643
  0
LINE
  8
0
 10
29.314
 11
29.41
 20
129.643
 21
129.671
  0
LINE
  8
0
 10
29.41
 11
29.506
 20
129.671
 21
129.695
  0
LINE
  8
0
 10
29.506
 11
29.604
 20
129.695
 21
129.715
  0
LINE
  8
0
 10
29.604
 11
29.702
 20
129.715
 21
129.73
  0
LINE
  8
0
 10
29.702
 11
29.801
 20
129.73
 21
129.741
  0
LINE
  8
0
 10
29.801
 11
29.9
 20
129.741
 21
129.748
  0
LINE
  8
0
 10
29.9
 11
30
 20
129.748
 21
129.75
  0
LINE
  8
0
 10
30
 11
30.1
 20
129.75
 21
129.748
  0
LINE
  8
0
 10
30.1
 11
30.199
 20
129.748
 21
129.741
  0
LINE
  8
0
 10
30.199
 11
30.298
 20
129.741
 21
129.73
  0
LINE
  8
0
 10
30.298
 11
30.396
 20
129.73
 21
129.715
  0
LINE
  8
0
 10
30.396
 11
30.494
 20
129.715
 21
129.695
  0
LINE
  8
0
 10
30.494
 11
30.59
 20
129.695
 21
129.671
  0
LINE
  8
0
 10
30.59
 11
30.686
 20
129.671
 21
129.643
  0
LINE
  8
0
 10
30.686
 11
30.78
 20
129.643
 21
129.61
  0
LINE
  8
0
 10
30.78
 11
30.873
 20
129.61
 21
129.574
  0
LINE
  8
0
 10
30.873
 11
30.963
 20
129.574
 21
129.533
  0
LINE
  8
0
 10
30.963
 11
31.052
 20
129.533
 21
129.489
  0
LINE
  8
0
 10
31.052
 11
31.139
 20
129.489
 21
129.44
  0
LINE
  8
0
 10
31.139
 11
31.224
 20
129.44
 21
129.388
  0
LINE
  8
0
 10
31.224
 11
31.306
 20
129.388
 21
129.332
  0
LINE
  8
0
 10
31.306
 11
31.386
 20
129.332
 21
129.272
  0
LINE
  8
0
 10
31.386
 11
31.463
 20
129.272
 21
129.209
  0
LINE
  8
0
 10
31.463
 11
31.537
 20
129.209
 21
129.143
  0
LINE
  8
0
 10
31.537
 11
31.608
 20
129.143
 21
129.073
  0
LINE
  8
0
 10
31.608
 11
31.677
 20
129.073
 21
129.001
  0
LINE
  8
0
 10
31.677
 11
31.741
 20
129.001
 21
128.925
  0
LINE
  8
0
 10
31.741
 11
31.803
 20
128.925
 21
128.847
  0
LINE
  8
0
 10
31.803
 11
31.86
 20
128.847
 21
128.766
  0
LINE
  8
0
 10
31.86
 11
31.915
 20
128.766
 21
128.682
  0
LINE
  8
0
 10
31.915
 11
31.965
 20
128.682
 21
128.596
  0
LINE
  8
0
 10
31.965
 11
32.011
 20
128.596
 21
128.508
  0
LINE
  8
0
 10
32.011
 11
32.054
 20
128.508
 21
128.418
  0
LINE
  8
0
 10
32.054
 11
32.093
 20
128.418
 21
128.326
  0
LINE
  8
0
 10
32.093
 11
32.127
 20
128.326
 21
128.233
  0
LINE
  8
0
 10
32.127
 11
32.158
 20
128.233
 21
128.138
  0
LINE
  8
0
 10
32.158
 11
32.184
 20
128.138
 21
128.042
  0
LINE
  8
0
 10
32.184
 11
32.206
 20
128.042
 21
127.945
  0
LINE
  8
0
 10
32.206
 11
32.223
 20
127.945
 21
127.847
  0
LINE
  8
0
 10
32.223
 11
32.236
 20
127.847
 21
127.748
  0
LINE
  8
0
 10
32.236
 11
32.245
 20
127.748
 21
127.649
  0
LINE
  8
0
 10
32.245
 11
32.249
 20
127.649
 21
127.55
  0
LINE
  8
0
 10
32.249
 11
32.249
 20
127.55
 21
127.45
  0
LINE
  8
0
 10
32.249
 11
32.245
 20
127.45
 21
127.351
  0
LINE
  8
0
 10
32.245
 11
32.236
 20
127.351
 21
127.252
  0
LINE
  8
0
 10
32.236
 11
32.223
 20
127.252
 21
127.153
  0
LINE
  8
0
 10
32.223
 11
32.206
 20
127.153
 21
127.055
  0
LINE
  8
0
 10
32.206
 11
32.184
 20
127.055
 21
126.958
  0
LINE
  8
0
 10
32.184
 11
32.158
 20
126.958
 21
126.862
  0
LINE
  8
0
 10
32.158
 11
32.127
 20
126.862
 21
126.767
  0
LINE
  8
0
 10
32.127
 11
32.093
 20
126.767
 21
126.674
  0
LINE
  8
0
 10
32.093
 11
32.054
 20
126.674
 21
126.582
  0
LINE
  8
0
 10
32.054
 11
32.011
 20
126.582
 21
126.492
  0
LINE
  8
0
 10
32.011
 11
31.965
 20
126.492
 21
126.404
  0
LINE
  8
0
 10
31.965
 11
31.915
 20
126.404
 21
126.318
  0
LINE
  8
0
 10
31.915
 11
31.86
 20
126.318
 21
126.234
  0
LINE
  8
0
 10
31.86
 11
31.803
 20
126.234
 21
126.153
  0
LINE
  8
0
 10
31.803
 11
31.741
 20
126.153
 21
126.075
  0
LINE
  8
0
 10
31.741
 11
31.677
 20
126.075
 21
125.999
  0
LINE
  8
0
 10
31.677
 11
31.608
 20
125.999
 21
125.927
  0
LINE
  8
0
 10
31.608
 11
31.537
 20
125.927
 21
125.857
  0
LINE
  8
0
 10
31.537
 11
31.463
 20
125.857
 21
125.791
  0
LINE
  8
0
 10
31.463
 11
31.386
 20
125.791
 21
125.728
  0
LINE
  8
0
 10
31.386
 11
31.306
 20
125.728
 21
125.668
  0
LINE
  8
0
 10
31.306
 11
31.224
 20
125.668
 21
125.612
  0
LINE
  8
0
 10
31.224
 11
31.139
 20
125.612
 21
125.56
  0
LINE
  8
0
 10
31.139
 11
31.052
 20
125.56
 21
125.511
  0
LINE
  8
0
 10
31.052
 11
30.963
 20
125.511
 21
125.467
  0
LINE
  8
0
 10
30.963
 11
30.873
 20
125.467
 21
125.426
  0
LINE
  8
0
 10
30.873
 11
30.78
 20
125.426
 21
125.39
  0
LINE
  8
0
 10
30.78
 11
30.686
 20
125.39
 21
125.357
  0
LINE
  8
0
 10
30.686
 11
30.59
 20
125.357
 21
125.329
  0
LINE
  8
0
 10
30.59
 11
30.494
 20
125.329
 21
125.305
  0
LINE
  8
0
 10
30.494
 11
30.396
 20
125.305
 21
125.285
  0
LINE
  8
0
 10
30.396
 11
30.298
 20
125.285
 21
125.27
  0
LINE
  8
0
 10
30.298
 11
30.199
 20
125.27
 21
125.259
  0
LINE
  8
0
 10
30.199
 11
30.1
 20
125.259
 21
125.252
  0
LINE
  8
0
 10
30.1
 11
30
 20
125.252
 21
125.25
  0
LINE
  8
0
 10
30
 11
29.9
 20
125.25
 21
125.252
  0
LINE
  8
0
 10
29.9
 11
29.801
 20
125.252
 21
125.259
  0
LINE
  8
0
 10
29.801
 11
29.702
 20
125.259
 21
125.27
  0
LINE
  8
0
 10
29.702
 11
29.604
 20
125.27
 21
125.285
  0
LINE
  8
0
 10
29.604
 11
29.506
 20
125.285
 21
125.305
  0
LINE
  8
0
 10
29.506
 11
29.41
 20
125.305
 21
125.329
  0
LINE
  8
0
 10
29.41
 11
29.314
 20
125.329
 21
125.357
  0
LINE
  8
0
 10
29.314
 11
29.22
 20
125.357
 21
125.39
  0
LINE
  8
0
 10
29.22
 11
29.127
 20
125.39
 21
125.426
  0
LINE
  8
0
 10
29.127
 11
29.037
 20
125.426
 21
125.467
  0
LINE
  8
0
 10
29.037
 11
28.948
 20
125.467
 21
125.511
  0
LINE
  8
0
 10
28.948
 11
28.861
 20
125.511
 21
125.56
  0
LINE
  8
0
 10
28.861
 11
28.776
 20
125.56
 21
125.612
  0
LINE
  8
0
 10
28.776
 11
28.694
 20
125.612
 21
125.668
  0
LINE
  8
0
 10
28.694
 11
28.614
 20
125.668
 21
125.728
  0
LINE
  8
0
 10
28.614
 11
28.537
 20
125.728
 21
125.791
  0
LINE
  8
0
 10
28.537
 11
28.463
 20
125.791
 21
125.857
  0
LINE
  8
0
 10
28.463
 11
28.392
 20
125.857
 21
125.927
  0
LINE
  8
0
 10
28.392
 11
28.323
 20
125.927
 21
125.999
  0
LINE
  8
0
 10
28.323
 11
28.259
 20
125.999
 21
126.075
  0
LINE
  8
0
 10
28.259
 11
28.197
 20
126.075
 21
126.153
  0
LINE
  8
0
 10
28.197
 11
28.14
 20
126.153
 21
126.234
  0
LINE
  8
0
 10
28.14
 11
28.085
 20
126.234
 21
126.318
  0
LINE
  8
0
 10
28.085
 11
28.035
 20
126.318
 21
126.404
  0
LINE
  8
0
 10
28.035
 11
27.989
 20
126.404
 21
126.492
  0
LINE
  8
0
 10
27.989
 11
27.946
 20
126.492
 21
126.582
  0
LINE
  8
0
 10
27.946
 11
27.907
 20
126.582
 21
126.674
  0
LINE
  8
0
 10
27.907
 11
27.873
 20
126.674
 21
126.767
  0
LINE
  8
0
 10
27.873
 11
27.842
 20
126.767
 21
126.862
  0
LINE
  8
0
 10
27.842
 11
27.816
 20
126.862
 21
126.958
  0
LINE
  8
0
 10
27.816
 11
27.794
 20
126.958
 21
127.055
  0
LINE
  8
0
 10
27.794
 11
27.777
 20
127.055
 21
127.153
  0
LINE
  8
0
 10
27.777
 11
27.764
 20
127.153
 21
127.252
  0
LINE
  8
0
 10
27.764
 11
27.755
 20
127.252
 21
127.351
  0
LINE
  8
0
 10
27.755
 11
27.751
 20
127.351
 21
127.45
  0
LINE
  8
0
 10
93.169
 11
93.17
 20
-89.747
 21
-89.647
  0
LINE
  8
0
 10
93.17
 11
93.176
 20
-89.647
 21
-89.548
  0
LINE
  8
0
 10
93.176
 11
93.186
 20
-89.548
 21
-89.45
  0
LINE
  8
0
 10
93.186
 11
93.201
 20
-89.45
 21
-89.351
  0
LINE
  8
0
 10
93.201
 11
93.219
 20
-89.351
 21
-89.253
  0
LINE
  8
0
 10
93.219
 11
93.243
 20
-89.253
 21
-89.156
  0
LINE
  8
0
 10
93.243
 11
93.27
 20
-89.156
 21
-89.061
  0
LINE
  8
0
 10
93.27
 11
93.302
 20
-89.061
 21
-88.966
  0
LINE
  8
0
 10
93.302
 11
93.338
 20
-88.966
 21
-88.874
  0
LINE
  8
0
 10
93.338
 11
93.378
 20
-88.874
 21
-88.783
  0
LINE
  8
0
 10
93.378
 11
93.421
 20
-88.783
 21
-88.693
  0
LINE
  8
0
 10
93.421
 11
93.47
 20
-88.693
 21
-88.606
  0
LINE
  8
0
 10
93.47
 11
93.521
 20
-88.606
 21
-88.52
  0
LINE
  8
0
 10
93.521
 11
93.577
 20
-88.52
 21
-88.438
  0
LINE
  8
0
 10
93.577
 11
93.636
 20
-88.438
 21
-88.358
  0
LINE
  8
0
 10
93.636
 11
93.698
 20
-88.358
 21
-88.28
  0
LINE
  8
0
 10
93.698
 11
93.764
 20
-88.28
 21
-88.205
  0
LINE
  8
0
 10
93.764
 11
93.833
 20
-88.205
 21
-88.134
  0
LINE
  8
0
 10
93.833
 11
93.905
 20
-88.134
 21
-88.065
  0
LINE
  8
0
 10
93.905
 11
93.981
 20
-88.065
 21
-88
  0
LINE
  8
0
 10
93.981
 11
94.059
 20
-88
 21
-87.938
  0
LINE
  8
0
 10
94.059
 11
94.139
 20
-87.938
 21
-87.88
  0
LINE
  8
0
 10
94.139
 11
94.222
 20
-87.88
 21
-87.825
  0
LINE
  8
0
 10
94.222
 11
94.308
 20
-87.825
 21
-87.774
  0
LINE
  8
0
 10
94.308
 11
94.395
 20
-87.774
 21
-87.727
  0
LINE
  8
0
 10
94.395
 11
94.485
 20
-87.727
 21
-87.684
  0
LINE
  8
0
 10
94.485
 11
94.577
 20
-87.684
 21
-87.644
  0
LINE
  8
0
 10
94.577
 11
94.67
 20
-87.644
 21
-87.609
  0
LINE
  8
0
 10
94.67
 11
94.764
 20
-87.609
 21
-87.578
  0
LINE
  8
0
 10
94.764
 11
94.86
 20
-87.578
 21
-87.552
  0
LINE
  8
0
 10
94.86
 11
94.957
 20
-87.552
 21
-87.528
  0
LINE
  8
0
 10
94.957
 11
95.055
 20
-87.528
 21
-87.511
  0
LINE
  8
0
 10
95.055
 11
95.153
 20
-87.511
 21
-87.496
  0
LINE
  8
0
 10
95.153
 11
95.252
 20
-87.496
 21
-87.487
  0
LINE
  8
0
 10
95.252
 11
95.352
 20
-87.487
 21
-87.481
  0
LINE
  8
0
 10
95.352
 11
95.452
 20
-87.481
 21
-87.481
  0
LINE
  8
0
 10
95.452
 11
95.551
 20
-87.481
 21
-87.485
  0
LINE
  8
0
 10
95.551
 11
95.65
 20
-87.485
 21
-87.493
  0
LINE
  8
0
 10
95.65
 11
95.749
 20
-87.493
 21
-87.505
  0
LINE
  8
0
 10
95.749
 11
95.847
 20
-87.505
 21
-87.522
  0
LINE
  8
0
 10
95.847
 11
95.945
 20
-87.522
 21
-87.543
  0
LINE
  8
0
 10
95.945
 11
96.041
 20
-87.543
 21
-87.568
  0
LINE
  8
0
 10
96.041
 11
96.136
 20
-87.568
 21
-87.598
  0
LINE
  8
0
 10
96.136
 11
96.229
 20
-87.598
 21
-87.632
  0
LINE
  8
0
 10
96.229
 11
96.321
 20
-87.632
 21
-87.67
  0
LINE
  8
0
 10
96.321
 11
96.412
 20
-87.67
 21
-87.712
  0
LINE
  8
0
 10
96.412
 11
96.499
 20
-87.712
 21
-87.758
  0
LINE
  8
0
 10
96.499
 11
96.586
 20
-87.758
 21
-87.808
  0
LINE
  8
0
 10
96.586
 11
96.67
 20
-87.808
 21
-87.861
  0
LINE
  8
0
 10
96.67
 11
96.751
 20
-87.861
 21
-87.918
  0
LINE
  8
0
 10
96.751
 11
96.83
 20
-87.918
 21
-87.979
  0
LINE
  8
0
 10
96.83
 11
96.907
 20
-87.979
 21
-88.043
  0
LINE
  8
0
 10
96.907
 11
96.98
 20
-88.043
 21
-88.11
  0
LINE
  8
0
 10
96.98
 11
97.05
 20
-88.11
 21
-88.181
  0
LINE
  8
0
 10
97.05
 11
97.117
 20
-88.181
 21
-88.255
  0
LINE
  8
0
 10
97.117
 11
97.18
 20
-88.255
 21
-88.331
  0
LINE
  8
0
 10
97.18
 11
97.24
 20
-88.331
 21
-88.411
  0
LINE
  8
0
 10
97.24
 11
97.297
 20
-88.411
 21
-88.493
  0
LINE
  8
0
 10
97.297
 11
97.35
 20
-88.493
 21
-88.577
  0
LINE
  8
0
 10
97.35
 11
97.399
 20
-88.577
 21
-88.663
  0
LINE
  8
0
 10
97.399
 11
97.445
 20
-88.663
 21
-88.753
  0
LINE
  8
0
 10
97.445
 11
97.486
 20
-88.753
 21
-88.843
  0
LINE
  8
0
 10
97.486
 11
97.523
 20
-88.843
 21
-88.936
  0
LINE
  8
0
 10
97.523
 11
97.557
 20
-88.936
 21
-89.029
  0
LINE
  8
0
 10
97.557
 11
97.584
 20
-89.029
 21
-89.125
  0
LINE
  8
0
 10
97.584
 11
97.61
 20
-89.125
 21
-89.221
  0
LINE
  8
0
 10
97.61
 11
97.63
 20
-89.221
 21
-89.318
  0
LINE
  8
0
 10
97.63
 11
97.646
 20
-89.318
 21
-89.416
  0
LINE
  8
0
 10
97.646
 11
97.658
 20
-89.416
 21
-89.516
  0
LINE
  8
0
 10
97.658
 11
97.665
 20
-89.516
 21
-89.615
  0
LINE
  8
0
 10
97.665
 11
97.668
 20
-89.615
 21
-89.714
  0
LINE
  8
0
 10
97.668
 11
97.667
 20
-89.714
 21
-89.814
  0
LINE
  8
0
 10
97.667
 11
97.66
 20
-89.814
 21
-89.913
  0
LINE
  8
0
 10
97.66
 11
97.651
 20
-89.913
 21
-90.012
  0
LINE
  8
0
 10
97.651
 11
97.636
 20
-90.012
 21
-90.11
  0
LINE
  8
0
 10
97.636
 11
97.617
 20
-90.11
 21
-90.208
  0
LINE
  8
0
 10
97.617
 11
97.593
 20
-90.208
 21
-90.305
  0
LINE
  8
0
 10
97.593
 11
97.566
 20
-90.305
 21
-90.4
  0
LINE
  8
0
 10
97.566
 11
97.534
 20
-90.4
 21
-90.495
  0
LINE
  8
0
 10
97.534
 11
97.498
 20
-90.495
 21
-90.588
  0
LINE
  8
0
 10
97.498
 11
97.459
 20
-90.588
 21
-90.679
  0
LINE
  8
0
 10
97.459
 11
97.415
 20
-90.679
 21
-90.768
  0
LINE
  8
0
 10
97.415
 11
97.367
 20
-90.768
 21
-90.856
  0
LINE
  8
0
 10
97.367
 11
97.315
 20
-90.856
 21
-90.941
  0
LINE
  8
0
 10
97.315
 11
97.26
 20
-90.941
 21
-91.024
  0
LINE
  8
0
 10
97.26
 11
97.2
 20
-91.024
 21
-91.104
  0
LINE
  8
0
 10
97.2
 11
97.138
 20
-91.104
 21
-91.181
  0
LINE
  8
0
 10
97.138
 11
97.072
 20
-91.181
 21
-91.256
  0
LINE
  8
0
 10
97.072
 11
97.003
 20
-91.256
 21
-91.327
  0
LINE
  8
0
 10
97.003
 11
96.931
 20
-91.327
 21
-91.396
  0
LINE
  8
0
 10
96.931
 11
96.856
 20
-91.396
 21
-91.461
  0
LINE
  8
0
 10
96.856
 11
96.778
 20
-91.461
 21
-91.524
  0
LINE
  8
0
 10
96.778
 11
96.697
 20
-91.524
 21
-91.581
  0
LINE
  8
0
 10
96.697
 11
96.615
 20
-91.581
 21
-91.636
  0
LINE
  8
0
 10
96.615
 11
96.529
 20
-91.636
 21
-91.687
  0
LINE
  8
0
 10
96.529
 11
96.441
 20
-91.687
 21
-91.735
  0
LINE
  8
0
 10
96.441
 11
96.352
 20
-91.735
 21
-91.778
  0
LINE
  8
0
 10
96.352
 11
96.26
 20
-91.778
 21
-91.817
  0
LINE
  8
0
 10
96.26
 11
96.167
 20
-91.817
 21
-91.852
  0
LINE
  8
0
 10
96.167
 11
96.073
 20
-91.852
 21
-91.883
  0
LINE
  8
0
 10
96.073
 11
95.976
 20
-91.883
 21
-91.91
  0
LINE
  8
0
 10
95.976
 11
95.88
 20
-91.91
 21
-91.934
  0
LINE
  8
0
 10
95.88
 11
95.782
 20
-91.934
 21
-91.951
  0
LINE
  8
0
 10
95.782
 11
95.683
 20
-91.951
 21
-91.966
  0
LINE
  8
0
 10
95.683
 11
95.585
 20
-91.966
 21
-91.975
  0
LINE
  8
0
 10
95.585
 11
95.484
 20
-91.975
 21
-91.98
  0
LINE
  8
0
 10
95.484
 11
95.385
 20
-91.98
 21
-91.981
  0
LINE
  8
0
 10
95.385
 11
95.286
 20
-91.981
 21
-91.976
  0
LINE
  8
0
 10
95.286
 11
95.186
 20
-91.976
 21
-91.969
  0
LINE
  8
0
 10
95.186
 11
95.087
 20
-91.969
 21
-91.956
  0
LINE
  8
0
 10
95.087
 11
94.99
 20
-91.956
 21
-91.939
  0
LINE
  8
0
 10
94.99
 11
94.892
 20
-91.939
 21
-91.919
  0
LINE
  8
0
 10
94.892
 11
94.796
 20
-91.919
 21
-91.893
  0
LINE
  8
0
 10
94.796
 11
94.701
 20
-91.893
 21
-91.864
  0
LINE
  8
0
 10
94.701
 11
94.607
 20
-91.864
 21
-91.829
  0
LINE
  8
0
 10
94.607
 11
94.515
 20
-91.829
 21
-91.791
  0
LINE
  8
0
 10
94.515
 11
94.425
 20
-91.791
 21
-91.749
  0
LINE
  8
0
 10
94.425
 11
94.337
 20
-91.749
 21
-91.703
  0
LINE
  8
0
 10
94.337
 11
94.25
 20
-91.703
 21
-91.653
  0
LINE
  8
0
 10
94.25
 11
94.167
 20
-91.653
 21
-91.6
  0
LINE
  8
0
 10
94.167
 11
94.085
 20
-91.6
 21
-91.543
  0
LINE
  8
0
 10
94.085
 11
94.006
 20
-91.543
 21
-91.482
  0
LINE
  8
0
 10
94.006
 11
93.93
 20
-91.482
 21
-91.419
  0
LINE
  8
0
 10
93.93
 11
93.857
 20
-91.419
 21
-91.351
  0
LINE
  8
0
 10
93.857
 11
93.787
 20
-91.351
 21
-91.281
  0
LINE
  8
0
 10
93.787
 11
93.72
 20
-91.281
 21
-91.206
  0
LINE
  8
0
 10
93.72
 11
93.656
 20
-91.206
 21
-91.13
  0
LINE
  8
0
 10
93.656
 11
93.596
 20
-91.13
 21
-91.051
  0
LINE
  8
0
 10
93.596
 11
93.54
 20
-91.051
 21
-90.968
  0
LINE
  8
0
 10
93.54
 11
93.487
 20
-90.968
 21
-90.885
  0
LINE
  8
0
 10
93.487
 11
93.437
 20
-90.885
 21
-90.798
  0
LINE
  8
0
 10
93.437
 11
93.392
 20
-90.798
 21
-90.709
  0
LINE
  8
0
 10
93.392
 11
93.35
 20
-90.709
 21
-90.619
  0
LINE
  8
0
 10
93.35
 11
93.314
 20
-90.619
 21
-90.526
  0
LINE
  8
0
 10
93.314
 11
93.28
 20
-90.526
 21
-90.433
  0
LINE
  8
0
 10
93.28
 11
93.252
 20
-90.433
 21
-90.337
  0
LINE
  8
0
 10
93.252
 11
93.227
 20
-90.337
 21
-90.24
  0
LINE
  8
0
 10
93.227
 11
93.207
 20
-90.24
 21
-90.143
  0
LINE
  8
0
 10
93.207
 11
93.191
 20
-90.143
 21
-90.045
  0
LINE
  8
0
 10
93.191
 11
93.179
 20
-90.045
 21
-89.946
  0
LINE
  8
0
 10
93.179
 11
93.171
 20
-89.946
 21
-89.847
  0
LINE
  8
0
 10
93.171
 11
93.169
 20
-89.847
 21
-89.747
  0
LINE
  8
0
 10
112.544
 11
112.545
 20
-52.183
 21
-52.082
  0
LINE
  8
0
 10
112.545
 11
112.551
 20
-52.082
 21
-51.983
  0
LINE
  8
0
 10
112.551
 11
112.563
 20
-51.983
 21
-51.885
  0
LINE
  8
0
 10
112.563
 11
112.579
 20
-51.885
 21
-51.785
  0
LINE
  8
0
 10
112.579
 11
112.601
 20
-51.785
 21
-51.688
  0
LINE
  8
0
 10
112.601
 11
114.179
 20
-51.688
 21
-45.796
  0
LINE
  8
0
 10
114.179
 11
114.209
 20
-45.796
 21
-45.702
  0
LINE
  8
0
 10
114.209
 11
114.245
 20
-45.702
 21
-45.608
  0
LINE
  8
0
 10
114.245
 11
114.284
 20
-45.608
 21
-45.517
  0
LINE
  8
0
 10
114.284
 11
114.328
 20
-45.517
 21
-45.427
  0
LINE
  8
0
 10
114.328
 11
114.378
 20
-45.427
 21
-45.34
  0
LINE
  8
0
 10
114.378
 11
114.43
 20
-45.34
 21
-45.256
  0
LINE
  8
0
 10
114.43
 11
114.487
 20
-45.256
 21
-45.174
  0
LINE
  8
0
 10
114.487
 11
114.549
 20
-45.174
 21
-45.095
  0
LINE
  8
0
 10
114.549
 11
114.613
 20
-45.095
 21
-45.02
  0
LINE
  8
0
 10
114.613
 11
114.682
 20
-45.02
 21
-44.948
  0
LINE
  8
0
 10
114.682
 11
114.755
 20
-44.948
 21
-44.879
  0
LINE
  8
0
 10
114.755
 11
114.83
 20
-44.879
 21
-44.814
  0
LINE
  8
0
 10
114.83
 11
114.908
 20
-44.814
 21
-44.753
  0
LINE
  8
0
 10
114.908
 11
114.99
 20
-44.753
 21
-44.696
  0
LINE
  8
0
 10
114.99
 11
115.075
 20
-44.696
 21
-44.642
  0
LINE
  8
0
 10
115.075
 11
115.162
 20
-44.642
 21
-44.593
  0
LINE
  8
0
 10
115.162
 11
115.251
 20
-44.593
 21
-44.549
  0
LINE
  8
0
 10
115.251
 11
115.342
 20
-44.549
 21
-44.509
  0
LINE
  8
0
 10
115.342
 11
115.435
 20
-44.509
 21
-44.474
  0
LINE
  8
0
 10
115.435
 11
115.531
 20
-44.474
 21
-44.443
  0
LINE
  8
0
 10
115.531
 11
115.627
 20
-44.443
 21
-44.418
  0
LINE
  8
0
 10
115.627
 11
115.725
 20
-44.418
 21
-44.396
  0
LINE
  8
0
 10
115.725
 11
115.823
 20
-44.396
 21
-44.38
  0
LINE
  8
0
 10
115.823
 11
115.923
 20
-44.38
 21
-44.37
  0
LINE
  8
0
 10
115.923
 11
116.021
 20
-44.37
 21
-44.363
  0
LINE
  8
0
 10
116.021
 11
116.121
 20
-44.363
 21
-44.362
  0
LINE
  8
0
 10
116.121
 11
116.221
 20
-44.362
 21
-44.367
  0
LINE
  8
0
 10
116.221
 11
116.321
 20
-44.367
 21
-44.374
  0
LINE
  8
0
 10
116.321
 11
116.419
 20
-44.374
 21
-44.388
  0
LINE
  8
0
 10
116.419
 11
116.517
 20
-44.388
 21
-44.406
  0
LINE
  8
0
 10
116.517
 11
116.615
 20
-44.406
 21
-44.43
  0
LINE
  8
0
 10
116.615
 11
116.711
 20
-44.43
 21
-44.457
  0
LINE
  8
0
 10
116.711
 11
116.804
 20
-44.457
 21
-44.492
  0
LINE
  8
0
 10
116.804
 11
116.896
 20
-44.492
 21
-44.528
  0
LINE
  8
0
 10
116.896
 11
116.986
 20
-44.528
 21
-44.572
  0
LINE
  8
0
 10
116.986
 11
117.075
 20
-44.572
 21
-44.617
  0
LINE
  8
0
 10
117.075
 11
117.161
 20
-44.617
 21
-44.669
  0
LINE
  8
0
 10
117.161
 11
117.244
 20
-44.669
 21
-44.724
  0
LINE
  8
0
 10
117.244
 11
117.324
 20
-44.724
 21
-44.783
  0
LINE
  8
0
 10
117.324
 11
117.402
 20
-44.783
 21
-44.846
  0
LINE
  8
0
 10
117.402
 11
117.475
 20
-44.846
 21
-44.913
  0
LINE
  8
0
 10
117.475
 11
117.546
 20
-44.913
 21
-44.982
  0
LINE
  8
0
 10
117.546
 11
117.613
 20
-44.982
 21
-45.058
  0
LINE
  8
0
 10
117.613
 11
117.676
 20
-45.058
 21
-45.135
  0
LINE
  8
0
 10
117.676
 11
117.735
 20
-45.135
 21
-45.215
  0
LINE
  8
0
 10
117.735
 11
117.79
 20
-45.215
 21
-45.298
  0
LINE
  8
0
 10
117.79
 11
117.841
 20
-45.298
 21
-45.384
  0
LINE
  8
0
 10
117.841
 11
117.888
 20
-45.384
 21
-45.472
  0
LINE
  8
0
 10
117.888
 11
117.93
 20
-45.472
 21
-45.562
  0
LINE
  8
0
 10
117.93
 11
117.967
 20
-45.562
 21
-45.655
  0
LINE
  8
0
 10
117.967
 11
118
 20
-45.655
 21
-45.748
  0
LINE
  8
0
 10
118
 11
118.029
 20
-45.748
 21
-45.844
  0
LINE
  8
0
 10
118.029
 11
118.052
 20
-45.844
 21
-45.942
  0
LINE
  8
0
 10
118.052
 11
118.07
 20
-45.942
 21
-46.038
  0
LINE
  8
0
 10
118.07
 11
118.085
 20
-46.038
 21
-46.138
  0
LINE
  8
0
 10
118.085
 11
118.093
 20
-46.138
 21
-46.237
  0
LINE
  8
0
 10
118.093
 11
118.097
 20
-46.237
 21
-46.336
  0
LINE
  8
0
 10
118.097
 11
118.095
 20
-46.336
 21
-46.437
  0
LINE
  8
0
 10
118.095
 11
118.09
 20
-46.437
 21
-46.537
  0
LINE
  8
0
 10
118.09
 11
118.077
 20
-46.537
 21
-46.634
  0
LINE
  8
0
 10
118.077
 11
118.061
 20
-46.634
 21
-46.734
  0
LINE
  8
0
 10
118.061
 11
118.04
 20
-46.734
 21
-46.831
  0
LINE
  8
0
 10
118.04
 11
116.461
 20
-46.831
 21
-52.723
  0
LINE
  8
0
 10
116.461
 11
116.431
 20
-52.723
 21
-52.818
  0
LINE
  8
0
 10
116.431
 11
116.395
 20
-52.818
 21
-52.911
  0
LINE
  8
0
 10
116.395
 11
116.357
 20
-52.911
 21
-53.002
  0
LINE
  8
0
 10
116.357
 11
116.312
 20
-53.002
 21
-53.092
  0
LINE
  8
0
 10
116.312
 11
116.263
 20
-53.092
 21
-53.179
  0
LINE
  8
0
 10
116.263
 11
116.211
 20
-53.179
 21
-53.263
  0
LINE
  8
0
 10
116.211
 11
116.153
 20
-53.263
 21
-53.345
  0
LINE
  8
0
 10
116.153
 11
116.091
 20
-53.345
 21
-53.424
  0
LINE
  8
0
 10
116.091
 11
116.027
 20
-53.424
 21
-53.499
  0
LINE
  8
0
 10
116.027
 11
115.958
 20
-53.499
 21
-53.571
  0
LINE
  8
0
 10
115.958
 11
115.886
 20
-53.571
 21
-53.64
  0
LINE
  8
0
 10
115.886
 11
115.81
 20
-53.64
 21
-53.705
  0
LINE
  8
0
 10
115.81
 11
115.732
 20
-53.705
 21
-53.766
  0
LINE
  8
0
 10
115.732
 11
115.651
 20
-53.766
 21
-53.823
  0
LINE
  8
0
 10
115.651
 11
115.565
 20
-53.823
 21
-53.877
  0
LINE
  8
0
 10
115.565
 11
115.478
 20
-53.877
 21
-53.926
  0
LINE
  8
0
 10
115.478
 11
115.389
 20
-53.926
 21
-53.97
  0
LINE
  8
0
 10
115.389
 11
115.298
 20
-53.97
 21
-54.01
  0
LINE
  8
0
 10
115.298
 11
115.205
 20
-54.01
 21
-54.045
  0
LINE
  8
0
 10
115.205
 11
115.109
 20
-54.045
 21
-54.077
  0
LINE
  8
0
 10
115.109
 11
115.013
 20
-54.077
 21
-54.101
  0
LINE
  8
0
 10
115.013
 11
114.915
 20
-54.101
 21
-54.123
  0
LINE
  8
0
 10
114.915
 11
114.817
 20
-54.123
 21
-54.139
  0
LINE
  8
0
 10
114.817
 11
114.718
 20
-54.139
 21
-54.149
  0
LINE
  8
0
 10
114.718
 11
114.619
 20
-54.149
 21
-54.156
  0
LINE
  8
0
 10
114.619
 11
114.519
 20
-54.156
 21
-54.157
  0
LINE
  8
0
 10
114.519
 11
114.419
 20
-54.157
 21
-54.153
  0
LINE
  8
0
 10
114.419
 11
114.32
 20
-54.153
 21
-54.145
  0
LINE
  8
0
 10
114.32
 11
114.221
 20
-54.145
 21
-54.131
  0
LINE
  8
0
 10
114.221
 11
114.123
 20
-54.131
 21
-54.113
  0
LINE
  8
0
 10
114.123
 11
114.026
 20
-54.113
 21
-54.09
  0
LINE
  8
0
 10
114.026
 11
113.93
 20
-54.09
 21
-54.062
  0
LINE
  8
0
 10
113.93
 11
113.836
 20
-54.062
 21
-54.028
  0
LINE
  8
0
 10
113.836
 11
113.744
 20
-54.028
 21
-53.992
  0
LINE
  8
0
 10
113.744
 11
113.654
 20
-53.992
 21
-53.948
  0
LINE
  8
0
 10
113.654
 11
113.565
 20
-53.948
 21
-53.902
  0
LINE
  8
0
 10
113.565
 11
113.479
 20
-53.902
 21
-53.85
  0
LINE
  8
0
 10
113.479
 11
113.397
 20
-53.85
 21
-53.795
  0
LINE
  8
0
 10
113.397
 11
113.316
 20
-53.795
 21
-53.736
  0
LINE
  8
0
 10
113.316
 11
113.239
 20
-53.736
 21
-53.673
  0
LINE
  8
0
 10
113.239
 11
113.165
 20
-53.673
 21
-53.606
  0
LINE
  8
0
 10
113.165
 11
113.094
 20
-53.606
 21
-53.537
  0
LINE
  8
0
 10
113.094
 11
113.027
 20
-53.537
 21
-53.461
  0
LINE
  8
0
 10
113.027
 11
112.964
 20
-53.461
 21
-53.384
  0
LINE
  8
0
 10
112.964
 11
112.905
 20
-53.384
 21
-53.304
  0
LINE
  8
0
 10
112.905
 11
112.85
 20
-53.304
 21
-53.221
  0
LINE
  8
0
 10
112.85
 11
112.799
 20
-53.221
 21
-53.136
  0
LINE
  8
0
 10
112.799
 11
112.752
 20
-53.136
 21
-53.047
  0
LINE
  8
0
 10
112.752
 11
112.71
 20
-53.047
 21
-52.957
  0
LINE
  8
0
 10
112.71
 11
112.673
 20
-52.957
 21
-52.864
  0
LINE
  8
0
 10
112.673
 11
112.64
 20
-52.864
 21
-52.771
  0
LINE
  8
0
 10
112.64
 11
112.612
 20
-52.771
 21
-52.675
  0
LINE
  8
0
 10
112.612
 11
112.588
 20
-52.675
 21
-52.577
  0
LINE
  8
0
 10
112.588
 11
112.57
 20
-52.577
 21
-52.481
  0
LINE
  8
0
 10
112.57
 11
112.556
 20
-52.481
 21
-52.382
  0
LINE
  8
0
 10
112.556
 11
112.547
 20
-52.382
 21
-52.282
  0
LINE
  8
0
 10
112.547
 11
112.544
 20
-52.282
 21
-52.183
  0
LINE
  8
0
 10
123.169
 11
123.17
 20
-37.786
 21
-37.686
  0
LINE
  8
0
 10
123.17
 11
123.176
 20
-37.686
 21
-37.587
  0
LINE
  8
0
 10
123.176
 11
123.186
 20
-37.587
 21
-37.488
  0
LINE
  8
0
 10
123.186
 11
123.201
 20
-37.488
 21
-37.39
  0
LINE
  8
0
 10
123.201
 11
123.219
 20
-37.39
 21
-37.292
  0
LINE
  8
0
 10
123.219
 11
123.243
 20
-37.292
 21
-37.195
  0
LINE
  8
0
 10
123.243
 11
123.27
 20
-37.195
 21
-37.1
  0
LINE
  8
0
 10
123.27
 11
123.302
 20
-37.1
 21
-37.005
  0
LINE
  8
0
 10
123.302
 11
123.338
 20
-37.005
 21
-36.912
  0
LINE
  8
0
 10
123.338
 11
123.378
 20
-36.912
 21
-36.821
  0
LINE
  8
0
 10
123.378
 11
123.421
 20
-36.821
 21
-36.732
  0
LINE
  8
0
 10
123.421
 11
123.47
 20
-36.732
 21
-36.644
  0
LINE
  8
0
 10
123.47
 11
123.521
 20
-36.644
 21
-36.559
  0
LINE
  8
0
 10
123.521
 11
123.577
 20
-36.559
 21
-36.476
  0
LINE
  8
0
 10
123.577
 11
123.636
 20
-36.476
 21
-36.396
  0
LINE
  8
0
 10
123.636
 11
123.698
 20
-36.396
 21
-36.319
  0
LINE
  8
0
 10
123.698
 11
123.764
 20
-36.319
 21
-36.244
  0
LINE
  8
0
 10
123.764
 11
123.833
 20
-36.244
 21
-36.173
  0
LINE
  8
0
 10
123.833
 11
123.905
 20
-36.173
 21
-36.104
  0
LINE
  8
0
 10
123.905
 11
123.981
 20
-36.104
 21
-36.039
  0
LINE
  8
0
 10
123.981
 11
124.059
 20
-36.039
 21
-35.976
  0
LINE
  8
0
 10
124.059
 11
124.139
 20
-35.976
 21
-35.919
  0
LINE
  8
0
 10
124.139
 11
124.222
 20
-35.919
 21
-35.864
  0
LINE
  8
0
 10
124.222
 11
124.308
 20
-35.864
 21
-35.813
  0
LINE
  8
0
 10
124.308
 11
124.395
 20
-35.813
 21
-35.765
  0
LINE
  8
0
 10
124.395
 11
124.485
 20
-35.765
 21
-35.722
  0
LINE
  8
0
 10
124.485
 11
124.577
 20
-35.722
 21
-35.683
  0
LINE
  8
0
 10
124.577
 11
124.67
 20
-35.683
 21
-35.648
  0
LINE
  8
0
 10
124.67
 11
124.764
 20
-35.648
 21
-35.617
  0
LINE
  8
0
 10
124.764
 11
124.86
 20
-35.617
 21
-35.59
  0
LINE
  8
0
 10
124.86
 11
124.957
 20
-35.59
 21
-35.566
  0
LINE
  8
0
 10
124.957
 11
125.055
 20
-35.566
 21
-35.549
  0
LINE
  8
0
 10
125.055
 11
125.153
 20
-35.549
 21
-35.534
  0
LINE
  8
0
 10
125.153
 11
125.252
 20
-35.534
 21
-35.525
  0
LINE
  8
0
 10
125.252
 11
125.352
 20
-35.525
 21
-35.52
  0
LINE
  8
0
 10
125.352
 11
125.452
 20
-35.52
 21
-35.519
  0
LINE
  8
0
 10
125.452
 11
125.551
 20
-35.519
 21
-35.524
  0
LINE
  8
0
 10
125.551
 11
125.65
 20
-35.524
 21
-35.531
  0
LINE
  8
0
 10
125.65
 11
125.749
 20
-35.531
 21
-35.544
  0
LINE
  8
0
 10
125.749
 11
125.847
 20
-35.544
 21
-35.561
  0
LINE
  8
0
 10
125.847
 11
125.945
 20
-35.561
 21
-35.581
  0
LINE
  8
0
 10
125.945
 11
126.041
 20
-35.581
 21
-35.607
  0
LINE
  8
0
 10
126.041
 11
126.136
 20
-35.607
 21
-35.636
  0
LINE
  8
0
 10
126.136
 11
126.229
 20
-35.636
 21
-35.671
  0
LINE
  8
0
 10
126.229
 11
126.321
 20
-35.671
 21
-35.709
  0
LINE
  8
0
 10
126.321
 11
126.412
 20
-35.709
 21
-35.751
  0
LINE
  8
0
 10
126.412
 11
126.499
 20
-35.751
 21
-35.797
  0
LINE
  8
0
 10
126.499
 11
126.586
 20
-35.797
 21
-35.847
  0
LINE
  8
0
 10
126.586
 11
126.67
 20
-35.847
 21
-35.9
  0
LINE
  8
0
 10
126.67
 11
126.751
 20
-35.9
 21
-35.957
  0
LINE
  8
0
 10
126.751
 11
126.83
 20
-35.957
 21
-36.018
  0
LINE
  8
0
 10
126.83
 11
126.907
 20
-36.018
 21
-36.081
  0
LINE
  8
0
 10
126.907
 11
126.98
 20
-36.081
 21
-36.149
  0
LINE
  8
0
 10
126.98
 11
127.05
 20
-36.149
 21
-36.219
  0
LINE
  8
0
 10
127.05
 11
127.117
 20
-36.219
 21
-36.294
  0
LINE
  8
0
 10
127.117
 11
127.18
 20
-36.294
 21
-36.37
  0
LINE
  8
0
 10
127.18
 11
127.24
 20
-36.37
 21
-36.449
  0
LINE
  8
0
 10
127.24
 11
127.297
 20
-36.449
 21
-36.532
  0
LINE
  8
0
 10
127.297
 11
127.35
 20
-36.532
 21
-36.615
  0
LINE
  8
0
 10
127.35
 11
127.399
 20
-36.615
 21
-36.702
  0
LINE
  8
0
 10
127.399
 11
127.445
 20
-36.702
 21
-36.791
  0
LINE
  8
0
 10
127.445
 11
127.486
 20
-36.791
 21
-36.881
  0
LINE
  8
0
 10
127.486
 11
127.523
 20
-36.881
 21
-36.974
  0
LINE
  8
0
 10
127.523
 11
127.557
 20
-36.974
 21
-37.067
  0
LINE
  8
0
 10
127.557
 11
127.584
 20
-37.067
 21
-37.163
  0
LINE
  8
0
 10
127.584
 11
127.61
 20
-37.163
 21
-37.26
  0
LINE
  8
0
 10
127.61
 11
127.63
 20
-37.26
 21
-37.357
  0
LINE
  8
0
 10
127.63
 11
127.646
 20
-37.357
 21
-37.455
  0
LINE
  8
0
 10
127.646
 11
127.658
 20
-37.455
 21
-37.554
  0
LINE
  8
0
 10
127.658
 11
127.665
 20
-37.554
 21
-37.653
  0
LINE
  8
0
 10
127.665
 11
127.668
 20
-37.653
 21
-37.753
  0
LINE
  8
0
 10
127.668
 11
127.667
 20
-37.753
 21
-37.853
  0
LINE
  8
0
 10
127.667
 11
127.66
 20
-37.853
 21
-37.952
  0
LINE
  8
0
 10
127.66
 11
127.651
 20
-37.952
 21
-38.05
  0
LINE
  8
0
 10
127.651
 11
127.636
 20
-38.05
 21
-38.149
  0
LINE
  8
0
 10
127.636
 11
127.617
 20
-38.149
 21
-38.247
  0
LINE
  8
0
 10
127.617
 11
127.593
 20
-38.247
 21
-38.344
  0
LINE
  8
0
 10
127.593
 11
127.566
 20
-38.344
 21
-38.439
  0
LINE
  8
0
 10
127.566
 11
127.534
 20
-38.439
 21
-38.534
  0
LINE
  8
0
 10
127.534
 11
127.498
 20
-38.534
 21
-38.626
  0
LINE
  8
0
 10
127.498
 11
127.459
 20
-38.626
 21
-38.717
  0
LINE
  8
0
 10
127.459
 11
127.415
 20
-38.717
 21
-38.807
  0
LINE
  8
0
 10
127.415
 11
127.367
 20
-38.807
 21
-38.894
  0
LINE
  8
0
 10
127.367
 11
127.315
 20
-38.894
 21
-38.98
  0
LINE
  8
0
 10
127.315
 11
127.26
 20
-38.98
 21
-39.062
  0
LINE
  8
0
 10
127.26
 11
127.2
 20
-39.062
 21
-39.142
  0
LINE
  8
0
 10
127.2
 11
127.138
 20
-39.142
 21
-39.22
  0
LINE
  8
0
 10
127.138
 11
127.072
 20
-39.22
 21
-39.295
  0
LINE
  8
0
 10
127.072
 11
127.003
 20
-39.295
 21
-39.366
  0
LINE
  8
0
 10
127.003
 11
126.931
 20
-39.366
 21
-39.435
  0
LINE
  8
0
 10
126.931
 11
126.856
 20
-39.435
 21
-39.5
  0
LINE
  8
0
 10
126.856
 11
126.778
 20
-39.5
 21
-39.562
  0
LINE
  8
0
 10
126.778
 11
126.697
 20
-39.562
 21
-39.62
  0
LINE
  8
0
 10
126.697
 11
126.615
 20
-39.62
 21
-39.675
  0
LINE
  8
0
 10
126.615
 11
126.529
 20
-39.675
 21
-39.726
  0
LINE
  8
0
 10
126.529
 11
126.441
 20
-39.726
 21
-39.773
  0
LINE
  8
0
 10
126.441
 11
126.352
 20
-39.773
 21
-39.816
  0
LINE
  8
0
 10
126.352
 11
126.26
 20
-39.816
 21
-39.856
  0
LINE
  8
0
 10
126.26
 11
126.167
 20
-39.856
 21
-39.891
  0
LINE
  8
0
 10
126.167
 11
126.073
 20
-39.891
 21
-39.922
  0
LINE
  8
0
 10
126.073
 11
125.976
 20
-39.922
 21
-39.948
  0
LINE
  8
0
 10
125.976
 11
125.88
 20
-39.948
 21
-39.972
  0
LINE
  8
0
 10
125.88
 11
125.782
 20
-39.972
 21
-39.989
  0
LINE
  8
0
 10
125.782
 11
125.683
 20
-39.989
 21
-40.004
  0
LINE
  8
0
 10
125.683
 11
125.585
 20
-40.004
 21
-40.013
  0
LINE
  8
0
 10
125.585
 11
125.484
 20
-40.013
 21
-40.019
  0
LINE
  8
0
 10
125.484
 11
125.385
 20
-40.019
 21
-40.019
  0
LINE
  8
0
 10
125.385
 11
125.286
 20
-40.019
 21
-40.015
  0
LINE
  8
0
 10
125.286
 11
125.186
 20
-40.015
 21
-40.007
  0
LINE
  8
0
 10
125.186
 11
125.087
 20
-40.007
 21
-39.995
  0
LINE
  8
0
 10
125.087
 11
124.99
 20
-39.995
 21
-39.978
  0
LINE
  8
0
 10
124.99
 11
124.892
 20
-39.978
 21
-39.957
  0
LINE
  8
0
 10
124.892
 11
124.796
 20
-39.957
 21
-39.932
  0
LINE
  8
0
 10
124.796
 11
124.701
 20
-39.932
 21
-39.902
  0
LINE
  8
0
 10
124.701
 11
124.607
 20
-39.902
 21
-39.868
  0
LINE
  8
0
 10
124.607
 11
124.515
 20
-39.868
 21
-39.83
  0
LINE
  8
0
 10
124.515
 11
124.425
 20
-39.83
 21
-39.788
  0
LINE
  8
0
 10
124.425
 11
124.337
 20
-39.788
 21
-39.742
  0
LINE
  8
0
 10
124.337
 11
124.25
 20
-39.742
 21
-39.692
  0
LINE
  8
0
 10
124.25
 11
124.167
 20
-39.692
 21
-39.639
  0
LINE
  8
0
 10
124.167
 11
124.085
 20
-39.639
 21
-39.582
  0
LINE
  8
0
 10
124.085
 11
124.006
 20
-39.582
 21
-39.521
  0
LINE
  8
0
 10
124.006
 11
123.93
 20
-39.521
 21
-39.457
  0
LINE
  8
0
 10
123.93
 11
123.857
 20
-39.457
 21
-39.39
  0
LINE
  8
0
 10
123.857
 11
123.787
 20
-39.39
 21
-39.319
  0
LINE
  8
0
 10
123.787
 11
123.72
 20
-39.319
 21
-39.245
  0
LINE
  8
0
 10
123.72
 11
123.656
 20
-39.245
 21
-39.169
  0
LINE
  8
0
 10
123.656
 11
123.596
 20
-39.169
 21
-39.089
  0
LINE
  8
0
 10
123.596
 11
123.54
 20
-39.089
 21
-39.007
  0
LINE
  8
0
 10
123.54
 11
123.487
 20
-39.007
 21
-38.923
  0
LINE
  8
0
 10
123.487
 11
123.437
 20
-38.923
 21
-38.837
  0
LINE
  8
0
 10
123.437
 11
123.392
 20
-38.837
 21
-38.747
  0
LINE
  8
0
 10
123.392
 11
123.35
 20
-38.747
 21
-38.657
  0
LINE
  8
0
 10
123.35
 11
123.314
 20
-38.657
 21
-38.564
  0
LINE
  8
0
 10
123.314
 11
123.28
 20
-38.564
 21
-38.471
  0
LINE
  8
0
 10
123.28
 11
123.252
 20
-38.471
 21
-38.375
  0
LINE
  8
0
 10
123.252
 11
123.227
 20
-38.375
 21
-38.279
  0
LINE
  8
0
 10
123.227
 11
123.207
 20
-38.279
 21
-38.182
  0
LINE
  8
0
 10
123.207
 11
123.191
 20
-38.182
 21
-38.084
  0
LINE
  8
0
 10
123.191
 11
123.179
 20
-38.084
 21
-37.984
  0
LINE
  8
0
 10
123.179
 11
123.171
 20
-37.984
 21
-37.885
  0
LINE
  8
0
 10
123.171
 11
123.169
 20
-37.885
 21
-37.786
  0
ENDSEC
  0
SECTION
  2
OBJECTS
  0
DICTIONARY
  0
ENDSEC
  0
EOF
